<svg width="26" height="11" viewBox="0 0 26 11" fill="none" xmlns="http://www.w3.org/2000/svg">
<path d="M7.44102 8.36652H3.58059L2.77233 10.6839H0.974934L4.73928 0.724783H6.28798L10.058 10.6839H8.25493L7.44102 8.36652ZM4.06667 6.97043H6.95493L5.50798 2.8387L4.06667 6.97043ZM10.7242 6.92522C10.7242 5.78725 10.988 4.87348 11.5156 4.18391C12.0431 3.49058 12.7534 3.14391 13.6464 3.14391C14.4302 3.14391 15.0632 3.4171 15.5456 3.96348V0.176522H17.2073V10.6839H15.7038L15.619 9.91522C15.1216 10.5181 14.4585 10.8196 13.6295 10.8196C12.7628 10.8196 12.0619 10.471 11.5269 9.77391C10.9918 9.07681 10.7242 8.12725 10.7242 6.92522ZM12.386 7.07217C12.386 7.8258 12.5311 8.41362 12.8212 8.83565C13.1114 9.25768 13.5221 9.4687 14.0534 9.4687C14.7354 9.4687 15.2328 9.16536 15.5456 8.5587V5.39348C15.2403 4.80188 14.7486 4.50609 14.0703 4.50609C13.5315 4.50609 13.1151 4.71899 12.8212 5.14478C12.5311 5.57058 12.386 6.21304 12.386 7.07217ZM18.6334 6.92522C18.6334 5.78725 18.8972 4.87348 19.4247 4.18391C19.9523 3.49058 20.6626 3.14391 21.5556 3.14391C22.3394 3.14391 22.9724 3.4171 23.4547 3.96348V0.176522H25.1165V10.6839H23.613L23.5282 9.91522C23.0308 10.5181 22.3676 10.8196 21.5386 10.8196C20.672 10.8196 19.9711 10.471 19.436 9.77391C18.901 9.07681 18.6334 8.12725 18.6334 6.92522ZM20.2952 7.07217C20.2952 7.8258 20.4402 8.41362 20.7304 8.83565C21.0205 9.25768 21.4313 9.4687 21.9626 9.4687C22.6446 9.4687 23.142 9.16536 23.4547 8.5587V5.39348C23.1495 4.80188 22.6578 4.50609 21.9795 4.50609C21.4407 4.50609 21.0243 4.71899 20.7304 5.14478C20.4402 5.57058 20.2952 6.21304 20.2952 7.07217Z" fill="white"/>
</svg>
