<svg width="66" height="81" viewBox="0 0 66 81" fill="none" xmlns="http://www.w3.org/2000/svg">
<path d="M48.1041 0H48.6743C49.1323 5.67299 46.9738 9.91115 44.3513 12.9809C41.778 16.0296 38.2546 18.9857 32.5548 18.5373C32.175 12.9457 34.3365 9.02129 36.9549 5.95855C39.385 3.10496 43.8383 0.565087 48.1041 0Z" fill="#FEFEFE"/>
<path d="M65.3571 59.0674V59.2262C63.7558 64.0938 61.471 68.2656 58.6822 72.1368C56.1369 75.651 53.0184 80.3808 47.4488 80.3808C42.6368 80.3808 39.4401 77.2758 34.5078 77.1914C29.291 77.1069 26.422 79.7876 21.6521 80.4623H20.0257C16.5234 79.9535 13.6965 77.1703 11.6372 74.6626C5.56559 67.2521 0.872817 57.6798 0 45.4299V41.8302C0.36977 33.0633 4.61461 25.9353 10.2584 22.4805C13.2366 20.6434 17.3301 19.0789 21.8896 19.7787C23.8436 20.0824 25.8398 20.754 27.5884 21.4177C29.2469 22.0572 31.3202 23.1903 33.2843 23.131C34.6151 23.0918 35.9388 22.396 37.2796 21.9053C41.2078 20.4815 45.0598 18.8496 50.1354 19.6168C56.2361 20.5419 60.5661 23.2617 63.2417 27.4587C58.0809 30.7547 54.0014 35.7208 54.6979 44.2011C55.3172 51.9052 59.7815 56.4119 65.3571 59.0684V59.0674Z" fill="#FEFEFE"/>
</svg>
