<svg width="16" height="14" viewBox="0 0 16 14" fill="none" xmlns="http://www.w3.org/2000/svg">
<path d="M6.25 0L5.75 0C5.3125 0 5 0.34375 5 0.75L5 13.25C5 13.6875 5.3125 14 5.71875 14H6.25C6.65625 14 7 13.6875 7 13.25L7 0.75C7 0.34375 6.65625 0 6.25 0ZM3.46875 0C3.1875 0 3 0.25 3 0.5L3 13.5C2.96875 13.7812 3.21875 14 3.46875 14C3.71875 14 3.96875 13.7812 3.96875 13.5312L3.96875 0.5C3.96875 0.25 3.75 0 3.46875 0ZM1.25 0H0.75C0.3125 0 0 0.34375 0 0.75L0 13.25C0 13.6875 0.3125 14 0.71875 14H1.25C1.65625 14 2 13.6875 2 13.25L2 0.75C2 0.34375 1.65625 0 1.25 0ZM15.25 0H14.75C14.3125 0 14 0.34375 14 0.75L14 13.25C14 13.6875 14.3125 14 14.75 14H15.25C15.6562 14 16 13.6875 16 13.25L16 0.75C16 0.34375 15.6562 0 15.25 0ZM12.5 0C12.2188 0 12 0.25 12 0.5L12 13.5C12 13.7813 12.2187 14 12.5 14C12.75 14 13 13.7813 13 13.5L13 0.5C13 0.25 12.75 0 12.5 0ZM9.25 0L8.75 0C8.3125 0 8 0.34375 8 0.75L8 13.25C8 13.6875 8.3125 14 8.75 14H9.25C9.65625 14 10 13.6875 10 13.25L10 0.75C10 0.34375 9.65625 0 9.25 0Z" fill="url(#paint0_linear_1110_2)"/>
<defs>
<linearGradient id="paint0_linear_1110_2" x1="8" y1="-1" x2="8" y2="15" gradientUnits="userSpaceOnUse">
<stop stop-color="#0085FF"/>
<stop offset="1" stop-color="#FEB5FF"/>
</linearGradient>
</defs>
</svg>
