<svg width="208" height="88" viewBox="0 0 208 88" fill="none" xmlns="http://www.w3.org/2000/svg">
<g clip-path="url(#clip0_1161_2)">
<path d="M205.758 16.3518H96.4729V88.0149H205.758V16.3518Z" fill="#DBDBDB"/>
<path d="M208 83.9824H96.4729V87.9999H208V83.9824Z" fill="#18525C"/>
<g style="mix-blend-mode:multiply" opacity="0.3">
<path d="M101.016 16.3518H95.4929V88.0149H101.016V16.3518Z" fill="#787878"/>
</g>
<path d="M194.594 44.6819H155.339V88.0148H194.594V44.6819Z" fill="#B8B8B8"/>
<path d="M192.842 46.6981H157.091V88H192.842V46.6981Z" fill="#103940"/>
<g style="mix-blend-mode:multiply" opacity="0.3">
<path fill-rule="evenodd" clip-rule="evenodd" d="M157.091 46.6981H192.857V86.4138L157.091 50.5674V46.6981Z" fill="black"/>
</g>
<path d="M6.47314 0H1.27686V7.78302H6.47314V0Z" fill="#DBDBDB"/>
<path d="M96.4729 0H91.2766V7.78302H96.4729V0Z" fill="#DBDBDB"/>
<path d="M96.4729 5.39624H1.27686V88H96.4729V5.39624Z" fill="#EDEDED"/>
<path d="M96.4729 24.4906H1.27686V26.9812H96.4729V24.4906Z" fill="#38949C"/>
<path d="M49.1865 44.6819H4.7063V57.5498H49.1865V44.6819Z" fill="#DBDBDB"/>
<path d="M47.212 46.1792H6.68091V56.0377H47.212V46.1792Z" fill="#3CA2AB"/>
<path d="M16.6577 44.6819H14.9949V57.5498H16.6577V44.6819Z" fill="#DBDBDB"/>
<path d="M38.8977 44.6819H37.2349V57.5498H38.8977V44.6819Z" fill="#DBDBDB"/>
<path d="M96.4729 26.9811H1.27686V28.8045H96.4729V26.9811Z" fill="#DBDBDB"/>
<path d="M206.56 29.2642H96.4729V31.7547H206.56V29.2642Z" fill="#18525C"/>
<path d="M206.56 31.7548H96.4729V33.5634H206.56V31.7548Z" fill="#B8B8B8"/>
<path d="M149.787 44.6819H105.306V57.5498H149.787V44.6819Z" fill="#B8B8B8"/>
<path d="M147.812 46.1792H107.281V56.0377H147.812V46.1792Z" fill="#227482"/>
<path d="M117.258 44.6819H115.595V57.5498H117.258V44.6819Z" fill="#B8B8B8"/>
<path d="M139.498 44.6819H137.835V57.5498H139.498V44.6819Z" fill="#B8B8B8"/>
<g style="mix-blend-mode:multiply" opacity="0.3">
<path fill-rule="evenodd" clip-rule="evenodd" d="M96.4729 16.3518H112.863L184.765 88.0001H96.4729V16.3518Z" fill="#9C9C9C"/>
</g>
<path d="M97.7496 84.9609H0V88H97.7496V84.9609Z" fill="#227482"/>
<path d="M91.5733 44.6819H52.3191V88.0148H91.5733V44.6819Z" fill="#DBDBDB"/>
<path d="M89.8215 46.6981H54.071V88H89.8215V46.6981Z" fill="#227482"/>
<path d="M89.8215 59.6252H54.071V60.9743H89.8215V59.6252Z" fill="#18525C"/>
<path d="M72.6291 60.1442H71.2781V88.0148H72.6291V60.1442Z" fill="#18525C"/>
<path d="M69.9123 69.4838H69.3481V80.128H69.9123V69.4838Z" fill="#DBDBDB"/>
<path d="M74.5444 69.4838H73.9802V80.128H74.5444V69.4838Z" fill="#DBDBDB"/>
<g style="mix-blend-mode:multiply" opacity="0.3">
<path fill-rule="evenodd" clip-rule="evenodd" d="M54.071 46.6981H89.8215V86.4138L54.071 50.5674V46.6981Z" fill="black"/>
</g>
<path d="M191.684 50.1523H159.437V78.0971H191.684V50.1523Z" fill="#F7FBFA"/>
<path d="M190.437 79.5648H188.507C187.9 79.5648 187.408 80.056 187.408 80.6619V86.3694C187.408 86.9753 187.9 87.4664 188.507 87.4664H190.437C191.043 87.4664 191.535 86.9753 191.535 86.3694V80.6619C191.535 80.056 191.043 79.5648 190.437 79.5648Z" fill="#141414"/>
<path d="M160.684 79.5648H162.614C163.223 79.5648 163.713 80.054 163.713 80.6619V86.3694C163.713 86.9772 163.223 87.4664 162.614 87.4664H160.684C160.075 87.4664 159.585 86.9772 159.585 86.3694V80.6619C159.585 80.054 160.075 79.5648 160.684 79.5648Z" fill="#141414"/>
<path d="M191.431 62.0863H192.634C193.243 62.0863 193.733 62.5755 193.733 63.1833V67.5715C193.733 68.1793 193.243 68.6685 192.634 68.6685H191.417C190.808 68.6685 190.318 68.1793 190.318 67.5715V63.1833C190.318 62.5755 190.808 62.0863 191.417 62.0863H191.431Z" fill="black"/>
<path d="M191.268 63.3315H188.625V63.8801H191.268V63.3315Z" fill="black"/>
<path d="M191.268 66.8746H188.625V67.4231H191.268V66.8746Z" fill="black"/>
<path d="M159.704 62.0863H158.487C157.88 62.0863 157.388 62.5775 157.388 63.1833V67.5863C157.388 68.1922 157.88 68.6833 158.487 68.6833H159.704C160.311 68.6833 160.803 68.1922 160.803 67.5863V63.1833C160.803 62.5775 160.311 62.0863 159.704 62.0863Z" fill="black"/>
<path d="M162.495 63.3315H159.853V63.8801H162.495V63.3315Z" fill="black"/>
<path d="M162.495 66.8746H159.853V67.4231H162.495V66.8746Z" fill="black"/>
<path fill-rule="evenodd" clip-rule="evenodd" d="M165.658 55.0446H185.478C187.779 55.0446 189.546 56.9273 189.664 59.2251L190.704 81.6699C190.808 83.9677 188.818 85.8505 186.517 85.8505H164.618C162.317 85.8505 160.328 83.9677 160.432 81.6699L161.471 59.2251C161.575 56.9273 163.356 55.0446 165.658 55.0446Z" fill="#008488"/>
<path fill-rule="evenodd" clip-rule="evenodd" d="M164.648 61.2413H186.354C187.378 61.2413 188.135 62.0715 188.195 63.0648L188.581 69.0836C188.64 70.1214 187.749 70.9516 186.74 70.9516H164.262C163.253 70.9516 162.347 70.1214 162.421 69.0836L162.807 63.0648C162.867 62.0715 163.639 61.2413 164.648 61.2413Z" fill="black"/>
<path fill-rule="evenodd" clip-rule="evenodd" d="M164.648 61.6564H186.354C187.141 61.6564 187.734 62.2938 187.779 63.0796L188.165 69.0984C188.21 69.8841 187.527 70.5216 186.74 70.5216H164.262C163.475 70.5216 162.777 69.8841 162.837 69.0984L163.223 63.0796C163.267 62.2938 163.861 61.6564 164.648 61.6564Z" fill="#424242"/>
<path d="M188.343 73.0419H162.659V74.1389H188.343V73.0419Z" fill="black"/>
<path d="M188.343 74.9542H162.659V76.0513H188.343V74.9542Z" fill="black"/>
<path d="M188.343 76.8815H162.659V77.9785H188.343V76.8815Z" fill="black"/>
<path fill-rule="evenodd" clip-rule="evenodd" d="M163.891 61.4933H187.111C187.735 61.4933 188.239 61.9973 188.239 62.62C188.239 63.2426 187.735 63.7467 187.111 63.7467H163.891C163.267 63.7467 162.763 63.2426 162.763 62.62C162.763 61.9973 163.267 61.4933 163.891 61.4933Z" fill="black"/>
<path fill-rule="evenodd" clip-rule="evenodd" d="M171.685 84.2791H179.435C180.341 84.2791 181.024 83.5823 181.068 82.7373L181.261 78.7791H169.844L170.037 82.7373C170.082 83.5823 170.78 84.2791 171.671 84.2791H171.685Z" fill="#424242"/>
<path fill-rule="evenodd" clip-rule="evenodd" d="M169.889 79.5203H181.232L181.187 80.4098H169.933L169.889 79.5203Z" fill="black"/>
<path fill-rule="evenodd" clip-rule="evenodd" d="M169.963 81.0769H181.157L181.113 81.9812H170.008L169.963 81.0769Z" fill="black"/>
<path fill-rule="evenodd" clip-rule="evenodd" d="M170.052 82.6631H181.083V82.7372C181.068 83.0337 180.964 83.3154 180.816 83.5526H170.334C170.171 83.3154 170.082 83.0337 170.067 82.7372V82.6631H170.052Z" fill="black"/>
<path fill-rule="evenodd" clip-rule="evenodd" d="M167.499 59.7144C167.35 59.9219 165.717 59.151 164.782 58.6618C164.277 58.4098 164.01 58.0244 163.965 57.6982C163.832 56.6457 164.871 55.9637 165.851 56.5122C166.979 57.1349 167.914 59.1214 167.499 59.7144Z" fill="#02AAB0"/>
<path fill-rule="evenodd" clip-rule="evenodd" d="M165.272 58.5432C165.821 58.5432 166.252 58.0984 166.252 57.5647C166.252 57.0311 165.806 56.5863 165.272 56.5863C164.737 56.5863 164.292 57.0311 164.292 57.5647C164.292 58.0984 164.737 58.5432 165.272 58.5432Z" fill="#04C0C7"/>
<path fill-rule="evenodd" clip-rule="evenodd" d="M166.682 59.2845C167.009 59.2845 167.261 59.0177 167.261 58.7063C167.261 58.395 166.994 58.1282 166.682 58.1282C166.371 58.1282 166.103 58.395 166.103 58.7063C166.103 59.0177 166.371 59.2845 166.682 59.2845Z" fill="#04C0C7"/>
<path fill-rule="evenodd" clip-rule="evenodd" d="M183.622 59.7144C183.771 59.9219 185.404 59.151 186.339 58.6618C186.844 58.4098 187.111 58.0244 187.156 57.6982C187.289 56.6457 186.25 55.9637 185.27 56.5122C184.142 57.1349 183.206 59.1214 183.622 59.7144Z" fill="#02AAB0"/>
<path fill-rule="evenodd" clip-rule="evenodd" d="M185.849 58.5432C186.398 58.5432 186.829 58.0984 186.829 57.5647C186.829 57.0311 186.383 56.5863 185.849 56.5863C185.315 56.5863 184.869 57.0311 184.869 57.5647C184.869 58.0984 185.315 58.5432 185.849 58.5432Z" fill="#04C0C7"/>
<path fill-rule="evenodd" clip-rule="evenodd" d="M184.439 59.2845C184.765 59.2845 185.018 59.0177 185.018 58.7063C185.018 58.395 184.75 58.1282 184.439 58.1282C184.127 58.1282 183.86 58.395 183.86 58.7063C183.86 59.0177 184.127 59.2845 184.439 59.2845Z" fill="#04C0C7"/>
<path fill-rule="evenodd" clip-rule="evenodd" d="M163.401 79.965L167.796 80.5877C168.196 80.647 168.523 80.9138 168.523 81.3141V81.8774C168.523 82.2777 168.196 82.6039 167.796 82.6039H163.401C163 82.6039 162.674 82.2777 162.674 81.8774V80.6915C162.674 80.2912 163.015 79.9057 163.401 79.965Z" fill="#02AAB0"/>
<path fill-rule="evenodd" clip-rule="evenodd" d="M164.025 82.4704C164.633 82.4704 165.138 81.9664 165.138 81.3586C165.138 80.7507 164.633 80.2467 164.025 80.2467C163.416 80.2467 162.911 80.7507 162.911 81.3586C162.911 81.9664 163.416 82.4704 164.025 82.4704Z" fill="#04C0C7"/>
<path fill-rule="evenodd" clip-rule="evenodd" d="M167.528 82.3666C167.959 82.3666 168.3 82.0108 168.3 81.5957C168.3 81.1806 167.944 80.8248 167.528 80.8248C167.113 80.8248 166.756 81.1658 166.756 81.5957C166.756 82.0256 167.098 82.3666 167.528 82.3666Z" fill="#04C0C7"/>
<path fill-rule="evenodd" clip-rule="evenodd" d="M187.616 79.965L183.221 80.5877C182.82 80.647 182.494 80.9138 182.494 81.3141V81.8774C182.494 82.2777 182.82 82.6039 183.221 82.6039H187.616C188.017 82.6039 188.343 82.2777 188.343 81.8774V80.6915C188.343 80.2912 188.017 79.9057 187.616 79.965Z" fill="#02AAB0"/>
<path fill-rule="evenodd" clip-rule="evenodd" d="M186.992 82.4704C187.601 82.4704 188.106 81.9664 188.106 81.3586C188.106 80.7507 187.601 80.2467 186.992 80.2467C186.383 80.2467 185.879 80.7507 185.879 81.3586C185.879 81.9664 186.383 82.4704 186.992 82.4704Z" fill="#04C0C7"/>
<path fill-rule="evenodd" clip-rule="evenodd" d="M183.488 82.3666C183.919 82.3666 184.26 82.0108 184.26 81.5957C184.26 81.1806 183.904 80.8248 183.488 80.8248C183.073 80.8248 182.716 81.1658 182.716 81.5957C182.716 82.0256 183.058 82.3666 183.488 82.3666Z" fill="#04C0C7"/>
</g>
<defs>
<clipPath id="clip0_1161_2">
<rect width="208" height="88" fill="white"/>
</clipPath>
</defs>
</svg>
