<svg width="16" height="15" viewBox="0 0 16 15" fill="none" xmlns="http://www.w3.org/2000/svg">
<path d="M10.3125 6.875C9.82031 6.875 9.4375 7.28516 9.4375 7.75C9.4375 8.24219 9.82031 8.625 10.3125 8.625C10.7773 8.625 11.1875 8.24219 11.1875 7.75C11.1875 7.28516 10.7773 6.875 10.3125 6.875ZM15.3438 13.4375H13.375V2.5C13.375 1.54297 12.582 0.75 11.625 0.75H4.625C3.64062 0.75 2.875 1.54297 2.875 2.5V13.4375H0.90625C0.523438 13.4375 0.25 13.7383 0.25 14.0938C0.25 14.4766 0.523438 14.75 0.90625 14.75H15.3438C15.6992 14.75 16 14.4766 16 14.0938C16 13.7383 15.6992 13.4375 15.3438 13.4375ZM12.0625 13.4375H4.1875V2.5C4.1875 2.28125 4.37891 2.0625 4.625 2.0625H11.625C11.8438 2.0625 12.0625 2.28125 12.0625 2.5V13.4375Z" fill="white"/>
</svg>
