<?xml version="1.0" encoding="UTF-8"?><svg id="a" xmlns="http://www.w3.org/2000/svg" xmlns:xlink="http://www.w3.org/1999/xlink" viewBox="0 0 285.53 240.58"><defs><style>.e{fill:#fff;}.f{fill:#0b0244;opacity:.2;}.g{fill:#160a5b;}.h{fill:#24126a;}.i{fill:url(#c);}.j{fill:#e2b1a6;}.k{fill:#4846a5;}.l{fill:#936d6d;}.m{fill:url(#b);}.n{fill:#aa8383;}.o{fill:url(#d);}.p{fill:#453c9e;}.q{fill:#fcd1c5;}.r{fill:#f0f6ff;}.s{fill:#c4ccd6;}</style><linearGradient id="b" x1="-107.77" y1="7.43" x2="156.94" y2="114.47" gradientTransform="matrix(1, 0, 0, 1, 0, 0)" gradientUnits="userSpaceOnUse"><stop offset="0" stop-color="#c0bff6"/><stop offset=".29" stop-color="#c4c3f6"/><stop offset=".64" stop-color="#d2d2f9"/><stop offset="1" stop-color="#e9e9fd"/></linearGradient><linearGradient id="c" x1="266.82" y1="294.26" x2="193.66" y2="129.28" xlink:href="#b"/><linearGradient id="d" x1="135.77" y1="134.04" x2="333.48" y2="218.32" xlink:href="#b"/></defs><g><polygon class="h" points="87.83 240.58 285.53 70.91 105.05 195 87.83 240.58"/><g><polygon class="m" points="285.53 70.91 70.61 175.11 0 134.34 285.53 70.91"/><polygon class="i" points="285.53 70.91 105.05 195 175.66 235.76 285.53 70.91"/><polygon class="o" points="105.05 195 285.53 70.91 70.61 175.11 87.83 240.58 105.05 195"/></g><polygon class="e" points="67.46 173.29 285.53 70.91 70.61 175.11 67.46 173.29"/><polygon class="e" points="105.05 195 285.53 70.91 107.88 196.63 105.05 195"/></g><g><path class="q" d="M141.65,143.31s-.76,2.27-.69,2.82c.07,.55,1.63,2.7,1.74,2.76,.11,.07,1.43,1.75,2.92,2.57,1.49,.81,1.6,1.21,1.74,1.23s.36-.12,.36-.12c0,0,.22-1.55-.43-2.31-.65-.75,.32-1.87,.32-1.87l-1.68-4.39-4.27-.68Z"/><path class="g" d="M157.8,191.92s-2.64,.61-5.18,.7c-2.55,.09-9.49,1.4-9.36,3.89,.13,2.5,3.69,6.08,8.2,6.62,4.51,.54,10.33-.69,13.28-.61,2.94,.08,5.02-2.8,3.92-5.58-1.09-2.76-10.87-5.02-10.87-5.02Z"/><path class="g" d="M173.18,185.29s.93,1.51,.44,2.43c-.49,.92-1.81,3.21-5.89,.97-4.07-2.23-11.97-5.44-11.97-5.44,0,0-4.53-2.37-4.23-5.15,.3-2.77,4.5-2.33,4.5-2.33l17.15,9.52Z"/><path class="q" d="M127.78,85.43s-2.69,.04-3.88-.5c-1.19-.54-4.63-1.67-4.84-1.78-.21-.11-2.11-.24-2.98-.8,0,0-.97,.47-.2,1.26,.77,.79,2.22,1.04,2.22,1.04l1.36,.8s-2.76,1.42-3.01,1.52c-.25,.11-2.56,1.87-2.8,1.98-.23,.11-1.27,.91-.87,1.63,0,0,.04,.16,.56,.27,0,0-1.48,.67-1.11,1.4,.37,.73,1.3,.41,1.3,.41,0,0,.36,1.31,2.14,.29,0,0,.21,1.62,4.17-.07,0,0,1.6-.42,2.77-.34,1.17,.08,4.36-.74,6.07-1.95,1.7-1.2-.89-5.17-.89-5.17Z"/><path class="j" d="M122.6,92.54c1.17,.08,4.36-.74,6.07-1.95,1.15-.81,.34-2.87-.3-4.13-.81-.39-1.52-.71-1.52-.71,0,0,.12,3.92,.03,4.51-.09,.59-3.63,1.29-5.91,1.62-2.27,.33-5.26,1.21-5.26,1.21,.18,.36,.94,1.14,4.12-.22,0,0,1.6-.42,2.77-.34Z"/><path class="k" d="M158.94,77.81s-5.6,.98-7.51,1.59c-1.85,.59-17.9,3.77-23.78,5.2-.37,.09-.66,.39-.75,.78-.07,.31-.12,.67-.04,.98,.16,.66,.73,7.31,3.99,6.22,.98-.33,3.86-.93,6.16-1.23,2.3-.3,12.11-1.06,12.11-1.06l16.6-9.5-6.78-2.98Z"/><path class="h" d="M146.93,145.42s1.48,18.32,5.13,25.23c3.69,6.99,4.51,19.7,5.25,22.12,.75,2.43,3.14,5.92,6.98,6.66,3.85,.75,4.53-1.78,4.38-3.3-.16-1.52-1.18-3.98-1.15-5.63,.02-1.65,.43-2.42,.51-3.17,0,0,4.4,1.28,5.15-2.04,0,0-.34-.97-.38-1.46-.05-.49,.67-12.57,.81-14.03,.14-1.46-.49-9.42-1.64-13.35-1.14-3.91-.55-12.24-.55-12.24l-12.74-1.86-11.74,3.08Z"/><path class="g" d="M167.6,145.5s-.11,2.86-1.38,5.26c0,0-.18,9.7-1.3,14.59,0,0,1.44,9.8,2.4,12.88,.97,3.1,.7,9.1,.7,9.1,0,0,.5,.18,1.22,.21s1.04-11.89-.03-14.01c-1.06-2.11-1.71-11.48-1.22-14.34,.48-2.85,.51-11.02,1.1-12.46,.58-1.44-.65-2.22-.65-2.22l-.84,.98Z"/><path class="g" d="M158.1,77.96s-3.83,2.66-3.72,7.34l2.82-.56s-.74-5.2,.9-6.79Z"/><path class="g" d="M158.22,149.41c8.45,.32,13.09-3.3,13.09-3.3,.04-1.16,.1-1.92,.1-1.92l-12.74-1.86-11.74,3.08s.29,3.63,.94,8.26c2.08,.24,4.2-4.72,4.2-4.72l5.81,.41s-8.12-.28,.34,.04Z"/><path class="p" d="M148.56,145.71s18.27,7.49,27.47-6.35c.26-.39,.39-.88,.39-1.37l-.04-3.26c0-.41,.07-.82,.21-1.21h0c.3-.83,.39-1.73,.24-2.61-.6-3.66-2.25-13.65-2.62-16.44-.46-3.4,1.68-17.01,4.9-22.9,3.19-5.82-4.34-19.2-4.34-19.2,0,0-1.86-3.14-5.66-2.14,0,0,3.55,2.57,1.52,5.19-2.04,2.63-8,4.66-8,4.66,0,0-11.06,5.47-14.92,12.26,0,0-1.34,3.53-1.53,8.02-.18,4.52,.15,15.34-.06,16.84-.21,1.5-.95,11.73-.9,12.2,.05,.48,3.33,16.29,3.33,16.29Z"/><path class="h" d="M154.13,147.26s11.44-28.7,11.14-39.26c-.3-10.36-16.34,20.63-16.34,20.63l-.36,17.08s3.46,1.28,5.57,1.55Z"/><path class="k" d="M148.82,113.09c.44-2.37,.71-4.76,.77-7.15,.12-4.16,1.42-11.07,9.04-9.76,10.75,1.85,5.84,16.67,4.61,19.24-1.24,2.59-6.15,14.22-6.41,14.88-.24,.62-7.89,15.03-10.58,18.47-.25,.31-.67,.36-.96,.11-1.06-.9-3.43-3.04-3.73-4.38-.38-1.73,1.26-7.99,1.26-7.99,0,0,4.42-15.71,4.79-16.44,.27-.55,.5-3.15,1.2-6.99Z"/><path class="q" d="M158.28,78.3s-.83-1.96-2.81-2.2c-1.99-.23-3.11-.8-3.3-1.54-.19-.74-.18-1.62-.65-2.73-.46-1.1-.83-3.79-.82-3.86,0-.06-1.5-.55-1.57-1.21-.06-.67,.76-3.03,.68-3.22-.08-.19-.88-1.66-.75-2.79,.13-1.13,.3-2.77,.93-4.16,.63-1.38,5.02-9.78,15.99-5.2,11.04,4.62,2.38,13.78,3.35,19.82,0,0,.96,1.28-.89,3.4-1.86,2.13-7.12,2.51-10.16,3.68Z"/><path class="j" d="M168.44,74.62c1.85-2.12,.89-3.4,.89-3.4-.13-.84-.08-1.74,.08-2.68l-4.36,.75s-6.31-5.81-5.92-2.75c.4,3.08-1.17,3.58-1.17,3.58l1.29,1.69c.33,.43,.12,.93-.16,1.4-1.89,3.1-6.32,2.09-6.33,2.09,.55,.37,1.45,.65,2.7,.8,1.99,.23,2.81,2.2,2.81,2.2,3.05-1.17,8.3-1.55,10.16-3.68Z"/><g><path class="n" d="M149.57,53.37s-.81,2.25,.42,3.23c1.24,.98,2.36,1.9,2.36,1.9l-.05,2.87c0,.41,.1,.82,.32,1.17l1.53,2.44c.3,.47,.45,1.02,.44,1.58v1.17c-.02,.34,.23,.63,.57,.68l.41,.05c.36,.05,.69-.22,.74-.59l.2-1.62s.85-1.29,2.63,.3l1.61,.69c.45,.19,.8,.57,.96,1.04,.43,1.25,1.35,3.73,2.07,4.15,.97,.57,4.81-1.32,5.33-2.18,.52-.86,1.93-6.61,2.78-9.36,.85-2.73,.54-9.55-7.64-11.45-8.16-1.9-13.51,1.48-14.68,3.93Z"/><path class="l" d="M169.11,70.25c.52-.86,1.93-6.61,2.78-9.36,0,0-3.21,2.05-7.34,2.6-4.13,.55-12.22-4.23-12.22-4.23l-.04,2.1c0,.41,.1,.82,.32,1.17l1.53,2.44c.3,.47,.45,1.02,.44,1.58v1.17c-.02,.34,.23,.63,.57,.68l.41,.05c.36,.05,.69-.22,.74-.59l.2-1.62s.85-1.29,2.63,.3l2.33,1s1.34,4.31,2.31,4.88c.97,.57,4.81-1.32,5.33-2.18Z"/></g><path class="r" d="M169.26,70.52s3.13,2,1.49,4.74c-1.65,2.75-13.25,7.49-13.83,8.21,0,0-.38-4.14,1.17-5.51,0,0,8.85-1.56,10.26-3.78,1.41-2.21,.9-3.66,.9-3.66Z"/><path class="s" d="M169.26,70.52s.5,1.45-.9,3.66c-1.07,1.68-6.39,2.98-8.92,3.52h0s.93,.54,2.44,3.22c3.57-1.77,7.91-4.05,8.88-5.65,1.64-2.74-1.49-4.74-1.49-4.74Z"/><path class="h" d="M163.32,98.59c2.8,9.03-4.93,22.83-6.08,26.85-1.16,4.06-12.77,22.7-12.78,22.7,.31,.28,.6,.54,.83,.73,.29,.25,.72,.2,.96-.11,2.69-3.44,10.34-17.85,10.58-18.47,.26-.66,5.17-12.29,6.41-14.88,.99-2.06,4.35-12.05,.08-16.83Z"/><path class="h" d="M171.22,79.39s-5.18,2.83-7.7,4.11c-2.53,1.28-5.29,2.99-5.29,2.99l-.94-.96-1.2,2.49s-3.97,2.28-5.85,4.2c-1.88,1.93-3.32,4.46-3.52,5.04,0,0,5.01-6.3,8.92-8.13l1.05-.51,.62-1.97,.93,1.01s11.38-6.56,12.98-8.27Z"/></g><ellipse class="f" cx="72.48" cy="137.89" rx="26.79" ry="15.47"/><ellipse class="f" cx="158.1" cy="189.65" rx="26.79" ry="15.47"/><g><path class="q" d="M88.17,80s1.93,.33,2.64-.03c.71-.36,2.55-.6,4.69,.16,2.14,.76,1.96,.65,2.81,.73,.84,.08,2.22,.17,2.66,.45,.45,.28,1.29,.82,.51,1.94-.79,1.12-3.72,.07-4.2-.02-.48-.09-1,.76-.76,1.52,.24,.76,4.67,5.61,5.36,6.09,.7,.48,3.69,2.48,3.82,3.27,.13,.79-.04,.9-.04,.9,0,0,.87,.79,.56,1.52-.31,.73-1.67-.39-1.92-.22,0,0,.22,.81-.11,.96-.33,.15-2.27-.6-2.51-.84,0,0-.23,.63-1.33-.02-1.11-.65-5.36-3.06-5.85-3.52-.5-.46-2.17-2-2.86-2.42-.69-.41-1.88-1.82-2.47-2.37-.59-.55-3.23-1.89-4.24-2.08-1.01-.19,3.25-6.03,3.25-6.03Z"/><path class="j" d="M91.56,88.75c-.98-1.78-4.25-3.16-4.25-3.16,.22-1.45,2.31-5.46,2.31-5.46h0c-.72-.01-1.44-.14-1.44-.14,0,0-4.26,5.84-3.25,6.03,1.01,.19,3.64,1.53,4.24,2.08,.59,.55,1.78,1.96,2.47,2.37,.69,.41,2.36,1.96,2.86,2.42,.5,.46,4.75,2.87,5.85,3.52,1.11,.65,1.33,.02,1.33,.02,.23,.23,2.18,.99,2.51,.84,.33-.15,.11-.96,.11-.96,0,0-1.36-.77-2.77-1.27-1.4-.49-8.99-4.51-9.96-6.29Z"/><path class="q" d="M84.99,73.57s.42,2.18,.27,3.95c-.15,1.78-3.71-.55-3.58-.85,.13-.31,1.69-2.98,1.69-2.98l1.62-.11Z"/><path class="h" d="M69.45,20.01s1.98-.09,4.38,3.86c2.32,3.8,6.39,17.41,8.52,22.63,.19,.46,.33,.94,.41,1.44,.69,4.07,3.95,23.22,4.1,25.53,0,0-2.48,1.65-4.07,2.06l-3.5-1.16-3.45-34.72-5.59-18.33-.81-1.29Z"/><path class="g" d="M58.26,134.25s-.67,3.21-.3,3.83c.37,.62,4.54,5.34,4.98,5.98,.44,.64,2.59,4.5,6.55,5.44,3.96,.94,6.66,.7,7.19-1.16,.53-1.86-1.79-4.94-2.87-5.93-1.07-.99-5.6-6.37-6.42-7.15-.83-.78-2.02-.9-2.02-.9l-5.16,.9-1.95-1Z"/><path class="g" d="M74.26,124.64s3.95,1.53,6.01,2.05c2.07,.52,6.99,4.2,6.93,6.05-.05,1.85-2.48,3.13-4.94,2.95-2.46-.18-5.39-1.75-5.86-2.17-.48-.42-2.16-1.34-4.18-1.97-2.01-.63-5.26-.94-5.8-2.01-.53-1.07-.61-3.29-.61-3.29l8.45-1.6Z"/><path class="h" d="M65.35,123.97c.03-.19,.17-.51,.19-.64,.18-.98,.01-4.95,.01-4.95l-.87,1.19s.61,3.98,1.8,10.19c.3,1.58,1.13,3.2,1.25,4.1,.36,2.66-1.22,3.18-1.22,3.18-3.21,2.42-5.95,.96-6.94,.18-.98-.78-1.32-2.02-2.69-6.5-1.36-4.45-2.54-13.85-2.24-16.08,.26-1.97,.98-7.48,.94-11.26-.04-3.76-2.93-15.78-2.93-15.78l11.96-2.32,8.17-4.23,6.23,.94s.79-2.63,1.61,5.56c.83,8.31-4.2,23.02-4.2,23.02-1.33,7.28-1.67,15.66-2.42,16.79-.76,1.14-3.73,3.82-6.49,1.73-.51-.38-1.08-.78-1.39-1.19l-.78-3.92Z"/><path class="g" d="M64.68,119.57s3.93-10.71,5.8-21.09c1.83-10.2,5.01-11.63,6.33-13.47,0,0,1.99,.91,3.04,1.09,.13,.02,.24,.03,.34,.03,.88-.03-4.4,6.54-5.35,8.22-.95,1.69-6.4,16.14-6.78,18.14-.38,2-.77,15.94-.33,16.74,.44,.8-1.51-.6-1.51-.6,0,0-1.2-3.08-1.54-9.07Z"/><path class="g" d="M74.89,81.36l-2.1-.32-8.17,4.23-11.96,2.32s2.89,12.02,2.93,15.78c.04,3.78-.68,9.29-.94,11.26-.29,2.21,.89,11.64,2.24,16.08,.59,1.94,.99,3.28,1.33,4.23,.54,2.53,2.45,2.94,2.45,2.94,0,0-4.69-14.53-4.28-23.02,.41-8.38,1.61-15.35,1.39-16.97,0,0,13.62-4.19,16.18-12.98,.4-1.37,.7-2.55,.93-3.55Z"/><path class="p" d="M51.29,21.88s-.97,.81-1.18,1.65c-.21,.83-1.41,3.78-1.41,3.78,0,0-5.7,7.56-6.72,9.87-1.03,2.33-1.36,4.06-1.36,4.06l15.08,18.57s-5.28,18.21-3.81,24.85c1.49,6.72,3.43,9.22,5.8,9.95,2.38,.73,15.06-4.49,15.94-11.15,.87-6.57,.51-7.41,.51-7.41,0,0,5.92,1.58,6.3,.07,.37-1.51-.75-12.36-1.05-13.91-.3-1.55-1.22-18.67-1.22-18.67,0,0-3.61-15.8-3.82-16.57-.21-.78-2.45-6.71-5.33-7.05-2.88-.33-6.48,4.25-6.48,4.25l-11.27-2.3Z"/><path class="r" d="M51.97,21.31s-.6,.4-.72,1.06c-.13,.66-.62,1.96,.45,3.32,1.08,1.36,9.76,8.45,13.28,14.41,3.55,6.02,7.95,12.74,8.32,14.13,0,0,1.6-9.54,.15-13.92-1.44-4.35-6.04-13.23-7.02-13.89-.97-.66-6.95-1.22-6.95-1.22l-7.52-3.88Z"/><path class="s" d="M60.94,30.9s-.47,.78-.61,1.38c0,0-2.52-1.29-3.58-1.76l3.87,2.69s.23-1.41,.42-1.62c0,0,2.21,1.69,2.52,2.44,.31,.75,4.4,11.02,4.4,11.02l2.15,3.51,.55-.85-3.51-9.56s-1.98-3.01-2.01-3.08-1.37-3.3-1.37-3.3l-2.84-.85Z"/><path class="g" d="M60.94,30.9s1.29-2.4,3.77-2.31c0,0,.71,2.96,.92,4.17,0,0-1.6,.69-2.25,.13-.65-.56-2.44-1.99-2.44-1.99Z"/><path class="g" d="M65.25,32.11s6.39,7.88,8.63,17.4l-.47,4.91-3.36-6s-5.51-13.77-6.79-16.29c-1.28-2.51,1.99-.03,1.99-.03Z"/><path class="h" d="M54.66,63.74c-.43,1.68-.93,3.78-1.4,6.02,0,0,9.47,12.36,18.71,17.39,.9-1.15,1.52-2.39,1.69-3.68,.46-3.48,.58-5.34,.58-6.33l-10.74-8.15-8.83-5.25Z"/><path class="h" d="M54.01,45.59s2.74,3.73,3.46,4.07c.73,.34,6.65,10.71,7.84,12.67,1.2,1.96,4.39,4.71,4.39,4.71l-3.01,.29-11.79-15.82-.89-5.93Z"/><path class="k" d="M55.69,48.88c-1.19-2.99-3.05-5.61-5.44-7.61-2.72-2.28-6.29-4.5-8.18-2.5-3.32,3.51-1.91,10.12,2.71,16.31,4.67,6.26,12.03,15.17,13.76,16.67,1.67,1.44,15.94,12.17,24.12,16.19,.61,.3,1.32,.07,1.68-.53,1.13-1.86,3.47-5.75,4.3-7.34,.17-.33,.07-.74-.23-.93-2.99-1.92-17.92-11.52-22.34-14.51-.68-.46-1.23-1.08-1.61-1.83-1.29-2.52-4.62-8.73-7.54-11.9-.52-.56-.92-1.24-1.21-1.96l-.02-.06Z"/><path class="h" d="M66.67,23.29l5.22,5.28-1.35,.47,1.72,1s4.18,9.87,3.27,21.05c0,0,2.07-8.79-2.42-21.26l-1.39-.7,.94-.3-5.99-5.54Z"/><path class="q" d="M51.86,20.41c.09,.2,.15,.43,.13,.65-.04,.47-.09,1.26-.05,1.6,.06,.49,3.34,6.01,10.03,6.06,0,0,.8-1.2,.96-1.43,0,0,2.71-.13,3.84-1.11,1.13-.99,.43-2.71,.43-2.71l.16-2.07c.02-.25,.13-.48,.31-.65,.24-.23,.55-.56,.61-.8,.06-.25-.1-.68-.23-.97-.09-.2-.13-.41-.1-.63,.06-.52,.11-1.64-.26-3.02-.11-.4-.11-.82,0-1.22,.17-.66,.4-1.63,.43-1.98,.04-.54-.88-1.98-.92-2.55-.04-.57-.83-2.49-.83-2.49,0,0-4.98-9.24-13.01-5.24-8.09,4.03-3.87,12.68-2.87,15.13,0,0,.97,1.99,1.14,2.44,.14,.37,.04,.57,.24,1Z"/><path class="n" d="M67.07,8.06c.07,.65-.18,1.3-.67,1.73-.97,.86-2.91,2.27-5.47,2.61-1.8,.24-2.79,.33-3.32,.36-.36,.02-.65,.31-.67,.68-.04,.67-.1,1.69-.2,2.38-.04,.28-.12,.54-.24,.79l-.57,1.21c-.14,.3-.45,.48-.78,.46h-.13c-.36-.04-.65-.32-.7-.68v-.05c-.13-.95-.69-1.79-1.54-2.19-.43-.2-.91-.29-1.4-.09-1.38,.57-.81,1.91-.81,1.91,0,0-1.68-2.02-2.44-4.7-.75-2.67-.58-7.51,2.92-10.04,3.48-2.52,8.03-3.54,11.91-.81,3.2,2.25,3.95,4.97,4.11,6.43Z"/><path class="j" d="M53.83,19.38c-.18-.21,.05,1.63-1.85,1.69-.04,.47-.09,1.26-.05,1.6,.06,.49,3.34,6.01,10.03,6.06,0,0,.8-1.2,.96-1.43,0,0-6.14-2.98-7.23-4.34-1.09-1.35-1.69-3.36-1.86-3.57Z"/><path class="s" d="M64.71,28.59s1.82,.21,2.67,.66c0,0,.24-.94-.24-1.97,0,0,.54,.44,.54,2.61,0,0-2.67-.87-2.88-.93l-.09-.39Z"/><path class="h" d="M85.06,85.94s-15.5-8.91-20.75-12.46c-5.22-3.53-19.9-18.51-22.9-24.27,.77,1.93,1.91,3.92,3.36,5.87,4.67,6.26,12.03,15.17,13.76,16.67,1.67,1.44,15.94,12.17,24.12,16.19,.61,.3,1.32,.07,1.68-.53,.22-.36,.48-.8,.77-1.28-.03-.11-.05-.18-.05-.18Z"/><path class="h" d="M49.43,27.78l7.08,10.07,1.82-.65,.1,1.92s8.47,6.31,14.81,19.42c0,0-8.39-13.5-15.06-18l-.61-1.93-1.42,.33-6.72-11.16Z"/><path class="l" d="M48.79,13.77c-.08-.03-.15-.05-.22-.07,.83,2.05,2.01,3.47,2.01,3.47,0,0-.57-1.34,.81-1.91,.48-.2,.97-.11,1.4,.09,.85,.4,1.4,1.25,1.53,2.19v.05c.06,.37,.35,.65,.71,.67h.13c.32,.04,.63-.15,.78-.45l.57-1.21c.12-.25,.2-.52,.24-.79,.1-.69,.16-1.71,.2-2.38,0,0-4.72,1.53-8.15,.33Z"/></g></svg>