<svg width="23" height="19" viewBox="0 0 23 19" fill="none" xmlns="http://www.w3.org/2000/svg">
<path d="M21.125 0.75H2.375C1.32031 0.75 0.5 1.60938 0.5 2.625V3.25H23V2.625C23 1.60938 22.1406 0.75 21.125 0.75ZM0.5 16.375C0.5 17.4297 1.32031 18.25 2.375 18.25H21.125C22.1406 18.25 23 17.4297 23 16.375V4.5H0.5V16.375ZM14.875 7H19.875C20.1875 7 20.5 7.3125 20.5 7.625C20.5 7.97656 20.1875 8.25 19.875 8.25H14.875C14.5234 8.25 14.25 7.97656 14.25 7.625C14.25 7.3125 14.5234 7 14.875 7ZM14.875 9.5H19.875C20.1875 9.5 20.5 9.8125 20.5 10.125C20.5 10.4766 20.1875 10.75 19.875 10.75H14.875C14.5234 10.75 14.25 10.4766 14.25 10.125C14.25 9.8125 14.5234 9.5 14.875 9.5ZM14.875 12H19.875C20.1875 12 20.5 12.3125 20.5 12.625C20.5 12.9766 20.1875 13.25 19.875 13.25H14.875C14.5234 13.25 14.25 12.9766 14.25 12.625C14.25 12.3125 14.5234 12 14.875 12ZM7.375 7C8.74219 7 9.875 8.13281 9.875 9.5C9.875 10.9062 8.74219 12 7.375 12C5.96875 12 4.875 10.9062 4.875 9.5C4.875 8.13281 5.96875 7 7.375 7ZM4.875 13.25H9.875C10.8906 13.25 11.75 14.1094 11.75 15.125C11.75 15.4766 11.4375 15.75 11.125 15.75H3.625C3.27344 15.75 3 15.4766 3 15.125C3 14.1094 3.82031 13.25 4.875 13.25Z" fill="url(#paint0_linear_1102_4719)"/>
<defs>
<linearGradient id="paint0_linear_1102_4719" x1="11.5" y1="-1" x2="11.5" y2="19" gradientUnits="userSpaceOnUse">
<stop stop-color="#0f8fce"/>
<stop offset="0.674829" stop-color="var(--primary)" stop-opacity="0.39"/>
<stop offset="1" stop-color="#0f8fce9e" stop-opacity="0.28"/>
</linearGradient>
</defs>
</svg>
