<svg width="65" height="59" viewBox="0 0 65 59" fill="none" xmlns="http://www.w3.org/2000/svg">
<path d="M32.8196 0.941571C25.3332 0.941571 19.4111 6.9754 19.4111 14.3501C19.4111 19.8252 21.1989 21.2778 31.367 36.0272C32.0374 37.0328 33.49 37.0328 34.1604 36.0272C44.3285 21.2778 46.2281 19.8252 46.2281 14.3501C46.2281 6.9754 40.1943 0.941571 32.8196 0.941571ZM1.75654 26.4177C0.974373 26.6412 0.63916 27.3116 0.63916 28.0938V56.3634C0.63916 57.7043 1.86827 58.4864 3.09739 58.0395L18.5172 51V23.5126C17.6233 22.06 17.0646 20.8309 16.6176 19.7135L1.75654 26.4177ZM37.0656 38.0384C36.06 39.491 34.4956 40.2732 32.8196 40.2732C31.0318 40.2732 29.4675 39.491 28.4618 38.0384C26.674 35.4685 22.5397 29.6581 22.0928 28.876V51L43.5464 58.1512V28.876C42.9877 29.6581 38.8534 35.4685 37.0656 38.0384ZM62.5418 19.0431L47.122 25.9708V58.1512L63.7709 50.6648C64.553 50.3296 65 49.7709 65 48.9887V20.6074C65 19.3783 63.6591 18.4844 62.5418 19.0431Z" fill="url(#paint0_linear_1101_9)" fill-opacity="0.64"/>
<defs>
<linearGradient id="paint0_linear_1101_9" x1="32.5" y1="1" x2="32.5" y2="58" gradientUnits="userSpaceOnUse">
<stop stop-color="white"/>
<stop offset="0.674829" stop-color="white"/>
<stop offset="1" stop-color="white" stop-opacity="0.44"/>
</linearGradient>
</defs>
</svg>
