<svg width="17" height="16" viewBox="0 0 17 16" fill="none" xmlns="http://www.w3.org/2000/svg">
<path d="M8.91406 10.0742C11.5801 6.20703 12.0781 5.82617 12.0781 4.39062C12.0781 2.45703 10.4961 0.875 8.5625 0.875C6.59961 0.875 5.04688 2.45703 5.04688 4.39062C5.04688 5.82617 5.51562 6.20703 8.18164 10.0742C8.35742 10.3379 8.73828 10.3379 8.91406 10.0742ZM16.3555 3.74609L12.957 4.97656C12.8984 5.5625 12.7227 6.06055 12.3418 6.70508L15.5938 5.50391V13.0332L11.8438 14.3516V7.52539C11.5801 7.90625 10.584 9.3125 10.4375 9.54688V14.1758L6.6875 12.8574V9.54688C6.51172 9.2832 5.51562 7.90625 5.28125 7.52539V12.6816L1.53125 14.0586V6.55859L4.25586 5.5918C4.13867 5.21094 4.10938 4.85938 4.10938 4.39062C4.10938 4.33203 4.10938 4.24414 4.10938 4.15625L0.710938 5.32812C0.359375 5.47461 0.125 5.82617 0.125 6.20703V15.4062C0.125 15.7285 0.417969 15.9922 0.769531 15.8457L5.75 14L10.7891 15.7578C11.1699 15.9043 11.5801 15.9043 11.9609 15.7578L16.3848 14.2344C16.7656 14.1172 17 13.7656 17 13.3848V4.15625C17 3.86328 16.6777 3.59961 16.3555 3.74609Z" fill="url(#paint0_linear_1018_112)"/>
<defs>
<linearGradient id="paint0_linear_1018_112" x1="8.5" y1="1" x2="8.5" y2="16" gradientUnits="userSpaceOnUse">
<stop stop-color="#3D44DC"/>
<stop offset="1" stop-color="#CBCDFF"/>
</linearGradient>
</defs>
</svg>
