<svg width="58" height="59" viewBox="0 0 58 59" fill="none" xmlns="http://www.w3.org/2000/svg">
<path d="M28.8196 0.941571C12.9528 0.941571 0.214762 13.7914 0.214762 29.5464C0.214762 45.4131 12.9528 58.1512 28.8196 58.1512C44.5746 58.1512 57.4244 45.4131 57.4244 29.5464C57.4244 13.7914 44.5746 0.941571 28.8196 0.941571ZM37.9821 33.3455C38.0938 33.2337 38.3173 33.122 38.429 33.122H39.7699C40.2168 33.122 40.4403 33.3455 40.6638 33.6807L41.2224 35.1333C41.3342 35.3567 41.4459 35.4685 41.6694 35.4685H42.1163C42.2281 35.4685 42.4516 35.3567 42.4516 35.1333L43.0102 33.4572C43.0102 33.3455 43.2337 33.122 43.4572 33.122H44.1276C44.3511 33.122 44.5746 33.3455 44.5746 33.5689V35.0215C44.5746 35.3567 44.5746 35.5802 44.7981 35.692L46.1389 37.0328C46.4741 37.368 46.5859 37.815 46.5859 38.2619V41.0554C46.5859 41.2788 46.5859 41.3906 46.4741 41.614C46.2506 42.061 45.9154 42.3962 45.692 42.7314L45.0215 43.4018C44.6863 43.7371 44.2394 43.8488 43.7924 43.8488H42.1163C41.6694 43.8488 41.1107 43.7371 40.8872 43.4018L39.3229 41.9493C38.6525 41.1671 37.5351 40.8319 36.5295 41.1671L34.183 41.7258C34.0712 41.7258 33.8478 41.7258 33.736 41.7258H32.6187C32.06 41.7258 31.613 41.614 31.2778 41.2788L29.937 39.938C29.8252 39.7145 29.7135 39.491 29.7135 39.2676V38.1502C29.7135 37.815 29.937 37.4798 30.2722 37.368L34.6299 35.5802C34.8534 35.4685 35.0769 35.3567 35.3004 35.245L37.9821 33.3455ZM28.8196 6.30497C30.8309 6.30497 32.8421 6.64019 34.7417 7.19887V7.31061C34.7417 8.42799 34.2947 9.43363 33.4008 10.1041L30.0487 12.674C29.49 13.0092 29.49 13.9031 30.1604 14.2383L31.3895 14.797C31.9482 15.1322 32.2834 15.6909 32.2834 16.3614V25.0769C32.2834 25.6356 31.9482 25.9708 31.3895 25.9708H31.0543C30.7191 25.9708 30.4956 25.859 30.2722 25.5238C30.1604 25.1886 29.6017 25.1886 29.49 25.5238L27.4787 28.7642C27.1435 29.2112 26.5848 29.5464 25.9144 29.5464C25.4675 29.5464 25.0205 29.7699 24.6853 30.1051L24.0149 30.7755C23.6797 31.1107 23.6797 31.6694 24.0149 32.0046L24.6853 32.675C25.0205 33.0103 25.244 33.4572 25.244 33.9042V34.9098C25.244 35.9154 24.3501 36.6976 23.4562 36.6976H22.674C22.0036 36.6976 21.4449 36.3624 21.1097 35.8037L18.5397 30.6638C18.3162 30.1051 17.5341 29.9933 17.1989 30.4403L14.9641 32.675C14.6289 33.0103 14.182 33.122 13.735 33.122H5.80164C5.6899 32.0046 5.57817 30.7755 5.57817 29.5464C5.57817 16.8083 15.9698 6.30497 28.8196 6.30497Z" fill="url(#paint0_linear_687_148)" fill-opacity="0.64"/>
<defs>
<linearGradient id="paint0_linear_687_148" x1="28.5" y1="1" x2="28.5" y2="58" gradientUnits="userSpaceOnUse">
<stop stop-color="white"/>
<stop offset="0.674829" stop-color="white"/>
<stop offset="1" stop-color="white" stop-opacity="0.44"/>
</linearGradient>
</defs>
</svg>
