<svg width="17" height="18" viewBox="0 0 17 18" fill="none" xmlns="http://www.w3.org/2000/svg">
<path d="M12 3.59375L11.9688 3.3125C11.875 2.65625 11.3438 2.15625 10.6875 2.0625L10.4062 2C10.1562 1.96875 9.96875 1.71875 10 1.4375C10.0312 1.1875 10.2812 0.96875 10.5625 1.03125L10.8125 1.0625C11.9375 1.21875 12.7812 2.09375 12.9375 3.1875L12.9688 3.4375C13.0312 3.71875 12.8438 3.96875 12.5625 4C12.2812 4.0625 12.0312 3.875 12 3.59375ZM6.78125 3.21875C6.375 2.84375 6.375 2.1875 6.78125 1.8125C7.15625 1.40625 7.8125 1.40625 8.1875 1.8125L14.1875 7.8125C14.3125 7.90625 14.5 7.84375 14.5 7.6875V5.25C14.5 4.5625 15.0625 4 15.75 4C16.4375 4 17 4.5625 17 5.25V10.7812C17 12.6562 16.125 14.4375 14.625 15.5625C13.0312 16.8125 11.0312 17.125 9.21875 16.5938C8.3125 16.375 7.46875 15.9062 6.78125 15.2188L6.625 15.0625L3.28125 11.7188L2.28125 10.7188C1.875 10.3438 1.875 9.6875 2.28125 9.3125C2.65625 8.90625 3.3125 8.90625 3.6875 9.3125L4.6875 10.3125L6.15625 11.75C6.3125 11.9375 6.5625 11.9375 6.75 11.75C6.90625 11.5938 6.90625 11.3438 6.75 11.1875L2.78125 7.21875C2.375 6.84375 2.375 6.1875 2.78125 5.8125C3.15625 5.40625 3.8125 5.40625 4.1875 5.8125L8.15625 9.75C8.3125 9.9375 8.5625 9.9375 8.75 9.75C8.90625 9.59375 8.90625 9.34375 8.75 9.1875L4.28125 4.71875C3.875 4.34375 3.875 3.6875 4.28125 3.3125C4.65625 2.90625 5.3125 2.90625 5.6875 3.3125L10.1562 7.75C10.3125 7.9375 10.5625 7.9375 10.75 7.75C10.9062 7.59375 10.9062 7.34375 10.75 7.1875L6.78125 3.21875ZM1.40625 12.0312C1.6875 11.9688 1.9375 12.1562 1.96875 12.4375L2.03125 12.7188C2.125 13.375 2.625 13.875 3.28125 13.9688L3.5625 14.0312C3.8125 14.0625 4.03125 14.3125 3.96875 14.5938C3.9375 14.8438 3.6875 15.0625 3.40625 15L3.15625 14.9688C2.0625 14.8125 1.1875 13.9375 1.03125 12.8438L1 12.5938C0.96875 12.3125 1.15625 12.0625 1.40625 12.0312Z" fill="url(#paint0_linear_1563_3)"/>
<defs>
<linearGradient id="paint0_linear_1563_3" x1="9" y1="1" x2="9" y2="17" gradientUnits="userSpaceOnUse">
<stop stop-color="#0f8fce"/>
<stop offset="1" stop-color="#0f8fce9e" stop-opacity="0.28"/>
</linearGradient>
</defs>
</svg>
