<svg width="119" height="56" viewBox="0 0 119 56" fill="none" xmlns="http://www.w3.org/2000/svg">
<path opacity="0.5" d="M2.61313 56C2.07979 56 1.62646 55.8133 1.25313 55.44C0.879792 55.0667 0.693125 54.6133 0.693125 54.08V1.92C0.693125 1.38666 0.879792 0.93333 1.25313 0.559999C1.62646 0.186664 2.07979 -3.8147e-06 2.61313 -3.8147e-06H10.1331C10.7198 -3.8147e-06 11.1731 0.186664 11.4931 0.559999C11.8665 0.93333 12.0531 1.38666 12.0531 1.92V54.08C12.0531 54.6133 11.8665 55.0667 11.4931 55.44C11.1731 55.8133 10.7198 56 10.1331 56H2.61313ZM26.5194 56C25.986 56 25.5327 55.8133 25.1594 55.44C24.786 55.0667 24.5994 54.6133 24.5994 54.08V2C24.5994 1.41333 24.786 0.93333 25.1594 0.559999C25.5327 0.186664 25.986 -3.8147e-06 26.5194 -3.8147e-06H47.2394C53.6927 -3.8147e-06 58.786 1.49333 62.5194 4.48C66.2527 7.46667 68.1194 11.8133 68.1194 17.52C68.1194 21.4667 67.1327 24.7467 65.1594 27.36C63.2394 29.9733 60.6527 31.8667 57.3994 33.04L69.0794 53.44C69.2394 53.76 69.3194 54.0533 69.3194 54.32C69.3194 54.8 69.1327 55.2 68.7594 55.52C68.4394 55.84 68.066 56 67.6394 56H60.3594C59.4527 56 58.7594 55.76 58.2794 55.28C57.7994 54.8 57.426 54.32 57.1594 53.84L46.8394 34.88H35.7194V54.08C35.7194 54.6133 35.5327 55.0667 35.1594 55.44C34.8394 55.8133 34.386 56 33.7994 56H26.5194ZM35.7194 25.84H46.9994C50.2527 25.84 52.6794 25.12 54.2794 23.68C55.8794 22.1867 56.6794 20.1067 56.6794 17.44C56.6794 14.7733 55.8794 12.6933 54.2794 11.2C52.7327 9.65333 50.306 8.88 46.9994 8.88H35.7194V25.84ZM92.0425 56C91.5092 56 91.0558 55.8133 90.6825 55.44C90.3092 55.0667 90.1225 54.6133 90.1225 54.08V9.84H75.3225C74.7892 9.84 74.3358 9.65333 73.9625 9.28C73.5892 8.90666 73.4025 8.45333 73.4025 7.92V2C73.4025 1.41333 73.5892 0.93333 73.9625 0.559999C74.3358 0.186664 74.7892 -3.8147e-06 75.3225 -3.8147e-06H116.123C116.709 -3.8147e-06 117.189 0.186664 117.563 0.559999C117.936 0.93333 118.123 1.41333 118.123 2V7.92C118.123 8.45333 117.936 8.90666 117.563 9.28C117.189 9.65333 116.709 9.84 116.123 9.84H101.403V54.08C101.403 54.6133 101.216 55.0667 100.843 55.44C100.469 55.8133 99.9892 56 99.4025 56H92.0425Z" fill="url(#paint0_linear_669_188)"/>
<defs>
<linearGradient id="paint0_linear_669_188" x1="57" y1="1" x2="57" y2="56" gradientUnits="userSpaceOnUse">
<stop stop-color="var(--primary)" stop-opacity="0.47"/>
<stop offset="1" stop-color="var(--primary)" stop-opacity="0"/>
</linearGradient>
</defs>
</svg>
