<svg width="20" height="12" viewBox="0 0 20 12" fill="none" xmlns="http://www.w3.org/2000/svg">
<path d="M5 5.625L4.59375 6.5H5.375L5 5.625ZM18 0H10.5V12H18C19.0938 12 20 11.125 20 10V2C20 0.90625 19.0938 0 18 0ZM17.25 5.25H17.1875C16.9375 6.125 16.5312 6.8125 16.0938 7.34375C16.3438 7.5 16.5 7.5625 16.5 7.5625C16.9062 7.71875 17.0938 8.15625 16.9375 8.53125C16.8125 8.84375 16.5312 9 16.2188 9C16.125 9 16.0312 9 15.9375 8.96875C15.9062 8.9375 15.5 8.78125 14.9688 8.40625C14.4375 8.78125 14.0312 8.9375 13.9688 8.96875C13.9062 9 13.8125 9 13.75 9C13.4375 9 13.1562 8.84375 13.0312 8.53125C12.875 8.15625 13.0625 7.71875 13.4688 7.5625C13.4688 7.5625 13.6562 7.46875 13.875 7.34375C13.75 7.21875 13.6562 7.09375 13.5625 6.9375C13.3125 6.59375 13.4062 6.125 13.75 5.90625C14.0938 5.65625 14.5625 5.75 14.8125 6.09375C14.8438 6.1875 14.9062 6.25 14.9688 6.34375C15.2188 6.03125 15.4375 5.6875 15.5938 5.25H12.75C12.3125 5.25 12 4.9375 12 4.5C12 4.09375 12.3125 3.75 12.75 3.75H14.25C14.25 3.34375 14.5625 3 15 3C15.4062 3 15.75 3.34375 15.75 3.75H17.25C17.6562 3.75 18 4.09375 18 4.5C18 4.9375 17.6562 5.25 17.25 5.25ZM0 2V10C0 11.0938 0.875 12 2 12H9.5V0H2C0.875 0 0 0.90625 0 2ZM2.3125 7.96875L4.3125 3.46875C4.53125 2.90625 5.4375 2.90625 5.65625 3.46875L7.65625 7.96875C7.84375 8.34375 7.65625 8.78125 7.28125 8.9375C7.1875 9 7.09375 9 7 9C6.6875 9 6.4375 8.84375 6.3125 8.5625L6.03125 8H6H4C3.96875 8 3.9375 8 3.9375 8L3.65625 8.5625C3.5 8.9375 3.0625 9.125 2.6875 8.9375C2.3125 8.78125 2.125 8.34375 2.3125 7.96875Z" fill="url(#paint0_linear_1024_3)"/>
<defs>
<linearGradient id="paint0_linear_1024_3" x1="10" y1="-2" x2="10" y2="14" gradientUnits="userSpaceOnUse">
<stop stop-color="#0f8fce"/>
<stop offset="1" stop-color="#0f8fce9e" stop-opacity="0.28"/>
</linearGradient>
</defs>
</svg>
