<svg width="55" height="100" viewBox="0 0 55 100" fill="none" xmlns="http://www.w3.org/2000/svg">
<path d="M32.1379 49.8151C32.1379 52.6125 30.0661 54.8799 27.51 54.8799C24.9539 54.8799 22.8822 52.6125 22.8822 49.8151C22.8822 47.0177 24.9539 44.7503 27.51 44.7503C30.0661 44.7503 32.1379 47.0177 32.1379 49.8151ZM54.996 49.9537C54.6865 60.8508 34.2278 71.3213 24.8153 71.3213C7.46328 71.3213 -0.257216 57.2177 3.06047 43.5979C6.38016 29.9759 18.618 28.8411 18.618 28.8411C20.2256 24.4712 19.7071 18.5685 22.9223 9.54511C26.1375 0.519488 37.65 0.259979 45.9472 0.576667C54.2444 0.893356 53.7139 4.00306 53.7139 4.00306C53.7139 4.00306 54.0897 5.79763 51.8069 6.53657C49.9923 6.53657 49.94 6.65093 45.6357 6.02635C41.3314 5.40177 31.3241 4.03825 27.7974 9.31639C25.2051 13.5741 22.4823 19.7319 22.9223 28.8411C37.5977 29.182 55.3074 39.0565 54.996 49.9537ZM35.3069 50.8663C35.3069 43.8002 30.0741 38.0713 23.6176 38.0713C17.1611 38.0713 11.9264 43.8002 11.9264 50.8663C11.9264 57.9325 17.1611 63.6592 23.6176 63.6592C30.0741 63.6592 35.3069 57.9325 35.3069 50.8663V50.8663ZM12.1354 72.9378C5.43368 72.9378 0 78.8845 0 86.2189C0 93.5533 5.43368 99.5 12.1354 99.5C18.837 99.5 24.2707 93.5533 24.2707 86.2189C24.2707 78.8845 18.837 72.9378 12.1354 72.9378ZM27.51 44.7503C24.9539 44.7503 22.8822 47.0177 22.8822 49.8151C22.8822 52.6125 24.9539 54.8799 27.51 54.8799C30.0661 54.8799 32.1379 52.6125 32.1379 49.8151C32.1379 47.0177 30.0661 44.7503 27.51 44.7503ZM27.51 44.7503C24.9539 44.7503 22.8822 47.0177 22.8822 49.8151C22.8822 52.6125 24.9539 54.8799 27.51 54.8799C30.0661 54.8799 32.1379 52.6125 32.1379 49.8151C32.1379 47.0177 30.0661 44.7503 27.51 44.7503Z" fill="url(#paint0_linear_1489_2)"/>
<defs>
<linearGradient id="paint0_linear_1489_2" x1="27.5" y1="0.5" x2="27.5" y2="99.5" gradientUnits="userSpaceOnUse">
<stop stop-color="#0f8fce"/>
<stop offset="1" stop-color="#88CBFF"/>
</linearGradient>
</defs>
</svg>
