<?xml version="1.0" encoding="UTF-8"?><svg xmlns="http://www.w3.org/2000/svg" xmlns:xlink="http://www.w3.org/1999/xlink" viewBox="0 0 277.2 277.2"><defs><style>.j{fill:var(--primary);}.k{fill:url(#g);filter:url(#h);}.l{fill:url(#d);filter:url(#e);}</style><linearGradient id="d" x1="191.64" y1="229.45" x2="108.39" y2="58.35" gradientTransform="matrix(1, 0, 0, 1, 0, 0)" gradientUnits="userSpaceOnUse"><stop offset="0" stop-color="#f4bd38"/><stop offset="1" stop-color="#f99d32"/></linearGradient><filter id="e" filterUnits="userSpaceOnUse"><feOffset dx="2.92" dy="2.92"/><feGaussianBlur result="f" stdDeviation="2.09"/><feFlood flood-color="#231f20" flood-opacity=".73"/><feComposite in2="f" operator="in"/><feComposite in="SourceGraphic"/></filter><linearGradient id="g" x1="138.56" y1="151.74" x2="150.93" y2="151.74" xlink:href="#d"/><filter id="h" filterUnits="userSpaceOnUse"><feOffset dx="2.92" dy="2.92"/><feGaussianBlur result="i" stdDeviation="2.09"/><feFlood flood-color="#231f20" flood-opacity=".73"/><feComposite in2="i" operator="in"/><feComposite in="SourceGraphic"/></filter></defs><g id="a"/><g id="b"><g id="c"><g><rect class="j" width="277.2" height="277.2" rx="52.4" ry="52.4"/><g><path class="l" d="M127.34,88.95c-.27,3.44-.41,7.19-.31,11.2,.17,7.33,1.07,13.86,2.22,19.39-2.11,.28-18.57,2.75-27.55,17.85-7.41,12.46-4.78,25.23-3.72,29.28,.54,2.05,1.93,6.65,5.26,11.62,.94,1.41,10.29,14.91,26.27,16.82,1.86,.22,3.21,.22,4.31,.22,8.22-.02,20.56,.1,39.01,.65,.09-7.79,.14-17.25,.06-28.04-.11-17.3-.43-22.01-3.28-27.82-4.03-8.2-10.3-12.9-13.31-14.85-10-6.5-20.06-6.36-23.58-6.14-.91-4.81-1.85-11.56-1.9-19.65-.05-8.32-.1-21.16,6-35.64,0,0,8.83-20.95,27.08-32.17,3.49-2.15,9.59-5.78,17.37-5.11,2.16,.19,3.89,.66,4.99,1.01,9.1,4.88,11.46,16.12,6.59,22.93-4.44,6.2-14.1,7.59-20.59,3.28-6.62-4.4-6.78-12.61-6.79-13.35-4.11,3.36-9.06,8.17-13.57,14.76-8.96,13.11-11.32,26.21-12.05,33.45,11.03,.75,19.25,3.91,24.09,6.2,19.21,9.1,29.47,25.48,33.6,35.93,1.22,3.09,4.25,10.62,4.68,20.14,.11,2.4,.09,5.68,.07,8.2-.05,7.23-.34,12.54-.4,13.59-.3,5.8-.56,19.56-.52,52.02-9.65,.08-23.07,.1-39.11-.13-34.94-.51-40.55-1.65-45.68-3.3-5.12-1.64-28.37-9.12-41.11-32.28-13.95-25.37-7.58-55.54,5.09-73.07,5.09-7.04,10.99-11.78,12.94-13.28,13.16-10.17,26.9-12.84,33.81-13.68Z"/><circle class="k" cx="144.74" cy="151.74" r="6.19"/></g></g></g></g></svg>