<svg width="20" height="20" viewBox="0 0 20 20" fill="none" xmlns="http://www.w3.org/2000/svg">
<path d="M18.4688 0H4.5C3.65625 0 3 0.9375 3 2.14286V13.5714C3 14.7321 3.65625 15.7143 4.5 15.7143H18.4688C19.3125 15.7143 20 14.7768 20 13.5714V2.14286C20 0.982143 19.3125 0 18.4688 0ZM11.5 10.5C10.0938 10.5 8.96875 9.5 8.96875 7.85714C8.96875 6 10.0625 5 11.4688 5C12.8438 5 13.9688 6 13.9688 7.85714C13.9688 9.5 12.9062 10.5 11.5 10.5ZM16 20H3.75C1.65625 20 0 17.6339 0 14.6429V3.92857C0 3.34821 0.3125 2.85714 0.75 2.85714C1.15625 2.85714 1.5 3.34821 1.5 3.92857V14.6429C1.5 16.4286 2.5 17.8571 3.75 17.8571H16C16.4062 17.8571 16.75 18.3482 16.75 18.9286C16.75 19.5536 16.4062 20 16 20Z" fill="url(#paint0_linear_622_40)"/>
<defs>
<linearGradient id="paint0_linear_622_40" x1="10" y1="0" x2="10" y2="20" gradientUnits="userSpaceOnUse">
<stop stop-color="#0f8fce"/>
<stop offset="0.674829" stop-color="var(--primary)" stop-opacity="0.39"/>
<stop offset="1" stop-color="#0f8fce9e" stop-opacity="0.28"/>
</linearGradient>
</defs>
</svg>
