<svg width="41" height="56" viewBox="0 0 41 56" fill="none" xmlns="http://www.w3.org/2000/svg">
<g filter="url(#filter0_d_1762_358)">
<path d="M15.8597 16.8577C15.7964 17.6643 15.7636 18.5436 15.787 19.4839C15.8269 21.2027 16.0379 22.7339 16.3076 24.0306C15.8128 24.0963 11.9531 24.6755 9.84743 28.2163C8.10988 31.138 8.72658 34.1324 8.97514 35.0821C9.10176 35.5628 9.4277 36.6414 10.2085 37.8068C10.429 38.1374 12.6214 41.303 16.3685 41.7509C16.8047 41.8025 17.1212 41.8025 17.3792 41.8025C19.3067 41.7978 22.2002 41.8259 26.5265 41.9549C26.5476 40.1282 26.5594 37.91 26.5406 35.3799C26.5148 31.3232 26.4398 30.2188 25.7715 28.8564C24.8265 26.9336 23.3563 25.8315 22.6505 25.3743C20.3056 23.8501 17.9466 23.8829 17.1212 23.9345C16.9079 22.8066 16.6874 21.2238 16.6757 19.3268C16.664 17.3759 16.6523 14.3651 18.0826 10.9697C18.0826 10.9697 20.1532 6.05716 24.4326 3.42621C25.2509 2.92206 26.6813 2.07087 28.5056 2.22798C29.0121 2.27253 29.4178 2.38274 29.6757 2.46481C31.8095 3.60911 32.3629 6.24475 31.221 7.84162C30.1799 9.29544 27.9147 9.62138 26.3929 8.61074C24.8406 7.57899 24.8031 5.65385 24.8007 5.48032C23.837 6.2682 22.6763 7.39609 21.6187 8.94136C19.5177 12.0155 18.9643 15.0873 18.7931 16.785C21.3795 16.9608 23.307 17.7018 24.4419 18.2388C28.9465 20.3726 31.3523 24.2135 32.3207 26.6639C32.6068 27.3885 33.3173 29.1542 33.4181 31.3865C33.4439 31.9493 33.4392 32.7184 33.4345 33.3093C33.4228 35.0047 33.3548 36.2498 33.3408 36.496C33.2704 37.856 33.2094 41.0826 33.2188 48.6941C30.956 48.7128 27.8092 48.7175 24.048 48.6636C15.855 48.544 14.5395 48.2767 13.3366 47.8898C12.136 47.5052 6.68419 45.7512 3.69682 40.3205C0.425714 34.3716 1.9194 27.2971 4.89036 23.1865C6.0839 21.5357 7.46738 20.4242 7.92463 20.0725C11.0105 17.6878 14.2324 17.0617 15.8527 16.8647L15.8597 16.8577Z" fill="#F4BD38"/>
</g>
<g filter="url(#filter1_d_1762_358)">
<path d="M19.9398 33.0326C20.7414 33.0326 21.3912 32.3828 21.3912 31.5811C21.3912 30.7795 20.7414 30.1297 19.9398 30.1297C19.1381 30.1297 18.4883 30.7795 18.4883 31.5811C18.4883 32.3828 19.1381 33.0326 19.9398 33.0326Z" fill="#F4BD38"/>
</g>
<defs>
<filter id="filter0_d_1762_358" x="0.588145" y="0.948924" width="39.9501" height="54.858" filterUnits="userSpaceOnUse" color-interpolation-filters="sRGB">
<feFlood flood-opacity="0" result="BackgroundImageFix"/>
<feColorMatrix in="SourceAlpha" type="matrix" values="0 0 0 0 0 0 0 0 0 0 0 0 0 0 0 0 0 0 127 0" result="hardAlpha"/>
<feOffset dx="2.92" dy="2.92"/>
<feGaussianBlur stdDeviation="2.09"/>
<feColorMatrix type="matrix" values="0 0 0 0 0.137255 0 0 0 0 0.121569 0 0 0 0 0.12549 0 0 0 0.2 0"/>
<feBlend mode="normal" in2="BackgroundImageFix" result="effect1_dropShadow_1762_358"/>
<feBlend mode="normal" in="SourceGraphic" in2="effect1_dropShadow_1762_358" result="shape"/>
</filter>
<filter id="filter1_d_1762_358" x="17.2283" y="28.8697" width="11.263" height="11.263" filterUnits="userSpaceOnUse" color-interpolation-filters="sRGB">
<feFlood flood-opacity="0" result="BackgroundImageFix"/>
<feColorMatrix in="SourceAlpha" type="matrix" values="0 0 0 0 0 0 0 0 0 0 0 0 0 0 0 0 0 0 127 0" result="hardAlpha"/>
<feOffset dx="2.92" dy="2.92"/>
<feGaussianBlur stdDeviation="2.09"/>
<feColorMatrix type="matrix" values="0 0 0 0 0.137255 0 0 0 0 0.121569 0 0 0 0 0.12549 0 0 0 0.73 0"/>
<feBlend mode="normal" in2="BackgroundImageFix" result="effect1_dropShadow_1762_358"/>
<feBlend mode="normal" in="SourceGraphic" in2="effect1_dropShadow_1762_358" result="shape"/>
</filter>
</defs>
</svg>
