<svg width="27" height="40" viewBox="0 0 27 40" fill="none" xmlns="http://www.w3.org/2000/svg">
<path fill-rule="evenodd" clip-rule="evenodd" d="M11.8072 14.6332C11.7873 13.8367 11.8151 13.0918 11.8688 12.4086L11.8628 12.4145C10.4903 12.5813 7.76116 13.1117 5.14715 15.1317C4.75988 15.4296 3.58794 16.3711 2.57696 17.7695C0.0603563 21.2515 -1.2049 27.244 1.56597 32.2832C4.09649 36.8834 8.71459 38.3691 9.7315 38.6949C10.7505 39.0226 11.8647 39.2491 18.8047 39.3505C21.9908 39.3961 24.6564 39.3921 26.5732 39.3762C26.5652 32.9287 26.6169 30.1957 26.6764 29.0436C26.6883 28.8351 26.746 27.7803 26.7559 26.3442C26.7586 26.0016 26.7613 25.5881 26.7558 25.2084C26.7532 25.0336 26.7489 24.8658 26.742 24.7156C26.658 22.8552 26.0741 21.3774 25.8244 20.7455L25.8124 20.7151C24.9921 18.6395 22.9542 15.3859 19.1385 13.5784C18.1772 13.1237 16.5445 12.496 14.3536 12.3469C14.4986 10.9089 14.9674 8.30688 16.7471 5.70288C17.6429 4.39392 18.6261 3.43847 19.4424 2.77112C19.4444 2.91809 19.4762 4.54883 20.7911 5.42285C22.0802 6.27893 23.999 6.0028 24.8809 4.77136C25.8482 3.41858 25.3794 1.18615 23.5719 0.216794C23.3534 0.147214 23.0098 0.0539524 22.5807 0.0161106C21.0354 -0.116824 19.8238 0.604123 19.1305 1.03113C15.5055 3.25976 13.7518 7.42102 13.7518 7.42102C12.5401 10.2971 12.5501 12.8475 12.56 14.5001C12.5699 16.1071 12.7566 17.4478 12.9374 18.4031C13.6366 18.3594 15.6347 18.3317 17.621 19.6227C18.2189 20.01 19.4643 20.9435 20.2648 22.5723C20.8307 23.7263 20.8944 24.6619 20.9163 28.0981C20.9321 30.2413 20.9222 32.1204 20.9043 33.6676C17.2397 33.5585 14.7886 33.5347 13.1559 33.5386C12.9374 33.5386 12.6692 33.5386 12.2998 33.4949C9.12566 33.1155 7.26855 30.4341 7.08178 30.1539C6.42034 29.1667 6.14428 28.253 6.03704 27.8459C5.82647 27.0414 5.30407 24.5049 6.77599 22.03C8.55956 19.0309 11.829 18.5403 12.2481 18.4845C12.0196 17.3861 11.841 16.0891 11.8072 14.6332ZM16.5544 24.8784C16.5544 25.5574 16.0039 26.1079 15.3249 26.1079C14.6459 26.1079 14.0954 25.5574 14.0954 24.8784C14.0954 24.1993 14.6459 23.6488 15.3249 23.6488C16.0039 23.6488 16.5544 24.1993 16.5544 24.8784Z" fill="url(#paint0_linear_1022_42)"/>
<defs>
<linearGradient id="paint0_linear_1022_42" x1="3" y1="5" x2="25.5" y2="39" gradientUnits="userSpaceOnUse">
<stop stop-color="#F4BD38"/>
<stop offset="1" stop-color="#F99D32"/>
</linearGradient>
</defs>
</svg>
