<?xml version="1.0" encoding="utf-8"?>
<!-- Generator: Adobe Illustrator 26.2.1, SVG Export Plug-In . SVG Version: 6.00 Build 0)  -->
<svg version="1.1" id="Layer_1" xmlns="http://www.w3.org/2000/svg" xmlns:xlink="http://www.w3.org/1999/xlink" x="0px" y="0px"
	 viewBox="0 0 364.1 236" style="enable-background:new 0 0 364.1 236;" xml:space="preserve">
<style type="text/css">
	.st0{fill:url(#SVGID_1_);}
	.st1{fill:url(#SVGID_00000094575798996665798110000010527828119487968387_);}
	.st2{fill:url(#SVGID_00000044167286491785738070000009137515131166031001_);}
	.st3{fill:url(#SVGID_00000183959639447132208970000005853901725517667984_);}
	.st4{fill:url(#SVGID_00000146478337032114891370000003359105042549716138_);}
	.st5{fill:url(#SVGID_00000004539044228770317840000006206259188896726401_);}
	.st6{fill:url(#SVGID_00000097491180367684559170000011277591928975298947_);}
	.st7{fill:url(#SVGID_00000176038691672308444770000008974343086275240618_);}
	.st8{fill:url(#SVGID_00000053540490142282767670000010013632297631073957_);}
	.st9{fill:url(#SVGID_00000061471224547877977470000011385017658571020942_);}
	.st10{fill:url(#SVGID_00000145059068250548458750000015447214863514574489_);}
	.st11{fill:#51FFFF;}
	
		.st12{fill:none;stroke:url(#SVGID_00000003088086478108247910000002978956935409199259_);stroke-width:1.0051;stroke-linecap:round;stroke-miterlimit:10;stroke-dasharray:2.0102;}
	.st13{fill:url(#SVGID_00000044177913000652929170000017970704766133191845_);}
	.st14{fill:url(#SVGID_00000044883855431092734740000016452145249538858372_);}
	.st15{fill:url(#SVGID_00000132069423702022833710000010720375803543142026_);}
	.st16{fill:url(#SVGID_00000056388155059983519370000011589953134733387653_);}
	.st17{opacity:0.72;fill:url(#SVGID_00000062153041410939681210000007501711136187958933_);}
	.st18{opacity:0.72;fill:url(#SVGID_00000150088415588865659610000001465228024504704910_);}
	.st19{opacity:0.72;fill:url(#SVGID_00000053519433177326534410000017920324981328113059_);}
	.st20{fill:url(#SVGID_00000083807213374509455730000010954932052445708218_);}
	.st21{fill:url(#SVGID_00000119808531492126718010000005295168661036990119_);}
	.st22{opacity:0.43;fill:url(#SVGID_00000017494522134309860680000014791065825685652412_);}
	.st23{opacity:0.43;fill:url(#SVGID_00000013892204040386209440000012804399304030019465_);}
	.st24{opacity:0.43;fill:url(#SVGID_00000132799450207413184030000000843594062826215559_);}
	.st25{opacity:0.43;fill:url(#SVGID_00000149362091609282417630000009773748462900525225_);}
	.st26{opacity:0.43;fill:url(#SVGID_00000061467092013075591160000010171834537378881946_);}
	.st27{opacity:0.43;fill:url(#SVGID_00000124141414936513810690000000910114775894242961_);}
	.st28{opacity:0.43;fill:url(#SVGID_00000142155368379685996880000010621318924727959460_);}
</style>
<g>
	
		<linearGradient id="SVGID_1_" gradientUnits="userSpaceOnUse" x1="1678.7987" y1="-2325.6499" x2="1673.2245" y2="-2007.3014" gradientTransform="matrix(0.7071 -0.7071 0.7071 0.7071 897.7632 2612.2493)">
		<stop  offset="0" style="stop-color:#219096"/>
		<stop  offset="1" style="stop-color:#5179A2"/>
	</linearGradient>
	<path class="st0" d="M732.5-95.9C698.5-14.8,641,42.7,559.9,76.7c-5,2.1-13.4,2.1-18.4,0c-81.1-34-138.6-91.5-172.6-172.6
		c-2.1-5-2.1-13.4,0-18.4c34-81.1,91.5-138.6,172.6-172.6c5-2.1,13.4-2.1,18.4,0c81.1,34,138.6,91.5,172.6,172.6
		C734.5-109.2,734.5-100.9,732.5-95.9z"/>
</g>
<g>
	
		<linearGradient id="SVGID_00000085952709010280932730000014219795931175280825_" gradientUnits="userSpaceOnUse" x1="182.0645" y1="127.8741" x2="182.0645" y2="232.749">
		<stop  offset="0" style="stop-color:#219096"/>
		<stop  offset="1" style="stop-color:#5179A2;stop-opacity:0"/>
	</linearGradient>
	<path style="fill:url(#SVGID_00000085952709010280932730000014219795931175280825_);" d="M0,236c0-62.9,81.5-113.9,182.1-113.9
		s182.1,51,182.1,113.9H0z"/>
	<g>
		
			<linearGradient id="SVGID_00000070091624337323189280000003383149707081790082_" gradientUnits="userSpaceOnUse" x1="182.0645" y1="121.6565" x2="182.0645" y2="236">
			<stop  offset="0" style="stop-color:#219096"/>
			<stop  offset="1" style="stop-color:#5179A2;stop-opacity:0.25"/>
		</linearGradient>
		<path style="fill:url(#SVGID_00000070091624337323189280000003383149707081790082_);" d="M0,236c0-9.8,2-19.6,5.7-28.7
			c3.8-9.1,9.1-17.5,15.5-25c6.3-7.5,13.7-14.1,21.6-20c7.9-5.9,16.3-10.9,25.1-15.4c8.8-4.4,17.9-8.2,27.2-11.4
			c9.3-3.2,18.8-5.7,28.4-7.8c19.2-4.2,38.9-6,58.5-6.1c19.7,0.1,39.3,2,58.5,6.1c9.6,2.1,19.1,4.6,28.4,7.8
			c9.3,3.2,18.4,7,27.2,11.4c8.8,4.4,17.2,9.5,25.1,15.4c7.9,5.9,15.3,12.4,21.6,20c6.3,7.5,11.7,15.9,15.5,25
			c3.7,9.1,5.7,18.9,5.7,28.7c-0.1-9.8-2.2-19.6-5.9-28.6c-3.9-9-9.2-17.3-15.6-24.8c-6.3-7.5-13.7-14-21.6-19.8
			c-7.9-5.8-16.3-10.9-25.1-15.3c-8.8-4.4-17.8-8.1-27.1-11.3c-9.3-3.1-18.8-5.7-28.4-7.7c-19.2-4.1-38.8-5.9-58.4-5.9
			c-19.6,0.1-39.2,1.9-58.4,5.9c-9.6,2-19.1,4.6-28.4,7.7c-9.3,3.2-18.4,6.9-27.1,11.3c-8.8,4.4-17.2,9.4-25.1,15.3
			c-7.9,5.8-15.3,12.4-21.6,19.8c-6.4,7.4-11.8,15.7-15.6,24.8C2.2,216.4,0.1,226.2,0,236z"/>
	</g>
	<g>
		<g>
			
				<linearGradient id="SVGID_00000147910557757240087640000001636739692130127233_" gradientUnits="userSpaceOnUse" x1="149.31" y1="71.4368" x2="146.4138" y2="92.8946">
				<stop  offset="0" style="stop-color:#219096"/>
				<stop  offset="1" style="stop-color:#5179A2"/>
			</linearGradient>
			<polygon style="fill:url(#SVGID_00000147910557757240087640000001636739692130127233_);" points="184.1,69.3 109.9,79.4 
				109.9,100.9 184.1,97.2 			"/>
			
				<linearGradient id="SVGID_00000160166509582434367810000004836192652145475254_" gradientUnits="userSpaceOnUse" x1="217.5755" y1="91.305" x2="219.0275" y2="74.5415">
				<stop  offset="0" style="stop-color:#219096"/>
				<stop  offset="1" style="stop-color:#5179A2"/>
			</linearGradient>
			<polygon style="fill:url(#SVGID_00000160166509582434367810000004836192652145475254_);" points="254.2,76.6 184.1,69.3 
				184.1,97.2 244.9,105.2 			"/>
		</g>
		
			<linearGradient id="SVGID_00000058558775491503876650000001406047394482693555_" gradientUnits="userSpaceOnUse" x1="258.7441" y1="123.8453" x2="176.0292" y2="134.4432">
			<stop  offset="0" style="stop-color:#219096"/>
			<stop  offset="1" style="stop-color:#5179A2"/>
		</linearGradient>
		<polygon style="fill:url(#SVGID_00000058558775491503876650000001406047394482693555_);" points="184.1,181.2 184.1,91.5 
			254.2,76.6 256.1,149.8 		"/>
		
			<linearGradient id="SVGID_00000123439644937521631870000005448643533592477612_" gradientUnits="userSpaceOnUse" x1="150.9459" y1="161.0762" x2="142.3483" y2="67.8051">
			<stop  offset="0" style="stop-color:#219096"/>
			<stop  offset="1" style="stop-color:#5179A2"/>
		</linearGradient>
		<polygon style="fill:url(#SVGID_00000123439644937521631870000005448643533592477612_);" points="184.1,181.2 109.9,145.7 
			109.9,79.4 184.1,91.5 		"/>
		
			<linearGradient id="SVGID_00000160186357405413117850000010370325629326017689_" gradientUnits="userSpaceOnUse" x1="253.8586" y1="107.4042" x2="185.5442" y2="116.157">
			<stop  offset="0" style="stop-color:#219096"/>
			<stop  offset="1" style="stop-color:#5179A2"/>
		</linearGradient>
		<polygon style="fill:url(#SVGID_00000160186357405413117850000010370325629326017689_);" points="184.1,91.5 193.3,140 
			255.2,114.3 254.2,100.4 		"/>
		
			<linearGradient id="SVGID_00000089547269160721517350000007780600415195211174_" gradientUnits="userSpaceOnUse" x1="184.129" y1="105.193" x2="271.0968" y2="105.193">
			<stop  offset="0" style="stop-color:#21C296"/>
			<stop  offset="1" style="stop-color:#51F4F2"/>
		</linearGradient>
		<polygon style="fill:url(#SVGID_00000089547269160721517350000007780600415195211174_);" points="184.1,91.5 197.3,133.7 
			271.1,107.9 254.2,76.6 		"/>
		
			<linearGradient id="SVGID_00000151515567488394946730000017009347795279166639_" gradientUnits="userSpaceOnUse" x1="185.4606" y1="112.6953" x2="109.0152" y2="122.4899">
			<stop  offset="0" style="stop-color:#219096"/>
			<stop  offset="1" style="stop-color:#5179A2"/>
		</linearGradient>
		<path style="fill:url(#SVGID_00000151515567488394946730000017009347795279166639_);" d="M173.7,135.6
			c0.5-0.1,10.5-44.1,10.5-44.1l-74.2,13.7v9.3L173.7,135.6z"/>
		
			<linearGradient id="SVGID_00000183942018454052516650000010345193783407173042_" gradientUnits="userSpaceOnUse" x1="95.0968" y1="104.1502" x2="184.129" y2="104.1502">
			<stop  offset="0" style="stop-color:#21C296"/>
			<stop  offset="1" style="stop-color:#51F4F2"/>
		</linearGradient>
		<polygon style="fill:url(#SVGID_00000183942018454052516650000010345193783407173042_);" points="171.2,128.9 184.1,91.5 
			109.9,79.4 95.1,108.5 		"/>
	</g>
	<polygon class="st11" points="197.3,133.7 184.1,91.5 254.2,76.6 186.8,93 197.5,132.2 224.9,124.1 	"/>
	<polygon class="st11" points="109.9,79.4 181.3,92.9 171.2,128.9 184.1,91.5 	"/>
	
		<linearGradient id="SVGID_00000124160782653954787690000017441069083109799063_" gradientUnits="userSpaceOnUse" x1="173.562" y1="58.8859" x2="199.0832" y2="58.8859">
		<stop  offset="0" style="stop-color:#21C296"/>
		<stop  offset="1" style="stop-color:#51F4A2"/>
	</linearGradient>
	
		<path style="fill:none;stroke:url(#SVGID_00000124160782653954787690000017441069083109799063_);stroke-width:1.0051;stroke-linecap:round;stroke-miterlimit:10;stroke-dasharray:2.0102;" d="
		M174.1,87.3c0,0,3.1-26.3,13.9-27s1.3,12.5-9,5S181,37,198.6,30.5"/>
	
		<linearGradient id="SVGID_00000129203705878626607610000003968970180970945668_" gradientUnits="userSpaceOnUse" x1="214.2225" y1="6.8736" x2="215.2053" y2="9.7565">
		<stop  offset="0" style="stop-color:#21C296"/>
		<stop  offset="1" style="stop-color:#51F4A2"/>
	</linearGradient>
	<polygon style="fill:url(#SVGID_00000129203705878626607610000003968970180970945668_);" points="200.8,12.1 202.7,28 230.6,0 	"/>
	
		<linearGradient id="SVGID_00000067207277993808942210000017567670306751291558_" gradientUnits="userSpaceOnUse" x1="202.7097" y1="13.9801" x2="230.5806" y2="13.9801">
		<stop  offset="0" style="stop-color:#219096"/>
		<stop  offset="1" style="stop-color:#5179A2"/>
	</linearGradient>
	<polygon style="fill:url(#SVGID_00000067207277993808942210000017567670306751291558_);" points="205.6,16.1 202.7,28 230.6,0 	"/>
	
		<linearGradient id="SVGID_00000165950911484816124340000005988559412355251351_" gradientUnits="userSpaceOnUse" x1="218.3862" y1="8.5127" x2="221.2406" y2="12.9242">
		<stop  offset="0" style="stop-color:#21C296"/>
		<stop  offset="1" style="stop-color:#51F4A2"/>
	</linearGradient>
	<path style="fill:url(#SVGID_00000165950911484816124340000005988559412355251351_);" d="M218.2,25.9c-0.6-0.7-12.6-9.8-12.6-9.8
		l25-16.1L218.2,25.9z"/>
	
		<linearGradient id="SVGID_00000084491690586602467440000001618559392619501756_" gradientUnits="userSpaceOnUse" x1="209.065" y1="0.4877" x2="210.7219" y2="9.0646">
		<stop  offset="0" style="stop-color:#21C296"/>
		<stop  offset="1" style="stop-color:#51F4A2"/>
	</linearGradient>
	<polygon style="fill:url(#SVGID_00000084491690586602467440000001618559392619501756_);" points="230.6,0 188.6,6.6 200.8,12.1 	
		"/>
	<polygon class="st11" points="218.2,25.9 206.8,16.2 230.6,0 205.6,16.1 	"/>
	
		<linearGradient id="SVGID_00000140719308969481745380000007794184105993071493_" gradientUnits="userSpaceOnUse" x1="275.4012" y1="144.6124" x2="289.5798" y2="218.0072">
		<stop  offset="0" style="stop-color:#219096"/>
		<stop  offset="1" style="stop-color:#5179A2;stop-opacity:0.25"/>
	</linearGradient>
	
		<ellipse style="opacity:0.72;fill:url(#SVGID_00000140719308969481745380000007794184105993071493_);" cx="285.2" cy="195.1" rx="32.5" ry="32.8"/>
	
		<linearGradient id="SVGID_00000088821697064831047410000016944654431594965922_" gradientUnits="userSpaceOnUse" x1="171.8364" y1="180.9879" x2="178.1661" y2="213.7534">
		<stop  offset="0" style="stop-color:#219096"/>
		<stop  offset="1" style="stop-color:#5179A2;stop-opacity:0.25"/>
	</linearGradient>
	
		<ellipse style="opacity:0.72;fill:url(#SVGID_00000088821697064831047410000016944654431594965922_);" cx="176.2" cy="203.5" rx="14.5" ry="14.7"/>
	
		<linearGradient id="SVGID_00000023973803277505798530000002924653996899017877_" gradientUnits="userSpaceOnUse" x1="79.8221" y1="143.0819" x2="89.9215" y2="195.3612">
		<stop  offset="0" style="stop-color:#219096"/>
		<stop  offset="1" style="stop-color:#5179A2;stop-opacity:0.25"/>
	</linearGradient>
	
		<ellipse style="opacity:0.72;fill:url(#SVGID_00000023973803277505798530000002924653996899017877_);" cx="86.8" cy="179.1" rx="23.2" ry="23.4"/>
	
		<linearGradient id="SVGID_00000020356770706850715220000002646547469991385735_" gradientUnits="userSpaceOnUse" x1="217.5484" y1="46.9903" x2="217.5484" y2="62.5158">
		<stop  offset="0" style="stop-color:#219096"/>
		<stop  offset="1" style="stop-color:#5179A2"/>
	</linearGradient>
	<path style="fill:url(#SVGID_00000020356770706850715220000002646547469991385735_);" d="M223.1,50.3c0,0-1.4,1.2-2.2,4.4
		C220.1,58,215,64,208,62.2c0,0,2.2-19.4,19.1-14.3c0,0-10-0.7-10.5,6.1C216.5,53.9,218.4,50,223.1,50.3z"/>
	
		<linearGradient id="SVGID_00000178178494671603847320000007563848255265694608_" gradientUnits="userSpaceOnUse" x1="168.871" y1="56.8773" x2="168.871" y2="68.1543" gradientTransform="matrix(-1 0 0 1 320.129 0)">
		<stop  offset="0" style="stop-color:#219096"/>
		<stop  offset="1" style="stop-color:#5179A2"/>
	</linearGradient>
	<path style="fill:url(#SVGID_00000178178494671603847320000007563848255265694608_);" d="M147.2,59.3c0,0,1,0.9,1.6,3.2
		c0.6,2.4,4.3,6.7,9.4,5.4c0,0-1.6-14.1-13.9-10.4c0,0,7.3-0.5,7.7,4.4C152,61.9,150.7,59.1,147.2,59.3z"/>
	
		<linearGradient id="SVGID_00000124124550085711284900000011426260075785455020_" gradientUnits="userSpaceOnUse" x1="145.1595" y1="33.1417" x2="145.1595" y2="52.9897">
		<stop  offset="0" style="stop-color:#219096"/>
		<stop  offset="1" style="stop-color:#5179A2;stop-opacity:0"/>
	</linearGradient>
	<path style="opacity:0.43;fill:url(#SVGID_00000124124550085711284900000011426260075785455020_);" d="M169.9,48.2
		c0,4.1-3.3,7.4-7.3,7.4h-34.8c-4.1,0-7.4-3.3-7.4-7.4s3.3-7.4,7.4-7.4c1.6,0,3.2,0.5,4.4,1.5c0-0.1,0-0.2,0-0.2
		c0-5.9,5.8-10.8,13-10.8c7.2,0,13,4.8,13,10.8c0,0.1,0,0.2,0,0.2c1.2-0.9,2.8-1.5,4.4-1.5C166.6,40.8,169.9,44.1,169.9,48.2z"/>
	
		<linearGradient id="SVGID_00000114055461585953068010000001233729448363308719_" gradientUnits="userSpaceOnUse" x1="244.4126" y1="56.7508" x2="244.4126" y2="67.8321">
		<stop  offset="0" style="stop-color:#219096"/>
		<stop  offset="1" style="stop-color:#5179A2;stop-opacity:0"/>
	</linearGradient>
	<path style="opacity:0.43;fill:url(#SVGID_00000114055461585953068010000001233729448363308719_);" d="M258.2,65.2
		c0,2.3-1.8,4.1-4.1,4.1h-19.5c-2.3,0-4.1-1.9-4.1-4.1c0-2.3,1.8-4.2,4.1-4.2c0.9,0,1.8,0.3,2.5,0.8c0,0,0-0.1,0-0.1
		c0-3.3,3.3-6,7.3-6c4,0,7.3,2.7,7.3,6c0,0,0,0.1,0,0.1c0.7-0.5,1.5-0.8,2.5-0.8C256.4,61,258.2,62.9,258.2,65.2z"/>
	
		<linearGradient id="SVGID_00000108271528018502460910000003132983786406733239_" gradientUnits="userSpaceOnUse" x1="278.6049" y1="78.7045" x2="278.6049" y2="88.1372">
		<stop  offset="0" style="stop-color:#219096"/>
		<stop  offset="1" style="stop-color:#5179A2;stop-opacity:0"/>
	</linearGradient>
	<polygon style="opacity:0.43;fill:url(#SVGID_00000108271528018502460910000003132983786406733239_);" points="279.9,84.9 
		284.3,83.6 279.9,82.3 278.6,77.8 277.3,82.3 272.9,83.6 277.3,84.9 278.6,89.4 	"/>
	
		<linearGradient id="SVGID_00000067216209894452564350000011509115630428397489_" gradientUnits="userSpaceOnUse" x1="86.7742" y1="65.9464" x2="86.7742" y2="75.3792">
		<stop  offset="0" style="stop-color:#219096"/>
		<stop  offset="1" style="stop-color:#5179A2;stop-opacity:0"/>
	</linearGradient>
	<polygon style="opacity:0.43;fill:url(#SVGID_00000067216209894452564350000011509115630428397489_);" points="88.1,72.2 
		92.5,70.9 88.1,69.5 86.8,65.1 85.5,69.5 81,70.9 85.5,72.2 86.8,76.6 	"/>
	
		<linearGradient id="SVGID_00000124139015300632368700000017142756292781868954_" gradientUnits="userSpaceOnUse" x1="174.0645" y1="9.6501" x2="174.0645" y2="22.718">
		<stop  offset="0" style="stop-color:#219096"/>
		<stop  offset="1" style="stop-color:#5179A2;stop-opacity:0"/>
	</linearGradient>
	<polygon style="opacity:0.43;fill:url(#SVGID_00000124139015300632368700000017142756292781868954_);" points="175.9,18.3 
		182,16.4 175.9,14.6 174.1,8.4 172.3,14.6 166.1,16.4 172.3,18.3 174.1,24.5 	"/>
	
		<linearGradient id="SVGID_00000018954349415396436000000009755078794638812826_" gradientUnits="userSpaceOnUse" x1="287.871" y1="115.8856" x2="287.871" y2="125.65">
		<stop  offset="0" style="stop-color:#219096"/>
		<stop  offset="1" style="stop-color:#5179A2;stop-opacity:0"/>
	</linearGradient>
	
		<ellipse style="opacity:0.43;fill:url(#SVGID_00000018954349415396436000000009755078794638812826_);" cx="287.9" cy="121" rx="5.9" ry="6"/>
	
		<linearGradient id="SVGID_00000092441521923651881240000006656901141700806808_" gradientUnits="userSpaceOnUse" x1="75.1048" y1="105.7182" x2="75.1048" y2="115.4827">
		<stop  offset="0" style="stop-color:#219096"/>
		<stop  offset="1" style="stop-color:#5179A2;stop-opacity:0"/>
	</linearGradient>
	
		<ellipse style="opacity:0.43;fill:url(#SVGID_00000092441521923651881240000006656901141700806808_);" cx="75.1" cy="110.8" rx="5.9" ry="6"/>
</g>
</svg>
