<svg width="18" height="18" viewBox="0 0 18 18" fill="none" xmlns="http://www.w3.org/2000/svg">
<path d="M9.4707 0.125C4.75586 0.125 0.970703 3.94336 0.970703 8.625C0.970703 13.3398 4.75586 17.125 9.4707 17.125C14.1523 17.125 17.9707 13.3398 17.9707 8.625C17.9707 3.94336 14.1523 0.125 9.4707 0.125ZM2.56445 8.625C2.56445 7.5625 2.79688 6.5332 3.26172 5.63672C3.29492 5.70312 3.32812 5.80273 3.36133 5.86914C3.75977 6.4668 4.32422 7.26367 4.55664 7.62891C4.72266 7.89453 4.92188 8.12695 5.1543 8.32617H5.1875C5.48633 8.625 5.85156 8.85742 6.2168 9.05664C6.68164 9.28906 7.37891 9.6543 7.84375 9.91992C8.17578 10.1191 8.4082 10.4844 8.4082 10.8496V11.9121C8.4082 12.2109 8.50781 12.4766 8.70703 12.6758C9.20508 13.1738 9.50391 13.9707 9.4707 14.3691V14.8008C9.4707 15.1992 9.76953 15.498 10.168 15.4648C10.2012 15.4648 10.2012 15.4648 10.2344 15.4648C10.2676 15.4648 10.2676 15.4648 10.3008 15.4648C10.0352 15.5312 9.73633 15.5312 9.4707 15.5312C5.65234 15.5312 2.56445 12.4434 2.56445 8.625ZM10.4336 15.4648C10.6992 15.4316 10.9316 15.2324 10.998 14.9668L11.4629 13.5723C11.5293 13.373 11.5625 13.207 11.6289 13.0078C11.6621 12.875 11.7285 12.7422 11.8281 12.6426C11.9277 12.543 12.0605 12.4102 12.1934 12.2773C12.4922 11.9785 12.6582 11.5801 12.6582 11.1816C12.6582 10.916 12.5586 10.6504 12.3594 10.4512L11.8945 10.0195C11.6953 9.82031 11.4297 9.6875 11.1309 9.6875H8.93945C8.60742 9.55469 8.20898 8.625 7.87695 8.625C7.51172 8.625 7.17969 8.55859 6.84766 8.39258L6.48242 8.22656C6.2832 8.12695 6.2168 7.89453 6.31641 7.69531C6.38281 7.5957 6.44922 7.5293 6.54883 7.49609L7.57812 7.13086C7.74414 7.09766 7.94336 7.13086 8.10938 7.23047L8.4082 7.5293C8.44141 7.5625 8.50781 7.5957 8.57422 7.5957H8.77344C8.90625 7.5957 9.03906 7.46289 9.03906 7.33008C9.03906 7.26367 9.03906 7.23047 9.00586 7.19727L8.47461 6.16797C8.44141 6.06836 8.44141 5.93555 8.54102 5.83594L8.87305 5.53711C8.90625 5.4707 8.97266 5.4375 9.03906 5.4375H9.33789C9.4375 5.4707 9.50391 5.4375 9.53711 5.37109L9.80273 5.10547C9.90234 5.00586 9.90234 4.83984 9.80273 4.74023L9.63672 4.57422C9.53711 4.47461 9.53711 4.30859 9.63672 4.20898L10.1348 3.71094C10.3672 3.51172 10.3672 3.14648 10.1348 2.94727L9.33789 2.15039C9.23828 2.05078 9.13867 2.01758 9.00586 2.01758C8.93945 2.01758 8.83984 2.05078 8.77344 2.05078C8.57422 2.05078 8.4082 2.25 8.4082 2.44922C8.4082 2.68164 8.24219 2.91406 8.00977 2.98047C7.87695 3.01367 7.74414 3.01367 7.64453 2.94727C7.44531 2.84766 7.24609 2.71484 7.11328 2.58203L6.78125 2.2832C7.61133 1.91797 8.50781 1.71875 9.4707 1.71875C12.1934 1.71875 14.584 3.3457 15.6797 5.66992C15.4473 5.70312 15.1816 5.76953 14.9492 5.90234C14.8496 5.96875 14.75 6.03516 14.6504 6.16797L14.0195 7.13086C13.8203 7.39648 13.8203 7.76172 14.0195 8.02734L14.6172 8.92383C14.6836 9.05664 14.8164 9.15625 14.9492 9.22266L15.6465 9.55469L16.2441 9.85352C15.7129 12.7754 13.3887 15.0664 10.4336 15.4648Z" fill="url(#paint0_linear_1018_153)"/>
<defs>
<linearGradient id="paint0_linear_1018_153" x1="9" y1="0" x2="9" y2="17" gradientUnits="userSpaceOnUse">
<stop stop-color="#005191"/>
<stop offset="1" stop-color="var(--primary)"/>
</linearGradient>
</defs>
</svg>
