<svg width="21" height="28" viewBox="0 0 21 28" fill="none" xmlns="http://www.w3.org/2000/svg">
<path d="M15.25 12H18C19.1046 12 20 12.8954 20 14V25C20 26.1046 19.1046 27 18 27H3C1.89543 27 1 26.1046 1 25V14C1 12.8954 1.89543 12 3 12H5.75" stroke="white" stroke-width="2"/>
<path d="M9.5 19.5C9.5 20.0523 9.94772 20.5 10.5 20.5C11.0523 20.5 11.5 20.0523 11.5 19.5H9.5ZM11.2071 0.292893C10.8166 -0.0976311 10.1834 -0.0976311 9.79289 0.292893L3.42893 6.65685C3.03841 7.04738 3.03841 7.68054 3.42893 8.07107C3.81946 8.46159 4.45262 8.46159 4.84315 8.07107L10.5 2.41421L16.1569 8.07107C16.5474 8.46159 17.1805 8.46159 17.5711 8.07107C17.9616 7.68054 17.9616 7.04738 17.5711 6.65685L11.2071 0.292893ZM11.5 19.5V1H9.5V19.5H11.5Z" fill="white"/>
</svg>
