<svg width="48" height="48" viewBox="0 0 48 48" fill="none" xmlns="http://www.w3.org/2000/svg">
<path d="M44.3125 0.8125C42.5547 0.8125 41.1875 2.27734 41.1875 3.9375V11.2617C37.2812 5.79297 30.9336 2.375 24 2.375C14.7227 2.375 6.61719 8.33203 3.78516 17.1211C3.29688 18.7812 4.17578 20.5391 5.83594 21.0273C7.49609 21.5156 9.25391 20.6367 9.74219 18.9766C11.6953 12.8242 17.457 8.625 24 8.625C28.8828 8.625 33.375 11.0664 36.1094 14.875H31.8125C30.0547 14.875 28.6875 16.3398 28.6875 18C28.6875 19.7578 30.0547 21.125 31.8125 21.125H44.3125C45.9727 21.125 47.4375 19.7578 47.4375 18V3.9375C47.4375 2.27734 45.9727 0.8125 44.3125 0.8125ZM42.0664 27.5703C40.4062 27.082 38.6484 27.9609 38.1602 29.6211C36.207 35.7734 30.4453 39.875 24 39.875C19.0195 39.875 14.5273 37.5312 11.793 33.625H16.1875C17.8477 33.625 19.3125 32.2578 19.3125 30.5C19.3125 28.8398 17.8477 27.375 16.1875 27.375H3.6875C1.92969 27.375 0.5625 28.8398 0.5625 30.5V44.5625C0.5625 46.3203 1.92969 47.6875 3.6875 47.6875C5.34766 47.6875 6.8125 46.3203 6.8125 44.5625V37.3359C10.6211 42.8047 16.9688 46.125 23.9023 46.125C33.082 46.125 41.1875 40.2656 44.0195 31.4766C44.6055 29.8164 43.7266 28.0586 42.0664 27.5703Z" fill="#F2F2F2"/>
</svg>
