<?xml version="1.0" encoding="utf-8"?>
<!-- Generator: Adobe Illustrator 26.2.1, SVG Export Plug-In . SVG Version: 6.00 Build 0)  -->
<svg version="1.1" id="Layer_1" xmlns="http://www.w3.org/2000/svg" xmlns:xlink="http://www.w3.org/1999/xlink" x="0px" y="0px"
	 viewBox="0 0 225 225" style="enable-background:new 0 0 225 225;" xml:space="preserve">
<style type="text/css">
	.st0{fill:#FFFFFF;}
	.st1{fill:url(#SVGID_1_);}
	.st2{fill:url(#SVGID_00000021095810304165898360000008233343480234718139_);}
	.st3{fill:url(#SVGID_00000091702812613684301650000011725293884222265514_);}
	.st4{fill:url(#SVGID_00000092450347134320453930000016389269741575378091_);}
	.st5{fill:url(#SVGID_00000049199321436601974710000016970778605934861444_);}
	.st6{fill:url(#SVGID_00000141453940456770590330000007980245872925064127_);}
</style>
<rect class="st0" width="225" height="225"/>
<linearGradient id="SVGID_1_" gradientUnits="userSpaceOnUse" x1="88.9" y1="139.2" x2="136.039" y2="139.2" gradientTransform="matrix(1 0 0 -1 0 226)">
	<stop  offset="0" style="stop-color:#219096"/>
	<stop  offset="1" style="stop-color:#5179A2"/>
</linearGradient>
<circle class="st1" cx="112.5" cy="86.8" r="23.6"/>
<linearGradient id="SVGID_00000152241689936448012050000000256472536649422777_" gradientUnits="userSpaceOnUse" x1="65.233" y1="87.45" x2="159.5873" y2="87.45" gradientTransform="matrix(1 0 0 -1 0 226)">
	<stop  offset="0" style="stop-color:#219096"/>
	<stop  offset="1" style="stop-color:#5179A2"/>
</linearGradient>
<path style="fill:url(#SVGID_00000152241689936448012050000000256472536649422777_);" d="M72.9,161.8c-4.7,0-8.2-4.4-7.6-9.2
	c3.7-26.2,23.4-37.3,47.1-37.3s43.4,11.1,47.1,37.3c0.7,4.9-2.9,9.2-7.6,9.2H72.9z"/>
<linearGradient id="SVGID_00000066486540784402005130000005167624235071667345_" gradientUnits="userSpaceOnUse" x1="137.17" y1="134.55" x2="170.32" y2="134.55" gradientTransform="matrix(1 0 0 -1 0 226)">
	<stop  offset="0" style="stop-color:#219096"/>
	<stop  offset="1" style="stop-color:#5179A2"/>
</linearGradient>
<path style="fill:url(#SVGID_00000066486540784402005130000005167624235071667345_);" d="M170.3,91.5c0,10.6-8.6,19.2-19.3,19.2
	c-5.5,0-10.4-2.3-13.9-5.9c3.7-5.1,5.9-11.3,5.9-18c0-4.1-0.8-8-2.3-11.6c3-1.9,6.5-3,10.3-3C161.7,72.3,170.3,80.9,170.3,91.5z"/>
<linearGradient id="SVGID_00000045620300481312224660000015525685027442456753_" gradientUnits="userSpaceOnUse" x1="142.8" y1="92.3" x2="189.5789" y2="92.3" gradientTransform="matrix(1 0 0 -1 0 226)">
	<stop  offset="0" style="stop-color:#219096"/>
	<stop  offset="1" style="stop-color:#5179A2"/>
</linearGradient>
<path style="fill:url(#SVGID_00000045620300481312224660000015525685027442456753_);" d="M183.4,152.7h-16.7c0-0.4-0.1-0.8-0.1-1.2
	c-2.3-16.5-10.7-29-23.8-36.2c2.7-0.4,5.4-0.6,8.2-0.6c19.4,0,35.5,9.1,38.5,30.4C190.1,149.2,187.2,152.7,183.4,152.7z"/>
<linearGradient id="SVGID_00000082357777977567169780000004586902559711589302_" gradientUnits="userSpaceOnUse" x1="54.68" y1="134.5" x2="87.83" y2="134.5" gradientTransform="matrix(1 0 0 -1 0 226)">
	<stop  offset="0" style="stop-color:#219096"/>
	<stop  offset="1" style="stop-color:#5179A2"/>
</linearGradient>
<path style="fill:url(#SVGID_00000082357777977567169780000004586902559711589302_);" d="M87.8,104.8c-3.5,3.7-8.4,5.9-13.9,5.9
	c-10.6,0-19.3-8.6-19.3-19.2s8.6-19.2,19.3-19.2c3.8,0,7.3,1.1,10.3,3c-1.5,3.6-2.3,7.5-2.3,11.6C81.9,93.5,84.1,99.8,87.8,104.8z"
	/>
<linearGradient id="SVGID_00000052083953284698457950000013710622634463192735_" gradientUnits="userSpaceOnUse" x1="35.3438" y1="92.1627" x2="82.2" y2="92.1627" gradientTransform="matrix(1 0 0 -1 0 226)">
	<stop  offset="0" style="stop-color:#219096"/>
	<stop  offset="1" style="stop-color:#5179A2"/>
</linearGradient>
<path style="fill:url(#SVGID_00000052083953284698457950000013710622634463192735_);" d="M82.2,115.4c-13,7.2-21.4,19.7-23.8,36.2
	c0,0.4-0.1,0.8-0.1,1.2H41.6c-3.8,0-6.7-3.5-6.2-7.5c3-21.4,19.1-30.4,38.5-30.4C76.8,114.8,79.5,115,82.2,115.4z"/>
</svg>
