<svg width="68" height="62" viewBox="0 0 68 62" fill="none" xmlns="http://www.w3.org/2000/svg">
<path d="M48.5 0H20V13.7361L34.25 8.98614L48.5 13.7361V0Z" fill="url(#paint0_linear_683_117)" fill-opacity="0.64"/>
<path fill-rule="evenodd" clip-rule="evenodd" d="M5.5 23.25L10.25 51.75H0.75V61.25H11.1648L22.125 56.8657L34 61.6157L45.875 56.8657L56.8351 61.25H67.25V51.75H57.75L62.5 23.25L34 13.75L5.5 23.25ZM30 22.0625H36.75C40.75 22.0625 44 25.25 44 29.25C44 32 42.4375 34.5 40 35.75L35 38.6875V40C35 41.125 34.0625 42 33 42C31.875 42 31 41.125 31 40V37.5C31 36.8125 31.3125 36.1875 31.9375 35.8125L38.0625 32.25C39.3125 31.625 40 30.5 40 29.25C40 27.5 38.5 26.0625 36.75 26.0625H30C28.875 26.0625 28 26.9375 28 28.0625C28 29.0625 27.0625 30 26 30C24.875 30 24 29.125 24 28.0625C24 24.75 26.6875 22.0625 30 22.0625ZM30.5 47.5C30.5 46.125 31.5625 45 33 45C34.375 45 35.5 46.1875 35.5 47.5C35.5 48.875 34.375 50 33 50C31.5625 50 30.5 48.9375 30.5 47.5Z" fill="url(#paint1_linear_683_117)" fill-opacity="0.64"/>
<defs>
<linearGradient id="paint0_linear_683_117" x1="34.25" y1="0" x2="34.25" y2="13.7361" gradientUnits="userSpaceOnUse">
<stop stop-color="white"/>
<stop offset="0.674829" stop-color="white"/>
<stop offset="1" stop-color="white" stop-opacity="0.44"/>
</linearGradient>
<linearGradient id="paint1_linear_683_117" x1="34" y1="13.75" x2="34" y2="61.6157" gradientUnits="userSpaceOnUse">
<stop stop-color="white"/>
<stop offset="0.674829" stop-color="white"/>
<stop offset="1" stop-color="white" stop-opacity="0.44"/>
</linearGradient>
</defs>
</svg>
