<svg width="72" height="72" viewBox="0 0 72 72" fill="none" xmlns="http://www.w3.org/2000/svg">
<path d="M36.0002 21.868C28.2077 21.868 21.8679 28.207 21.8679 35.9996C21.8679 43.792 28.2077 50.1319 36.0002 50.1319C43.7928 50.1319 50.1322 43.792 50.1322 35.9996C50.1322 28.207 43.7928 21.868 36.0002 21.868ZM35.1095 23.6948V31.2751C33.1704 31.6399 31.6403 33.17 31.2754 35.1087H23.6946C24.133 29.0104 29.0103 24.1331 35.1095 23.6948ZM35.1095 48.3052C29.0102 47.8668 24.133 42.9896 23.6946 36.8903H31.2753C31.6402 38.8298 33.1703 40.3598 35.1095 40.7248V48.3052V48.3052ZM32.9708 35.9996C32.9708 34.3293 34.3296 32.9706 36.0002 32.9706C37.6709 32.9706 39.0297 34.3293 39.0297 35.9996C39.0297 37.6706 37.6709 39.0294 36.0002 39.0294C34.3296 39.0294 32.9708 37.6706 32.9708 35.9996ZM36.891 48.3052V40.7248C38.8302 40.3598 40.3603 38.8298 40.7252 36.8903H48.3055C47.8671 42.9896 42.9899 47.8668 36.891 48.3052ZM40.7251 35.1087C40.3602 33.17 38.8301 31.6399 36.891 31.2751V23.6948C42.9898 24.1331 47.8671 29.0104 48.3055 35.1087H40.7251Z" fill="url(#paint0_linear_682_100)" fill-opacity="0.64"/>
<path d="M67.1407 31.191C67.1403 31.191 67.139 31.191 67.1382 31.191L60.3621 31.5781C59.7207 28.0361 58.3265 24.7547 56.3471 21.9059L61.456 17.3475C62.3615 16.4419 62.8604 15.2345 62.8604 13.9462C62.8604 12.6579 62.3615 11.4496 61.456 10.544C59.5796 8.66771 56.5276 8.66939 54.6173 10.5806L50.0938 15.6526C47.2453 13.6735 43.9642 12.2795 40.4226 11.6381L40.8112 4.81054C40.8112 2.15823 38.6529 0 36.0002 0C33.3475 0 31.1892 2.15823 31.1906 4.861L31.5776 11.6381C28.036 12.2795 24.7548 13.6737 21.9062 15.653L17.3479 10.544C15.4724 8.66856 12.4204 8.66771 10.544 10.544C9.63842 11.4496 9.13954 12.6579 9.13954 13.9462C9.13954 15.2345 9.63842 16.4419 10.581 17.3823L15.653 21.9062C13.6738 24.7549 12.2796 28.0362 11.6383 31.5781L4.81095 31.1893C2.1582 31.1893 0 33.3475 0 35.9998C0 38.6521 2.15644 40.8095 4.85922 40.8095C4.85966 40.8095 4.86097 40.8095 4.86184 40.8095L11.6385 40.4224C12.2799 43.964 13.674 47.245 15.6531 50.0934L10.544 54.6521C9.63842 55.5577 9.13954 56.766 9.13954 58.0543C9.13954 59.3426 9.63842 60.55 10.544 61.4556C11.4496 62.3612 12.6578 62.8605 13.9461 62.8605C15.2345 62.8605 16.4423 62.3612 17.3827 61.419L21.9066 56.3469C24.7551 58.326 28.0363 59.7201 31.5778 60.3615L31.1892 67.1891C31.1892 69.8423 33.3475 72.0005 36.0002 72.0005C38.6529 72.0005 40.8112 69.8423 40.8099 67.1386L40.4228 60.3615C43.9642 59.7201 47.2451 58.3261 50.0934 56.3471L54.6521 61.4556C55.5577 62.3612 56.7659 62.8605 58.0543 62.8605C59.3426 62.8605 60.5504 62.3612 61.456 61.4556C62.3615 60.55 62.8604 59.3426 62.8604 58.0543C62.8604 56.766 62.3615 55.5577 61.419 54.6173L56.3472 50.0936C58.3264 47.2451 59.7205 43.964 60.3619 40.4224L67.189 40.8112C69.8418 40.8112 72 38.653 72 35.9998C72 33.3484 69.8435 31.191 67.1407 31.191ZM4.81095 39.0297C3.14028 39.0297 1.78152 37.6709 1.78152 35.9998C1.78152 34.3296 3.14028 32.9709 4.76004 32.9691L11.3791 33.3471C11.2857 34.219 11.2351 35.1036 11.2351 35.9998C11.2351 36.8964 11.2858 37.7812 11.3792 38.6534L4.81095 39.0297ZM55.9117 11.8037C57.093 10.6223 59.0151 10.6223 60.1964 11.8037C60.7653 12.3726 61.0789 13.1337 61.0789 13.9462C61.0789 14.7587 60.7653 15.519 60.2333 16.0531L55.2755 20.4752C54.1621 19.0955 52.9046 17.8379 51.5249 16.7245L55.9117 11.8037ZM36.0002 1.78157C37.6708 1.78157 39.0296 3.14038 39.0309 4.7601L38.6529 11.3787C37.781 11.2854 36.8964 11.2347 36.0002 11.2347C35.1039 11.2347 34.2193 11.2854 33.3474 11.3787L32.9708 4.81054C32.9708 3.14038 34.3296 1.78157 36.0002 1.78157ZM11.8036 16.0879C11.2347 15.519 10.9211 14.7587 10.9211 13.9462C10.9211 13.1337 11.2347 12.3726 11.8036 11.8037C12.9854 10.6231 14.9074 10.6215 16.0535 11.7671L20.4751 16.7249C19.0955 17.8384 17.8381 19.0958 16.7247 20.4756L11.8036 16.0879ZM16.0883 60.196C14.9487 61.3338 12.9414 61.333 11.8036 60.196C11.2347 59.6271 10.9211 58.8668 10.9211 58.0543C10.9211 57.2418 11.2347 56.4807 11.7666 55.9465L16.7248 51.5242C17.8382 52.904 19.0957 54.1615 20.4755 55.275L16.0883 60.196ZM36.0002 70.2189C34.3296 70.2189 32.9708 68.8602 32.9695 67.2395L33.3475 60.6209C34.2194 60.7142 35.1039 60.7649 36.0002 60.7649C36.8966 60.7649 37.7811 60.7142 38.6531 60.6209L39.0296 67.1891C39.0296 68.8602 37.6708 70.2189 36.0002 70.2189ZM60.1964 55.9117C60.7653 56.4807 61.0789 57.2418 61.0789 58.0543C61.0789 58.8668 60.7653 59.6271 60.1964 60.196C59.627 60.7649 58.8663 61.0789 58.0543 61.0789C57.2417 61.0789 56.481 60.7649 55.9465 60.2325L51.5246 55.2752C52.9045 54.1617 54.1621 52.9042 55.2756 51.5244L60.1964 55.9117ZM36.0002 58.9834C23.3272 58.9834 13.0167 48.6733 13.0167 35.9998C13.0167 23.3263 23.3272 13.0162 36.0002 13.0162C48.6733 13.0162 58.9837 23.3263 58.9837 35.9998C58.9837 48.6733 48.6733 58.9834 36.0002 58.9834ZM67.2399 39.0314L60.6213 38.6534C60.7146 37.7812 60.7653 36.8964 60.7653 35.9998C60.7653 35.1035 60.7147 34.2189 60.6214 33.3471L67.189 32.9709C68.8596 32.9709 70.2184 34.3296 70.2184 35.9998C70.2184 37.6709 68.8596 39.0297 67.2399 39.0314Z" fill="url(#paint1_linear_682_100)" fill-opacity="0.64"/>
<path d="M51.9706 28.5159C52.1955 28.9952 52.3999 29.4884 52.5791 29.9816C52.7105 30.3435 53.0523 30.568 53.4164 30.568C53.5173 30.568 53.62 30.5506 53.7204 30.514C54.1828 30.3461 54.4216 29.8355 54.2537 29.3727C54.0566 28.8299 53.8309 28.2871 53.5834 27.7591C53.3747 27.3145 52.8444 27.1231 52.3991 27.3311C51.9537 27.5398 51.7619 28.0705 51.9706 28.5159Z" fill="url(#paint2_linear_682_100)" fill-opacity="0.64"/>
<path d="M36.0001 16.5852C35.5082 16.5852 35.1094 16.9837 35.1094 17.4759C35.1094 17.9683 35.5082 18.3667 36.0001 18.3667C41.4252 18.3667 46.4694 20.8112 49.8394 25.072C50.015 25.2946 50.2756 25.4103 50.5383 25.4103C50.7319 25.4103 50.9267 25.3477 51.0902 25.2181C51.4765 24.9128 51.5417 24.3525 51.2364 23.9672C47.5272 19.2758 41.9733 16.5852 36.0001 16.5852Z" fill="url(#paint3_linear_682_100)" fill-opacity="0.64"/>
<path d="M18.4912 38.1003C18.4091 37.4106 18.3673 36.7042 18.3673 35.9996C18.3673 35.5072 17.9684 35.1088 17.4765 35.1088C16.9846 35.1088 16.5857 35.5072 16.5857 35.9996C16.5857 36.7738 16.6314 37.5514 16.7219 38.3108C16.7758 38.7641 17.1607 39.0964 17.6053 39.0964C17.6405 39.0964 17.6761 39.0947 17.7118 39.0903C18.2002 39.0321 18.5491 38.5883 18.4912 38.1003Z" fill="url(#paint4_linear_682_100)" fill-opacity="0.64"/>
<path d="M30.7733 52.8452C25.446 51.195 21.1722 47.0621 19.3398 41.7914C19.178 41.326 18.6696 41.0781 18.2063 41.2425C17.7414 41.4034 17.4956 41.9114 17.6574 42.3759C19.6743 48.1799 24.3804 52.7294 30.2461 54.5467C30.334 54.5736 30.4227 54.5867 30.5102 54.5867C30.8903 54.5867 31.2421 54.3414 31.3605 53.9595C31.5062 53.4897 31.243 52.9904 30.7733 52.8452Z" fill="url(#paint5_linear_682_100)" fill-opacity="0.64"/>
<path d="M36.0001 53.6324C35.5743 53.6324 35.1524 53.6176 34.7344 53.588C34.2407 53.5489 33.8171 53.9229 33.7823 54.4127C33.7475 54.9033 34.1168 55.3295 34.6074 55.3643C35.0672 55.3974 35.5317 55.4139 36.0001 55.4139C36.4921 55.4139 36.8909 55.0155 36.8909 54.5231C36.8909 54.0308 36.4921 53.6324 36.0001 53.6324Z" fill="url(#paint6_linear_682_100)" fill-opacity="0.64"/>
<defs>
<linearGradient id="paint0_linear_682_100" x1="36" y1="21.868" x2="36" y2="50.1319" gradientUnits="userSpaceOnUse">
<stop stop-color="white"/>
<stop offset="0.674829" stop-color="white"/>
<stop offset="1" stop-color="white" stop-opacity="0.44"/>
</linearGradient>
<linearGradient id="paint1_linear_682_100" x1="36" y1="0" x2="36" y2="72.0005" gradientUnits="userSpaceOnUse">
<stop stop-color="white"/>
<stop offset="0.674829" stop-color="white"/>
<stop offset="1" stop-color="white" stop-opacity="0.44"/>
</linearGradient>
<linearGradient id="paint2_linear_682_100" x1="53.0968" y1="27.2471" x2="53.0968" y2="30.568" gradientUnits="userSpaceOnUse">
<stop stop-color="white"/>
<stop offset="0.674829" stop-color="white"/>
<stop offset="1" stop-color="white" stop-opacity="0.44"/>
</linearGradient>
<linearGradient id="paint3_linear_682_100" x1="43.269" y1="16.5852" x2="43.269" y2="25.4103" gradientUnits="userSpaceOnUse">
<stop stop-color="white"/>
<stop offset="0.674829" stop-color="white"/>
<stop offset="1" stop-color="white" stop-opacity="0.44"/>
</linearGradient>
<linearGradient id="paint4_linear_682_100" x1="17.5416" y1="35.1088" x2="17.5416" y2="39.0964" gradientUnits="userSpaceOnUse">
<stop stop-color="white"/>
<stop offset="0.674829" stop-color="white"/>
<stop offset="1" stop-color="white" stop-opacity="0.44"/>
</linearGradient>
<linearGradient id="paint5_linear_682_100" x1="24.5042" y1="41.1917" x2="24.5042" y2="54.5867" gradientUnits="userSpaceOnUse">
<stop stop-color="white"/>
<stop offset="0.674829" stop-color="white"/>
<stop offset="1" stop-color="white" stop-opacity="0.44"/>
</linearGradient>
<linearGradient id="paint6_linear_682_100" x1="35.3355" y1="53.5852" x2="35.3355" y2="55.4139" gradientUnits="userSpaceOnUse">
<stop stop-color="white"/>
<stop offset="0.674829" stop-color="white"/>
<stop offset="1" stop-color="white" stop-opacity="0.44"/>
</linearGradient>
</defs>
</svg>
