<svg width="72" height="59" viewBox="0 0 72 59" fill="none" xmlns="http://www.w3.org/2000/svg">
<path d="M34.4562 47.4244H16.5782C15.5725 47.4244 14.7904 48.3183 14.7904 49.2122V56.3634C14.7904 57.369 15.5725 58.1512 16.5782 58.1512H34.4562C35.3501 58.1512 36.244 57.369 36.244 56.3634V49.2122C36.244 48.3183 35.3501 47.4244 34.4562 47.4244ZM34.4562 33.122H16.5782C15.5725 33.122 14.7904 34.0159 14.7904 34.9098V42.061C14.7904 43.0666 15.5725 43.8488 16.5782 43.8488H34.4562C35.3501 43.8488 36.244 43.0666 36.244 42.061V34.9098C36.244 34.0159 35.3501 33.122 34.4562 33.122ZM55.9098 47.4244H41.6074C40.6017 47.4244 39.8196 48.3183 39.8196 49.2122V56.3634C39.8196 57.369 40.6017 58.1512 41.6074 58.1512H55.9098C56.8037 58.1512 57.6976 57.369 57.6976 56.3634V49.2122C57.6976 48.3183 56.8037 47.4244 55.9098 47.4244ZM68.6479 14.0149L38.2553 1.38852C37.5848 1.16505 36.9144 1.05331 36.244 0.941571C35.4618 1.05331 34.7914 1.16505 34.121 1.38852L3.72835 14.0149C1.71707 14.9088 0.487961 16.8083 0.487961 19.0431V56.3634C0.487961 57.369 1.27012 58.1512 2.27576 58.1512H9.42697C10.3209 58.1512 11.2148 57.369 11.2148 56.3634V29.5464C11.2148 27.6468 12.7791 26.0825 14.7904 26.0825H57.5859C59.5971 25.9708 61.2732 27.6468 61.2732 29.5464V56.3634C61.2732 57.369 62.0554 58.1512 63.061 58.1512H70.2122C71.1061 58.1512 72 57.369 72 56.3634V19.0431C72 16.8083 70.6592 14.9088 68.6479 14.0149Z" fill="url(#paint0_linear_687_148)" fill-opacity="0.64"/>
<defs>
<linearGradient id="paint0_linear_687_148" x1="36" y1="1" x2="36" y2="58" gradientUnits="userSpaceOnUse">
<stop stop-color="white"/>
<stop offset="0.674829" stop-color="white"/>
<stop offset="1" stop-color="white" stop-opacity="0.44"/>
</linearGradient>
</defs>
</svg>
