<?xml version="1.0" encoding="UTF-8"?><svg xmlns="http://www.w3.org/2000/svg" viewBox="0 0 21.98 25"><defs><style>.d{fill:#fff;}</style></defs><g id="a"/><g id="b"><g id="c"><g><path class="d" d="M21.98,12.42c0-.28-.23-.51-.51-.51s-.51,.23-.51,.51c0,5.47-4.43,9.92-9.88,9.96l1.03-.63c.24-.15,.31-.46,.17-.7-.15-.24-.46-.31-.7-.17l-2.24,1.39c-.14,.09-.23,.24-.24,.41,0,.17,.06,.33,.19,.43l2.24,1.78c.09,.07,.21,.11,.32,.11,.15,0,.3-.07,.4-.19,.18-.22,.14-.54-.08-.72l-.86-.69c5.92-.16,10.7-5.02,10.7-10.98Zm-11.51,10.33l.04-.02s0,.03,0,.04l-.03-.02Z"/><path class="d" d="M9.32,3.24c-.24,.15-.31,.46-.17,.7,.1,.16,.26,.24,.44,.24,.09,0,.18-.02,.27-.08l2.24-1.39c.14-.09,.23-.24,.24-.41s-.06-.33-.19-.43L9.91,.11c-.22-.18-.54-.14-.72,.08-.18,.22-.14,.54,.08,.72l.72,.57C4.4,1.99,0,6.7,0,12.42c0,.28,.23,.51,.51,.51s.51-.23,.51-.51C1.02,7.07,5.26,2.71,10.56,2.48l-1.24,.77Z"/><path class="d" d="M16.62,16.68v-7.65c0-.79-.64-1.44-1.44-1.44h-.61c0-.8-.65-1.45-1.45-1.45s-1.45,.65-1.45,1.45h-2.08c0-.8-.65-1.45-1.45-1.45s-1.45,.65-1.45,1.45h-.77c-.79,0-1.44,.64-1.44,1.44v7.65c0,.79,.64,1.44,1.44,1.44H15.18c.79,0,1.44-.64,1.44-1.44Zm-10.87,.06v-6.63H15.36v6.63H5.75Z"/><circle class="d" cx="8.14" cy="11.95" r=".7"/><circle class="d" cx="10.55" cy="11.95" r=".7"/><circle class="d" cx="12.96" cy="11.95" r=".7"/><circle class="d" cx="8.14" cy="14.57" r=".7"/><circle class="d" cx="10.55" cy="14.57" r=".7"/></g></g></g></svg>