<svg width="72" height="79" viewBox="0 0 72 79" fill="none" xmlns="http://www.w3.org/2000/svg">
<path d="M71.4627 67.0364L53.9826 47.4364V33.9455L58.6097 27.0727C59.1238 26.3091 59.1238 25.2909 58.6097 24.5273C58.0956 23.7636 57.5815 23 56.5532 23H35.9884C34.9602 23 34.189 23.5091 33.6749 24.2727C33.1608 25.0364 33.1608 26.0545 33.6749 26.8182L38.302 33.6909V43.3636H28.0195V35.7273C29.5619 35.7273 30.5901 34.7091 30.5901 33.1818C30.5901 31.6545 29.5619 30.6364 28.0195 30.6364H25.4489H5.1412H2.5706C1.02824 30.6364 0 31.6545 0 33.1818C0 34.7091 1.02824 35.7273 2.5706 35.7273V53.5455C1.02824 53.5455 0 54.5636 0 56.0909V68.8182C0 70.3455 1.02824 71.3636 2.5706 71.3636C3.08472 75.6909 6.94062 79 11.5677 79C16.1948 79 19.7936 75.6909 20.3077 71.3636H23.1354C23.6495 75.6909 27.5054 79 31.8754 79C36.2455 79 40.1014 75.6909 40.6155 71.3636H43.4432C43.9573 75.6909 47.8132 79 52.1832 79C56.5532 79 60.4091 75.6909 60.9232 71.3636H69.4062C70.4345 71.3636 71.2056 70.8545 71.7198 69.8364C72.2339 69.0727 71.9768 67.8 71.4627 67.0364ZM11.5677 73.9091C9.51122 73.9091 7.7118 72.1273 7.7118 70.0909C7.7118 68.0545 9.51122 66.2727 11.5677 66.2727C13.6242 66.2727 15.4236 68.0545 15.4236 70.0909C15.4236 72.1273 13.6242 73.9091 11.5677 73.9091ZM32.1325 73.9091C30.076 73.9091 28.2766 72.1273 28.2766 70.0909C28.2766 68.0545 30.076 66.2727 32.1325 66.2727C34.189 66.2727 35.9884 68.0545 35.9884 70.0909C35.9884 72.1273 34.189 73.9091 32.1325 73.9091ZM52.6973 73.9091C50.6408 73.9091 48.8414 72.1273 48.8414 70.0909C48.8414 68.0545 50.6408 66.2727 52.6973 66.2727C54.7538 66.2727 56.5532 68.0545 56.5532 70.0909C56.5532 72.1273 54.7538 73.9091 52.6973 73.9091Z" fill="url(#paint0_linear_685_145)" fill-opacity="0.64"/>
<path d="M52.9044 8H49.7785C48.2445 8 47 9.24455 47 10.7785C47 11.2706 47.4052 11.6758 47.9262 11.6758C48.4182 11.6758 48.8523 11.2416 48.8523 10.7785C48.8523 10.2576 49.2576 9.85235 49.7785 9.85235H52.9044C53.7148 9.85235 54.4094 10.518 54.4094 11.3284C54.4094 11.9073 54.091 12.4283 53.5122 12.7177L50.6758 14.3674C50.3863 14.5411 50.2416 14.8305 50.2416 15.1489V16.3066C50.2416 16.8276 50.6468 17.2328 51.1678 17.2328C51.6598 17.2328 52.094 16.8276 52.094 16.3066V15.6988L54.4094 14.3385C55.5382 13.7596 56.2617 12.6019 56.2617 11.3284C56.2617 9.47609 54.7567 8 52.9044 8ZM51.1678 18.6221C50.5021 18.6221 50.0101 19.143 50.0101 19.7798C50.0101 20.4455 50.5021 20.9375 51.1678 20.9375C51.8045 20.9375 52.3255 20.4165 52.3255 19.7798C52.3255 19.172 51.8045 18.6221 51.1678 18.6221Z" fill="url(#paint1_linear_685_145)" fill-opacity="0.64"/>
<path d="M43.0326 11.2675L40.7798 10.5965C39.6743 10.2672 38.5102 10.8969 38.1809 12.0025C38.0752 12.3571 38.2803 12.7361 38.6557 12.848C39.0103 12.9536 39.4164 12.7339 39.5158 12.4001C39.6277 12.0247 40.0067 11.8196 40.3822 11.9315L42.635 12.6025C43.219 12.7765 43.5767 13.4054 43.4028 13.9894C43.2785 14.4066 42.9372 14.7137 42.4579 14.7981L40.0595 15.3781C39.8136 15.4412 39.6472 15.6187 39.5789 15.8481L39.3303 16.6825C39.2185 17.058 39.4235 17.437 39.799 17.5488C40.1536 17.6544 40.5535 17.4556 40.6653 17.0802L40.7958 16.6421L42.7566 16.1588C43.6944 15.9839 44.4644 15.3049 44.7378 14.3871C45.1354 13.0521 44.3676 11.6652 43.0326 11.2675ZM39.5008 18.5501C39.021 18.4072 38.5546 18.677 38.4179 19.1359C38.2749 19.6157 38.5239 20.0759 39.0037 20.2188C39.4626 20.3555 39.9499 20.0919 40.0866 19.633C40.2171 19.1949 39.9597 18.6868 39.5008 18.5501Z" fill="url(#paint2_linear_685_145)" fill-opacity="0.64"/>
<path d="M43.1375 0.916034L40.9471 1.76889C39.8721 2.18742 39.3396 3.3991 39.7581 4.47404C39.8923 4.81883 40.2868 4.99222 40.6519 4.85008C40.9967 4.71583 41.1825 4.29315 41.0561 3.96864C40.914 3.60357 41.0874 3.20907 41.4525 3.06693L43.6429 2.21407C44.2108 1.99296 44.8792 2.26993 45.1003 2.83782C45.2582 3.24346 45.1773 3.69539 44.8506 4.05615L43.3131 5.9861C43.1577 6.18676 43.1352 6.42906 43.2221 6.65216L43.5379 7.46344C43.6801 7.82851 44.0746 8.0019 44.4397 7.85976C44.7845 7.72551 44.9781 7.32312 44.836 6.95804L44.6702 6.53212L45.9216 4.94713C46.5546 4.23352 46.7458 3.22483 46.3983 2.33242C45.8929 1.03438 44.4355 0.41064 43.1375 0.916034ZM44.8187 8.83329C44.3522 9.01492 44.1496 9.51423 44.3233 9.96044C44.5049 10.4269 44.984 10.6375 45.4505 10.4558C45.8967 10.2821 46.1196 9.77489 45.9459 9.32869C45.78 8.90277 45.2649 8.65956 44.8187 8.83329Z" fill="url(#paint3_linear_685_145)" fill-opacity="0.64"/>
<defs>
<linearGradient id="paint0_linear_685_145" x1="36" y1="23" x2="36" y2="79" gradientUnits="userSpaceOnUse">
<stop stop-color="white"/>
<stop offset="0.674829" stop-color="white"/>
<stop offset="1" stop-color="white" stop-opacity="0.44"/>
</linearGradient>
<linearGradient id="paint1_linear_685_145" x1="51.6309" y1="8" x2="51.6309" y2="20.9375" gradientUnits="userSpaceOnUse">
<stop stop-color="white"/>
<stop offset="0.674829" stop-color="white"/>
<stop offset="1" stop-color="white" stop-opacity="0.44"/>
</linearGradient>
<linearGradient id="paint2_linear_685_145" x1="42.1148" y1="10.9941" x2="39.3374" y2="20.3182" gradientUnits="userSpaceOnUse">
<stop stop-color="white"/>
<stop offset="0.674829" stop-color="white"/>
<stop offset="1" stop-color="white" stop-opacity="0.44"/>
</linearGradient>
<linearGradient id="paint3_linear_685_145" x1="42.2451" y1="1.26349" x2="45.775" y2="10.3295" gradientUnits="userSpaceOnUse">
<stop stop-color="white"/>
<stop offset="0.674829" stop-color="white"/>
<stop offset="1" stop-color="white" stop-opacity="0.44"/>
</linearGradient>
</defs>
</svg>
