<svg width="60" height="48" viewBox="0 0 60 48" fill="none" xmlns="http://www.w3.org/2000/svg">
<path fill-rule="evenodd" clip-rule="evenodd" d="M59.9005 34.0171C59.9005 37.8235 56.8009 40.9097 52.9799 40.9097H1.15215C0.516327 40.9097 0.000682831 40.3954 0.000682831 39.7618V32.2922C0.000682831 31.8838 0.307026 31.5412 0.712128 31.4919L0.886082 31.4736C12.8528 30.0749 23.2267 22.5753 28.2745 11.677L29.3672 9.31347C30.3122 7.27941 32.3566 5.97736 34.6068 5.97736H40.2812C39.6593 3.6281 37.7414 1.8399 35.348 1.37977H32.2979C31.9163 1.37977 31.6076 1.07032 31.6076 0.690235C31.6076 0.309288 31.9163 4.95911e-05 32.2979 4.95911e-05H50.7565C51.138 4.95911e-05 51.4486 0.309288 51.4486 0.690235C51.4486 1.07032 51.138 1.37977 50.7565 1.37977H47.7054C45.313 1.8399 43.395 3.6281 42.7757 5.97736H52.8878C53.8302 5.97736 54.6762 6.5474 55.0294 7.41792L58.3883 15.7394C58.6051 16.2761 58.7724 16.8348 58.8829 17.4049L59.5924 21.0146C59.7004 21.5607 59.7565 22.1151 59.764 22.6685L59.9005 33.933V34.0171ZM59.9834 44.3585V47.8066H28.5457C23.5917 45.7107 12.384 44.3585 3.8147e-05 44.3585V42.0594H38.067V44.3585H48.4477V42.0594H55.3707V44.3585H59.9834ZM41.5271 5.30529C42.0166 3.73135 43.0016 2.3559 44.3348 1.37974H38.7188C40.0543 2.3559 41.0368 3.73135 41.5271 5.30529ZM1.1521 32.6281C1.76886 32.565 2.38647 32.4824 2.99916 32.3889V36.5797C2.3839 36.6405 1.76886 36.6898 1.1521 36.7349V32.6281ZM4.15298 32.1964C4.92548 32.053 5.69605 31.8889 6.45934 31.7036V36.1454C5.6937 36.263 4.92377 36.3689 4.15298 36.4555V32.1964ZM7.84431 31.3393C8.77984 31.0768 9.70037 30.7791 10.6125 30.4483V35.3592C9.69608 35.566 8.77234 35.751 7.84431 35.9153V31.3393ZM12.2285 29.8213C13.3279 29.3661 14.4073 28.8643 15.4577 28.3125V34.052C14.3932 34.3882 13.3163 34.6957 12.2285 34.9725V29.8213ZM17.302 27.2795C18.5856 26.5151 19.8174 25.6798 20.9933 24.776V31.9896C19.7898 32.5107 18.5573 32.9941 17.302 33.4376V27.2795ZM23.0711 23.0603C24.5782 21.7182 25.9681 20.2635 27.2243 18.7096L26.7012 29.1036C25.5255 29.7889 24.3147 30.434 23.0711 31.0367V23.0603ZM52.9942 8.73422C53.5497 8.73422 54.0544 9.06757 54.2687 9.577L56.9448 16.0136C57.015 16.1828 57.0527 16.3638 57.0527 16.5488C57.0527 17.309 56.4334 17.9286 55.6703 17.9286H32.4602C32.277 17.9286 32.0954 17.891 31.9229 17.8184C31.2192 17.525 30.8895 16.7155 31.1858 16.0136L33.8619 9.577C34.0761 9.06757 34.5806 8.73422 35.1363 8.73422H52.9942ZM35.7606 31.7171C34.4861 31.7171 33.4519 30.6875 33.4519 29.4203C33.4519 28.1507 34.4861 27.1203 35.7606 27.1203C37.0326 27.1203 38.0669 28.1507 38.0669 29.4203C38.0669 30.6875 37.0326 31.7171 35.7606 31.7171ZM54.2168 31.7171C52.9422 31.7171 51.9079 30.6875 51.9079 29.4203C51.9079 28.1507 52.9422 27.1203 54.2168 27.1203C55.4912 27.1203 56.523 28.1507 56.523 29.4203C56.523 30.6875 55.4912 31.7171 54.2168 31.7171Z" fill="url(#paint0_linear_684_139)" fill-opacity="0.64"/>
<defs>
<linearGradient id="paint0_linear_684_139" x1="29.9917" y1="47.8066" x2="29.9917" y2="4.95911e-05" gradientUnits="userSpaceOnUse">
<stop stop-color="white"/>
<stop offset="0.674829" stop-color="white"/>
<stop offset="1" stop-color="white" stop-opacity="0.44"/>
</linearGradient>
</defs>
</svg>
