<svg width="17" height="13" viewBox="0 0 17 13" fill="none" xmlns="http://www.w3.org/2000/svg">
<path d="M1.96875 6.9375H9.6875C10.3477 6.9375 10.9062 6.4043 10.9062 5.71875V1.65625C10.9062 0.996094 10.3477 0.4375 9.6875 0.4375H1.96875C1.2832 0.4375 0.75 0.996094 0.75 1.65625V5.71875C0.75 6.4043 1.2832 6.9375 1.96875 6.9375ZM8.46875 1.65625H9.28125V5.71875H8.46875V1.65625ZM6.4375 1.65625H7.25V5.71875H6.4375V1.65625ZM4.40625 1.65625H5.21875V5.71875H4.40625V1.65625ZM2.375 1.65625H3.1875V5.71875H2.375V1.65625ZM16.5176 5.66797L15.0195 4.16992C14.7148 3.89062 14.3086 3.71289 13.877 3.71289H12.5312C12.0742 3.71289 11.7188 4.06836 11.7188 4.5V7.75H1.5625C1.10547 7.75 0.75 8.13086 0.75 8.5625V9.67969C0.75 10.7207 1.46094 11.6602 2.50195 11.8125C3.26367 11.9141 3.97461 11.5586 4.40625 11C4.86328 11.6348 5.67578 11.9902 6.56445 11.7617C7.19922 11.584 7.73242 11.1016 7.93555 10.4668C8.0625 10.0859 8.08789 9.73047 8.01172 9.40039H12.1504C12.0742 9.73047 12.0996 10.0859 12.2266 10.4668C12.4297 11.1016 12.9883 11.6094 13.6484 11.7617C14.9688 12.0918 16.1875 11.0762 16.1875 9.80664C16.1875 9.6543 16.1621 9.52734 16.1367 9.40039H16.5938C16.7969 9.40039 17 9.19727 17 8.99414V6.81055C17 6.37891 16.8223 5.97266 16.5176 5.66797ZM2.78125 10.5938C2.32422 10.5938 1.96875 10.2383 1.96875 9.78125C1.96875 9.34961 2.32422 8.96875 2.78125 8.96875C3.21289 8.96875 3.59375 9.34961 3.59375 9.78125C3.59375 10.2383 3.21289 10.5938 2.78125 10.5938ZM6.03125 10.5938C5.57422 10.5938 5.21875 10.2383 5.21875 9.78125C5.21875 9.34961 5.57422 8.96875 6.03125 8.96875C6.46289 8.96875 6.84375 9.34961 6.84375 9.78125C6.84375 10.2383 6.46289 10.5938 6.03125 10.5938ZM14.1562 10.5938C13.6992 10.5938 13.3438 10.2383 13.3438 9.78125C13.3438 9.34961 13.6992 8.99414 14.1562 8.99414C14.5879 8.99414 14.9688 9.375 14.9688 9.80664C14.9688 10.2383 14.5879 10.5938 14.1562 10.5938ZM12.9375 6.125V4.90625H13.877C13.9785 4.90625 14.0801 4.93164 14.1562 5.00781L15.2734 6.125H12.9375Z" fill="url(#paint0_linear_612_3)"/>
<defs>
<linearGradient id="paint0_linear_612_3" x1="8.5" y1="0" x2="8.5" y2="13" gradientUnits="userSpaceOnUse">
<stop stop-color="white"/>
<stop offset="0.674829" stop-color="white"/>
<stop offset="1" stop-color="white" stop-opacity="0.44"/>
</linearGradient>
</defs>
</svg>
