<svg width="25" height="21" viewBox="0 0 25 21" fill="none" xmlns="http://www.w3.org/2000/svg">
<path d="M24.375 14.25H23.75V9.79688C23.75 9.13281 23.4766 8.50781 23.0078 8L20 4.99219C19.5312 4.52344 18.8672 4.25 18.2031 4.25H16.25V2.375C16.25 1.35938 15.3906 0.5 14.375 0.5H1.875C0.820312 0.5 0 1.35938 0 2.375V14.875C0 15.9297 0.820312 16.75 1.875 16.75H2.5C2.5 18.8203 4.17969 20.5 6.25 20.5C8.32031 20.5 10 18.8203 10 16.75H15C15 18.8203 16.6797 20.5 18.75 20.5C20.8203 20.5 22.5 18.8203 22.5 16.75H24.375C24.6875 16.75 25 16.4766 25 16.125V14.875C25 14.5625 24.6875 14.25 24.375 14.25ZM6.25 18.625C5.19531 18.625 4.375 17.8047 4.375 16.75C4.375 15.7344 5.19531 14.875 6.25 14.875C7.26562 14.875 8.125 15.7344 8.125 16.75C8.125 17.8047 7.26562 18.625 6.25 18.625ZM16.25 6.75H18.2031L21.25 9.79688V10.5H16.25V6.75ZM18.75 18.625C17.6953 18.625 16.875 17.8047 16.875 16.75C16.875 15.7344 17.6953 14.875 18.75 14.875C19.7656 14.875 20.625 15.7344 20.625 16.75C20.625 17.8047 19.7656 18.625 18.75 18.625Z" fill="url(#paint0_linear_621_16)"/>
<defs>
<linearGradient id="paint0_linear_621_16" x1="12.5" y1="0" x2="12.5" y2="20" gradientUnits="userSpaceOnUse">
<stop stop-color="#0f8fce"/>
<stop offset="0.674829" stop-color="var(--primary)" stop-opacity="0.39"/>
<stop offset="1" stop-color="#0f8fce9e" stop-opacity="0.28"/>
</linearGradient>
</defs>
</svg>
