<svg width="19" height="22" viewBox="0 0 19 22" fill="none" xmlns="http://www.w3.org/2000/svg">
<path d="M9.25 10.5C11.9844 10.5 14.25 8.27344 14.25 5.5C14.25 2.76562 11.9844 0.5 9.25 0.5C6.47656 0.5 4.25 2.76562 4.25 5.5C4.25 8.27344 6.47656 10.5 9.25 10.5ZM11.2031 12.375H7.25781C3.50781 12.375 0.5 15.4219 0.5 19.1719C0.5 19.9141 1.08594 20.5 1.82812 20.5H16.6328C17.375 20.5 18 19.9141 18 19.1719C18 15.4219 14.9531 12.375 11.2031 12.375Z" fill="var(--primary)"/>
<rect x="11" y="13" width="6" height="6" fill="white"/>
<path d="M14 11.25C11.2266 11.25 9 13.4961 9 16.25C9 19.0234 11.2266 21.25 14 21.25C16.7539 21.25 19 19.0234 19 16.25C19 13.4961 16.7539 11.25 14 11.25ZM15.875 16.7188H14.4688V18.125C14.4688 18.3984 14.2539 18.5938 14 18.5938C13.7266 18.5938 13.5312 18.3984 13.5312 18.125V16.7188H12.125C11.8516 16.7188 11.6562 16.5234 11.6562 16.25C11.6562 15.9961 11.8516 15.7812 12.125 15.7812H13.5312V14.375C13.5312 14.1211 13.7266 13.9062 14 13.9062C14.2539 13.9062 14.4688 14.1211 14.4688 14.375V15.7812H15.875C16.1289 15.7812 16.3438 15.9961 16.3438 16.25C16.3438 16.5234 16.1289 16.7188 15.875 16.7188Z" fill="var(--primary)"/>
</svg>
