<svg width="76" height="76" viewBox="0 0 76 76" fill="none" xmlns="http://www.w3.org/2000/svg">
<path d="M73.3743 17.1264L40.1245 0.501462C38.7862 -0.166503 37.2138 -0.166503 35.8755 0.501462L2.62569 17.1264C0.655492 18.1121 -0.378963 20.3224 0.1278 22.4667C0.633375 24.6108 2.52372 26.1253 4.75027 26.1253V71.2501C4.75027 73.8732 6.87707 76 9.50024 76C12.1234 76 14.2502 73.8732 14.2502 71.2501V33.2503H61.7499V71.2501C61.7499 73.8732 63.8767 76 66.4999 76C69.1231 76 71.2499 73.8732 71.2499 71.2501V26.1253C73.4764 26.1253 75.3666 24.6108 75.8723 22.4667C76.379 20.3224 75.3447 18.112 73.3743 17.1264ZM28.5001 23.7504H23.7502V19.0004H28.5001V23.7504ZM42.75 23.7504C41.0909 27.0686 34.9092 27.0686 33.2501 23.7504C32.4205 22.0912 33.2501 19.0004 33.2501 19.0004C33.2501 19.0004 33.5 21.5 38 21.5C42.5 21.5 42.75 19.0004 42.75 19.0004C42.75 19.0004 43.5796 22.0912 42.75 23.7504ZM52.25 23.7504H47.5V19.0004H52.25V23.7504Z" fill="url(#paint0_linear_688_168)" fill-opacity="0.64"/>
<path d="M51.2875 59H46.9C44.7469 59 43 60.6353 43 62.651C43 63.2975 43.5687 63.83 44.3 63.83C44.9906 63.83 45.6 63.2595 45.6 62.651C45.6 61.9664 46.1687 61.434 46.9 61.434H51.2875C52.425 61.434 53.4 62.3087 53.4 63.3736C53.4 64.1342 52.9531 64.8188 52.1406 65.1991L48.1594 67.3669C47.7531 67.5951 47.55 67.9754 47.55 68.3937V69.915C47.55 70.5996 48.1187 71.132 48.85 71.132C49.5406 71.132 50.15 70.5996 50.15 69.915V69.1163L53.4 67.3289C54.9844 66.5682 56 65.047 56 63.3736C56 60.9396 53.8875 59 51.2875 59ZM48.85 72.9575C47.9156 72.9575 47.225 73.6421 47.225 74.4787C47.225 75.3535 47.9156 76 48.85 76C49.7437 76 50.475 75.3154 50.475 74.4787C50.475 73.6801 49.7437 72.9575 48.85 72.9575Z" fill="url(#paint1_linear_688_168)" fill-opacity="0.64"/>
<path d="M51.2875 38H46.9C44.7469 38 43 39.6353 43 41.651C43 42.2975 43.5687 42.83 44.3 42.83C44.9906 42.83 45.6 42.2595 45.6 41.651C45.6 40.9664 46.1687 40.434 46.9 40.434H51.2875C52.425 40.434 53.4 41.3087 53.4 42.3736C53.4 43.1342 52.9531 43.8188 52.1406 44.1991L48.1594 46.3669C47.7531 46.5951 47.55 46.9754 47.55 47.3937V48.915C47.55 49.5996 48.1187 50.132 48.85 50.132C49.5406 50.132 50.15 49.5996 50.15 48.915V48.1163L53.4 46.3289C54.9844 45.5682 56 44.047 56 42.3736C56 39.9396 53.8875 38 51.2875 38ZM48.85 51.9575C47.9156 51.9575 47.225 52.6421 47.225 53.4787C47.225 54.3535 47.9156 55 48.85 55C49.7437 55 50.475 54.3154 50.475 53.4787C50.475 52.6801 49.7437 51.9575 48.85 51.9575Z" fill="url(#paint2_linear_688_168)" fill-opacity="0.64"/>
<path d="M29.2875 38H24.9C22.7469 38 21 39.6353 21 41.651C21 42.2975 21.5687 42.83 22.3 42.83C22.9906 42.83 23.6 42.2595 23.6 41.651C23.6 40.9664 24.1687 40.434 24.9 40.434H29.2875C30.425 40.434 31.4 41.3087 31.4 42.3736C31.4 43.1342 30.9531 43.8188 30.1406 44.1991L26.1594 46.3669C25.7531 46.5951 25.55 46.9754 25.55 47.3937V48.915C25.55 49.5996 26.1187 50.132 26.85 50.132C27.5406 50.132 28.15 49.5996 28.15 48.915V48.1163L31.4 46.3289C32.9844 45.5682 34 44.047 34 42.3736C34 39.9396 31.8875 38 29.2875 38ZM26.85 51.9575C25.9156 51.9575 25.225 52.6421 25.225 53.4787C25.225 54.3535 25.9156 55 26.85 55C27.7437 55 28.475 54.3154 28.475 53.4787C28.475 52.6801 27.7437 51.9575 26.85 51.9575Z" fill="url(#paint3_linear_688_168)" fill-opacity="0.64"/>
<path d="M29.2875 59H24.9C22.7469 59 21 60.6353 21 62.651C21 63.2975 21.5687 63.83 22.3 63.83C22.9906 63.83 23.6 63.2595 23.6 62.651C23.6 61.9664 24.1687 61.434 24.9 61.434H29.2875C30.425 61.434 31.4 62.3087 31.4 63.3736C31.4 64.1342 30.9531 64.8188 30.1406 65.1991L26.1594 67.3669C25.7531 67.5951 25.55 67.9754 25.55 68.3937V69.915C25.55 70.5996 26.1187 71.132 26.85 71.132C27.5406 71.132 28.15 70.5996 28.15 69.915V69.1163L31.4 67.3289C32.9844 66.5682 34 65.047 34 63.3736C34 60.9396 31.8875 59 29.2875 59ZM26.85 72.9575C25.9156 72.9575 25.225 73.6421 25.225 74.4787C25.225 75.3535 25.9156 76 26.85 76C27.7437 76 28.475 75.3154 28.475 74.4787C28.475 73.6801 27.7437 72.9575 26.85 72.9575Z" fill="url(#paint4_linear_688_168)" fill-opacity="0.64"/>
<defs>
<linearGradient id="paint0_linear_688_168" x1="38" y1="0.000488281" x2="38" y2="76" gradientUnits="userSpaceOnUse">
<stop stop-color="white"/>
<stop offset="0.674829" stop-color="white"/>
<stop offset="1" stop-color="white" stop-opacity="0.44"/>
</linearGradient>
<linearGradient id="paint1_linear_688_168" x1="49.5" y1="59" x2="49.5" y2="76" gradientUnits="userSpaceOnUse">
<stop stop-color="white"/>
<stop offset="0.674829" stop-color="white"/>
<stop offset="1" stop-color="white" stop-opacity="0.44"/>
</linearGradient>
<linearGradient id="paint2_linear_688_168" x1="49.5" y1="38" x2="49.5" y2="55" gradientUnits="userSpaceOnUse">
<stop stop-color="white"/>
<stop offset="0.674829" stop-color="white"/>
<stop offset="1" stop-color="white" stop-opacity="0.44"/>
</linearGradient>
<linearGradient id="paint3_linear_688_168" x1="27.5" y1="38" x2="27.5" y2="55" gradientUnits="userSpaceOnUse">
<stop stop-color="white"/>
<stop offset="0.674829" stop-color="white"/>
<stop offset="1" stop-color="white" stop-opacity="0.44"/>
</linearGradient>
<linearGradient id="paint4_linear_688_168" x1="27.5" y1="59" x2="27.5" y2="76" gradientUnits="userSpaceOnUse">
<stop stop-color="white"/>
<stop offset="0.674829" stop-color="white"/>
<stop offset="1" stop-color="white" stop-opacity="0.44"/>
</linearGradient>
</defs>
</svg>
