<svg width="24" height="24" viewBox="0 0 24 24" fill="none" xmlns="http://www.w3.org/2000/svg">
<path d="M23.4531 10.8929C23.4531 12.1413 22.8577 13.2168 22.0127 13.6201V8.1849C22.8577 8.58822 23.4531 9.64453 23.4531 10.9121V10.8929ZM0.40625 8.72266C0.40625 7.12858 1.69303 5.8418 3.28711 5.8418H9.04883V21.6865C9.04883 22.474 8.39583 23.127 7.6084 23.127H4.72754C3.9401 23.127 3.28711 22.474 3.28711 21.6865V15.9248C1.69303 15.9248 0.40625 14.638 0.40625 13.0439V8.72266Z" fill="white"/>
<path d="M22.014 1.52086C22.014 0.944684 21.6683 0.406924 21.1305 0.195661C20.5928 -0.015602 19.9782 0.0996323 19.5557 0.502953L17.5967 2.46194C15.4456 4.61298 12.5072 5.84215 9.45345 5.84215H9.06934V15.9252H9.45345C12.5072 15.9252 15.4456 17.1351 17.5967 19.3054L19.5557 21.2643C19.9782 21.6869 20.5928 21.8021 21.1305 21.5716C21.6683 21.3412 22.014 20.8226 22.014 20.2464V1.52086Z" fill="#9E97E3"/>
</svg>
