<svg width="27" height="24" viewBox="0 0 27 24" fill="none" xmlns="http://www.w3.org/2000/svg">
<path d="M19.7777 13.4709V17.1642C19.7777 17.5716 20.099 17.9002 20.4974 17.9002H21.9367C22.3351 17.9002 22.6564 17.5716 22.6564 17.1642V13.4709H24.8283C26.0234 13.4709 27.0001 14.4698 27.0001 15.6921V21.6066C27.0001 22.829 26.0234 23.8278 24.8283 23.8278H17.6059C16.4107 23.8278 15.434 22.829 15.434 21.6066V15.6921C15.434 14.4698 16.4107 13.4709 17.6059 13.4709H19.7777ZM5.32012 13.4709V17.1642C5.32012 17.5716 5.6414 17.9002 6.03979 17.9002H7.47912C7.87751 17.9002 8.19879 17.5716 8.19879 17.1642V13.4709H10.3706C11.5658 13.4709 12.5425 14.4698 12.5425 15.6921V21.6066C12.5425 22.829 11.5658 23.8278 10.3706 23.8278H3.16111C1.96595 23.8278 0.989258 22.829 0.989258 21.6066V15.6921C0.989258 14.4698 1.96595 13.4709 3.16111 13.4709H5.33297H5.32012ZM8.21164 2.39114C8.21164 1.16881 9.18833 0.169922 10.3835 0.169922H12.5554V3.86319C12.5554 4.27063 12.8766 4.59921 13.275 4.59921H14.7144C15.1127 4.59921 15.434 4.27063 15.434 3.86319V0.169922H17.6059C18.801 0.169922 19.7777 1.16881 19.7777 2.39114V8.30562C19.7777 9.52794 18.801 10.5268 17.6059 10.5268H10.3835C9.18833 10.5268 8.21164 9.52794 8.21164 8.30562V2.39114Z" fill="#FCAD4E"/>
<g opacity="0.4">
<path d="M8.2107 17.1773C8.2107 17.5848 7.88942 17.9134 7.49104 17.9134H6.0517C5.65331 17.9134 5.33203 17.5848 5.33203 17.1773V13.4841H8.22356V17.1773H8.2107ZM19.7768 13.4841H22.6683V17.1773C22.6683 17.5848 22.347 17.9134 21.9487 17.9134H20.5093C20.1109 17.9134 19.7897 17.5848 19.7897 17.1773V13.4841H19.7768ZM12.5544 0.169922H15.4459V3.86319C15.4459 4.27063 15.1247 4.59921 14.7263 4.59921H13.2869C12.8885 4.59921 12.5673 4.27063 12.5673 3.86319V0.169922H12.5544Z" fill="#FCC280"/>
</g>
</svg>
