<svg width="26" height="26" viewBox="0 0 26 26" fill="none" xmlns="http://www.w3.org/2000/svg">
<rect x="7.23047" y="3.25391" width="12.0723" height="15.0098" fill="#fff"/>
<path d="M12.7268 0.123047C5.73114 0.123047 0.0585938 5.74871 0.0585938 12.6865C0.0585938 19.6243 5.73114 25.25 12.7268 25.25C19.7224 25.25 25.3949 19.6243 25.3949 12.6865C25.3949 5.74871 19.7224 0.123047 12.7268 0.123047ZM18.4145 16.4722C18.0951 17.0151 17.35 17.1659 16.8177 16.7587L12.0576 13.6216C11.723 13.4406 11.5253 13.0787 11.5253 12.6865L11.4949 6.00511C11.4949 5.35657 12.0728 4.82869 12.6811 4.82869H12.7116C13.2134 4.84378 13.6088 5.10017 13.8065 5.49231C13.8369 5.53756 13.8521 5.59789 13.8674 5.65822C13.8826 5.68838 13.8826 5.73363 13.8978 5.77887C13.913 5.85428 13.9282 5.9297 13.9282 6.02019V12.0682L18.156 14.8584C18.673 15.2053 18.8251 15.9292 18.4145 16.4722Z" fill="#FCAD4E"/>
</svg>
