<svg width="24" height="24" viewBox="0 0 24 24" fill="none" xmlns="http://www.w3.org/2000/svg">
<path d="M12.1299 23.7422C18.5888 23.7422 23.8379 18.4931 23.8379 12.0342C23.8379 5.57526 18.5888 0.326172 12.1299 0.326172C5.67097 0.326172 0.421875 5.57526 0.421875 12.0342C0.421875 18.4931 5.67097 23.7422 12.1299 23.7422ZM12.1299 3.25317C16.9887 3.25317 20.9109 7.17536 20.9109 12.0342C20.9109 16.893 16.9887 20.8152 12.1299 20.8152C7.27106 20.8152 3.34888 16.893 3.34888 12.0342C3.34888 7.17536 7.27106 3.25317 12.1299 3.25317Z" fill="#FCAD4E"/>
<path d="M13.5931 20.6827C13.1248 20.7608 12.637 20.7998 12.1296 20.7998C11.6223 20.7998 11.1345 20.7608 10.6661 20.6827V16.741L8.14892 13.5018H3.46571C3.38766 13.0335 3.34863 12.5457 3.34863 12.0383C3.34863 11.531 3.38766 11.0431 3.46571 10.5748H7.73914L8.07086 9.91137C8.32454 9.42354 8.83188 9.11133 9.37826 9.11133H14.881C15.4274 9.11133 15.9347 9.42354 16.1884 9.91137L16.5201 10.5748H20.7936C20.8716 11.0431 20.9106 11.531 20.9106 12.0383C20.9106 12.5457 20.8716 13.0335 20.7936 13.5018H16.1104L13.5931 16.741V20.7023V20.6827Z" fill="#FCC280"/>
</svg>
