<svg width="33" height="26" viewBox="0 0 33 26" fill="none" xmlns="http://www.w3.org/2000/svg">
<path d="M4.85234 19.7535L5.98306 18.6228C6.44372 18.1621 6.44372 17.4083 5.98306 16.9686C5.5224 16.5289 4.76859 16.5079 4.32887 16.9686L1.16706 20.0885C0.936727 20.3188 0.832031 20.612 0.832031 20.9261C0.832031 21.2402 0.957666 21.5333 1.16706 21.7636L4.30793 24.9045C4.76859 25.3652 5.5224 25.3652 5.96212 24.9045C6.42278 24.4438 6.42278 23.69 5.96212 23.2503L4.8314 22.1196H13.3955C14.0446 22.1196 14.5681 21.5961 14.5681 20.947C14.5681 20.2979 14.0446 19.7744 13.3955 19.7744H4.85234V19.7535ZM28.2204 3.25345H19.6772C19.0281 3.25345 18.5047 3.77692 18.5047 4.42604C18.5047 5.07515 19.0281 5.59863 19.6772 5.59863H28.2204L27.0897 6.72934C26.629 7.19 26.629 7.94381 27.0897 8.38353C27.5504 8.84419 28.3042 8.84419 28.7439 8.38353L31.8848 5.24266C32.1151 5.01233 32.2198 4.71919 32.2198 4.4051C32.2198 4.09101 32.0942 3.79786 31.8848 3.56753L28.7648 0.468542C28.3042 0.00788166 27.5504 0.00788166 27.1106 0.468542C26.65 0.929203 26.65 1.68301 27.1106 2.12273L28.2414 3.25345H28.2204Z" fill="#FCC280"/>
<path d="M11.8289 12.6765C11.8289 10.0801 13.9437 7.96521 16.5402 7.96521C19.1366 7.96521 21.2515 10.0801 21.2515 12.6765C21.2515 15.273 19.1366 17.3878 16.5402 17.3878C13.9437 17.3878 11.8289 15.273 11.8289 12.6765ZM24.3923 18.9583C24.3923 17.2203 25.7953 15.8174 27.5332 15.8174V18.9583H24.3923ZM5.54712 9.53565V6.39478H8.68799C8.68799 8.13272 7.28507 9.53565 5.54712 9.53565ZM17.4196 3.25391H5.54712C3.80917 3.25391 2.40625 4.65683 2.40625 6.39478V16.9272L3.34851 15.9849C4.35359 14.9798 5.9659 14.9798 6.95004 15.9849C7.59915 16.634 7.82948 17.5344 7.64103 18.372H13.3993C14.8022 18.372 15.9539 19.5236 15.9539 20.9265C15.9539 21.3453 15.8492 21.7432 15.6607 22.0991H27.5332C29.2712 22.0991 30.6741 20.6962 30.6741 18.9583V8.42587L29.7318 9.36813C28.7267 10.3732 27.1144 10.3732 26.1303 9.36813C25.4812 8.71902 25.2508 7.81864 25.4393 6.98107H19.681C18.2781 6.98107 17.1265 5.82942 17.1265 4.4265C17.1265 4.00771 17.2312 3.60987 17.4196 3.25391Z" fill="#FCAD4E"/>
</svg>
