<svg width="31" height="25" viewBox="0 0 31 25" fill="none" xmlns="http://www.w3.org/2000/svg">
<path d="M20.0391 8.22275H22.4328L26.0736 11.8635V12.7486H20.0391V8.22275ZM2.70013 0.679688C1.45301 0.679688 0.447266 1.68543 0.447266 2.93255V18.0187C0.447266 19.2658 1.45301 20.2715 2.70013 20.2715H3.50472C3.86679 17.717 6.07942 15.7457 8.73458 15.7457C11.3897 15.7457 13.6024 17.717 13.9644 20.2715H17.0822C17.4443 17.717 19.6569 15.7457 22.3121 15.7457C24.9673 15.7457 27.1799 17.717 27.542 20.2715H29.0908C29.9155 20.2715 30.5994 19.5876 30.5994 18.7629C30.5994 17.9382 29.9155 17.2543 29.0908 17.2543V11.8434C29.0908 11.0388 28.769 10.2745 28.2058 9.71125L24.565 6.07047C24.0017 5.50725 23.2374 5.18541 22.4328 5.18541H20.0391V2.95267C20.0391 1.68543 19.0334 0.679688 17.7863 0.679688H2.70013Z" fill="#FCAD4E"/>
<path d="M22.3171 24.8171C24.4091 24.8171 26.0987 23.1274 26.0987 21.0355C26.0987 18.9436 24.4091 17.2539 22.3171 17.2539C20.2252 17.2539 18.5355 18.9436 18.5355 21.0355C18.5355 23.1274 20.2252 24.8171 22.3171 24.8171ZM8.7396 24.8171C10.8315 24.8171 12.5212 23.1274 12.5212 21.0355C12.5212 18.9436 10.8315 17.2539 8.7396 17.2539C6.64765 17.2539 4.95801 18.9436 4.95801 21.0355C4.95801 23.1274 6.64765 24.8171 8.7396 24.8171Z" fill="#FCAD4E"/>
</svg>
