<svg width="32" height="29" viewBox="0 0 32 29" fill="none" xmlns="http://www.w3.org/2000/svg">
<path d="M26.5894 10.5921C28.4718 10.5921 31.7661 12.1921 31.7661 14.1216C31.7661 16.0511 28.4954 17.6512 26.5894 17.6512H6.16498L3.7884 20.8278C3.62369 21.0396 3.36485 21.1808 3.08249 21.1808H0.776505C0.352957 21.1808 0 20.8278 0 20.4043C0 20.3337 0 20.2631 0.0235305 20.1925L1.76478 14.1216L0.0235305 8.05078C0.0235305 8.05078 0 7.9096 0 7.839C0 7.41546 0.352957 7.0625 0.776505 7.0625H3.08249C3.36485 7.0625 3.62369 7.20368 3.7884 7.41546L6.16498 10.5921H26.5894Z" fill="#FCAD4E"/>
<path d="M20.1672 10.5887H11.8375L9.15499 1.12946C8.99028 0.564731 9.41383 0 10.0021 0H13.1081C13.7434 0 14.3317 0.352957 14.6376 0.894157L20.1908 10.5887H20.1672ZM11.861 17.6478H20.1908L14.6376 27.3424C14.3317 27.8836 13.7434 28.2365 13.1081 28.2365H10.0021C9.41383 28.2365 8.99028 27.6718 9.15499 27.1071L11.861 17.6478Z" fill="#FCAD4E"/>
</svg>
