<svg width="28" height="25" viewBox="0 0 28 25" fill="none" xmlns="http://www.w3.org/2000/svg">
<path d="M12.7407 9.28641L7.65544 10.9748V6.7136H19.7155V10.9949L14.6302 9.30651C14.0071 9.1055 13.3437 9.1055 12.7206 9.30651L12.7407 9.28641ZM10.6704 0.683594C9.84634 0.683594 9.16294 1.36699 9.16294 2.1911V3.6986H6.91174C5.66553 3.6986 4.66053 4.7036 4.66053 5.9498V11.9798L2.57014 12.6833C1.48474 13.0451 1.18323 14.4521 2.02743 15.2159L6.79114 19.5776C7.55494 20.0198 8.41923 20.2811 9.18303 20.2811C10.1679 20.2811 11.1529 19.8791 11.977 19.3163C13.0222 18.5927 14.409 18.5927 15.4542 19.3163C16.3185 19.9193 17.3235 20.2811 18.2481 20.2811C19.0119 20.2811 19.8763 20.0198 20.6401 19.5776L25.4038 15.2159C26.248 14.432 25.9465 13.0451 24.8611 12.6833L22.7707 11.9798V5.9699C22.7707 4.7237 21.7657 3.7187 20.5195 3.7187H18.2683V2.1911C18.2683 1.36699 17.5849 0.683594 16.7608 0.683594H10.7307H10.6704Z" fill="#FCAD4E"/>
<path d="M12.8232 20.5599C13.3458 20.178 14.0493 20.178 14.5719 20.5599C15.6372 21.2835 16.9236 21.786 18.2301 21.786C19.5366 21.786 20.8431 21.2835 21.8682 20.5599C22.431 20.1579 23.1948 20.1981 23.7174 20.6403C24.4008 21.2031 25.245 21.6252 26.1093 21.8262C26.9133 22.0071 27.4158 22.8312 27.2349 23.6352C27.054 24.4392 26.2299 24.9417 25.4259 24.7608C24.2802 24.4995 23.3154 23.9769 22.6923 23.5749C21.3255 24.3186 19.7979 24.801 18.2502 24.801C16.7025 24.801 15.396 24.3387 14.4714 23.9166C14.19 23.796 13.9488 23.6754 13.7277 23.5548C13.5066 23.6754 13.2654 23.796 12.984 23.9166C12.0594 24.3387 10.6926 24.801 9.20516 24.801C7.71776 24.801 6.10976 24.3186 4.76306 23.595C4.13995 23.997 3.17515 24.4995 2.02945 24.7809C1.22545 24.9618 0.401346 24.4593 0.220446 23.6553C0.0395455 22.8513 0.542057 22.0272 1.34606 21.8463C2.19026 21.6453 3.05455 21.2232 3.73795 20.6604C4.26055 20.2182 5.02436 20.178 5.58716 20.58C6.63237 21.3036 7.95896 21.8061 9.22526 21.8061C10.4916 21.8061 11.8182 21.3036 12.8835 20.58L12.8232 20.5599Z" fill="#FCAD4E"/>
</svg>
