<svg width="28" height="22" viewBox="0 0 28 22" fill="none" xmlns="http://www.w3.org/2000/svg">
<path d="M0.915039 7.70927V20.8031C0.915039 21.3501 1.3562 21.7913 1.90325 21.7913H3.87967C4.42672 21.7913 4.86788 21.3501 4.86788 20.8031V9.87981C4.86788 9.1563 5.46787 8.55631 6.19138 8.55631H22.0733C22.7969 8.55631 23.3968 9.1563 23.3968 9.87981V20.8031C23.3968 21.3501 23.838 21.7913 24.3851 21.7913H26.3615C26.9085 21.7913 27.3497 21.3501 27.3497 20.8031V7.70927C27.3497 6.63283 26.6968 5.66227 25.6909 5.25639L14.6441 0.809442C14.3265 0.685915 13.9735 0.685915 13.6559 0.809442L2.57381 5.23875C1.56796 5.64462 0.915039 6.61518 0.915039 7.69163V7.70927Z" fill="#FCAD4E"/>
<path d="M7.21478 16.5023H13.1793C13.7264 16.5023 14.1675 16.9434 14.1675 17.4905V20.808C14.1675 21.3551 13.7264 21.7962 13.1793 21.7962H7.21478C6.66774 21.7962 6.22656 21.3551 6.22656 20.808V17.4905C6.22656 16.9434 6.66774 16.5023 7.21478 16.5023ZM15.491 17.4905C15.491 16.9434 15.9322 16.5023 16.4793 16.5023H21.1027C21.6497 16.5023 22.0909 16.9434 22.0909 17.4905V20.808C22.0909 21.3551 21.6497 21.7962 21.1027 21.7962H16.4793C15.9322 21.7962 15.491 21.3551 15.491 20.808V17.4905ZM6.22656 10.873C6.22656 10.3259 6.66774 9.88477 7.21478 9.88477H13.1793C13.7264 9.88477 14.1675 10.3259 14.1675 10.873V14.1905C14.1675 14.7376 13.7264 15.1788 13.1793 15.1788H7.21478C6.66774 15.1788 6.22656 14.7376 6.22656 14.1905V10.873Z" fill="#FCAD4E"/>
</svg>
