<svg width="22" height="25" viewBox="0 0 22 25" fill="none" xmlns="http://www.w3.org/2000/svg">
<path d="M10.563 18.1079C11.8104 18.1079 12.8164 17.1019 12.8164 15.8545C12.8164 14.6071 11.8104 13.6011 10.563 13.6011C9.31553 13.6011 8.30953 14.6071 8.30953 15.8545C8.30953 17.1019 9.31553 18.1079 10.563 18.1079ZM3.01799 4.52698V9.05397C3.01799 9.87889 3.70207 10.563 4.52698 10.563H16.5989C17.4239 10.563 18.1079 9.87889 18.1079 9.05397V4.52698C18.1079 3.70207 17.4239 3.01799 16.5989 3.01799H4.52698C3.70207 3.01799 3.01799 3.70207 3.01799 4.52698ZM0 4.52698C0 2.03211 2.03211 0 4.52698 0H16.5989C19.0938 0 21.1259 2.03211 21.1259 4.52698V16.5989C21.1259 19.0938 19.0938 21.1259 16.5989 21.1259H4.52698C2.03211 21.1259 0 19.0938 0 16.5989V4.52698Z" fill="#FCAD4E"/>
<path d="M16.152 23.6989C16.4337 23.9806 16.816 24.1416 17.2184 24.1416H19.0895C19.5523 24.1416 19.7937 23.5782 19.4718 23.2362L17.2988 21.0632C17.0775 21.1034 16.8361 21.1236 16.5946 21.1236H13.5767L16.152 23.6989ZM1.64555 23.2362C1.32363 23.5581 1.54494 24.1416 2.02782 24.1416H3.89898C4.30138 24.1416 4.68365 23.9806 4.96533 23.6989L7.54068 21.1236H4.52269C4.28125 21.1236 4.05993 21.1236 3.81849 21.0632L1.64555 23.2362ZM4.52269 3.01562C3.69777 3.01562 3.01369 3.6997 3.01369 4.52462V9.0516C3.01369 9.87652 3.69777 10.5606 4.52269 10.5606H16.5946C17.4196 10.5606 18.1036 9.87652 18.1036 9.0516V4.52462C18.1036 3.6997 17.4196 3.01562 16.5946 3.01562H4.52269Z" fill="#FCC280"/>
<circle cx="10.5615" cy="15.8584" r="2.28027" fill="#fff"/>
</svg>
