<svg width="29" height="19" viewBox="0 0 29 19" fill="none" xmlns="http://www.w3.org/2000/svg">
<path d="M26.6562 0.25H3.21875C1.90039 0.25 0.875 1.32422 0.875 2.59375V16.6562C0.875 17.9746 1.90039 19 3.21875 19H26.6562C27.9258 19 29 17.9746 29 16.6562V2.59375C29 1.32422 27.9258 0.25 26.6562 0.25ZM10.8848 11.7246C10.6895 12.7012 9.95703 13.3848 8.88281 13.6289V14.1172C8.88281 14.7031 8.44336 15.0938 7.85742 15.0938C7.32031 15.0938 6.92969 14.7031 6.92969 14.1172V13.5801C6.49023 13.5312 6.05078 13.3848 5.66016 13.2383L5.46484 13.1406C4.97656 12.9941 4.73242 12.4082 4.87891 11.9199C5.07422 11.3828 5.61133 11.1387 6.14844 11.334L6.34375 11.3828C6.73438 11.5293 7.17383 11.6758 7.51562 11.7246C8.15039 11.8223 8.88281 11.7734 8.98047 11.3828C9.0293 11.1387 9.0293 10.9922 7.61328 10.6016L7.32031 10.5039C6.49023 10.2598 4.48828 9.67383 4.87891 7.57422C5.02539 6.54883 5.80664 5.91406 6.92969 5.66992V5.13281C6.92969 4.5957 7.32031 4.15625 7.90625 4.15625C8.44336 4.15625 8.88281 4.5957 8.88281 5.13281V5.66992C9.12695 5.76758 9.41992 5.81641 9.76172 5.96289C10.25 6.10938 10.543 6.69531 10.3477 7.18359C10.2012 7.7207 9.61523 7.96484 9.12695 7.76953C8.83398 7.67188 8.54102 7.57422 8.24805 7.57422C7.61328 7.42773 6.88086 7.52539 6.7832 7.91602C6.7832 8.16016 6.73438 8.30664 7.90625 8.64844L8.15039 8.69727C9.22461 9.03906 11.2754 9.57617 10.8848 11.7246ZM17.2812 12.75H14.1562C13.7168 12.75 13.375 12.4082 13.375 12.0176C13.375 11.627 13.7168 11.2363 14.1562 11.2363L17.2812 11.1875C17.6719 11.1875 18.0625 11.5781 18.0625 11.9688C18.0625 12.4082 17.6719 12.75 17.2812 12.75ZM25.0938 12.75H21.9688C21.5293 12.75 21.1875 12.4082 21.1875 11.9688C21.1875 11.5781 21.5293 11.1875 21.9688 11.1875H25.0938C25.4844 11.1875 25.875 11.5781 25.875 11.9688C25.875 12.4082 25.4844 12.75 25.0938 12.75ZM25.0938 8.0625H14.1562C13.7168 8.0625 13.375 7.7207 13.375 7.28125C13.375 6.89062 13.7168 6.5 14.1562 6.5H25.0938C25.4844 6.5 25.875 6.89062 25.875 7.28125C25.875 7.7207 25.4844 8.0625 25.0938 8.0625Z" fill="url(#paint0_linear_669_253)"/>
<defs>
<linearGradient id="paint0_linear_669_253" x1="14.5" y1="-3" x2="14.5" y2="22" gradientUnits="userSpaceOnUse">
<stop stop-color="white"/>
<stop offset="1" stop-color="white" stop-opacity="0.72"/>
</linearGradient>
</defs>
</svg>
