<svg width="63" height="13" viewBox="0 0 63 13" fill="none" xmlns="http://www.w3.org/2000/svg">
<g clip-path="url(#clip0_818_507)">
<path d="M49.7336 1H0C6.35681 1 11.9766 3.14994 15.2318 6.41296C15.3239 6.55019 15.4314 6.68742 15.5542 6.8094C15.7692 7.08386 16.0149 7.34308 16.2605 7.58704C19.5157 10.8501 25.1355 13 31.4923 13C37.8491 13 43.4689 10.8501 46.7241 7.60229C46.7241 7.58704 46.7241 7.58704 46.7241 7.58704C46.9544 7.37357 47.154 7.14485 47.3536 6.90089C47.5072 6.74841 47.6147 6.59593 47.7375 6.42821C47.7375 6.42821 47.7426 6.42313 47.7529 6.41296C51.008 3.14994 56.6125 1 62.9846 1H49.7183L49.7336 1Z" fill="white"/>
</g>
<path d="M36.3906 5.16016L32.5312 8.79102C32.4043 8.91797 32.252 8.96875 32.125 8.96875C31.9727 8.96875 31.8203 8.91797 31.6934 8.81641L27.834 5.16016C27.5801 4.93164 27.5801 4.55078 27.8086 4.29688C28.0371 4.04297 28.418 4.04297 28.6719 4.27148L32.125 7.52148L35.5527 4.27148C35.8066 4.04297 36.1875 4.04297 36.416 4.29688C36.6445 4.55078 36.6445 4.93164 36.3906 5.16016Z" fill="#9A9A9A"/>
<defs>
<clipPath id="clip0_818_507">
<rect width="63" height="12" fill="white" transform="translate(0 1)"/>
</clipPath>
</defs>
</svg>
