<svg width="23" height="26" viewBox="0 0 23 26" fill="none" xmlns="http://www.w3.org/2000/svg">
<path d="M19.3125 6.375H17.3594C16.6758 6.375 16.1875 6.91211 16.1875 7.54688C16.1875 8.23047 16.6758 8.71875 17.3594 8.71875H19.3125C19.7031 8.71875 20.0938 9.10938 20.0938 9.5V22C20.0938 22.4395 19.7031 22.7812 19.3125 22.7812H3.6875C3.24805 22.7812 2.90625 22.4395 2.90625 22V9.5C2.90625 9.10938 3.24805 8.71875 3.6875 8.71875H5.64062C6.27539 8.71875 6.8125 8.23047 6.8125 7.54688C6.8125 6.91211 6.27539 6.375 5.64062 6.375H3.6875C1.92969 6.375 0.5625 7.79102 0.5625 9.5V22C0.5625 23.7578 1.92969 25.125 3.6875 25.125H19.3125C21.0215 25.125 22.4375 23.7578 22.4375 22V9.5C22.4375 7.79102 21.0215 6.375 19.3125 6.375ZM5.98242 11.7949C5.49414 12.2344 5.49414 12.9668 5.93359 13.4551L10.6211 18.5332C11.0605 19.0215 11.8906 19.0215 12.3301 18.5332L17.0176 13.4551C17.457 12.9668 17.457 12.2344 16.9688 11.7949C16.4805 11.3555 15.748 11.4043 15.3086 11.8926L12.6719 14.7246V1.3457C12.6719 0.662109 12.1348 0.125 11.5 0.125C10.8164 0.125 10.3281 0.662109 10.3281 1.3457V14.7246L7.64258 11.8438C7.39844 11.5996 7.10547 11.502 6.8125 11.502C6.51953 11.502 6.22656 11.5996 5.98242 11.7949Z" fill="url(#paint0_linear_669_204)"/>
<defs>
<linearGradient id="paint0_linear_669_204" x1="11.5" y1="0" x2="11.5" y2="25" gradientUnits="userSpaceOnUse">
<stop stop-color="white"/>
<stop offset="1" stop-color="white" stop-opacity="0.72"/>
</linearGradient>
</defs>
</svg>
