<svg width="15" height="18" viewBox="0 0 15 18" fill="none" xmlns="http://www.w3.org/2000/svg">
<path d="M12.8125 4.375H11.4844C11.0195 4.375 10.6875 4.74023 10.6875 5.17188C10.6875 5.63672 11.0195 5.96875 11.4844 5.96875H12.8125C13.0781 5.96875 13.3438 6.23438 13.3438 6.5V15C13.3438 15.2988 13.0781 15.5312 12.8125 15.5312H2.1875C1.88867 15.5312 1.65625 15.2988 1.65625 15V6.5C1.65625 6.23438 1.88867 5.96875 2.1875 5.96875H3.51562C3.94727 5.96875 4.3125 5.63672 4.3125 5.17188C4.3125 4.74023 3.94727 4.375 3.51562 4.375H2.1875C0.992188 4.375 0.0625 5.33789 0.0625 6.5V15C0.0625 16.1953 0.992188 17.125 2.1875 17.125H12.8125C13.9746 17.125 14.9375 16.1953 14.9375 15V6.5C14.9375 5.33789 13.9746 4.375 12.8125 4.375ZM3.74805 8.06055C3.41602 8.35938 3.41602 8.85742 3.71484 9.18945L6.90234 12.6426C7.20117 12.9746 7.76562 12.9746 8.06445 12.6426L11.252 9.18945C11.5508 8.85742 11.5508 8.35938 11.2188 8.06055C10.8867 7.76172 10.3887 7.79492 10.0898 8.12695L8.29688 10.0527V0.955078C8.29688 0.490234 7.93164 0.125 7.5 0.125C7.03516 0.125 6.70312 0.490234 6.70312 0.955078V10.0527L4.87695 8.09375C4.71094 7.92773 4.51172 7.86133 4.3125 7.86133C4.11328 7.86133 3.91406 7.92773 3.74805 8.06055Z" fill="url(#paint0_linear_818_357)"/>
<defs>
<linearGradient id="paint0_linear_818_357" x1="7.5" y1="0" x2="7.5" y2="17" gradientUnits="userSpaceOnUse">
<stop stop-color="#005191"/>
<stop offset="1" stop-color="var(--primary)"/>
</linearGradient>
</defs>
</svg>
