<svg width="38" height="61" viewBox="0 0 38 61" fill="none" xmlns="http://www.w3.org/2000/svg">
<path opacity="0.3" d="M35.8906 42.8296C34.8359 48.5718 29.9141 52.3218 23 53.1421V57.0093C23 59.1187 21.2422 60.7593 19.25 60.7593C17.1406 60.7593 15.5 59.1187 15.5 57.0093V53.0249C15.3828 52.9077 15.3828 53.0249 15.2656 52.9077C12.2188 52.5562 9.05469 51.3843 6.125 50.4468L4.83594 49.978C2.96094 49.2749 1.90625 47.1655 2.49219 45.2905C3.19531 43.2983 5.30469 42.2437 7.29688 42.9468L8.58594 43.2983C11.1641 44.2358 13.9766 45.1733 16.3203 45.5249C21.9453 46.3452 27.8047 45.4077 28.5078 41.5405C29.0938 38.1421 27.1016 36.853 18.1953 34.3921L16.4375 33.9233C11.2812 32.5171 0.617188 29.4702 2.49219 18.689C3.54688 13.064 8.46875 9.31396 15.5 8.49365V4.50928C15.5 2.51709 17.1406 0.759277 19.25 0.759277C21.2422 0.759277 23 2.51709 23 4.50928V8.61084C23 8.72803 23 8.61084 23.1172 8.72803C25.1094 8.9624 27.3359 9.54834 30.2656 10.4858C32.1406 11.189 33.1953 13.2983 32.6094 15.2905C31.9062 17.1655 29.7969 18.2202 27.9219 17.6343C25.4609 16.814 23.4688 16.3452 21.9453 16.1108C16.5547 15.2905 10.5781 16.228 9.875 20.0952C9.40625 22.9077 10.4609 24.4312 18.4297 26.6577L20.1875 27.2437C27.2188 29.1187 37.7656 32.0483 35.8906 42.8296Z" fill="url(#paint0_linear_773_2)"/>
<defs>
<linearGradient id="paint0_linear_773_2" x1="19" y1="0.259277" x2="19" y2="60.2593" gradientUnits="userSpaceOnUse">
<stop stop-color="#5A5A5A"/>
<stop offset="1" stop-color="#E7E7E7" stop-opacity="0.28"/>
</linearGradient>
</defs>
</svg>
