<svg width="102" height="85" viewBox="0 0 102 85" fill="none" xmlns="http://www.w3.org/2000/svg">
<path d="M57.2784 63.364H33.3475C32.5166 63.364 32.018 64.0288 32.018 64.6935C32.018 65.5245 32.5166 66.023 33.1813 66.023H57.1123C57.777 66.023 58.4418 65.5245 58.4418 64.6935C58.4418 64.0288 58.1094 63.364 57.2784 63.364ZM85.364 4.86623H10.9123C4.92956 4.86623 0.276321 9.68565 0.276321 15.5022V68.682C0.276321 74.6647 4.92956 79.318 10.9123 79.318H85.364C91.1806 79.318 96 74.6647 96 68.682V15.5022C96 9.68565 91.1806 4.86623 85.364 4.86623ZM93.1748 68.682C93.1748 73.1691 89.5187 76.659 85.1978 76.659H10.7461C6.25905 76.659 2.76913 73.1691 2.76913 68.682V15.5022C2.76913 11.1813 6.25905 7.52522 10.7461 7.52522H85.1978C89.5187 7.52522 93.1748 11.1813 93.1748 15.5022V68.682ZM25.3705 63.364H12.0756C11.2447 63.364 10.7461 64.0288 10.7461 64.6935C10.7461 65.5245 11.2447 66.023 11.9094 66.023H25.2044C25.8691 66.023 26.5339 65.5245 26.5339 64.6935C26.5339 64.0288 26.2015 63.364 25.3705 63.364ZM82.705 15.5022H66.7511C65.2554 15.5022 64.0921 16.8317 64.0921 18.1612V28.7972C64.0921 30.2928 65.2554 31.4561 66.7511 31.4561H82.705C84.0345 31.4561 85.364 30.2928 85.364 28.7972V18.1612C85.364 16.8317 84.0345 15.5022 82.705 15.5022ZM82.5389 28.7972H66.5849V18.1612H82.5389V28.7972ZM82.705 42.0921H72.0691C70.5734 42.0921 69.4101 43.4216 69.4101 44.7511V50.0691C69.4101 51.5648 70.5734 52.7281 72.0691 52.7281H82.705C84.0345 52.7281 85.364 51.5648 85.364 50.0691V44.7511C85.364 43.4216 84.0345 42.0921 82.705 42.0921ZM82.5389 50.0691H71.9029V44.7511H82.5389V50.0691ZM61.2669 42.0921H39.995C38.6655 42.0921 37.336 43.4216 37.336 44.7511V50.0691C37.336 51.5648 38.6655 52.7281 40.1612 52.7281H61.4331C62.7626 52.7281 64.0921 51.5648 64.0921 50.0691V44.7511C63.9259 43.4216 62.7626 42.0921 61.2669 42.0921ZM61.2669 50.0691H39.995V44.7511H61.2669V50.0691ZM32.018 44.7511C32.018 43.4216 30.6885 42.0921 29.359 42.0921H13.4051C11.9094 42.0921 10.7461 43.4216 10.7461 44.7511V50.0691C10.7461 51.5648 11.9094 52.7281 13.4051 52.7281H29.359C30.6885 52.7281 32.018 51.5648 32.018 50.0691V44.7511ZM29.359 50.0691H13.4051V44.7511H29.359V50.0691Z" fill="url(#paint0_linear_786_4)" fill-opacity="0.67"/>
<circle cx="86" cy="69" r="15" fill="#F8F8F8"/>
<path d="M86.1697 53.297C77.3889 53.297 70.3395 60.4083 70.3395 69.1273C70.3395 77.9081 77.3889 84.9576 86.1697 84.9576C94.8887 84.9576 102 77.9081 102 69.1273C102 60.4083 94.8887 53.297 86.1697 53.297ZM86.1697 82.9788C78.5019 82.9788 72.3182 76.7951 72.3182 69.1273C72.3182 61.5213 78.5019 55.2758 86.1697 55.2758C93.7757 55.2758 100.021 61.5213 100.021 69.1273C100.021 76.7951 93.7757 82.9788 86.1697 82.9788ZM92.1061 68.1379H87.1591V63.1909C87.1591 62.6962 86.6644 62.2016 86.1697 62.2016C85.6132 62.2016 85.1803 62.6962 85.1803 63.1909V68.1379H80.2334C79.6768 68.1379 79.244 68.6326 79.244 69.1273C79.244 69.6838 79.6768 70.1167 80.2334 70.1167H85.1803V75.0636C85.1803 75.6202 85.6132 76.053 86.1697 76.053C86.6644 76.053 87.1591 75.6202 87.1591 75.0636V70.1167H92.1061C92.6008 70.1167 93.0955 69.6838 93.0955 69.1273C93.0955 68.6326 92.6008 68.1379 92.1061 68.1379Z" fill="url(#paint1_linear_786_4)" fill-opacity="0.67"/>
<defs>
<linearGradient id="paint0_linear_786_4" x1="48" y1="0" x2="48" y2="85" gradientUnits="userSpaceOnUse">
<stop stop-color="#757575"/>
<stop offset="1" stop-color="#757575" stop-opacity="0"/>
</linearGradient>
<linearGradient id="paint1_linear_786_4" x1="86" y1="53" x2="86" y2="85" gradientUnits="userSpaceOnUse">
<stop stop-color="#757575"/>
<stop offset="1" stop-color="#757575" stop-opacity="0"/>
</linearGradient>
</defs>
</svg>
