<svg width="41" height="55" viewBox="0 0 41 55" fill="none" xmlns="http://www.w3.org/2000/svg">
<path opacity="0.3" d="M40.1328 49.6882C40.6016 51.6804 39.3125 53.6726 37.3203 54.1414C35.4453 54.6101 33.5703 54.8445 31.6953 54.8445C25.0156 54.8445 18.5703 52.032 13.7656 46.9929C11.1875 44.2976 9.3125 41.2507 8.14062 37.8523H4.625C2.51562 37.8523 0.875 36.2117 0.875 34.1023C0.875 32.1101 2.51562 30.3523 4.625 30.3523H6.5C6.5 29.1804 6.5 27.8914 6.5 26.6023H4.625C2.51562 26.6023 0.875 24.9617 0.875 22.9695C0.875 20.8601 2.51562 19.1023 4.625 19.1023H8.14062C9.3125 15.821 11.1875 12.657 13.7656 10.0789C19.9766 3.63354 28.7656 0.938232 37.3203 2.93042C39.3125 3.39917 40.6016 5.39136 40.1328 7.38354C39.6641 9.37573 37.6719 10.6648 35.5625 10.196C29.7031 8.90698 23.4922 10.6648 19.2734 15.2351C18.1016 16.407 17.1641 17.8132 16.4609 19.1023H30.875C32.8672 19.1023 34.5078 20.8601 34.5078 22.9695C34.5078 24.9617 32.8672 26.6023 30.875 26.6023H14.1172C14 27.8914 14 29.1804 14.1172 30.3523H30.875C32.8672 30.3523 34.5078 32.1101 34.5078 34.1023C34.5078 35.9773 32.8672 37.8523 30.875 37.8523H16.4609C17.1641 39.2585 18.1016 40.6648 19.1562 41.8367C23.4922 46.407 29.5859 48.1648 35.5625 46.8757C37.5547 46.407 39.6641 47.5789 40.1328 49.6882Z" fill="url(#paint0_linear_773_3)"/>
<defs>
<linearGradient id="paint0_linear_773_3" x1="21.5" y1="-2.02271" x2="21.5" y2="57.9773" gradientUnits="userSpaceOnUse">
<stop stop-color="#787878"/>
<stop offset="1" stop-color="#CDCDCD" stop-opacity="0.28"/>
</linearGradient>
</defs>
</svg>
