<?xml version="1.0" encoding="UTF-8"?><svg xmlns="http://www.w3.org/2000/svg" viewBox="0 0 295.4 220.14"><defs><style>.e{fill:#f0f0f0;}.f,.g,.h,.i,.j,.k,.l,.m{fill:#fff;}.n{fill:#fafafa;}.g{opacity:.4;}.o{fill:#f5f5f5;}.h{opacity:.3;}.p{fill:#ebb376;}.q,.r,.l,.m{opacity:.2;}.i,.s{opacity:.1;}.t,.u{stroke-linecap:round;stroke-linejoin:round;}.t,.u,.v{fill:none;}.t,.v{stroke:#fff;stroke-width:.43px;}.j{opacity:.5;}.w{fill:#e0e0e0;}.x{fill:#de5753;}.k{opacity:.7;}.r,.m{isolation:isolate;}.y{fill:#ffb573;}.a`{fill:#ebebeb;}.aa{fill:#407bff;}.ab{fill:#d58745;}.u{stroke:#263238;stroke-width:.53px;}.v{stroke-miterlimit:10;}.ac{fill:#263238;}</style></defs><g id="a"/><g id="b"><g id="c"><g><rect class="f" x="11.23" y=".15" width="259.81" height="219.99" rx="62.1" ry="62.1"/><g><g><rect class="a`" y="193.45" width="295.4" height=".15"/><rect class="a`" x="246.23" y="202.96" width="19.57" height=".15"/><rect class="a`" x="190.55" y="204.57" width="5.14" height=".15"/><rect class="a`" x="234.3" y="197.48" width="11.34" height=".15"/><rect class="a`" x="30.99" y="198.47" width="25.52" height=".15"/><rect class="a`" x="61.77" y="198.47" width="3.74" height=".15"/><rect class="a`" x="77.67" y="200.96" width="55.34" height=".15"/><path class="a`" d="M140.03,167.11H25.94c-1.86,0-3.37-1.51-3.37-3.37V3.37c0-1.86,1.51-3.37,3.37-3.37h114.08c1.86,0,3.37,1.51,3.37,3.37V163.73c0,1.86-1.51,3.37-3.37,3.37ZM25.94,.15c-1.78,0-3.22,1.45-3.22,3.22V163.73c0,1.78,1.45,3.22,3.22,3.22h114.08c1.78,0,3.22-1.45,3.22-3.22V3.37c0-1.78-1.45-3.22-3.22-3.22H25.94Z"/><path class="a`" d="M267.82,167.11h-114.08c-1.86,0-3.37-1.51-3.37-3.37V3.37c0-1.86,1.51-3.37,3.37-3.37h114.08c1.86,0,3.37,1.51,3.37,3.37V163.73c0,1.86-1.51,3.37-3.37,3.37ZM153.73,.15c-1.78,0-3.22,1.45-3.22,3.22V163.73c0,1.78,1.45,3.22,3.22,3.22h114.08c1.78,0,3.22-1.45,3.22-3.22V3.37c0-1.78-1.45-3.22-3.22-3.22h-114.08Z"/></g><g><g><rect class="n" x="198.93" y="107.86" width="13.17" height="5.6"/><rect class="n" x="182.99" y="107.86" width="13.17" height="5.6"/><rect class="n" x="167.05" y="107.86" width="13.17" height="5.6"/><rect class="n" x="206.9" y="115.66" width="13.17" height="5.6"/><rect class="n" x="190.96" y="115.66" width="13.17" height="5.6"/><rect class="n" x="175.02" y="115.66" width="13.17" height="5.6"/><rect class="n" x="159.08" y="115.66" width="13.17" height="5.6"/><rect class="n" x="232.59" y="123.46" width="13.17" height="5.6"/><rect class="n" x="216.65" y="123.46" width="13.17" height="5.6"/><rect class="n" x="182.99" y="123.46" width="13.17" height="5.6"/><rect class="n" x="167.05" y="123.46" width="13.17" height="5.6"/><rect class="n" x="151.11" y="123.46" width="13.17" height="5.6"/><rect class="n" x="224.62" y="131.26" width="13.17" height="5.6"/><rect class="n" x="190.96" y="131.26" width="13.17" height="5.6"/><rect class="n" x="175.02" y="131.26" width="13.17" height="5.6"/><rect class="n" x="159.08" y="131.26" width="13.17" height="5.6"/><rect class="n" x="96.9" y="28.36" width="13.17" height="5.6"/><rect class="n" x="80.96" y="28.36" width="13.17" height="5.6"/><rect class="n" x="104.87" y="36.17" width="13.17" height="5.6"/><rect class="n" x="88.93" y="36.17" width="13.17" height="5.6"/><rect class="n" x="57.05" y="36.17" width="13.17" height="5.6"/><rect class="n" x="41.11" y="36.17" width="13.17" height="5.6"/><rect class="n" x="80.96" y="43.97" width="13.17" height="5.6"/><rect class="n" x="226.07" y="74.03" width="13.17" height="5.6"/><rect class="n" x="198.31" y="74.03" width="13.17" height="5.6"/><rect class="n" x="234.04" y="81.84" width="13.17" height="5.6"/><rect class="n" x="218.1" y="81.84" width="13.17" height="5.6"/><rect class="n" x="82.08" y="66.16" width="13.17" height="5.6"/><rect class="n" x="48.41" y="66.16" width="13.17" height="5.6"/><rect class="n" x="90.05" y="73.96" width="13.17" height="5.6"/><rect class="n" x="68.2" y="73.96" width="13.17" height="5.6"/><rect class="n" x="226.07" y="89.64" width="13.17" height="5.6"/><rect class="n" x="198.31" y="89.64" width="13.17" height="5.6"/><rect class="n" x="49.08" y="43.97" width="13.17" height="5.6"/><rect class="n" x="235.72" y="28.57" width="13.17" height="5.6"/><rect class="n" x="219.78" y="28.57" width="13.17" height="5.6"/><rect class="n" x="227.75" y="36.38" width="13.17" height="5.6"/><rect class="n" x="164.31" y="28.7" width="13.17" height="5.6"/><rect class="n" x="148.37" y="28.7" width="13.17" height="5.6"/><rect class="n" x="172.28" y="36.5" width="13.17" height="5.6"/><rect class="n" x="156.34" y="36.5" width="13.17" height="5.6"/><rect class="n" x="140.4" y="36.5" width="13.17" height="5.6"/><rect class="n" x="180.25" y="44.3" width="13.17" height="5.6"/><rect class="n" x="164.31" y="44.3" width="13.17" height="5.6"/><rect class="n" x="148.37" y="44.3" width="13.17" height="5.6"/><rect class="n" x="172.28" y="52.11" width="13.17" height="5.6"/><rect class="n" x="156.34" y="52.11" width="13.17" height="5.6"/><rect class="n" x="65.14" y="105.74" width="13.17" height="5.6"/><rect class="n" x="49.2" y="105.74" width="13.17" height="5.6"/><rect class="n" x="110.9" y="106.45" width="13.17" height="5.6"/><rect class="n" x="73.11" y="113.54" width="13.17" height="5.6"/><rect class="n" x="57.17" y="113.54" width="13.17" height="5.6"/><rect class="n" x="118.87" y="114.25" width="13.17" height="5.6"/><rect class="n" x="102.93" y="114.25" width="13.17" height="5.6"/><rect class="n" x="145.23" y="89.03" width="13.17" height="5.6"/><rect class="n" x="62.58" y="85.31" width="13.17" height="5.6"/><rect class="n" x="127.27" y="61.36" width="13.17" height="5.6"/><rect class="n" x="137.26" y="81.22" width="13.17" height="5.6"/><rect class="n" x="153.2" y="81.22" width="13.17" height="5.6"/><rect class="n" x="213.04" y="187.74" width="13.17" height="5.6"/><rect class="n" x="221.01" y="179.94" width="13.17" height="5.6"/><rect class="n" x="65.14" y="121.34" width="13.17" height="5.6"/><rect class="n" x="49.2" y="121.34" width="13.17" height="5.6"/><rect class="n" x="73.11" y="129.15" width="13.17" height="5.6"/><rect class="n" x="57.17" y="129.15" width="13.17" height="5.6"/><rect class="n" x="90.15" y="150.73" width="13.17" height="5.6"/><rect class="n" x="74.21" y="150.73" width="13.17" height="5.6"/><rect class="n" x="58.27" y="150.73" width="13.17" height="5.6"/><rect class="n" x="42.33" y="150.73" width="13.17" height="5.6"/><rect class="n" x="98.12" y="158.53" width="13.17" height="5.6"/><rect class="n" x="82.18" y="158.53" width="13.17" height="5.6"/><rect class="n" x="50.3" y="158.53" width="13.17" height="5.6"/><rect class="n" x="106.1" y="166.33" width="13.17" height="5.6"/><rect class="n" x="90.15" y="166.33" width="13.17" height="5.6"/><rect class="n" x="74.21" y="166.33" width="13.17" height="5.6"/><rect class="n" x="98.12" y="174.14" width="13.17" height="5.6"/><rect class="n" x="82.18" y="174.14" width="13.17" height="5.6"/><rect class="n" x="66.24" y="174.14" width="13.17" height="5.6"/><rect class="n" x="198" y="150.37" width="13.17" height="5.6"/><rect class="n" x="164.33" y="150.37" width="13.17" height="5.6"/><rect class="n" x="148.39" y="150.37" width="13.17" height="5.6"/><rect class="n" x="205.97" y="158.17" width="13.17" height="5.6"/><rect class="n" x="172.3" y="158.17" width="13.17" height="5.6"/><rect class="n" x="156.36" y="158.17" width="13.17" height="5.6"/><rect class="n" x="140.42" y="158.17" width="13.17" height="5.6"/><rect class="n" x="213.94" y="165.97" width="13.17" height="5.6"/><rect class="n" x="198" y="165.97" width="13.17" height="5.6"/><rect class="n" x="164.33" y="165.97" width="13.17" height="5.6"/><rect class="n" x="148.39" y="165.97" width="13.17" height="5.6"/><rect class="n" x="188.24" y="173.78" width="13.17" height="5.6"/><rect class="n" x="172.3" y="173.78" width="13.17" height="5.6"/><rect class="n" x="156.36" y="173.78" width="13.17" height="5.6"/><rect class="n" x="140.42" y="173.78" width="13.17" height="5.6"/></g><g><rect class="w" x="182.57" y="59.17" width="56.9" height="65.09" transform="translate(422.05 183.44) rotate(180)"/><rect class="w" x="182.68" y="59.17" width="54.72" height="65.09" transform="translate(420.08 183.44) rotate(180)"/><rect class="e" x="180.8" y="59.17" width="56.9" height="65.09" transform="translate(418.51 183.44) rotate(180)"/><rect class="f" x="183.38" y="61.25" width="51.84" height="60.02" transform="translate(418.6 182.53) rotate(180)"/><rect class="w" x="183.38" y="61.25" width="1.62" height="60.02" transform="translate(368.39 182.53) rotate(180)"/><rect class="w" x="209.29" y="79.96" width="1.62" height="50.53" transform="translate(104.87 315.32) rotate(-90)"/><rect class="e" x="183.38" y="101.7" width="52.71" height="2.72" transform="translate(419.47 206.11) rotate(180)"/></g><g><rect class="w" x="62.57" y="59.17" width="56.9" height="65.09" transform="translate(182.04 183.44) rotate(180)"/><rect class="w" x="62.67" y="59.17" width="54.72" height="65.09" transform="translate(180.06 183.44) rotate(180)"/><rect class="e" x="60.79" y="59.17" width="56.9" height="65.09" transform="translate(178.49 183.44) rotate(180)"/><rect class="f" x="63.38" y="61.25" width="51.84" height="60.02" transform="translate(178.59 182.53) rotate(180)"/><rect class="w" x="63.38" y="61.25" width="1.62" height="60.02" transform="translate(128.37 182.53) rotate(180)"/><rect class="w" x="89.28" y="79.96" width="1.62" height="50.53" transform="translate(-15.13 195.31) rotate(-90)"/><rect class="e" x="63.38" y="101.7" width="52.71" height="2.72" transform="translate(179.46 206.11) rotate(180)"/></g></g><ellipse id="d" class="o" cx="147.7" cy="213.45" rx="114.55" ry="6.69"/><g><path class="ac" d="M52.81,198.19s-.82-6.01-4.66-6.67c-3.84-.66-2.69-3.56-3.69-4.69-1-1.12-3.62,2.19-1.38,5.41,2.24,3.22,.41,2.2,1.38,5.19,.97,2.99,8.7,5.74,8.35,.75Z"/><path class="m" d="M52.81,198.19s-.82-6.01-4.66-6.67c-3.84-.66-2.69-3.56-3.69-4.69-1-1.12-3.62,2.19-1.38,5.41,2.24,3.22,.41,2.2,1.38,5.19,.97,2.99,8.7,5.74,8.35,.75Z"/><path class="u" d="M52.65,202.09s-2.95-6.12-1.4-16.12c1.55-9.99,7.36-13.87,2.31-24.87-5.05-11-10.82-18.84-7.93-26.64"/><path class="ac" d="M50.43,200.89s-2.48-3.74,1.1-5.67c3.59-1.92,4.3-.38,6.52-1.76,2.22-1.38,3.9-4.74,4.28-2.59,.38,2.15-2.18,3.37-1.28,4.35,.91,.98-6.03,7.36-10.63,5.67Z"/><g><path class="ac" d="M44.57,137.6s-2.42-7.36,3.08-7.51c5.51-.15-.56,6.73-3.08,7.51Z"/><path class="ac" d="M49.35,143.25s1.64-6.69,5.55-5.28c3.91,1.41-1.65,5.4-5.55,5.28Z"/><path class="ac" d="M42.72,143.83s.59-5.34-3.56-5.44c-4.15-.11-2.3,4.58,3.56,5.44Z"/><path class="ac" d="M45.48,154.72s-5.57-4.96-7.57-1.27,4.2,4.46,7.57,1.27Z"/><path class="ac" d="M55.32,153.84s1.05-8.24,5.54-5.66c4.5,2.58-1.63,6.48-5.54,5.66Z"/><path class="ac" d="M59.28,165.64s-3.32-8.33,2.85-7.39c6.17,.94,1.5,5.37-2.85,7.39Z"/><path class="ac" d="M49.82,168.61s-5.21-6.14-9.19-4.19c-3.98,1.95-.73,8.05,9.19,4.19Z"/><path class="ac" d="M54.54,182.2s4.44-9.85,8.38-6.53c3.95,3.32-2.52,8.28-8.38,6.53Z"/><path class="ac" d="M48.1,181.63s1.17-7.64-3.22-7.03c-4.39,.61-3.24,5.29,3.22,7.03Z"/><g class="r"><path class="f" d="M44.57,137.6s-2.42-7.36,3.08-7.51c5.51-.15-.56,6.73-3.08,7.51Z"/><path class="f" d="M49.35,143.25s1.64-6.69,5.55-5.28c3.91,1.41-1.65,5.4-5.55,5.28Z"/><path class="f" d="M42.72,143.83s.59-5.34-3.56-5.44c-4.15-.11-2.3,4.58,3.56,5.44Z"/><path class="f" d="M45.48,154.72s-5.57-4.96-7.57-1.27,4.2,4.46,7.57,1.27Z"/><path class="f" d="M55.32,153.84s1.05-8.24,5.54-5.66c4.5,2.58-1.63,6.48-5.54,5.66Z"/><path class="f" d="M59.28,165.64s-3.32-8.33,2.85-7.39c6.17,.94,1.5,5.37-2.85,7.39Z"/><path class="f" d="M49.82,168.61s-5.21-6.14-9.19-4.19c-3.98,1.95-.73,8.05,9.19,4.19Z"/><path class="f" d="M54.54,182.2s4.44-9.85,8.38-6.53c3.95,3.32-2.52,8.28-8.38,6.53Z"/><path class="f" d="M48.1,181.63s1.17-7.64-3.22-7.03c-4.39,.61-3.24,5.29,3.22,7.03Z"/></g></g><path class="u" d="M41.34,142.08s2.37,3.52,5.61,5.33c0,0,2.14-4.14,3.82-5.14"/><path class="u" d="M41.2,154.23s6.02-.19,10.79,3.41c0,0,2.65-4.49,6.12-6.53"/><path class="u" d="M61.1,161.7s-2.59,6.8-5.89,9.45c0,0-6.84-3.97-11.87-4.07"/><path class="u" d="M45.38,177.08s3.38,6.6,5.9,8.04c0,0,2.36-3.32,7.46-4.85"/><path class="ac" d="M50.81,200s-2.13-3.39-4.54-3.87c-2.41-.48-3.44-3.25-4.33-1.59-.89,1.67,1.56,7.19,8.87,5.46Z"/><g><polygon class="aa" points="42.13 213.31 59.9 213.31 61.09 198.96 40.94 198.96 42.13 213.31"/><polygon class="aa" points="40.53 201.68 61.5 201.68 61.77 198.64 40.26 198.64 40.53 201.68"/><polygon class="h" points="40.53 201.68 61.5 201.68 61.77 198.64 40.26 198.64 40.53 201.68"/></g></g><g><g><path class="aa" d="M165.7,90.67l-.89,.17c-.37,.07-.53-.37-.3-.61,.01-.01,.02-.02,.04-.03-.26,.11-.51,.23-.77,.32-.03,.38-.02,.77-.01,1.16l5.83,30.06-21.59,4.18s.02,.08,.02,.13c-.01,.18-.19,.36-.38,.33-.35-.07-.7-.13-1.06-.18l-28.58,5.54s-.02,.09-.05,.14c-.11,.18-.23,.36-.36,.52,.01,.11,0,.22-.03,.31-.27,.65-.47,1.32-.86,1.91-.11,.17-.28,.27-.47,.31-.13,.03-.25,.01-.37-.03-.14,.29-.23,.6-.29,.92l45.8-8.88s.03-.04,.04-.06c.53-.55,1.27-.72,2.01-.72,.27-.3,.58-.57,.92-.77,.32-.18,.72-.27,1.06-.09,.24,.12,.39,.34,.49,.58,.45-.06,.9-.08,1.36-.1l6.51-1.26-6.35-32.74c-.64-.25-1.24-.62-1.69-1.13Z"/><path class="aa" d="M106.49,47.83c.07,.02,.14,.03,.22,.04l4.27-.83c.47-.21,.94-.42,1.4-.62,.87-.37,1.78-.7,2.73-.75,.58-.03,1.13,.07,1.66,.25l36.74-7.12,3.41,17.57c.15-.22,.58-.23,.64,.12,.15,.79,.35,1.58,.32,2.39-.02,.39-.11,.76-.26,1.11l5.8,29.91c.35-.13,.69-.27,1.03-.42,.12-.39,.28-.83,.66-1.03,.25-.13,.52-.12,.79-.06,.15-.33,.24-.68,.3-.96,.07-.38,.12-.81,.11-1.24l-.23-1.21c-.03-.06-.05-.13-.08-.18-.06-.11-.05-.21-.01-.29l-6.09-31.44s-.07,.02-.11,.02c-.43,0-.87-.13-1.1-.51-.2-.33-.19-.75-.15-1.11,.05-.44,.17-.88,.25-1.31,.08-.4,.15-.84,.09-1.2-.03-.16,.04-.28,.15-.35l-2.7-13.95-52.97,10.27c-1.03,.49-2.08,.95-3.24,.84-.13-.01-.21-.08-.26-.17l-26.29,5.1c-.03,.14-.14,.26-.28,.28l-1.38,.27c-.01,.21-.06,.41-.18,.58-.01,.08-.05,.17-.11,.22-.09,.07-.18,.15-.26,.23-.16,.15-.31,.31-.48,.45-.06,.05-.12,.09-.2,.11-.13,.02-.25-.02-.33-.11-.07-.07-.09-.17-.09-.26,0-.03,0-.07,.02-.1-.21,0-.43-.03-.63-.06-.2-.03-.33-.18-.33-.38,0-.18,.2-.35,.38-.33,.22,.03,.45,.05,.67,.05,.05,0,.11,0,.16,0,0,0,.01,0,.02,0h0s.05,0,.08,0h.03c-.18-.02-.32-.13-.45-.25-.01-.01-.02-.03-.03-.04l-15.22,2.95c.07,0,.14,.01,.2,.05,.16,.1,.2,.34,.1,.49-.12,.17-.27,.3-.41,.45-.01,.01-.03,.03-.04,.04h0s.04-.03,0,0c-.02,.03-.05,.06-.07,.1,0,.02-.02,.04-.02,.06,0,.02-.01,.04-.02,.06v.04c-.04,.26-.32,.42-.56,.27h-.03s-.06-.04-.1-.05c-.04-.01-.08-.02-.12-.03,0,.16-.03,.33-.13,.47-.07,.11-.19,.15-.31,.15-.07,.33-.17,.65-.33,.95-.17,.31-.42,.56-.71,.77,0,0,.02,.01,.03,.02,.06,.08,.11,.16,.14,.25l22.63-4.39,.03-.03c.11-.15,.22-.31,.37-.42,.21-.15,.44-.19,.69-.13,.19,.05,.36,.15,.51,.27l29.3-5.68c.08-.12,.22-.21,.4-.16Z"/><path class="aa" d="M67.1,141.6l-5.31-27.38c-.09,.11-.24,.15-.38,.1-.18-.05-.28-.28-.22-.45,.09-.24,.21-.51,.39-.72l-6.98-35.98s-.05-.07-.07-.11c-.15-.29-.24-.6-.3-.92-.12,0-.25,0-.37,.01-.24,.04-.42-.14-.42-.37,0-.67,.17-1.35,.51-1.94l-2.82-14.56c-.05-.08-.09-.16-.13-.24-.04-.09-.09-.18-.14-.26-.11,0-.22-.06-.28-.18-.08-.16-.02-.4,.16-.47,.17-.07,.26-.12,.39-.25,.06-.06,.17-.22,.2-.31,.1-.25,.13-.5,.14-.78-.08-.12-.16-.25-.19-.4-.04-.2,0-.4,.05-.59,.01-.05,.04-.09,.08-.13-.02-.22-.04-.45-.05-.68l-4.52,.88,12.9,66.54c.12-.06,.28-.05,.39,.09,.28,.38,.57,.83,.51,1.33-.01,.1-.04,.2-.08,.29,.11,.09,.18,.26,.12,.39-.17,.35-.23,.71-.16,1.1,.06,.36,.19,.69,.3,1.03,.2,.6,.27,1.18,.08,1.75l3.37,17.39,.96-.19c.54-.17,1.09-.33,1.64-.43-.01-.08,0-.16,.05-.24,.13-.15,.28-.32,.45-.46-.01-.06-.02-.12,0-.19,.11-.39,.32-.79,.66-1.04,.3-.22,.66-.32,1.03-.29,.72,.05,1.34,.53,1.74,1.11,.97-.24,2.02-.57,2.93-.11l36.72-7.12c.02-.09,.03-.19,.06-.28,.14-.48,.44-.9,.81-1.23,.12-.11,.29-.11,.41-.03,.01-.02,.03-.04,.04-.06,.13-.13,.39-.11,.5,.03,.05,.06,.1,.12,.15,.18,.02,.02,.04,.04,.06,.06h.01s.07,.06,.11,.08h.02l.02,.02s.08,.04,.13,.06c-.1-.34-.13-.71-.02-1.05,.13-.39,.45-.69,.82-.86-.12-.19-.08-.49,.21-.55,.39-.08,.54,.44,.28,.63,.01,.02,.03,.03,.04,.05,.09,.16,.01,.4-.16,.47-.05,.02-.09,.04-.14,.06-.02,.01-.05,.03-.07,.04,.02,0,.02,0-.03,.02-.01,.01-.03,.02-.04,.03-.03,.03-.06,.05-.09,.08v0s-.02,.03-.03,.04c-.02,.03-.04,.06-.06,.09l-.02,.04s-.03,.06-.04,.1h0c.12-.15,.25-.3,.41-.41,.1-.07,.21-.13,.33-.18,.29-.64,.56-1.28,.83-1.92l-47.92,9.29Z"/></g><g><path class="aa" d="M63.8,93.51c-.87-.17-1.55-.5-2.06-1-.51-.5-.83-1.12-.98-1.85-.07-.36-.12-.74-.13-1.12-.02-.38-.01-.73,.02-1.05l1.42-.83,.19,.06c0,.68,.03,1.25,.12,1.71,.12,.6,.34,1.08,.66,1.45,.32,.37,.79,.6,1.42,.72,.63,.11,1.43,.07,2.4-.12,.85-.17,1.64-.39,2.37-.66,.73-.27,1.33-.57,1.8-.89,.47-.32,.75-.63,.85-.94-.03-.18-.16-.32-.37-.43-.21-.11-.54-.21-.98-.28-.44-.07-1.04-.13-1.8-.17l.2-1.85c.28,.02,.52,.05,.74,.07,.21,.02,.4,.04,.56,.05,.97,.1,1.75,.15,2.34,.16,.59,.01,1.19-.04,1.77-.16,.29-.06,.5-.04,.62,.05,.13,.09,.21,.24,.25,.44,.07,.35,.04,.66-.09,.93-.13,.27-.42,.44-.87,.53l-.77,.15c.06,.74-.18,1.44-.72,2.09-.53,.65-1.31,1.22-2.33,1.71-1.02,.49-2.21,.86-3.57,1.13-1.18,.23-2.2,.26-3.06,.1Z"/><path class="aa" d="M90.37,83.38c.13,.08,.22,.23,.26,.43,.07,.35,.04,.66-.09,.94-.13,.27-.41,.45-.85,.54-.45,.09-.93,.11-1.44,.08-.51-.04-.97-.16-1.39-.36-.47,.65-1.19,1.07-2.17,1.27-.8,.16-1.59,.14-2.37-.04-.37,.41-.92,.69-1.65,.83-.59,.12-1.15,.15-1.69,.09-.54-.06-1-.17-1.38-.34-.31,.36-.72,.66-1.25,.9-.52,.24-1.22,.45-2.08,.62l.05-1.94c.6-.12,1.08-.24,1.42-.36,.35-.12,.6-.25,.77-.39,.07-.17,.12-.43,.15-.78,.03-.35,.06-.81,.09-1.39l1.95-.7,.09,.08c-.06,.44-.12,.87-.18,1.3-.07,.42-.14,.77-.23,1.05,.32,.05,.68,.08,1.07,.07,.39,0,.75-.04,1.07-.1,.38-.07,.64-.19,.79-.35,.06-.13,.12-.42,.17-.87,.05-.45,.09-.93,.14-1.43l1.82-.67,.09,.06c-.14,1.16-.26,2.01-.37,2.55,.51,.03,.99,0,1.44-.09,.23-.05,.46-.11,.66-.2,.21-.09,.37-.18,.5-.29,.09-.35,.08-.83-.04-1.44-.07-.36-.19-.81-.36-1.33l1.55-.99,.15,.03c.1,.34,.19,.68,.25,1,.16,.81,.21,1.54,.16,2.17,.69,.18,1.45,.18,2.29,.02,.28-.05,.48-.04,.61,.05Zm-10.02-3.92l-1.94-.85,.74-1.79,1.92,.83-.72,1.8Zm.58-2.57l-1.95-.87,.76-1.77,1.92,.81-.73,1.82Zm2.06,2.05l-1.92-.85,.76-1.79,1.92,.83-.76,1.81Z"/><path class="aa" d="M96.45,82.18c.13,.08,.22,.23,.26,.43,.07,.35,.04,.66-.09,.94-.13,.27-.41,.45-.85,.54-.48,.09-.99,.12-1.53,.07-.54-.05-1.03-.19-1.45-.42-.28,.37-.64,.67-1.09,.92-.45,.24-.99,.43-1.65,.56l-.38,.07,.06-1.95,.38-.07c.75-.15,1.24-.35,1.48-.6,.07-.22,.13-.56,.16-1.02,.03-.46,.06-1.09,.08-1.9l1.79-.82,.21,.09c-.02,.68-.06,1.27-.1,1.76-.05,.49-.12,.94-.23,1.33,.66,.19,1.43,.2,2.31,.03,.28-.05,.48-.04,.61,.05Zm-3.89-5l-1.99-.88,.77-1.83,1.98,.86-.77,1.85Z"/><path class="aa" d="M101.29,72.69l-4.02,3.25c1.22,.5,2.18,.97,2.87,1.41,.7,.44,1.19,.85,1.47,1.23,.28,.38,.47,.78,.55,1.19,.18,.91-.08,1.71-.8,2.39-.71,.68-1.97,1.2-3.77,1.56l-1.82,.36,.05-1.94,1.35-.27c.85-.17,1.61-.38,2.3-.65,.68-.26,1.14-.5,1.36-.72-.08-.39-.35-.76-.81-1.12-.47-.36-1.04-.69-1.73-1-.69-.31-1.53-.66-2.53-1.05l-.12-.09,.03-2.33,5.63-4.68,.17,.06-.17,2.4Z"/><path class="aa" d="M107.23,81.93l-.14-.05-2.46-12.49,1.59-.78,.15,.07,2.46,12.57-1.59,.68Z"/><path class="aa" d="M117.4,78.04c.13,.08,.22,.23,.26,.43,.07,.35,.04,.66-.09,.94-.13,.27-.41,.45-.85,.54-.64,.13-1.19,.09-1.64-.11-.09,.64-.35,1.27-.77,1.89-.42,.62-.98,1.19-1.67,1.71s-1.51,.96-2.44,1.31l-1.27-1.17,.08-.19c1.5-.59,2.61-1.27,3.35-2.04,.74-.76,1.17-1.54,1.29-2.33-.43-.68-1.11-1.61-2.04-2.8l1.06-1.75,.21-.04c.25,.42,.65,1.06,1.18,1.93l.31,.5c.27,.43,.5,.73,.7,.92,.2,.18,.42,.29,.67,.32,.25,.03,.59,0,1.03-.09,.29-.06,.5-.04,.63,.04Z"/><path class="aa" d="M116.94,71l-1.92-.85,.72-1.78,1.92,.83-.72,1.8Zm-.15,7l.55-.11c1.01-.2,1.65-.39,1.9-.57,.02-.15,.02-.32-.02-.52-.07-.38-.25-.79-.52-1.23-.27-.45-.62-.95-1.04-1.52l1.24-1.49,.18-.04c.42,.61,.79,1.22,1.1,1.84,.31,.62,.5,1.14,.58,1.55,.09,.45,.09,.91,.02,1.36-.08,.46-.24,.86-.48,1.21-.23,.33-.57,.6-1,.79-.43,.2-1.1,.38-2,.56l-.58,.11,.07-1.95Zm2.8-7.52l-1.92-.85,.74-1.79,1.92,.83-.74,1.8Z"/><path class="aa" d="M125.85,80.23l.08-.19c1.03-.4,1.9-.86,2.64-1.38,.73-.52,1.27-1.03,1.62-1.53,.35-.5,.49-.9,.43-1.22-.09-.32-.32-.76-.7-1.33-.38-.57-.81-1.14-1.31-1.72l1.06-1.75,.16-.03c.53,.66,.99,1.37,1.38,2.12,.39,.75,.64,1.41,.75,1.99,.14,.7,.1,1.41-.13,2.13-.16,.51-.46,1.02-.9,1.53-.44,.51-.99,.98-1.64,1.43-.65,.44-1.38,.82-2.18,1.13l-1.27-1.17Zm3.41-11.09l-1.99-.88,.77-1.83,1.98,.86-.77,1.85Z"/><path class="aa" d="M142.09,73.17c.13,.08,.22,.23,.26,.43,.07,.35,.04,.66-.1,.94-.13,.27-.42,.45-.86,.54l-1.3,.26c-.11,.67-.37,1.3-.76,1.9-.39,.59-.94,1.11-1.64,1.55-.71,.44-1.56,.77-2.58,.99l-1.21-1.21,.08-.19c1.16-.26,2.12-.61,2.87-1.07,.75-.46,1.27-1,1.55-1.63l-.34,.07c-1.19,.23-2.12,.19-2.8-.14-.68-.33-1.09-.9-1.26-1.71-.12-.59-.1-1.2,.05-1.83,.15-.64,.41-1.18,.78-1.65,.37-.46,.81-.75,1.33-.85,.58-.11,1.13-.01,1.66,.3,.53,.31,.99,.78,1.38,1.41,.39,.63,.67,1.35,.84,2.15l1.39-.27c.3-.06,.52-.05,.65,.04Zm-6.05,.78c.37,.09,.94,.06,1.72-.1l.79-.16c-.09-.46-.26-.89-.5-1.27-.24-.38-.51-.67-.81-.86-.29-.2-.56-.27-.81-.22-.23,.04-.43,.16-.61,.36-.18,.19-.32,.43-.39,.72-.08,.29-.09,.59-.03,.9,.06,.33,.28,.53,.65,.62Z"/><path class="aa" d="M148.18,71.97c.13,.08,.22,.23,.26,.43,.07,.35,.04,.66-.09,.94-.13,.27-.41,.45-.85,.54-.48,.09-.99,.12-1.53,.07-.54-.05-1.03-.19-1.45-.42-.28,.37-.64,.67-1.09,.92-.45,.24-.99,.43-1.65,.56l-.38,.07,.06-1.95,.38-.07c.75-.15,1.24-.35,1.48-.6,.07-.22,.13-.56,.16-1.02,.03-.46,.06-1.09,.08-1.9l1.79-.82,.21,.09c-.02,.68-.06,1.27-.1,1.76-.05,.49-.12,.94-.23,1.33,.66,.19,1.43,.2,2.31,.03,.28-.05,.48-.04,.61,.05Zm-3.89-5l-1.99-.88,.77-1.83,1.98,.86-.77,1.85Z"/><path class="aa" d="M152.02,66.41c1.09,.45,2.07,1,2.94,1.62,.87,.63,1.38,1.3,1.52,2.03,.13,.68,0,1.23-.4,1.66-.4,.43-1.06,.74-1.98,.92-1.08,.21-2.08,.22-3,0-.72,.48-1.6,.82-2.63,1.03l-.98,.19v-1.93l1.59-.31c-.51-.47-.83-1.05-.96-1.72-.1-.49-.08-.99,.05-1.5,.13-.52,.37-.94,.7-1.28-.6-.15-.92-.23-.96-.24l.23-1.78,.14-.07c1.39,.47,2.64,.93,3.73,1.38Zm-.66,3.77c.08-.31,.08-.65,.01-1-.05-.28-.15-.52-.28-.75-.13-.22-.28-.39-.44-.5-.16-.11-.32-.15-.48-.12s-.3,.13-.42,.29c-.12,.16-.2,.36-.24,.6-.04,.24-.04,.5,.02,.76,.07,.35,.22,.66,.44,.94,.23,.27,.54,.48,.95,.6,.22-.24,.37-.51,.45-.83Zm3.28,.57c.23-.09,.38-.18,.44-.27-.11-.3-.38-.61-.79-.93-.41-.32-.93-.63-1.55-.93,.02,.06,.05,.15,.07,.26,.08,.39,.09,.78,.03,1.16-.05,.39-.18,.76-.39,1.11,.43-.02,.88-.08,1.34-.17,.32-.06,.6-.14,.83-.23Z"/><path class="aa" d="M82.72,108.78c.07,.35,.03,.66-.11,.94-.14,.27-.43,.46-.87,.54-.54,.11-.99,.12-1.37,.05-.37-.07-.72-.26-1.04-.56-.32,.43-.79,.8-1.41,1.11-.62,.31-1.37,.55-2.25,.73-.28,.05-.63,.11-1.07,.15-.44,.05-.82,.06-1.13,.05l-.09-1.82,.08-.09c.29,0,.62-.01,1.01-.06,.39-.05,.72-.1,1.01-.16,.55-.11,1.09-.26,1.61-.46,.52-.2,.92-.42,1.22-.66l-.02-.02-.6-.76c-.21-.27-.61-.78-1.21-1.52-.59-.74-1.09-1.33-1.47-1.78l1.07-1.77,.17-.03c.49,.71,1.03,1.48,1.61,2.32,.58,.83,1.05,1.5,1.41,1.99,.34,.47,.63,.81,.87,1.02,.24,.21,.49,.34,.73,.38,.24,.04,.55,.03,.93-.05,.53-.1,.83,.05,.91,.46Z"/><path class="aa" d="M81.85,108.31l.55-.11c1.01-.2,1.65-.39,1.9-.57,.02-.15,.02-.32-.02-.52-.07-.38-.25-.79-.52-1.24-.27-.45-.62-.95-1.04-1.52l1.24-1.49,.18-.04c.42,.61,.79,1.22,1.1,1.84,.31,.62,.5,1.14,.58,1.55,.09,.45,.09,.91,.02,1.36-.08,.46-.24,.86-.48,1.21-.23,.33-.57,.6-1,.79-.43,.2-1.1,.38-2,.56l-.58,.11,.07-1.95Zm2.54,5.76l-1.94-.85,.74-1.79,1.92,.83-.72,1.8Zm2.69-.53l-1.92-.85,.74-1.79,1.92,.83-.74,1.8Z"/><path class="aa" d="M89.25,108.86c-.47,.05-.86,.07-1.16,.05l-.08-1.82,.08-.09c.25,0,.59-.02,1.03-.08,.44-.05,.82-.11,1.13-.17,.6-.12,1.19-.29,1.75-.5,.56-.21,.92-.43,1.08-.64-.25-.59-.73-1.22-1.43-1.89-.71-.67-1.51-1.28-2.4-1.84l.73-1.92,.15-.03c1.19,.84,2.17,1.68,2.93,2.52s1.21,1.63,1.36,2.4c.19,.98-.06,1.79-.75,2.44-.69,.65-1.76,1.12-3.2,1.4-.34,.07-.74,.13-1.21,.18Z"/><path class="aa" d="M97.26,107.32l-.14-.05-2.46-12.49,1.59-.78,.15,.07,2.46,12.57-1.59,.68Z"/><path class="aa" d="M109.93,103.41c.07,.35,.03,.66-.11,.94-.14,.27-.43,.46-.87,.54-.54,.11-.99,.12-1.36,.05-.37-.07-.72-.26-1.04-.56-.32,.43-.79,.8-1.41,1.11-.62,.31-1.37,.55-2.25,.73-.28,.05-.63,.11-1.07,.15-.44,.05-.82,.06-1.13,.05l-.09-1.82,.08-.09c.29,0,.62-.01,1.01-.06,.39-.05,.72-.1,1.01-.16,.55-.11,1.09-.26,1.61-.46,.52-.2,.92-.42,1.22-.66l-.02-.02-.6-.76c-.21-.27-.61-.78-1.21-1.52-.6-.74-1.09-1.33-1.47-1.78l1.07-1.77,.17-.03c.49,.71,1.03,1.48,1.61,2.32,.58,.83,1.05,1.5,1.41,1.99,.34,.47,.63,.81,.87,1.02,.24,.21,.49,.34,.73,.38,.24,.04,.55,.03,.93-.05,.53-.1,.83,.05,.91,.46Z"/><path class="aa" d="M110.13,95.8l-1.99-.88,.77-1.83,1.98,.86-.77,1.85Zm-1.06,7.14l.17-.03c1.02-.2,1.66-.39,1.92-.57,.01-.14,0-.3-.03-.46-.07-.38-.25-.78-.52-1.23-.27-.44-.63-.97-1.09-1.58l1.29-1.5,.18-.04c.43,.58,.79,1.18,1.09,1.81,.3,.63,.49,1.16,.58,1.58,.09,.45,.09,.9,.01,1.35-.08,.45-.24,.86-.48,1.22-.23,.33-.56,.6-1,.79-.43,.2-1.1,.38-2,.56l-.21,.04,.07-1.95Z"/><path class="aa" d="M124.17,96.01c.58,.33,1.08,.81,1.49,1.43,.42,.62,.69,1.27,.83,1.96,.14,.73,.15,1.27,.02,1.64-.13,.36-.41,.59-.84,.67-.25,.05-.66,.1-1.22,.16-.59,.06-1.06,.13-1.41,.2-.29,.06-.58,.15-.89,.27-.3,.12-.54,.25-.71,.37-.02,.21,0,.53,.09,.94,.09,.45,.22,.93,.4,1.44,.18,.51,.43,1.18,.75,2.02,.19,.46,.35,.87,.48,1.25l-1.46,1.07-.17-.08-.62-1.67c-.24-.63-.46-1.24-.67-1.84s-.34-1.06-.41-1.4c-.11-.58-.09-1.16,.07-1.74,.16-.58,.49-1.1,.98-1.56,.49-.45,1.16-.77,2.01-.93,.58-.12,1.25-.18,2-.2-.11-.49-.29-.93-.55-1.34-.26-.4-.55-.71-.88-.93-.33-.22-.64-.29-.94-.23-.29,.06-.52,.25-.7,.6-.17,.34-.26,.82-.25,1.43l-1.16,.35-.27-.04c-.1-.75-.05-1.42,.14-2.03,.19-.6,.47-1.08,.84-1.44,.37-.36,.79-.59,1.25-.68,.61-.12,1.21-.01,1.79,.32Z"/><path class="aa" d="M129.77,99.96c-.7-.41-1.17-1.23-1.41-2.45l-1.78-9.03,1.55-.77,.16,.07,1.82,9.22c.09,.46,.23,.8,.41,1.02,.18,.22,.44,.35,.76,.39,.32,.04,.75,0,1.27-.1,.28-.06,.49-.04,.63,.04,.14,.08,.23,.23,.26,.43,.07,.36,.04,.68-.1,.95-.14,.27-.42,.44-.84,.53-1.13,.22-2.04,.13-2.74-.28Z"/><path class="aa" d="M144.79,96.05c.13,.09,.21,.23,.25,.43,.16,.83-.14,1.32-.9,1.47-.91,.18-1.68,.26-2.3,.23-.62-.03-1.13-.15-1.54-.36-.41-.21-.78-.51-1.11-.9-.39,.22-.84,.5-1.37,.86-1.14,.76-2.09,1.32-2.87,1.68-.77,.36-1.59,.63-2.44,.79l.05-1.94c.76-.15,1.46-.35,2.09-.61,.63-.25,1.42-.66,2.37-1.21,.83-.48,1.56-.85,2.18-1.13-.11-.03-.25-.07-.43-.11-.18-.04-.4-.1-.66-.18-.83-.23-1.48-.37-1.98-.43-.49-.06-.95-.05-1.36,.03-.34,.07-.66,.16-.98,.29-.31,.13-.63,.28-.94,.46l-.09-.06,.34-1.82c.2-.16,.45-.3,.74-.43,.29-.13,.57-.22,.86-.28,.38-.07,.81-.08,1.32,0,.5,.07,1.18,.22,2.03,.46,1.02,.28,1.85,.46,2.49,.54,.64,.08,1.23,.07,1.77,0l-.02,1.74c-.55,.16-1.02,.33-1.41,.51,.32,.17,.72,.25,1.22,.24,.5-.01,1.2-.11,2.1-.29,.27-.05,.47-.04,.6,.05Zm-6.24,7.39l-1.99-.88,.77-1.81,1.98,.84-.77,1.85Z"/><path class="aa" d="M145.23,88.87l-1.99-.88,.77-1.83,1.98,.86-.77,1.85Zm-1.06,7.14l.17-.03c1.02-.2,1.66-.39,1.92-.57,.01-.14,0-.3-.03-.46-.07-.38-.25-.78-.52-1.23-.27-.44-.63-.97-1.09-1.58l1.29-1.5,.18-.04c.43,.58,.79,1.18,1.09,1.81,.3,.63,.49,1.16,.58,1.58,.09,.45,.09,.9,.01,1.35-.08,.45-.24,.86-.48,1.22-.23,.33-.57,.6-1,.79-.43,.2-1.1,.38-2,.56l-.21,.04,.07-1.95Z"/><path class="aa" d="M150.84,96.74l-.14-.05-2.46-12.49,1.59-.78,.15,.07,2.46,12.57-1.59,.68Z"/></g></g><g><path class="aa" d="M114.48,154.62h25.25c2.89,0,5.23,2.34,5.23,5.23v8.86c0,2.89-2.34,5.23-5.23,5.23h-16.78l-7.67,8.21,4.15-8.21h-4.96c-2.89,0-5.23-2.34-5.23-5.23v-8.86c0-2.89,2.34-5.23,5.23-5.23Z"/><path class="k" d="M114.48,154.62h25.25c2.89,0,5.23,2.34,5.23,5.23v8.86c0,2.89-2.34,5.23-5.23,5.23h-16.78l-7.67,8.21,4.15-8.21h-4.96c-2.89,0-5.23-2.34-5.23-5.23v-8.86c0-2.89,2.34-5.23,5.23-5.23Z"/></g><g><g><path class="ac" d="M261.69,62.52c0,1.93-10.53,3.58-25.62,4.31-.4,.02-.8,.04-1.21,.06-.54,.02-1.08,.04-1.63,.06-2.26,.09-4.61,.15-7.04,.21-.36,0-.72,0-1.09,.02-.21,0-.41,0-.62,0-1.86,.03-3.76,.04-5.7,.04-3.5,0-6.89-.05-10.15-.13-.8-.02-1.59-.05-2.37-.08-5.94-.19-11.33-.53-15.86-.97-8.9-.86-14.52-2.12-14.52-3.53,0-2.12,12.76-3.91,30.31-4.5,.45-.02,.92-.03,1.38-.05,1.22-.04,2.46-.06,3.73-.09,1.52-.03,3.07-.05,4.63-.06,.12,0,.23,0,.34,0h0c.83,0,1.67,0,2.5,0,4.42,0,8.68,.07,12.7,.21,.64,.02,1.28,.04,1.9,.06,.84,.04,1.66,.07,2.48,.11h0c.21,.01,.43,.02,.64,.04,.56,.02,1.1,.05,1.65,.08,13.96,.78,23.53,2.36,23.53,4.2Z"/><path class="g" d="M261.69,62.52c0,1.93-10.53,3.58-25.62,4.31-.4,.02-.8,.04-1.21,.06-.54,.02-1.08,.04-1.63,.06-2.26,.09-4.61,.15-7.04,.21-.36,0-.72,0-1.09,.02-.21,0-.41,0-.62,0-1.86,.03-3.76,.04-5.7,.04-3.5,0-6.89-.05-10.15-.13-.8-.02-1.59-.05-2.37-.08-5.94-.19-11.33-.53-15.86-.97-8.9-.86-14.52-2.12-14.52-3.53,0-.63,1.12-1.23,3.14-1.77,2.52,.68,6.45,1.28,11.38,1.75,4.54,.44,9.93,.77,15.86,.97,.78,.03,1.57,.05,2.37,.08,3.26,.08,6.65,.13,10.15,.13,1.93,0,3.83-.01,5.7-.04,.21,0,.41,0,.62,0,.37-.01,.73-.02,1.09-.02,2.42-.05,4.77-.12,7.04-.21,.55-.02,1.09-.05,1.63-.06,.41-.02,.81-.04,1.21-.06,10.18-.49,18.28-1.4,22.48-2.53,2.03,.55,3.14,1.14,3.14,1.77Z"/></g><g><path class="y" d="M215.93,57.83c-.04,.69-.3,1.36-.76,1.92-.49,.58-.91,1.04-1.39,1.53-.28,.29-.57,.58-.86,.85-.19,.19-.38,.38-.58,.56-.99,.91-2.03,1.77-3.17,2.58-.06,.05-.13,.09-.2,.14-.17,.12-.34,.23-.51,.34-.69,.45-1.42,.89-2.21,1.28-.28,.14-.57,.28-.87,.41-.69,.31-1.57,.57-2.18,.73-.66,.18-1.29,.33-1.92,.46-.88,.19-1.75,.37-2.62,.53-1.61,.31-3.22,.58-4.84,.83-1.38,.21-2.75,.4-4.14,.57-1.11,.14-2.22,.25-3.34,.35-.12,.01-.25,0-.37-.01-.3-.04-.57-.16-.8-.34-.35-.28-.59-.69-.63-1.17,0-.08,0-.15,0-.22,.03-.67,.47-1.26,1.09-1.48h0s.09-.04,.14-.05c1.53-.55,3.07-1.07,4.61-1.57,.78-.25,1.55-.51,2.33-.76,2.36-.77,4.73-1.49,7.02-2.25,.57-.19,1.14-.38,1.67-.57,.58-.2,.87-.35,1.3-.6,.27-.15,.53-.32,.8-.51,.57-.38,1.15-.82,1.72-1.29,.78-.64,1.56-1.35,2.32-2.09,1.22-.04,2.46-.06,3.73-.09,1.52-.03,3.07-.05,4.63-.06Z"/><path class="aa" d="M216.01,60.22c-.04,.12-.09,.24-.14,.36-.05,.12-.1,.24-.16,.35-.05,.12-.11,.23-.18,.34-.07,.11-.13,.22-.19,.34,0,.01-.01,.02-.02,.03-.14,.21-.28,.41-.43,.6-.16,.21-.32,.41-.5,.6-.05,.06-.11,.12-.17,.18-.26,.28-.53,.54-.82,.78-.09,.09-.19,.17-.3,.25-.04,.04-.08,.07-.11,.09,0,0-.01,.01-.02,.02h0c-1.05,.85-2.11,1.48-2.84,1.87-.13,.06-.25,.13-.36,.18,0,0-.01,0-.02,0-.15,.08-.27,.14-.35,.18-.09,.04-.14,.06-.14,.06l-.43-.38-.37-.33-.83-.73-4.12-3.65-.31-.28s1.26-1.41,2.98-3.06c.45-.02,.92-.03,1.38-.05,1.22-.04,2.46-.06,3.73-.09,1.52-.03,3.07-.05,4.63-.06,.12,0,.23,0,.34,0,.08,.76,.01,1.56-.27,2.39Z"/><path class="k" d="M216.01,60.22c-.04,.12-.09,.24-.14,.36-.05,.12-.1,.24-.16,.35-.05,.12-.11,.23-.18,.34-.07,.11-.13,.22-.19,.34,0,.01-.01,.02-.02,.03-.14,.21-.28,.41-.43,.6-.16,.21-.32,.41-.5,.6-.05,.06-.11,.12-.17,.18-.26,.28-.53,.54-.82,.78-.09,.09-.19,.17-.3,.25-.04,.04-.08,.07-.11,.09,0,.01-.02,.02-.02,.02-1.05,.84-2.11,1.48-2.84,1.86-.13,.06-.25,.13-.36,.18,0,0-.01,0-.02,0-.15,.08-.27,.14-.35,.18-.09,.04-.14,.06-.14,.06l-.43-.38-.37-.33-.83-.73-4.12-3.65-.31-.28s1.26-1.41,2.98-3.06c.45-.02,.92-.03,1.38-.05,1.22-.04,2.46-.06,3.73-.09,1.52-.03,3.07-.05,4.63-.06,.12,0,.23,0,.34,0h0c.08,.76,.01,1.57-.27,2.39Z"/><path class="s" d="M212.98,64.17c-1.82,1.47-3.7,2.29-3.7,2.29l-1.62-1.44c1.19-3.92,4.46-6.47,4.46-6.47,.72,1.35,.95,4.21,.87,5.62Z"/><g><path class="p" d="M186.27,67.69l-5.49-.84,.04,4.86s3.76,1.12,5.74-1.43l-.3-2.59Z"/><polygon class="p" points="177.05 68.16 177.95 71.77 180.82 71.71 180.78 66.86 177.05 68.16"/></g><path class="aa" d="M235.86,58.2c-.05,.12-.1,.25-.15,.38-.14,.36-.28,.73-.41,1.09-.08,.22-.16,.45-.24,.68-.08,.23-.16,.46-.23,.69-.22,.69-.43,1.38-.64,2.08,0,.04-.02,.08-.03,.11-.22,.78-.42,1.58-.62,2.37l-.02,.1c-.1,.41-.21,.83-.3,1.25-.05,.19-.09,.37-.13,.56-.16,.73-.31,1.46-.45,2.19t0,0c-.05,.27-.11,.54-.15,.81-.06,.28-.11,.57-.16,.84-.01,.06-.02,.12-.03,.18-.03,.15-.06,.31-.08,.46-.08,.43-.15,.86-.22,1.28-.01,.06-.02,.12-.03,.19-.02,.15-.05,.3-.07,.44-.14,.86-.27,1.71-.38,2.53-.01,.05-.02,.09-.02,.14-.12,.9-.23,1.78-.32,2.62-.04,.35-.08,.69-.12,1.03-.05,.47-.1,.93-.14,1.37-.04,.32-.07,.64-.09,.95-.03,.29-.05,.57-.08,.84-.02,.28-.05,.54-.07,.8-.06,.72-.11,1.37-.15,1.93-.02,.25-.03,.47-.05,.69-.05,.79-.07,1.34-.08,1.58,0,.1,0,.15,0,.15l-10.47-.96h-.15l-1.76-.18-2.66-.25h0l-3.2-.3-.77-.07-3.92-.36c-.02-.37-.04-.73-.04-1.1h0c0-.11-.01-.21-.01-.31-.11-3.23-.05-6.19,.12-8.89,.09-1.4,.22-2.74,.37-4,.21-1.82,.48-3.49,.78-5.03,.07-.35,.14-.69,.21-1.02h0c.05-.24,.09-.45,.15-.67,.45-2.01,.96-3.75,1.47-5.25h0c.28-.83,.57-1.58,.84-2.26,1.52-.03,3.07-.05,4.63-.06,.12,0,.23,0,.34,0h0c.83,0,1.67,0,2.5,0,4.42,0,8.68,.07,12.7,.21,.64,.02,1.28,.04,1.9,.06,.84,.04,1.66,.07,2.48,.11Z"/><path class="k" d="M235.86,58.2c-.05,.12-.1,.25-.15,.38-.14,.36-.28,.73-.41,1.09-.08,.22-.16,.45-.24,.68-.08,.23-.16,.46-.23,.69,0,.01-.01,.03-.02,.04-.22,.67-.42,1.35-.62,2.04,0,.04-.02,.08-.03,.11-.28,1-.55,2.03-.8,3.05-.05,.22-.1,.44-.15,.66-.05,.19-.09,.37-.13,.56-.16,.73-.31,1.46-.45,2.19-.06,.27-.11,.54-.16,.82-.05,.28-.11,.56-.15,.84-.02,.06-.02,.12-.04,.18-.03,.15-.06,.31-.08,.46-.08,.43-.15,.86-.22,1.28-.01,.06-.02,.12-.03,.19-.02,.15-.05,.3-.07,.44-.14,.86-.27,1.71-.38,2.53-.01,.05-.02,.09-.02,.14-.12,.9-.23,1.78-.32,2.62-.04,.35-.08,.69-.12,1.03-.05,.47-.1,.93-.14,1.37-.04,.32-.07,.64-.09,.95-.03,.29-.05,.57-.08,.84-.02,.28-.05,.54-.07,.8-.06,.72-.11,1.37-.15,1.93-.02,.25-.03,.47-.05,.69-.05,.79-.07,1.34-.08,1.58,0,.1,0,.15,0,.15l-10.47-.96h-.15l-1.76-.18-2.66-.25h0l-3.2-.3-.77-.07-3.92-.36c-.02-.37-.04-.73-.04-1.1h0c0-.11-.01-.21-.01-.31-.11-3.23-.05-6.19,.12-8.89,.09-1.4,.22-2.74,.37-4,.21-1.82,.48-3.49,.78-5.03,.07-.35,.14-.69,.21-1.02h0c.05-.24,.09-.45,.15-.67,.45-2.01,.96-3.75,1.47-5.25h0c.28-.83,.57-1.58,.84-2.26,1.52-.03,3.07-.05,4.63-.06,.12,0,.23,0,.34,0h0c.83,0,1.67,0,2.5,0,4.42,0,8.68,.07,12.7,.21,.64,.02,1.28,.04,1.9,.06,.84,.04,1.66,.07,2.48,.11Z"/><path d="M179.31,136.62s7.4-3.05,7.64-6.12c.02-.3,.25-.52,.57-.5l5.64,.34c.26,.02,.51,.19,.62,.44l2.26,5.22-1.56,.21-.66-.71-.57,.88c-8.48,1.16-12.16,1.57-13.91,1.27-.35-.72-.02-1.03-.02-1.03Z"/><path class="ac" d="M213.92,105.94c-.32-.07-.5-.12-.5-.12l-26.59-3.32,7.91,28.15-8.05,.77s-18.36-35.42-10.86-40.53c7.51-5.11,30.77,.53,30.77,.53l.91-7.01,23.13,1.72c3.73,23.12-13.52,20.48-16.72,19.81Z"/><path d="M206.26,187.27s7.96-.76,9.09-3.62c.11-.28,.39-.43,.69-.32l5.29,1.97c.25,.09,.43,.33,.46,.6l.64,5.65-1.56-.25-.42-.87-.8,.68c-8.45-1.36-12.09-2.04-13.68-2.84-.12-.79,.28-.99,.28-.99Z"/><path class="ac" d="M230.88,94.51h0c-.03,.15-.99,4.58-2.26,10.93-.07,.36-.14,.74-.22,1.11-.59,3.02-1.24,6.41-1.88,9.96-.78,4.31-1.55,8.83-2.2,13.16-.94,6.25-1.62,12.09-1.72,16.25-.31,13.68-.88,40.7-.88,40.7l-7.37-1.16s-4.07-28.81-4.02-42.76c.03-8.87,2.24-27.12,3.73-38.48,.76-5.83,1.34-9.84,1.34-9.84l8.35,.07,7.13,.06Z"/><g><g><polygon class="ac" points="230.3 88.38 230.79 88.42 230.77 86.83 230.33 86.79 230.3 88.38"/><polygon class="ac" points="212.11 86.97 221.98 87.74 222.03 86.15 212.2 85.39 212.11 86.97"/><polygon class="ac" points="211.44 85.33 207.26 85.01 207.11 86.58 211.34 86.91 211.44 85.33"/><polygon class="ac" points="229.57 86.73 222.79 86.21 222.76 87.8 229.52 88.32 229.57 86.73"/></g><g class="q"><polygon class="f" points="230.3 88.38 230.79 88.42 230.77 86.83 230.33 86.79 230.3 88.38"/><polygon class="f" points="212.11 86.97 221.98 87.74 222.03 86.15 212.2 85.39 212.11 86.97"/><polygon class="f" points="211.44 85.33 207.26 85.01 207.11 86.58 211.34 86.91 211.44 85.33"/><polygon class="f" points="229.57 86.73 222.79 86.21 222.76 87.8 229.52 88.32 229.57 86.73"/></g><g><path class="v" d="M215.2,85.92l-.04,.96c0,.15,.11,.28,.26,.3l2.46,.23c.17,.02,.31-.11,.32-.28l.02-1c0-.15-.11-.28-.27-.29l-2.45-.19c-.16-.01-.3,.11-.31,.28Z"/><line class="t" x1="217.12" y1="86.53" x2="217.87" y2="86.6"/></g></g><path class="s" d="M234.17,63.24c-.28,1-.55,2.03-.8,3.05-.09,.41-.19,.82-.28,1.22-.44,2-.82,4.01-1.13,5.95-.02,.15-.05,.3-.07,.44-4.06,1.31-8.28,.41-8.14-3.5,.19-5.24,4.66-7.69,4.66-7.69,1.96-1.08,4.08-.64,5.75,.53Z"/></g><g><g><polygon class="ac" points="194.47 213.31 199.93 213.31 182.16 72.88 176.7 72.88 194.47 213.31"/><polygon class="g" points="194.47 213.31 199.93 213.31 182.16 72.88 176.7 72.88 194.47 213.31"/><g><path class="ac" d="M183.04,93.69h17.37c.41,0,.79-.27,1-.71l1.1-2.34h-21.58l1.1,2.34c.21,.44,.59,.71,1,.71Z"/><path class="g" d="M183.04,93.69h17.37c.41,0,.79-.27,1-.71l1.1-2.34h-21.58l1.1,2.34c.21,.44,.59,.71,1,.71Z"/><rect class="ac" x="180.1" y="89.25" width="23.25" height="2.51" rx="1.13" ry="1.13" transform="translate(383.46 181.01) rotate(180)"/><rect class="i" x="180.1" y="89.25" width="23.25" height="2.51" rx="1.13" ry="1.13" transform="translate(383.46 181.01) rotate(180)"/></g><g><path class="ac" d="M186.21,113.77h17.37c.41,0,.79-.27,1-.71l1.1-2.34h-21.58l1.1,2.34c.21,.44,.59,.71,1,.71Z"/><path class="g" d="M186.21,113.77h17.37c.41,0,.79-.27,1-.71l1.1-2.34h-21.58l1.1,2.34c.21,.44,.59,.71,1,.71Z"/><rect class="ac" x="183.27" y="109.32" width="23.25" height="2.51" rx="1.13" ry="1.13" transform="translate(389.8 221.15) rotate(-180)"/><rect class="i" x="183.27" y="109.32" width="23.25" height="2.51" rx="1.13" ry="1.13" transform="translate(389.8 221.15) rotate(-180)"/></g><g><path class="ac" d="M189.38,140.34h17.37c.41,0,.79-.27,1-.71l1.1-2.34h-21.58l1.1,2.34c.21,.44,.59,.71,1,.71Z"/><path class="g" d="M189.38,140.34h17.37c.41,0,.79-.27,1-.71l1.1-2.34h-21.58l1.1,2.34c.21,.44,.59,.71,1,.71Z"/><rect class="ac" x="186.44" y="135.89" width="23.25" height="2.51" rx="1.13" ry="1.13" transform="translate(396.13 274.3) rotate(180)"/><rect class="i" x="186.44" y="135.89" width="23.25" height="2.51" rx="1.13" ry="1.13" transform="translate(396.13 274.3) rotate(180)"/></g><g><path class="ac" d="M192.55,166.91h17.37c.41,0,.79-.27,1-.71l1.1-2.34h-21.58l1.1,2.34c.21,.44,.59,.71,1,.71Z"/><path class="g" d="M192.55,166.91h17.37c.41,0,.79-.27,1-.71l1.1-2.34h-21.58l1.1,2.34c.21,.44,.59,.71,1,.71Z"/><rect class="ac" x="189.61" y="162.47" width="23.25" height="2.51" rx="1.13" ry="1.13" transform="translate(402.47 327.45) rotate(180)"/><rect class="i" x="189.61" y="162.47" width="23.25" height="2.51" rx="1.13" ry="1.13" transform="translate(402.47 327.45) rotate(180)"/></g><g><path class="ac" d="M195.72,193.49h17.37c.41,0,.79-.27,1-.71l1.1-2.34h-21.58l1.1,2.34c.21,.44,.59,.71,1,.71Z"/><path class="g" d="M195.72,193.49h17.37c.41,0,.79-.27,1-.71l1.1-2.34h-21.58l1.1,2.34c.21,.44,.59,.71,1,.71Z"/><rect class="ac" x="192.78" y="189.04" width="23.25" height="2.51" rx="1.13" ry="1.13" transform="translate(408.81 380.59) rotate(-180)"/><rect class="i" x="192.78" y="189.04" width="23.25" height="2.51" rx="1.13" ry="1.13" transform="translate(408.81 380.59) rotate(-180)"/></g><polygon class="ac" points="215.56 213.31 221.03 213.31 203.26 72.88 197.79 72.88 215.56 213.31"/><polygon class="k" points="215.56 213.31 221.03 213.31 203.26 72.88 197.79 72.88 215.56 213.31"/></g><g><polygon class="ac" points="158.19 213.31 152.73 213.31 170.49 72.88 175.96 72.88 158.19 213.31"/><polygon class="g" points="158.19 213.31 152.73 213.31 170.49 72.88 175.96 72.88 158.19 213.31"/><g><path class="ac" d="M190.71,93.69h-17.37c-.41,0-.79-.27-1-.71l-1.1-2.34h21.58l-1.1,2.34c-.21,.44-.59,.71-1,.71Z"/><path class="j" d="M190.71,93.69h-17.37c-.41,0-.79-.27-1-.71l-1.1-2.34h21.58l-1.1,2.34c-.21,.44-.59,.71-1,.71Z"/><rect class="ac" x="170.4" y="89.25" width="23.25" height="2.51" rx="1.13" ry="1.13"/><rect class="l" x="170.4" y="89.25" width="23.25" height="2.51" rx="1.13" ry="1.13"/></g><g><path class="ac" d="M187.54,113.77h-17.37c-.41,0-.79-.27-1-.71l-1.1-2.34h21.58l-1.1,2.34c-.21,.44-.59,.71-1,.71Z"/><path class="j" d="M187.54,113.77h-17.37c-.41,0-.79-.27-1-.71l-1.1-2.34h21.58l-1.1,2.34c-.21,.44-.59,.71-1,.71Z"/><rect class="ac" x="167.23" y="109.32" width="23.25" height="2.51" rx="1.13" ry="1.13"/><rect class="l" x="167.23" y="109.32" width="23.25" height="2.51" rx="1.13" ry="1.13"/></g><g><path class="ac" d="M184.37,140.34h-17.37c-.41,0-.79-.27-1-.71l-1.1-2.34h21.58l-1.1,2.34c-.21,.44-.59,.71-1,.71Z"/><path class="j" d="M184.37,140.34h-17.37c-.41,0-.79-.27-1-.71l-1.1-2.34h21.58l-1.1,2.34c-.21,.44-.59,.71-1,.71Z"/><rect class="ac" x="164.06" y="135.89" width="23.25" height="2.51" rx="1.13" ry="1.13"/><rect class="l" x="164.06" y="135.89" width="23.25" height="2.51" rx="1.13" ry="1.13"/></g><g><path class="ac" d="M181.2,166.91h-17.37c-.41,0-.79-.27-1-.71l-1.1-2.34h21.58l-1.1,2.34c-.21,.44-.59,.71-1,.71Z"/><path class="j" d="M181.2,166.91h-17.37c-.41,0-.79-.27-1-.71l-1.1-2.34h21.58l-1.1,2.34c-.21,.44-.59,.71-1,.71Z"/><rect class="ac" x="160.89" y="162.47" width="23.25" height="2.51" rx="1.13" ry="1.13"/><rect class="l" x="160.89" y="162.47" width="23.25" height="2.51" rx="1.13" ry="1.13"/></g><g><path class="ac" d="M178.04,193.49h-17.37c-.41,0-.79-.27-1-.71l-1.1-2.34h21.58l-1.1,2.34c-.21,.44-.59,.71-1,.71Z"/><path class="j" d="M178.04,193.49h-17.37c-.41,0-.79-.27-1-.71l-1.1-2.34h21.58l-1.1,2.34c-.21,.44-.59,.71-1,.71Z"/><rect class="ac" x="157.72" y="189.04" width="23.25" height="2.51" rx="1.13" ry="1.13"/><rect class="l" x="157.72" y="189.04" width="23.25" height="2.51" rx="1.13" ry="1.13"/></g><polygon class="ac" points="179.29 213.31 173.82 213.31 191.59 72.88 197.05 72.88 179.29 213.31"/><polygon class="k" points="179.29 213.31 173.82 213.31 191.59 72.88 197.05 72.88 179.29 213.31"/><g><path class="ac" d="M204.13,73.59h-34.63c-.41,0-.79-.27-1-.71l-1.1-2.34h38.84l-1.1,2.34c-.21,.44-.59,.71-1,.71Z"/><path class="j" d="M204.13,73.59h-34.63c-.41,0-.79-.27-1-.71l-1.1-2.34h38.84l-1.1,2.34c-.21,.44-.59,.71-1,.71Z"/><rect class="ac" x="166.56" y="69.15" width="40.51" height="2.51" rx="1.13" ry="1.13"/><rect class="l" x="166.56" y="69.15" width="40.51" height="2.51" rx="1.13" ry="1.13"/></g></g></g><g><g><path class="p" d="M206.55,73.01l-4.54-3.2-2.13,4.37s2.86,2.68,5.78,1.29l.89-2.45Z"/><polygon class="p" points="198.09 69.32 197.28 72.95 199.89 74.17 202.01 69.81 198.09 69.32"/></g><path class="y" d="M237.61,62.91c-.89,1.38-1.8,2.69-2.75,3.98-.71,.95-1.45,1.89-2.22,2.81t0,0c-.23,.28-.47,.56-.7,.84-.47,.54-.94,1.08-1.44,1.61-.61,.66-1.26,1.31-1.95,1.95-.13,.12-.26,.24-.4,.35h-.01c-.51,.47-1.03,.9-1.62,1.34-.76,.54-1.57,1.08-2.75,1.53-.3,.12-.59,.2-.89,.27-.29,.07-.54,.11-.8,.15-.5,.06-.96,.11-1.41,.12-.89,.03-1.73,0-2.55-.04-1.63-.09-3.2-.31-4.76-.54-1.99-.31-3.93-.7-5.87-1.16-.71-.17-1.42-.35-2.13-.54-.38-.1-.75-.21-1.13-.31-.76-.21-1.25-.93-1.2-1.69,0-.12,.03-.24,.06-.35,.18-.65,.72-1.1,1.35-1.19,.1-.02,.2-.03,.3-.02h.03c.14,.01,.28,.02,.41,.02,.89,.03,1.78,.06,2.68,.09,1.99,.07,3.98,.12,5.93,.15,1.48,.03,2.97,.01,4.38-.05,.71-.03,1.4-.09,2.03-.18,.62-.08,1.21-.21,1.36-.34,.24-.12,.7-.44,1.15-.83,.35-.31,.73-.65,1.09-1.02,.11-.1,.21-.21,.31-.31,.21-.21,.41-.44,.6-.66,.51-.56,1-1.13,1.49-1.73,.22-.27,.44-.54,.66-.82,1.06-1.34,2.12-2.75,3.14-4.18,.7-.96,1.38-1.94,2.04-2.89l.04-.06c.34-.5,.8-.87,1.31-1.11,.84,.04,1.66,.07,2.48,.11h0c.21,.01,.43,.02,.64,.04,.07,.04,.13,.08,.2,.12,1.48,1.02,1.87,3.04,.9,4.54Z"/><path class="aa" d="M236.07,66.83c-.92,1.36-2.15,2.87-3.74,4.53t0,0c-.37,.38-.76,.77-1.16,1.16l-.66-.37-5.8-3.26-.54-.3s.38-.56,.94-1.41c.7-1.06,1.7-2.58,2.63-4.01,.72-1.12,1.39-2.19,1.84-2.95,.56-.95,1.22-1.65,1.91-2.19,.64,.02,1.28,.04,1.9,.06,.84,.04,1.66,.07,2.48,.11h0c.21,.01,.43,.02,.64,.04,.56,.02,1.1,.05,1.65,.08,.74,1.77,.58,4.56-2.09,8.51Z"/><path class="k" d="M236.07,66.83c-.92,1.36-2.15,2.87-3.74,4.53t0,0c-.37,.38-.76,.77-1.16,1.16l-.66-.37-5.8-3.26-.54-.3s.38-.56,.94-1.41c.7-1.06,1.7-2.58,2.63-4.01,.72-1.12,1.39-2.19,1.84-2.95,.56-.95,1.22-1.65,1.91-2.19,.64,.02,1.28,.04,1.9,.06,.84,.04,1.66,.07,2.48,.11h0c.21,.01,.43,.02,.64,.04,.56,.02,1.1,.05,1.65,.08,.74,1.77,.58,4.56-2.09,8.51Z"/></g></g><g><path class="aa" d="M111.55,165.94h0v.02h-.06v.02h-.05v-.02h0v.02s.01,0,.02,0c0,0,.01,0,.02,0h0v-.02h.06Zm0,0h0Z"/><path class="aa" d="M112.15,165.99c-.09-.05-.16-.12-.21-.2-.05-.08-.08-.18-.08-.28s.02-.19,.08-.28c.05-.08,.12-.15,.21-.2s.18-.08,.28-.08,.19,.03,.28,.08,.16,.12,.21,.2,.08,.18,.08,.28-.03,.19-.08,.28c-.05,.08-.12,.15-.21,.2s-.18,.08-.28,.08-.19-.03-.28-.08Zm-.06-1.59l-.16-3.58h1l-.16,3.51-.68,.06Z"/><path class="aa" d="M113.92,165.99c-.09-.05-.16-.12-.21-.2-.05-.08-.08-.18-.08-.28s.02-.19,.08-.28c.05-.08,.12-.15,.21-.2s.18-.08,.28-.08,.19,.03,.28,.08,.16,.12,.21,.2,.08,.18,.08,.28-.03,.19-.08,.28c-.05,.08-.12,.15-.21,.2s-.18,.08-.28,.08-.19-.03-.28-.08Zm-.06-1.59l-.16-3.58h1l-.16,3.51-.68,.06Z"/><path class="aa" d="M120.11,165.45c0,.16-.04,.29-.13,.39-.09,.09-.22,.14-.38,.14-.18,0-.34-.02-.47-.07-.13-.05-.25-.12-.36-.23-.09,.13-.19,.23-.29,.3-.11,.07-.23,.1-.36,.1-.53,0-1.1-.36-1.73-1.07-.09,.12-.15,.21-.19,.28,0,.08-.01,.17-.01,.26,0,.3,.03,.73,.09,1.28,.06,.55,.14,1.12,.23,1.72l-.66,.32-.07-.05c-.1-.64-.19-1.21-.25-1.7-.06-.49-.09-.85-.09-1.08,0-.35,.04-.65,.12-.89s.22-.48,.41-.7c.17-.21,.36-.4,.57-.57,.21-.17,.42-.31,.62-.41,.2-.1,.39-.15,.55-.15s.31,.04,.43,.12,.23,.21,.34,.37c.11,.16,.24,.4,.4,.72,.11,.2,.19,.35,.26,.44,.07,.09,.15,.15,.25,.19,.1,.03,.23,.05,.41,.05,.22,0,.33,.09,.33,.26Zm-1.72-.33l-.04-.07c-.16-.35-.3-.6-.41-.76-.11-.15-.22-.23-.31-.23s-.2,.04-.34,.12c-.14,.08-.28,.19-.44,.33,.22,.25,.43,.45,.63,.59,.2,.14,.38,.21,.53,.21,.14,0,.26-.07,.38-.2Z"/><path class="aa" d="M124.33,165.45c0,.16-.04,.29-.13,.38-.09,.1-.22,.14-.38,.14s-.32-.02-.45-.06c-.13-.04-.25-.11-.35-.21-.07,.12-.16,.21-.26,.27-.11,.06-.24,.09-.39,.09-.21,0-.44-.05-.72-.15-.27-.1-.53-.24-.79-.42-.11,.13-.21,.23-.33,.3-.11,.07-.24,.12-.38,.14s-.33,.04-.55,.04l.19-.79c.12,0,.21-.01,.28-.04s.13-.06,.19-.12,.12-.15,.2-.28l.14-.25c.15-.25,.28-.46,.39-.62,.11-.16,.25-.3,.4-.41,.15-.11,.32-.17,.51-.17s.35,.05,.48,.15c.14,.1,.26,.23,.35,.39,.1,.16,.22,.38,.35,.66,.1,.2,.18,.34,.25,.43s.16,.16,.25,.19c.1,.03,.23,.05,.39,.05,.22,0,.33,.09,.33,.26Zm-1.71-.3l-.05-.1c-.15-.34-.28-.6-.39-.75-.11-.16-.21-.23-.31-.23-.11,0-.21,.07-.33,.22s-.23,.35-.37,.62c.19,.13,.37,.23,.56,.3s.35,.11,.47,.11c.17,0,.3-.06,.4-.17Z"/><path class="aa" d="M128.56,165.45c0,.16-.04,.29-.13,.38-.09,.1-.22,.14-.38,.14s-.32-.02-.45-.06c-.13-.04-.25-.11-.35-.21-.07,.12-.16,.21-.26,.27-.11,.06-.24,.09-.39,.09-.21,0-.44-.05-.72-.15-.27-.1-.53-.24-.79-.42-.11,.13-.21,.23-.33,.3-.11,.07-.24,.12-.38,.14s-.33,.04-.55,.04l.19-.79c.12,0,.21-.01,.28-.04s.13-.06,.19-.12,.12-.15,.2-.28l.14-.25c.15-.25,.28-.46,.39-.62,.11-.16,.25-.3,.4-.41,.15-.11,.32-.17,.51-.17s.35,.05,.48,.15c.14,.1,.26,.23,.35,.39,.1,.16,.22,.38,.35,.66,.1,.2,.18,.34,.25,.43s.16,.16,.25,.19c.1,.03,.23,.05,.39,.05,.22,0,.33,.09,.33,.26Zm-1.71-.3l-.05-.1c-.15-.34-.28-.6-.39-.75-.11-.16-.21-.23-.31-.23-.11,0-.21,.07-.33,.22s-.23,.35-.37,.62c.19,.13,.37,.23,.56,.3s.35,.11,.47,.11c.17,0,.3-.06,.4-.17Z"/><path class="aa" d="M132.78,165.45c0,.16-.04,.29-.13,.38-.09,.1-.22,.14-.38,.14s-.32-.02-.45-.06c-.13-.04-.25-.11-.35-.21-.07,.12-.16,.21-.26,.27-.11,.06-.24,.09-.39,.09-.21,0-.44-.05-.72-.15-.27-.1-.53-.24-.79-.42-.11,.13-.21,.23-.33,.3-.11,.07-.24,.12-.38,.14s-.33,.04-.55,.04l.19-.79c.12,0,.21-.01,.28-.04s.13-.06,.19-.12,.12-.15,.2-.28l.14-.25c.15-.25,.28-.46,.39-.62,.11-.16,.25-.3,.4-.41,.15-.11,.32-.17,.51-.17s.35,.05,.48,.15c.14,.1,.26,.23,.35,.39,.1,.16,.22,.38,.35,.66,.1,.2,.18,.34,.25,.43s.16,.16,.25,.19c.1,.03,.23,.05,.39,.05,.22,0,.33,.09,.33,.26Zm-1.71-.3l-.05-.1c-.15-.34-.28-.6-.39-.75-.11-.16-.21-.23-.31-.23-.11,0-.21,.07-.33,.22s-.23,.35-.37,.62c.19,.13,.37,.23,.56,.3s.35,.11,.47,.11c.17,0,.3-.06,.4-.17Z"/><path class="aa" d="M132.47,165.19h.07c.43,0,.71-.03,.83-.08,.02-.06,.02-.12,.02-.19,0-.16-.04-.34-.11-.54-.07-.2-.18-.44-.32-.73l.64-.51h.08c.13,.27,.23,.55,.3,.83s.11,.51,.11,.69c0,.19-.03,.38-.1,.55-.07,.18-.17,.33-.29,.46-.12,.12-.28,.2-.47,.24s-.48,.07-.86,.07h-.09l.19-.79Zm1.01-2.82l-.74-.52,.46-.68,.74,.51-.46,.69Z"/><path class="aa" d="M135.43,165.64c-.25-.22-.38-.59-.38-1.11v-3.82l.69-.19,.06,.04v3.9c0,.2,.03,.35,.09,.45,.06,.1,.15,.18,.28,.22,.13,.04,.3,.06,.53,.06,.12,0,.2,.02,.25,.07s.07,.11,.07,.19c0,.15-.04,.28-.12,.38-.08,.1-.21,.15-.39,.15-.48,0-.84-.11-1.09-.33Z"/><path class="aa" d="M140.39,164.09c.23,.09,.44,.14,.62,.15l-.2,.74c-.61,.07-1.32,.24-2.13,.52-.52,.17-.94,.3-1.26,.37-.32,.07-.62,.1-.91,.1l.17-.79c.29,0,.57-.02,.84-.07s.63-.13,1.08-.27c.42-.12,.78-.21,1.07-.28-.13-.06-.29-.14-.48-.24-.3-.17-.55-.29-.75-.35-.2-.07-.39-.1-.57-.1-.14,0-.28,.01-.42,.04-.14,.03-.28,.06-.42,.11l-.03-.04,.29-.71c.1-.05,.21-.09,.33-.12,.13-.03,.25-.04,.37-.04,.17,0,.36,.04,.57,.12,.2,.08,.5,.22,.88,.42,.4,.2,.71,.35,.94,.43Zm-1.65,3.67l-.74-.52,.46-.68,.74,.5-.46,.69Z"/></g><g><g><path class="ac" d="M149.67,213.21s0,.06-.01,.1c0,.02,0,.03-.01,.05,0,.03-.02,.06-.03,.09-.02,.04-.04,.08-.06,.11-.02,.04-.05,.08-.09,.12-.19,.21-.52,.43-.97,.63-.09,.04-.19,.08-.29,.12-.28,.12-.6,.23-.96,.34-.22,.07-.46,.14-.71,.21-4.14,1.12-12.08,2.01-22.07,2.51-.39,.02-.78,.04-1.17,.06-.64,.03-1.28,.05-1.94,.08-.66,.02-1.32,.05-1.99,.07-.45,.02-.92,.03-1.38,.05-1.09,.03-2.2,.06-3.32,.08-.14,0-.27,.01-.41,.01-.25,0-.51,.01-.76,.01-.25,0-.49,.01-.74,.01-1.03,.02-2.08,.03-3.13,.04-.12,0-.23,0-.34,0h0c-.83,0-1.67,0-2.5,0-3.45,0-6.81-.04-10.03-.13h0c-.48-.01-.96-.03-1.43-.05-.41,0-.83-.02-1.23-.04-.64-.02-1.28-.04-1.9-.06-.84-.04-1.66-.07-2.48-.11h0c-.21-.01-.43-.02-.64-.04-.56-.02-1.1-.05-1.65-.08-2.71-.15-5.26-.33-7.6-.54-5.6-.5-10.04-1.14-12.79-1.88-.08-.02-.16-.04-.24-.06-.09-.02-.18-.05-.26-.08-.44-.13-.83-.27-1.16-.4-.12-.05-.24-.1-.35-.15-.2-.09-.37-.18-.51-.28-.06-.04-.11-.07-.16-.11-.05-.04-.09-.06-.13-.1-.05-.04-.09-.08-.12-.12-.04-.04-.07-.08-.09-.11-.05-.07-.08-.14-.09-.21,0-.02-.01-.04-.02-.06,0-.03,0-.05,0-.08,0-1.93,10.53-3.58,25.62-4.31,.4-.02,.8-.04,1.21-.06,.54-.02,1.08-.04,1.63-.06,.82-.03,1.65-.06,2.5-.09,.44-.01,.9-.03,1.35-.04,1.05-.03,2.1-.05,3.18-.08h.17c.3,0,.61,0,.92-.02,.21,0,.41,0,.62,0,.93-.02,1.87-.02,2.82-.03h0c.09,0,.18,0,.27,0h0c.86-.01,1.72-.01,2.59-.01,3.5,0,6.89,.05,10.15,.13,.8,.02,1.59,.05,2.37,.08,.34,.01,.67,.02,1,.04h.01s.06,0,.09,0c.37,.01,.73,.02,1.1,.04,.24,0,.48,.02,.72,.03,.63,.02,1.25,.05,1.87,.08h0c.59,.03,1.18,.06,1.75,.09,3.38,.18,6.51,.41,9.31,.69,8.9,.86,14.52,2.12,14.52,3.53Z"/><path class="g" d="M63.87,213.21c0-1.93,10.53-3.58,25.62-4.31,.4-.02,.8-.04,1.21-.06,.54-.02,1.08-.04,1.63-.06,2.26-.09,4.61-.15,7.04-.21,.36,0,.72,0,1.09-.02,.21,0,.41,0,.62,0,1.86-.03,3.76-.04,5.7-.04,3.5,0,6.89,.05,10.15,.13,.8,.02,1.59,.05,2.37,.08,5.94,.19,11.33,.53,15.86,.97,8.9,.86,14.52,2.12,14.52,3.53,0,.63-1.12,1.23-3.14,1.77-2.52-.68-6.45-1.28-11.38-1.75-4.54-.44-9.93-.77-15.86-.97-.78-.03-1.57-.05-2.37-.08-3.26-.08-6.65-.13-10.15-.13-1.93,0-3.83,.01-5.7,.04-.21,0-.41,0-.62,0-.37,.01-.73,.02-1.09,.02-2.42,.05-4.77,.12-7.04,.21-.55,.02-1.09,.05-1.63,.06-.41,.02-.81,.04-1.21,.06-10.18,.49-18.28,1.4-22.48,2.53-2.03-.55-3.14-1.14-3.14-1.77Z"/></g><g><g><path class="y" d="M103.16,211.03c-.32,.39-.63,.73-.93,1.05-.15,.16-.3,.32-.46,.48-.28,.29-.56,.57-.85,.85-.19,.19-.38,.37-.58,.56-.99,.91-2.04,1.77-3.17,2.58-.07,.04-.12,.09-.19,.13-.17,.12-.34,.23-.51,.35h0c-.37,.25-.76,.49-1.15,.71-.41,0-.83-.02-1.23-.04-.64-.02-1.28-.04-1.9-.06-.84-.04-1.66-.07-2.48-.11h0c-.21-.01-.43-.02-.64-.04-.56-.02-1.1-.05-1.65-.08-2.71-.15-5.26-.33-7.6-.54,.31-.1,.61-.19,.92-.3,2.36-.77,4.74-1.49,7.03-2.25,.57-.19,1.14-.38,1.67-.58,.58-.2,.87-.35,1.3-.6,.26-.15,.53-.32,.8-.51,.14-.09,.29-.19,.44-.31h0c.43-.3,.85-.64,1.27-.99,.85-.7,1.68-1.47,2.51-2.26,.15-.15,.3-.29,.44-.44,.27-.25,.53-.51,.78-.77l1.16-1.2,.07-.08c.75-.78,1.79-1.12,2.79-1,.7,.08,1.38,.38,1.92,.9,.58,.56,.92,1.28,.99,2.02h0c.1,.87-.15,1.79-.74,2.51Z"/><path class="aa" d="M101.83,204.25c-3.29-.07-10.63,8.12-10.63,8.12l6.06,5.36s5.41-2.34,6.73-6.23c1.32-3.9-2.16-7.25-2.16-7.25Z"/><path class="k" d="M104,211.5c-.55,1.6-1.77,2.93-3.03,3.95-1.82,1.47-3.7,2.29-3.7,2.29l-1.62-1.44-4.43-3.92s7.33-8.19,10.63-8.12c0,0,3.49,3.36,2.16,7.25Z"/><path class="s" d="M100.97,215.44c-1.82,1.47-3.7,2.29-3.7,2.29l-1.62-1.44c1.19-3.92,4.46-6.47,4.46-6.47,.72,1.35,.95,4.21,.87,5.62Z"/><path class="aa" d="M124.61,207.7h0v.02c-.04,.08-.07,.15-.1,.22-.09,.21-.18,.41-.27,.63-.05,.11-.1,.22-.14,.34-.01,.02-.02,.05-.03,.07-.04,.09-.08,.18-.11,.27-.1,.24-.2,.48-.29,.73-.12,.31-.23,.62-.34,.93-.01,.01-.01,.03-.02,.04-.08,.22-.16,.45-.24,.68-.08,.23-.16,.46-.23,.69-.01,.02-.02,.05-.02,.07-.07,.21-.14,.43-.21,.64-.14,.45-.27,.9-.4,1.36l-.04,.12c-.28,1-.55,2.03-.8,3.05,0,.02-.01,.04-.01,.06-.66,.02-1.32,.05-1.99,.07-.45,.02-.92,.03-1.38,.05-1.09,.03-2.2,.06-3.32,.08-.14,0-.27,.01-.41,.01-.25,0-.51,.01-.76,.01-.25,0-.49,.01-.74,.01-1.03,.02-2.08,.03-3.13,.04-.12,0-.23,0-.34,0h0c-.83,0-1.67,0-2.5,0-3.45,0-6.81-.04-10.03-.13h0c.03-.15,.06-.3,.09-.44h0c.02-.1,.04-.19,.06-.28,.02-.09,.04-.18,.06-.27,.01-.05,.02-.09,.03-.13,.27-1.16,.54-2.24,.83-3.23,.11-.34,.2-.67,.3-.99,.04-.1,.06-.2,.1-.3h0c.08-.25,.15-.48,.23-.7t0,0h0c.04-.13,.08-.25,.12-.37h0c.07-.19,.13-.37,.19-.54,.07-.21,.15-.41,.22-.6,.07-.17,.13-.34,.19-.5h0c.12-.31,.24-.59,.35-.86,.27-.65,.54-1.22,.79-1.72,.05-.08,.09-.17,.13-.25,.09-.17,.17-.32,.25-.48,.11-.19,.2-.37,.29-.53,.02-.03,.04-.05,.05-.08,.1-.18,.2-.35,.29-.49,.09-.14,.17-.26,.23-.37,.16-.24,.25-.37,.28-.4h0s2.46-.27,5.28-.18c.37,0,.75,.03,1.13,.05,.35,.02,.73,.06,1.13,.11,.84,.09,1.78,.22,2.76,.38,.61,.1,1.23,.21,1.86,.32,.62,.11,1.23,.22,1.83,.34,.11,.02,.21,.04,.31,.06h0c.47,.09,.92,.18,1.34,.27,.29,.06,.57,.12,.86,.19,.15,.04,.29,.06,.43,.11,.14,.04,.28,.07,.43,.11,.54,.14,1.07,.28,1.57,.43,.17,.05,.33,.1,.49,.15,.32,.09,.63,.19,.92,.28,.29,.09,.56,.18,.8,.26,.92,.3,1.52,.53,1.61,.56,0,0,0,0,0,0Z"/><path class="k" d="M124.61,207.7h-.01v.02c-.04,.08-.07,.15-.1,.22-.09,.21-.19,.41-.27,.63-.05,.11-.1,.22-.14,.34h0s-.02,.05-.02,.07c-.04,.09-.08,.18-.11,.27-.1,.24-.2,.48-.29,.73-.12,.31-.24,.62-.34,.93-.01,.01-.01,.03-.02,.04-.08,.22-.16,.45-.24,.68-.08,.23-.16,.46-.23,.69,0,.01-.01,.03-.02,.04,0,.01,0,.02,0,.03-.07,.21-.14,.43-.21,.64-.14,.45-.27,.9-.4,1.36l-.04,.12c-.28,1-.55,2.03-.8,3.05,0,.02-.01,.04-.01,.06-.66,.02-1.32,.05-1.99,.07-.45,.02-.92,.03-1.38,.05-1.09,.03-2.2,.06-3.32,.08-.14,0-.27,.01-.41,.01-.25,0-.51,.01-.76,.01-.25,0-.49,.01-.74,.01-1.03,.02-2.08,.03-3.13,.04-.12,0-.23,0-.34,0h0c-.83,0-1.67,0-2.5,0-3.45,0-6.81-.04-10.03-.13,.03-.15,.06-.29,.09-.43h0c.04-.19,.08-.37,.12-.55,.01-.05,.02-.09,.03-.13,.27-1.16,.54-2.24,.83-3.23,.11-.34,.2-.67,.3-.99,.04-.1,.06-.2,.1-.3h0c.08-.25,.15-.48,.23-.7t0,0h0c.04-.13,.08-.25,.12-.37h0c.07-.19,.13-.37,.19-.54,.07-.21,.15-.41,.22-.6,.07-.17,.13-.34,.19-.5h0c.12-.31,.24-.59,.35-.86h0c.27-.65,.54-1.22,.78-1.72,.05-.08,.09-.17,.13-.25,.09-.17,.17-.32,.25-.48,.11-.19,.2-.37,.29-.53,.02-.03,.04-.05,.05-.08,.11-.18,.21-.35,.29-.49,.09-.14,.17-.26,.23-.37,.16-.24,.25-.37,.28-.4h0s2.46-.27,5.28-.18c.37,0,.75,.03,1.13,.05,.35,.02,.73,.06,1.13,.11,.84,.09,1.78,.22,2.76,.38,.61,.1,1.23,.21,1.86,.32,.62,.11,1.23,.22,1.83,.34,.11,.02,.21,.04,.31,.06h0c.47,.09,.92,.18,1.34,.27,.29,.06,.57,.12,.86,.19,.15,.04,.29,.06,.43,.11,.15,.03,.29,.06,.43,.1,.54,.14,1.07,.28,1.57,.43,.17,.05,.33,.1,.49,.15,.32,.09,.63,.19,.92,.28,.29,.09,.56,.18,.8,.26,.92,.3,1.52,.53,1.61,.56,0,0,0,0,0,0h0Z"/><g><path class="p" d="M113.92,197.03s.19,6.28,.78,7.22c.6,.93,2.75,1.37,2.75,1.37,0,0-5.18,2.58-7.6,2.1s-3.59-3.65-3.59-3.65c0,0,1.69,.07,2.1-.17,.41-.23-.32-4.39-.32-4.39l5.88-2.47Z"/><path class="q" d="M108.54,201.06s-.21,.31-.21,.3c-.13-.97-.28-1.87-.28-1.87l5.87-2.47s.15,5.06,.61,6.78c-2.4,.25-5.18-1.51-5.99-2.74Z"/></g><g><path class="ac" d="M111.92,186.47c1.61,.84,3.91,3.55,1.39,4.45-2.52,.89-4.15-5.88-1.39-4.45Z"/><path class="p" d="M104.77,196.93c1.59,1.79,2.77,3.22,4.02,4.22,1.07,.87,2.19,1.41,3.66,1.59,4.76,.59,7.79-4.44,5.88-8.59-.21-.45-.45-.92-.74-1.39-2.07-3.42-6.06-7-10-5.83-4.43,1.31-5.76,6.68-2.81,10Z"/><path class="ac" d="M106.72,196.65l.19,.69s.58,2.06,1.88,3.81c1.07,.87,2.19,1.41,3.66,1.59,4.76,.59,7.79-4.44,5.88-8.59-.21-.45-.45-.92-.74-1.39,0,0,.36,1.66,.05,2.44,0,0-1.77-.45-2.64,.27,0,0-1.88-.51-3.48,1.47,0,0-2.39,1.68-4.8-.3Z"/><path class="j" d="M106.72,196.65l.19,.69s.58,2.06,1.88,3.81c1.07,.87,2.19,1.41,3.66,1.59,4.76,.59,7.79-4.44,5.88-8.59-.21-.45-.45-.92-.74-1.39,0,0,.36,1.66,.05,2.44,0,0-1.77-.45-2.64,.27,0,0-1.88-.51-3.48,1.47,0,0-2.39,1.68-4.8-.3Z"/><path class="ac" d="M99.83,194.72c-2.14-1.8-.11-4.4,2.13-5.29,.29-.12,.49-.29,.62-.49l2.66,4.09c-.24,.12-.48,.23-.71,.31,0,0,3.11,2.76,2.81,5.5-4.35,1.2-8.55-1.03-7.51-4.13Z"/><path class="p" d="M105.71,200.9c.98,.68,2.19,.84,3.15,.63,.11-.02,.22-.05,.31-.09h0c.9-.85-1.76-3.82-1.9-3.98h0c-.6-.15-1.21-.12-1.71,.23-1.17,.82-.97,2.42,.15,3.19Z"/><path class="ac" d="M110.81,193.69c.22,.28,.55,.4,.74,.25,.18-.15,.15-.5-.07-.78-.22-.28-.55-.4-.74-.25-.18,.15-.15,.5,.07,.78Z"/><path class="ac" d="M114,191.13c.22,.28,.55,.4,.74,.25,.18-.15,.15-.5-.07-.78-.22-.28-.55-.4-.74-.25-.18,.15-.15,.5,.07,.78Z"/><path class="ab" d="M113.1,192.09s1.9,1.05,3.21,1.25c-.15,.84-1.16,1.3-1.16,1.3l-2.05-2.55Z"/><path class="ac" d="M109.54,191.49c-.06,.04-.11,.11-.11,.19,0,.95-.66,1.39-.67,1.39-.1,.06-.13,.2-.06,.29,.06,.1,.19,.13,.29,.06,.03-.02,.85-.57,.86-1.75,0-.12-.09-.21-.21-.21-.04,0-.07,0-.1,.03Z"/><path class="ac" d="M114.53,188.82s.06-.06,.07-.1c.04-.11-.02-.23-.13-.27-1.1-.4-1.88,.2-1.92,.22-.09,.07-.11,.21-.04,.3,.07,.09,.2,.11,.29,.04,.03-.03,.64-.48,1.52-.16,.07,.02,.14,.01,.2-.03Z"/><g><path class="ac" d="M115.11,198.53c.11-.04,.22-.1,.33-.15l.29-2.33s-.14,0-.36,0c-.74,.02-2.37,.16-2.81,1-.04,.08-.08,.18-.11,.3-.08,.33-.11,.79,.08,1.13,.27,.5,.98,.76,2.57,.04Z"/><path class="f" d="M112.46,197.36l2.84-1.03,.08-.27c-.74,.02-2.37,.16-2.81,1-.04,.08-.08,.18-.11,.3Z"/><path class="x" d="M115.11,198.53c-.5-.82-1.82-.4-2.57-.04,.27,.5,.98,.76,2.57,.04Z"/></g><path class="ac" d="M99.83,194.72c-.87-.67-2.15-2.49-.44-4.38,1.71-1.89,3.74-2.82,2.79-4.19-.96-1.37,.74-2.54,1.93-1.64,0,0,2.81-4.59,4.8-1.07,0,0,1.96-1.35,3.15,.1,1.2,1.44,1.45,2.99-.13,3.55-1.58,.56-1.73,.72-1.45,1.64,.27,.91-1.1,1.67-1.1,1.67,0,0,.85-.54,.37-1.2,0,0-.11,1.17-1.64,1.65s-.82,1.97-.82,1.97c0,0-.82,.32-1-.85,0,0-.64,2.61-2.33,3.26-1.69,.65-2.81,.5-4.13-.51Z"/></g><path class="s" d="M122.16,214.52c-.28,1-.55,2.03-.8,3.05,0,.02-.01,.04-.01,.06-.66,.02-1.32,.05-1.99,.07-.45,.02-.92,.03-1.38,.05-1.09,.03-2.2,.06-3.32,.08-.14,0-.27,.01-.41,.01-.25,0-.51,.01-.76,.01-.25,0-.49,.01-.74,.01,.9-1.72,2.19-2.85,2.97-3.42,.41-.31,.69-.45,.69-.45,.52-.28,1.05-.46,1.58-.55,1.47-.24,2.94,.22,4.18,1.08Z"/></g><g><path class="y" d="M126.12,212.56c-.03,.56-.2,1.12-.53,1.62-.75,1.16-1.51,2.28-2.31,3.37-.64,.03-1.28,.05-1.94,.08-.66,.02-1.32,.05-1.99,.07-.45,.02-.92,.03-1.38,.05-1.09,.03-2.2,.06-3.32,.08,.06-.07,.12-.14,.18-.21,1.06-1.34,2.12-2.75,3.14-4.18,.29-.4,.57-.8,.85-1.2,.41-.57,.8-1.13,1.19-1.7l.04-.06c.88-1.28,2.49-1.74,3.88-1.23,.26,.09,.51,.22,.75,.39,.99,.68,1.49,1.8,1.43,2.92Z"/><path class="aa" d="M126.46,212.58c-.19,1.36-.79,2.99-2,4.92-.39,.02-.78,.04-1.17,.06-.64,.03-1.28,.05-1.94,.08-.66,.02-1.32,.05-1.99,.07-.45,.02-.92,.03-1.38,.05-1.09,.03-2.2,.06-3.32,.08-.14,0-.27,.01-.41,.01-.25,0-.51,.01-.76,.01,.66-.99,1.47-2.23,2.23-3.41,.52-.82,1.02-1.6,1.42-2.26,.15-.25,.3-.48,.42-.69,.78-1.32,1.76-2.18,2.74-2.75h0c2.15-1.23,4.3-1.03,4.3-1.03,.45,.3,.9,.71,1.24,1.28,.53,.86,.83,2.04,.62,3.58Z"/><path class="k" d="M126.46,212.58c-.19,1.36-.79,2.99-2,4.92-.39,.02-.78,.04-1.17,.06-.64,.03-1.28,.05-1.94,.08-.66,.02-1.32,.05-1.99,.07-.45,.02-.92,.03-1.38,.05-1.09,.03-2.2,.06-3.32,.08-.14,0-.27,.01-.41,.01-.25,0-.51,.01-.76,.01,.66-.99,1.47-2.23,2.23-3.41,.52-.82,1.02-1.6,1.42-2.26,.15-.25,.3-.48,.42-.69,.78-1.32,1.76-2.18,2.74-2.75h0c2.15-1.23,4.3-1.03,4.3-1.03,.45,.3,.9,.71,1.24,1.28,.53,.86,.83,2.04,.62,3.58Z"/></g></g></g></g></g></g></g></svg>