<svg width="100" height="99" viewBox="0 0 100 99" fill="none" xmlns="http://www.w3.org/2000/svg">
<path d="M94.2883 66.1189H16.102L30.2482 51.0169C31.9687 49.1053 31.9687 46.2378 30.057 44.5173C28.1454 42.7968 25.2779 42.7968 23.5574 44.7085L2.14699 67.6482C0.426514 69.3687 0.426514 72.2362 2.14699 73.9566L23.5574 96.8964C24.5132 97.8522 25.6602 98.2345 26.9984 98.2345C27.9542 98.2345 29.1012 97.8522 30.057 97.0875C31.9687 95.3671 31.9687 92.4996 30.2482 90.5879L16.102 75.2948H94.2883C96.7734 75.2948 98.8762 73.3831 98.8762 70.7068C98.8762 68.2217 96.7734 66.1189 94.2883 66.1189ZM5.58795 32.474L83.5831 32.474L69.4369 47.7671C67.7164 49.6788 67.7164 52.5462 69.6281 54.2667C71.5397 55.9872 74.4072 55.9872 76.1276 54.0755L97.5381 31.1358C99.2585 29.4153 99.2585 26.5479 97.5381 24.8274L76.1276 1.88764C75.1718 0.931814 74.0248 0.35832 72.8778 0.35832C71.7309 0.35832 70.5839 0.931814 69.6281 1.69647C67.7164 3.41695 67.7164 6.28442 69.4369 8.19606L83.5831 23.2981L5.58795 23.2981C2.91165 23.2981 1.00001 25.4009 1.00001 27.886C1.00001 30.5623 2.91165 32.474 5.58795 32.474Z" fill="#3CA4F6" fill-opacity="0.15"/>
</svg>
