<svg width="25" height="22" viewBox="0 0 25 22" fill="none" xmlns="http://www.w3.org/2000/svg">
<path d="M2.34375 16.0938C1.02539 16.0938 0 17.168 0 18.4375C0 19.7559 1.02539 20.7812 2.34375 20.7812C3.61328 20.7812 4.6875 19.7559 4.6875 18.4375C4.6875 17.168 3.61328 16.0938 2.34375 16.0938ZM8.25195 5.15625C8.54492 5.44922 8.88672 5.54688 9.22852 5.54688H20.5078C21.2402 5.54688 21.875 4.96094 21.875 4.17969V1.44531C21.875 0.712891 21.2402 0.078125 20.5078 0.078125H9.22852C8.88672 0.078125 8.54492 0.224609 8.30078 0.517578L6.44531 2.37305C6.15234 2.61719 6.15234 3.05664 6.44531 3.30078L8.25195 5.15625ZM2.34375 8.28125C1.02539 8.28125 0 9.35547 0 10.625C0 11.9434 1.02539 12.9688 2.34375 12.9688C3.61328 12.9688 4.6875 11.9434 4.6875 10.625C4.6875 9.35547 3.61328 8.28125 2.34375 8.28125ZM2.34375 0.46875C1.02539 0.46875 0 1.54297 0 2.8125C0 4.13086 1.02539 5.15625 2.34375 5.15625C3.61328 5.15625 4.6875 4.13086 4.6875 2.8125C4.6875 1.54297 3.61328 0.46875 2.34375 0.46875ZM23.6328 7.89062H9.22852C8.88672 7.89062 8.54492 8.03711 8.30078 8.33008L6.44531 10.1855C6.15234 10.4297 6.15234 10.8691 6.44531 11.1133L8.30078 12.9688C8.54492 13.2617 8.88672 13.3594 9.22852 13.3594H23.6328C24.3652 13.3594 25 12.7734 25 11.9922V9.25781C25 8.52539 24.3652 7.89062 23.6328 7.89062ZM20.5078 15.7031H9.22852C8.88672 15.7031 8.54492 15.8496 8.30078 16.1426L6.44531 17.998C6.15234 18.2422 6.15234 18.6816 6.44531 18.9258L8.30078 20.7812C8.54492 21.0742 8.88672 21.1719 9.22852 21.1719H20.5078C21.2402 21.1719 21.875 20.5859 21.875 19.8047V17.0703C21.875 16.3379 21.2402 15.7031 20.5078 15.7031Z" fill="url(#paint0_linear_669_205)"/>
<defs>
<linearGradient id="paint0_linear_669_205" x1="12.5" y1="-2" x2="12.5" y2="23" gradientUnits="userSpaceOnUse">
<stop stop-color="white"/>
<stop offset="1" stop-color="white" stop-opacity="0.72"/>
</linearGradient>
</defs>
</svg>
