<svg width="63" height="12" viewBox="0 0 63 12" fill="none" xmlns="http://www.w3.org/2000/svg">
<g clip-path="url(#clip0_936_8)">
<path d="M49.7336 -6.10352e-05H0C6.35681 -6.10352e-05 11.9766 2.14988 15.2318 5.4129C15.3239 5.55013 15.4314 5.68736 15.5542 5.80934C15.7692 6.0838 16.0149 6.34301 16.2605 6.58698C19.5157 9.85 25.1355 11.9999 31.4923 11.9999C37.8491 11.9999 43.4689 9.85 46.7241 6.60223C46.7241 6.58698 46.7241 6.58698 46.7241 6.58698C46.9544 6.37351 47.154 6.14479 47.3536 5.90083C47.5072 5.74835 47.6147 5.59587 47.7375 5.42815C47.7375 5.42815 47.7426 5.42306 47.7529 5.4129C51.008 2.14988 56.6125 -6.10352e-05 62.9846 -6.10352e-05H49.7183L49.7336 -6.10352e-05Z" fill="white"/>
</g>
<path d="M27.6094 5.83984L31.4687 2.20898C31.5957 2.08203 31.748 2.03125 31.875 2.03125C32.0273 2.03125 32.1797 2.08203 32.3066 2.18359L36.166 5.83984C36.4199 6.06836 36.4199 6.44922 36.1914 6.70312C35.9629 6.95703 35.582 6.95703 35.3281 6.72852L31.875 3.47852L28.4473 6.72851C28.1934 6.95703 27.8125 6.95703 27.584 6.70312C27.3555 6.44922 27.3555 6.06836 27.6094 5.83984Z" fill="#616161"/>
<defs>
<clipPath id="clip0_936_8">
<rect width="63" height="12" fill="white"/>
</clipPath>
</defs>
</svg>
