<svg width="15" height="18" viewBox="0 0 15 18" fill="none" xmlns="http://www.w3.org/2000/svg">
<path d="M12.8125 5.4375H12.5469C12.082 5.4375 11.75 5.80273 11.75 6.23438C11.75 6.69922 12.082 7.03125 12.5469 7.03125H12.8125C13.0781 7.03125 13.3438 7.26367 13.3438 7.5625V15C13.3438 15.2988 13.0781 15.5312 12.8125 15.5312H2.1875C1.88867 15.5312 1.65625 15.2988 1.65625 15V7.5625C1.65625 7.26367 1.88867 7.03125 2.1875 7.03125H2.45312C2.88477 7.03125 3.25 6.69922 3.25 6.23438C3.25 5.80273 2.88477 5.4375 2.45312 5.4375H2.1875C0.992188 5.4375 0.0625 6.40039 0.0625 7.5625V15C0.0625 16.1953 0.992188 17.125 2.1875 17.125H12.8125C13.9746 17.125 14.9375 16.1953 14.9375 15V7.5625C14.9375 6.40039 13.9746 5.4375 12.8125 5.4375ZM4.3125 5.17188C4.51172 5.17188 4.71094 5.10547 4.87695 4.93945L6.70312 2.98047V10.75C6.70312 11.2148 7.03516 11.5469 7.5 11.5469C7.93164 11.5469 8.29688 11.2148 8.29688 10.75V2.98047L10.0898 4.93945C10.2559 5.10547 10.4551 5.17188 10.6875 5.17188C11.1191 5.17188 11.4844 4.80664 11.4844 4.375C11.4844 4.17578 11.3848 4.00977 11.252 3.84375L8.06445 0.390625C7.93164 0.224609 7.69922 0.125 7.5 0.125C7.26758 0.125 7.03516 0.224609 6.90234 0.390625L3.71484 3.84375C3.58203 4.00977 3.48242 4.17578 3.48242 4.375C3.48242 4.83984 3.84766 5.17188 4.3125 5.17188Z" fill="url(#paint0_linear_818_316)"/>
<defs>
<linearGradient id="paint0_linear_818_316" x1="7.5" y1="0" x2="7.5" y2="17" gradientUnits="userSpaceOnUse">
<stop stop-color="#F20909"/>
<stop offset="0.0001" stop-color="#AB0000"/>
<stop offset="1" stop-color="#FF0000"/>
</linearGradient>
</defs>
</svg>
