<svg width="23" height="26" viewBox="0 0 23 26" fill="none" xmlns="http://www.w3.org/2000/svg">
<path d="M19.3125 7.9375H18.9219C18.2383 7.9375 17.75 8.47461 17.75 9.10938C17.75 9.79297 18.2383 10.2812 18.9219 10.2812H19.3125C19.7031 10.2812 20.0938 10.623 20.0938 11.0625V22C20.0938 22.4395 19.7031 22.7812 19.3125 22.7812H3.6875C3.24805 22.7812 2.90625 22.4395 2.90625 22V11.0625C2.90625 10.623 3.24805 10.2812 3.6875 10.2812H4.07812C4.71289 10.2812 5.25 9.79297 5.25 9.10938C5.25 8.47461 4.71289 7.9375 4.07812 7.9375H3.6875C1.92969 7.9375 0.5625 9.35352 0.5625 11.0625V22C0.5625 23.7578 1.92969 25.125 3.6875 25.125H19.3125C21.0215 25.125 22.4375 23.7578 22.4375 22V11.0625C22.4375 9.35352 21.0215 7.9375 19.3125 7.9375ZM6.8125 7.54688C7.10547 7.54688 7.39844 7.44922 7.64258 7.20508L10.3281 4.32422V15.75C10.3281 16.4336 10.8164 16.9219 11.5 16.9219C12.1348 16.9219 12.6719 16.4336 12.6719 15.75V4.32422L15.3086 7.20508C15.5527 7.44922 15.8457 7.54688 16.1875 7.54688C16.8223 7.54688 17.3594 7.00977 17.3594 6.375C17.3594 6.08203 17.2129 5.83789 17.0176 5.59375L12.3301 0.515625C12.1348 0.271484 11.793 0.125 11.5 0.125C11.1582 0.125 10.8164 0.271484 10.6211 0.515625L5.93359 5.59375C5.73828 5.83789 5.5918 6.08203 5.5918 6.375C5.5918 7.05859 6.12891 7.54688 6.8125 7.54688Z" fill="url(#paint0_linear_669_206)"/>
<defs>
<linearGradient id="paint0_linear_669_206" x1="11.5" y1="0" x2="11.5" y2="25" gradientUnits="userSpaceOnUse">
<stop stop-color="white"/>
<stop offset="1" stop-color="white" stop-opacity="0.72"/>
</linearGradient>
</defs>
</svg>
