<svg width="63" height="38" viewBox="0 0 63 38" fill="none" xmlns="http://www.w3.org/2000/svg">
<path d="M16.125 18.0781L14.8555 20.8125H17.2969L16.125 18.0781ZM56.75 0.5H33.3125V38H56.75C60.168 38 63 35.2656 63 31.75V6.75C63 3.33203 60.168 0.5 56.75 0.5ZM54.4062 16.9062H54.2109C53.4297 19.6406 52.1602 21.7891 50.793 23.4492C51.5742 23.9375 52.0625 24.1328 52.0625 24.1328C53.332 24.6211 53.918 25.9883 53.4297 27.1602C53.0391 28.1367 52.1602 28.625 51.1836 28.625C50.8906 28.625 50.5977 28.625 50.3047 28.5273C50.207 28.4297 48.9375 27.9414 47.2773 26.7695C45.6172 27.9414 44.3477 28.4297 44.1523 28.5273C43.957 28.625 43.6641 28.625 43.4688 28.625C42.4922 28.625 41.6133 28.1367 41.2227 27.1602C40.7344 25.9883 41.3203 24.6211 42.5898 24.1328C42.5898 24.1328 43.1758 23.8398 43.8594 23.4492C43.4688 23.0586 43.1758 22.668 42.8828 22.1797C42.1016 21.1055 42.3945 19.6406 43.4688 18.957C44.543 18.1758 46.0078 18.4688 46.7891 19.543C46.8867 19.8359 47.082 20.0312 47.2773 20.3242C48.0586 19.3477 48.7422 18.2734 49.2305 16.9062H40.3438C38.9766 16.9062 38 15.9297 38 14.5625C38 13.293 38.9766 12.2188 40.3438 12.2188H45.0312C45.0312 10.9492 46.0078 9.875 47.375 9.875C48.6445 9.875 49.7188 10.9492 49.7188 12.2188H54.4062C55.6758 12.2188 56.75 13.293 56.75 14.5625C56.75 15.9297 55.6758 16.9062 54.4062 16.9062ZM0.5 6.75V31.75C0.5 35.168 3.23438 38 6.75 38H30.1875V0.5H6.75C3.23438 0.5 0.5 3.33203 0.5 6.75ZM7.72656 25.4023L13.9766 11.3398C14.6602 9.58203 17.4922 9.58203 18.1758 11.3398L24.4258 25.4023C25.0117 26.5742 24.4258 27.9414 23.2539 28.4297C22.9609 28.625 22.668 28.625 22.375 28.625C21.3984 28.625 20.6172 28.1367 20.2266 27.2578L19.3477 25.5H19.25H13C12.9023 25.5 12.8047 25.5 12.8047 25.5L11.9258 27.2578C11.4375 28.4297 10.0703 29.0156 8.89844 28.4297C7.72656 27.9414 7.14062 26.5742 7.72656 25.4023Z" fill="white"/>
</svg>
