<svg width="42" height="30" viewBox="0 0 42 30" fill="none" xmlns="http://www.w3.org/2000/svg">
<g filter="url(#filter0_dd_1015_3)">
<g clip-path="url(#clip0_1015_3)">
<mask id="mask0_1015_3" style="mask-type:luminance" maskUnits="userSpaceOnUse" x="3" y="2" width="36" height="24">
<rect x="3" y="2" width="36" height="24" fill="white"/>
</mask>
<g mask="url(#mask0_1015_3)">
<path fill-rule="evenodd" clip-rule="evenodd" d="M3 2V26H39V2H3Z" fill="#E31D1C"/>
<mask id="mask1_1015_3" style="mask-type:luminance" maskUnits="userSpaceOnUse" x="3" y="2" width="36" height="24">
<path fill-rule="evenodd" clip-rule="evenodd" d="M3 2V26H39V2H3Z" fill="white"/>
</mask>
<g mask="url(#mask1_1015_3)">
<path fill-rule="evenodd" clip-rule="evenodd" d="M21.0285 18.1135C18.6195 17.586 16.7328 15.7937 16.7547 13.1663C16.7752 10.7069 18.4503 8.62807 21.0985 8.0653C23.7467 7.50254 26.0782 8.69715 26.0782 8.69715C25.3463 7.16134 22.8036 6.08239 20.719 6.08549C16.8386 6.09127 12.7021 8.88851 12.6665 13.1663C12.6295 17.6013 17.096 20.1271 21.0243 20.1212C24.1735 20.1165 25.6672 18.2014 25.9766 17.3867C25.9766 17.3867 23.4375 18.641 21.0285 18.1135ZM26.5161 12.3266L24.1159 13.1102L26.824 13.9594L26.7779 16.4968L28.5623 14.5932L31.5099 14.7836L29.1741 12.9988L30.7075 11.095L28.2106 11.842L26.426 10.0784L26.5161 12.3266Z" fill="#F7FCFF"/>
</g>
</g>
</g>
</g>
<defs>
<filter id="filter0_dd_1015_3" x="0" y="0" width="42" height="30" filterUnits="userSpaceOnUse" color-interpolation-filters="sRGB">
<feFlood flood-opacity="0" result="BackgroundImageFix"/>
<feColorMatrix in="SourceAlpha" type="matrix" values="0 0 0 0 0 0 0 0 0 0 0 0 0 0 0 0 0 0 127 0" result="hardAlpha"/>
<feOffset dy="1"/>
<feGaussianBlur stdDeviation="1"/>
<feColorMatrix type="matrix" values="0 0 0 0 0.0627451 0 0 0 0 0.0941176 0 0 0 0 0.156863 0 0 0 0.06 0"/>
<feBlend mode="normal" in2="BackgroundImageFix" result="effect1_dropShadow_1015_3"/>
<feColorMatrix in="SourceAlpha" type="matrix" values="0 0 0 0 0 0 0 0 0 0 0 0 0 0 0 0 0 0 127 0" result="hardAlpha"/>
<feOffset dy="1"/>
<feGaussianBlur stdDeviation="1.5"/>
<feColorMatrix type="matrix" values="0 0 0 0 0.0627451 0 0 0 0 0.0941176 0 0 0 0 0.156863 0 0 0 0.1 0"/>
<feBlend mode="normal" in2="effect1_dropShadow_1015_3" result="effect2_dropShadow_1015_3"/>
<feBlend mode="normal" in="SourceGraphic" in2="effect2_dropShadow_1015_3" result="shape"/>
</filter>
<clipPath id="clip0_1015_3">
<rect x="3" y="2" width="36" height="24" rx="2" fill="white"/>
</clipPath>
</defs>
</svg>
