<svg xmlns="http://www.w3.org/2000/svg" xmlns:xlink="http://www.w3.org/1999/xlink" viewBox="0 0 570 300"><defs><style>.cls-1{fill:none;}.cls-2{clip-path:url(#clip-path);}.cls-3{fill:#fff;}.cls-4{fill:#b22234;}.cls-5{fill:#3c3b6e;}</style><clipPath id="clip-path" transform="translate(0)"><circle class="cls-1" cx="150" cy="150" r="150"/></clipPath></defs><title>Asset 1</title><g id="Layer_2" data-name="Layer 2"><g id="Countryflags.com"><g class="cls-2"><rect id="_59" data-name="59" class="cls-3" width="570" height="300"/><rect id="_58" data-name="58" class="cls-4" width="570" height="23.08"/><rect id="_57" data-name="57" class="cls-4" y="46.15" width="570" height="23.08"/><rect id="_56" data-name="56" class="cls-4" y="92.31" width="570" height="23.08"/><rect id="_55" data-name="55" class="cls-4" y="138.46" width="570" height="23.08"/><rect id="_54" data-name="54" class="cls-4" y="184.62" width="570" height="23.08"/><rect id="_53" data-name="53" class="cls-4" y="230.77" width="570" height="23.08"/><rect id="_52" data-name="52" class="cls-4" y="276.92" width="570" height="23.08"/><rect id="_51" data-name="51" class="cls-5" width="228" height="161.54"/><polygon id="_50" data-name="50" class="cls-3" points="10.71 13.11 16.14 17.06 14.07 23.45 19.5 19.5 24.93 23.45 22.86 17.06 28.29 13.11 21.57 13.11 19.5 6.73 17.43 13.11 10.71 13.11"/><polygon id="_49" data-name="49" class="cls-3" points="48.51 13.11 53.94 17.06 51.87 23.45 57.3 19.5 62.73 23.45 60.66 17.06 66.09 13.11 59.37 13.11 57.3 6.73 55.23 13.11 48.51 13.11"/><polygon id="_48" data-name="48" class="cls-3" points="86.31 13.11 91.74 17.06 89.67 23.45 95.1 19.5 100.53 23.45 98.46 17.06 103.89 13.11 97.17 13.11 95.1 6.73 93.03 13.11 86.31 13.11"/><polygon id="_47" data-name="47" class="cls-3" points="124.11 13.11 129.54 17.06 127.47 23.45 132.9 19.5 138.33 23.45 136.26 17.06 141.69 13.11 134.97 13.11 132.9 6.73 130.83 13.11 124.11 13.11"/><polygon id="_46" data-name="46" class="cls-3" points="161.91 13.11 167.34 17.06 165.27 23.45 170.7 19.5 176.13 23.45 174.06 17.06 179.49 13.11 172.77 13.11 170.7 6.73 168.63 13.11 161.91 13.11"/><polygon id="_45" data-name="45" class="cls-3" points="199.71 13.11 205.14 17.06 203.07 23.45 208.5 19.5 213.93 23.45 211.86 17.06 217.29 13.11 210.57 13.11 208.5 6.73 206.43 13.11 199.71 13.11"/><polygon id="_44" data-name="44" class="cls-3" points="29.61 29.31 35.04 33.26 32.97 39.65 38.4 35.7 43.83 39.65 41.76 33.26 47.19 29.31 40.47 29.31 38.4 22.93 36.33 29.31 29.61 29.31"/><polygon id="_43" data-name="43" class="cls-3" points="67.41 29.31 72.84 33.26 70.77 39.65 76.2 35.7 81.63 39.65 79.56 33.26 84.99 29.31 78.27 29.31 76.2 22.93 74.13 29.31 67.41 29.31"/><polygon id="_42" data-name="42" class="cls-3" points="105.21 29.31 110.64 33.26 108.57 39.65 114 35.7 119.43 39.65 117.36 33.26 122.79 29.31 116.08 29.31 114 22.93 111.92 29.31 105.21 29.31"/><polygon id="_41" data-name="41" class="cls-3" points="143.01 29.31 148.44 33.26 146.37 39.65 151.8 35.7 157.23 39.65 155.16 33.26 160.59 29.31 153.87 29.31 151.8 22.93 149.72 29.31 143.01 29.31"/><polygon id="_40" data-name="40" class="cls-3" points="180.81 29.31 186.24 33.26 184.17 39.65 189.6 35.7 195.03 39.65 192.96 33.26 198.39 29.31 191.67 29.31 189.6 22.93 187.53 29.31 180.81 29.31"/><polygon id="_39" data-name="39" class="cls-3" points="10.71 45.52 16.14 49.46 14.07 55.84 19.5 51.9 24.93 55.84 22.86 49.46 28.29 45.52 21.57 45.52 19.5 39.13 17.43 45.52 10.71 45.52"/><polygon id="_38" data-name="38" class="cls-3" points="48.51 45.52 53.94 49.46 51.87 55.84 57.3 51.9 62.73 55.84 60.66 49.46 66.09 45.52 59.37 45.52 57.3 39.13 55.23 45.52 48.51 45.52"/><polygon id="_37" data-name="37" class="cls-3" points="86.31 45.52 91.74 49.46 89.67 55.84 95.1 51.9 100.53 55.84 98.46 49.46 103.89 45.52 97.17 45.52 95.1 39.13 93.03 45.52 86.31 45.52"/><polygon id="_36" data-name="36" class="cls-3" points="124.11 45.52 129.54 49.46 127.47 55.84 132.9 51.9 138.33 55.84 136.26 49.46 141.69 45.52 134.97 45.52 132.9 39.13 130.83 45.52 124.11 45.52"/><polygon id="_35" data-name="35" class="cls-3" points="161.91 45.52 167.34 49.46 165.27 55.84 170.7 51.9 176.13 55.84 174.06 49.46 179.49 45.52 172.77 45.52 170.7 39.13 168.63 45.52 161.91 45.52"/><polygon id="_34" data-name="34" class="cls-3" points="199.71 45.52 205.14 49.46 203.07 55.84 208.5 51.9 213.93 55.84 211.86 49.46 217.29 45.52 210.57 45.52 208.5 39.13 206.43 45.52 199.71 45.52"/><polygon id="_33" data-name="33" class="cls-3" points="30.08 61.77 35.51 65.71 33.44 72.1 38.87 68.15 44.3 72.1 42.22 65.71 47.65 61.77 40.94 61.77 38.87 55.38 36.79 61.77 30.08 61.77"/><polygon id="_32" data-name="32" class="cls-3" points="67.88 61.77 73.31 65.71 71.23 72.1 76.67 68.15 82.1 72.1 80.02 65.71 85.45 61.77 78.74 61.77 76.67 55.38 74.59 61.77 67.88 61.77"/><polygon id="_31" data-name="31" class="cls-3" points="105.68 61.77 111.11 65.71 109.03 72.1 114.47 68.15 119.9 72.1 117.82 65.71 123.25 61.77 116.54 61.77 114.47 55.38 112.39 61.77 105.68 61.77"/><polygon id="_30" data-name="30" class="cls-3" points="143.48 61.77 148.91 65.71 146.84 72.1 152.27 68.15 157.7 72.1 155.62 65.71 161.05 61.77 154.34 61.77 152.27 55.38 150.19 61.77 143.48 61.77"/><polygon id="_29" data-name="29" class="cls-3" points="181.28 61.77 186.71 65.71 184.63 72.1 190.07 68.15 195.5 72.1 193.42 65.71 198.85 61.77 192.14 61.77 190.07 55.38 187.99 61.77 181.28 61.77"/><polygon id="_28" data-name="28" class="cls-3" points="11.29 77.83 16.72 81.78 14.64 88.16 20.07 84.22 25.5 88.16 23.43 81.78 28.86 77.83 22.15 77.83 20.07 71.45 18 77.83 11.29 77.83"/><polygon id="_27" data-name="27" class="cls-3" points="49.09 77.83 54.52 81.78 52.44 88.16 57.87 84.22 63.3 88.16 61.23 81.78 66.66 77.83 59.95 77.83 57.87 71.45 55.8 77.83 49.09 77.83"/><polygon id="_26" data-name="26" class="cls-3" points="86.89 77.83 92.32 81.78 90.24 88.16 95.67 84.22 101.11 88.16 99.03 81.78 104.46 77.83 97.75 77.83 95.67 71.45 93.6 77.83 86.89 77.83"/><polygon id="_25" data-name="25" class="cls-3" points="124.69 77.83 130.12 81.78 128.04 88.16 133.47 84.22 138.91 88.16 136.83 81.78 142.26 77.83 135.55 77.83 133.47 71.45 131.4 77.83 124.69 77.83"/><polygon id="_24" data-name="24" class="cls-3" points="162.49 77.83 167.92 81.78 165.84 88.16 171.27 84.22 176.71 88.16 174.63 81.78 180.06 77.83 173.35 77.83 171.27 71.45 169.2 77.83 162.49 77.83"/><polygon id="_23" data-name="23" class="cls-3" points="200.28 77.83 205.72 81.78 203.64 88.16 209.07 84.22 214.5 88.16 212.43 81.78 217.86 77.83 211.15 77.83 209.07 71.45 207 77.83 200.28 77.83"/><polygon id="_22" data-name="22" class="cls-3" points="11.64 109.72 17.07 113.67 15 120.05 20.43 116.11 25.86 120.05 23.78 113.67 29.21 109.72 22.5 109.72 20.43 103.33 18.35 109.72 11.64 109.72"/><polygon id="_21" data-name="21" class="cls-3" points="49.44 109.72 54.87 113.67 52.8 120.05 58.23 116.11 63.66 120.05 61.58 113.67 67.02 109.72 60.3 109.72 58.23 103.33 56.15 109.72 49.44 109.72"/><polygon id="_20" data-name="20" class="cls-3" points="87.24 109.72 92.67 113.67 90.6 120.05 96.03 116.11 101.46 120.05 99.38 113.67 104.81 109.72 98.1 109.72 96.03 103.33 93.95 109.72 87.24 109.72"/><polygon id="_19" data-name="19" class="cls-3" points="125.04 109.72 130.47 113.67 128.4 120.05 133.83 116.11 139.26 120.05 137.19 113.67 142.62 109.72 135.9 109.72 133.83 103.33 131.75 109.72 125.04 109.72"/><polygon id="_18" data-name="18" class="cls-3" points="162.84 109.72 168.27 113.67 166.2 120.05 171.63 116.11 177.06 120.05 174.98 113.67 180.41 109.72 173.7 109.72 171.63 103.33 169.55 109.72 162.84 109.72"/><polygon id="_17" data-name="17" class="cls-3" points="200.64 109.72 206.07 113.67 204 120.05 209.43 116.11 214.86 120.05 212.78 113.67 218.22 109.72 211.5 109.72 209.43 103.33 207.35 109.72 200.64 109.72"/><polygon id="_16" data-name="16" class="cls-3" points="11.18 141.98 16.61 145.93 14.54 152.31 19.97 148.37 25.4 152.31 23.32 145.93 28.75 141.98 22.04 141.98 19.97 135.6 17.89 141.98 11.18 141.98"/><polygon id="_15" data-name="15" class="cls-3" points="48.98 141.98 54.41 145.93 52.34 152.31 57.77 148.37 63.2 152.31 61.12 145.93 66.55 141.98 59.84 141.98 57.77 135.6 55.69 141.98 48.98 141.98"/><polygon id="_14" data-name="14" class="cls-3" points="86.78 141.98 92.21 145.93 90.14 152.31 95.57 148.37 101 152.31 98.92 145.93 104.35 141.98 97.64 141.98 95.57 135.6 93.49 141.98 86.78 141.98"/><polygon id="_13" data-name="13" class="cls-3" points="124.58 141.98 130.01 145.93 127.94 152.31 133.37 148.37 138.8 152.31 136.72 145.93 142.15 141.98 135.44 141.98 133.37 135.6 131.29 141.98 124.58 141.98"/><polygon id="_12" data-name="12" class="cls-3" points="162.38 141.98 167.81 145.93 165.74 152.31 171.17 148.37 176.6 152.31 174.52 145.93 179.95 141.98 173.24 141.98 171.17 135.6 169.09 141.98 162.38 141.98"/><polygon id="_11" data-name="11" class="cls-3" points="200.18 141.98 205.61 145.93 203.53 152.31 208.97 148.37 214.4 152.31 212.32 145.93 217.75 141.98 211.04 141.98 208.97 135.6 206.89 141.98 200.18 141.98"/><polygon id="_10" data-name="10" class="cls-3" points="30.19 93.62 35.62 97.56 33.55 103.95 38.98 100 44.41 103.95 42.34 97.56 47.77 93.62 41.05 93.62 38.98 87.23 36.9 93.62 30.19 93.62"/><polygon id="_9" data-name="9" class="cls-3" points="67.99 93.62 73.42 97.56 71.35 103.95 76.78 100 82.21 103.95 80.14 97.56 85.57 93.62 78.85 93.62 76.78 87.23 74.7 93.62 67.99 93.62"/><polygon id="_8" data-name="8" class="cls-3" points="105.79 93.62 111.22 97.56 109.15 103.95 114.58 100 120.01 103.95 117.94 97.56 123.37 93.62 116.65 93.62 114.58 87.23 112.5 93.62 105.79 93.62"/><polygon id="_7" data-name="7" class="cls-3" points="143.59 93.62 149.02 97.56 146.95 103.95 152.38 100 157.81 103.95 155.74 97.56 161.17 93.62 154.45 93.62 152.38 87.23 150.3 93.62 143.59 93.62"/><polygon id="_6" data-name="6" class="cls-3" points="181.39 93.62 186.82 97.56 184.75 103.95 190.18 100 195.61 103.95 193.53 97.56 198.97 93.62 192.25 93.62 190.18 87.23 188.1 93.62 181.39 93.62"/><polygon id="_5" data-name="5" class="cls-3" points="30.08 125.83 35.51 129.77 33.44 136.16 38.87 132.21 44.3 136.16 42.22 129.77 47.65 125.83 40.94 125.83 38.87 119.44 36.79 125.83 30.08 125.83"/><polygon id="_4" data-name="4" class="cls-3" points="67.88 125.83 73.31 129.77 71.23 136.16 76.67 132.21 82.1 136.16 80.02 129.77 85.45 125.83 78.74 125.83 76.67 119.44 74.59 125.83 67.88 125.83"/><polygon id="_3" data-name="3" class="cls-3" points="105.68 125.83 111.11 129.77 109.03 136.16 114.47 132.21 119.9 136.16 117.82 129.77 123.25 125.83 116.54 125.83 114.47 119.44 112.39 125.83 105.68 125.83"/><polygon id="_2" data-name="2" class="cls-3" points="143.48 125.83 148.91 129.77 146.84 136.16 152.27 132.21 157.7 136.16 155.62 129.77 161.05 125.83 154.34 125.83 152.27 119.44 150.19 125.83 143.48 125.83"/><polygon id="_1" data-name="1" class="cls-3" points="181.28 125.83 186.71 129.77 184.63 136.16 190.07 132.21 195.5 136.16 193.42 129.77 198.85 125.83 192.14 125.83 190.07 119.44 187.99 125.83 181.28 125.83"/></g></g></g></svg>