<svg width="16" height="19" viewBox="0 0 16 19" fill="none" xmlns="http://www.w3.org/2000/svg">
<path d="M16 12.9062V1.09375C16 0.636719 15.6133 0.25 15.1562 0.25H3.625C1.72656 0.25 0.25 1.76172 0.25 3.625V14.875C0.25 16.7734 1.72656 18.25 3.625 18.25H15.1562C15.6133 18.25 16 17.8984 16 17.4062V16.8438C16 16.4922 15.7539 16.1758 15.4375 16.0703V13.7148C15.7539 13.6094 16 13.293 16 12.9062ZM4.75 5.3125C4.75 5.03125 4.99609 4.75 5.27734 4.75H12.0273C12.3438 4.75 12.625 5.03125 12.625 5.3125C12.625 5.62891 12.3438 5.875 12.0625 5.875H5.3125C4.99609 5.875 4.75 5.62891 4.75 5.3125ZM4.75 7.5625C4.75 7.28125 4.99609 7 5.27734 7H12.0273C12.3438 7 12.625 7.28125 12.625 7.5625C12.625 7.87891 12.3438 8.125 12.0625 8.125H5.3125C4.99609 8.125 4.75 7.87891 4.75 7.5625ZM2.5 14.875C2.5 14.2773 2.99219 13.75 3.625 13.75H13.75V16H3.625C2.99219 16 2.5 15.5078 2.5 14.875Z" fill="url(#paint0_linear_36_1399)"/>
<defs>
<linearGradient id="paint0_linear_36_1399" x1="8" y1="0" x2="8" y2="18" gradientUnits="userSpaceOnUse">
<stop stop-color="#0f8fce"/>
<stop offset="1" stop-color="#0f8fce9e" stop-opacity="0.28"/>
</linearGradient>
</defs>
</svg>
