<svg width="20" height="16" viewBox="0 0 20 16" fill="none" xmlns="http://www.w3.org/2000/svg">
<path d="M19.4062 5.18129L17.5625 2.5517C17.1875 2.06144 16.6875 1.74945 16.1562 1.74945H14.5C13.9375 1.74945 13.5 2.37342 13.5 3.1311V8.83598H1C0.4375 8.83598 0 9.50452 0 10.2622V12.2232C0 14.0506 0.875 15.6997 2.15625 15.9671C3.09375 16.1454 3.96875 15.5214 4.5 14.5409C5.0625 15.6551 6.0625 16.2791 7.15625 15.8779C7.9375 15.5659 8.59375 14.7191 8.84375 13.6049C9 12.9364 9.03125 12.3124 8.9375 11.733H14.0312C13.9375 12.3124 13.9688 12.9364 14.125 13.6049C14.375 14.7191 15.0625 15.6105 15.875 15.8779C17.5 16.4573 19 14.6746 19 12.4461C19 12.1787 18.9688 11.9558 18.9375 11.733H19.5C19.75 11.733 20 11.3764 20 11.0199V7.18691C20 6.42923 19.7812 5.71612 19.4062 5.18129ZM2.5 13.8277C1.9375 13.8277 1.5 13.2038 1.5 12.4015C1.5 11.6438 1.9375 10.9753 2.5 10.9753C3.03125 10.9753 3.5 11.6438 3.5 12.4015C3.5 13.2038 3.03125 13.8277 2.5 13.8277ZM6.5 13.8277C5.9375 13.8277 5.5 13.2038 5.5 12.4015C5.5 11.6438 5.9375 10.9753 6.5 10.9753C7.03125 10.9753 7.5 11.6438 7.5 12.4015C7.5 13.2038 7.03125 13.8277 6.5 13.8277ZM16.5 13.8277C15.9375 13.8277 15.5 13.2038 15.5 12.4015C15.5 11.6438 15.9375 11.0199 16.5 11.0199C17.0312 11.0199 17.5 11.6884 17.5 12.4461C17.5 13.2038 17.0312 13.8277 16.5 13.8277ZM15 5.98354V3.84421H16.1562C16.2812 3.84421 16.4062 3.88878 16.5 4.02249L17.875 5.98354H15Z" fill="url(#paint0_linear_701_111)"/>
<path d="M10.56 8H1.44C0.63 8 0 7.34375 0 6.5V1.5C0 0.6875 0.63 0 1.44 0H10.56C11.34 0 12 0.6875 12 1.5V6.5C12 7.34375 11.34 8 10.56 8Z" fill="url(#paint1_linear_701_111)"/>
<defs>
<linearGradient id="paint0_linear_701_111" x1="10" y1="1.74945" x2="10" y2="16" gradientUnits="userSpaceOnUse">
<stop stop-color="#0f8fce"/>
<stop offset="0.674829" stop-color="var(--primary)" stop-opacity="0.39"/>
<stop offset="1" stop-color="#0f8fce9e" stop-opacity="0.28"/>
</linearGradient>
<linearGradient id="paint1_linear_701_111" x1="6" y1="0" x2="6" y2="8" gradientUnits="userSpaceOnUse">
<stop stop-color="#0f8fce"/>
<stop offset="0.674829" stop-color="var(--primary)" stop-opacity="0.39"/>
<stop offset="1" stop-color="#0f8fce9e" stop-opacity="0.28"/>
</linearGradient>
</defs>
</svg>
