<svg xmlns="http://www.w3.org/2000/svg" viewBox="0 0 16 16.02"><defs><style>.cls-1{fill:#fff;}</style></defs><title>air-transportation-white</title><g id="Layer_2" data-name="Layer 2"><g id="Layer_1-2" data-name="Layer 1"><path id="plane-up" class="cls-1" d="M16,9.31v2a.52.52,0,0,1-.66.5L10,10.31V12.5l1.78,1.38a.45.45,0,0,1,.22.37V15.5a.5.5,0,0,1-.62.5L8,15,4.59,16A.49.49,0,0,1,4,15.5V14.25a.42.42,0,0,1,.19-.37L6,12.5V10.31L.63,11.84a.49.49,0,0,1-.63-.5v-2a.48.48,0,0,1,.25-.43L6,5.59V3c0-1.12.88-3,2-3s2,1.91,2,3V5.59l5.72,3.29A.51.51,0,0,1,16,9.31Z"/></g></g></svg>