<svg width="16" height="17" viewBox="0 0 16 17" fill="none" xmlns="http://www.w3.org/2000/svg">
<path id="plane-up" d="M16 9.3125V11.3438C16 11.6875 15.6562 11.9375 15.3438 11.8438L10 10.3125V12.5L11.7812 13.875C11.9062 13.9688 12 14.0938 12 14.25V15.5C12 15.8438 11.6875 16.0938 11.375 16L8 15L4.59375 16C4.28125 16.0625 4 15.8438 4 15.5V14.25C4 14.0938 4.0625 13.9688 4.1875 13.875L6 12.5V10.3125L0.625 11.8438C0.3125 11.9375 0 11.6875 0 11.3438V9.3125C0 9.15625 0.09375 8.9375 0.25 8.875L6 5.59375V3.03125C6 1.90625 6.875 0 8 0C9.09375 0 10 1.90625 10 3V5.59375L15.7188 8.875C15.875 8.96875 16 9.125 16 9.3125Z" fill="url(#paint0_linear_392_4)"/>
<defs>
<linearGradient id="paint0_linear_392_4" x1="8" y1="0" x2="8" y2="16" gradientUnits="userSpaceOnUse">
<stop stop-color="#0f8fce"/>
<stop offset="1" stop-color="#0f8fce9e" stop-opacity="0.28"/>
</linearGradient>
</defs>
</svg>
