<svg width="14" height="14" viewBox="0 0 14 14" fill="none" xmlns="http://www.w3.org/2000/svg">
<path d="M10 2H4C3.4375 2 3 1.5625 3 1C3 0.46875 3.4375 0 4 0H10C10.5312 0 11 0.46875 11 1C11 1.5625 10.5312 2 10 2ZM13 6H1C0.4375 6 0 5.5625 0 5C0 4.46875 0.4375 4 1 4H13C13.5312 4 14 4.46875 14 5C14 5.5625 13.5312 6 13 6ZM0 13C0 12.4688 0.4375 12 1 12H13C13.5312 12 14 12.4688 14 13C14 13.5625 13.5312 14 13 14H1C0.4375 14 0 13.5625 0 13ZM10 10H4C3.4375 10 3 9.5625 3 9C3 8.46875 3.4375 8 4 8H10C10.5312 8 11 8.46875 11 9C11 9.5625 10.5312 10 10 10Z" fill="url(#paint0_linear_161_825)"/>
<defs>
<linearGradient id="paint0_linear_161_825" x1="7" y1="-1" x2="7" y2="15" gradientUnits="userSpaceOnUse">
<stop stop-color="#21CAFF"/>
<stop offset="1" stop-color="#21CAFF" stop-opacity="0.2"/>
</linearGradient>
</defs>
</svg>
