<svg width="17" height="19" viewBox="0 0 17 19" fill="none" xmlns="http://www.w3.org/2000/svg">
<path d="M15.6094 9.14844C15.375 9.38281 15.0625 9.5 14.75 9.5C14.3984 9.5 14.0859 9.38281 13.8516 9.14844L9.75 5.04688V17C9.75 17.7031 9.16406 18.25 8.5 18.25C7.875 18.25 7.25 17.7031 7.25 17V5.04688L3.10938 9.14844C2.64062 9.65625 1.82031 9.65625 1.35156 9.14844C0.84375 8.67969 0.84375 7.85938 1.35156 7.39062L7.60156 1.14062C8.07031 0.632812 8.89062 0.632812 9.35938 1.14062L15.6094 7.39062C16.1172 7.85938 16.1172 8.67969 15.6094 9.14844Z" fill="url(#paint0_linear_175_166)"/>
<defs>
<linearGradient id="paint0_linear_175_166" x1="8.5" y1="-1" x2="8.5" y2="19" gradientUnits="userSpaceOnUse">
<stop stop-color="#FF8200"/>
<stop offset="1" stop-color="#FF8200" stop-opacity="0.2"/>
</linearGradient>
</defs>
</svg>
