<svg width="15" height="15" viewBox="0 0 15 15" fill="none" xmlns="http://www.w3.org/2000/svg">
<path d="M6.03516 9.71875L4.45312 11.4473V1.54492C4.45312 1.13477 4.13086 0.8125 3.75 0.8125C3.33984 0.8125 3.04688 1.13477 3.04688 1.54492V11.4473L1.43555 9.71875C1.28906 9.57227 1.11328 9.51367 0.9375 9.51367C0.761719 9.51367 0.585938 9.57227 0.439453 9.68945C0.146484 9.95312 0.146484 10.3926 0.410156 10.6855L3.19336 13.7324C3.45703 14.0254 3.95508 14.0254 4.21875 13.7324L7.00195 10.6855C7.26562 10.3926 7.26562 9.95312 6.97266 9.68945C6.73828 9.42578 6.29883 9.45508 6.03516 9.71875ZM12.6562 12.5312H12.1875V9.01562C12.1875 8.78125 12.041 8.54688 11.8066 8.42969C11.6016 8.2832 11.3379 8.3125 11.1035 8.42969L9.93164 9.13281C9.60938 9.33789 9.49219 9.74805 9.69727 10.0996C9.90234 10.4219 10.3125 10.5391 10.6641 10.334L10.752 10.2754V12.5312H10.2832C9.90234 12.5312 9.58008 12.8535 9.58008 13.2344C9.58008 13.6445 9.90234 13.9375 10.3125 13.9375H12.6562C13.0371 13.9375 13.3594 13.6445 13.3594 13.2344C13.3594 12.8535 13.0371 12.5312 12.6562 12.5312ZM10.8984 5.91016L10.4297 6.4668C10.1953 6.78906 10.2246 7.22852 10.5176 7.46289C10.6934 7.58008 10.8398 7.60938 11.0156 7.60938C11.1914 7.60938 11.3965 7.52148 11.543 7.375C13.623 4.82617 14.0625 4.5332 14.0625 3.39062C14.0625 1.98438 12.8906 0.8125 11.4844 0.8125C10.0488 0.8125 8.90625 1.98438 8.90625 3.39062C8.87695 4.65039 9.75586 5.67578 10.8984 5.91016ZM11.4844 2.21875C12.1289 2.21875 12.6562 2.74609 12.6562 3.39062C12.6562 3.71289 12.5098 3.97656 12.334 4.18164L12.2754 4.24023C12.0703 4.44531 11.7773 4.5625 11.4844 4.5625C10.8105 4.5625 10.3125 4.06445 10.3125 3.39062C10.3125 2.74609 10.8105 2.21875 11.4844 2.21875Z" fill="var(--primary)"/>
</svg>
