<svg width="20" height="21" viewBox="0 0 20 21" fill="none" xmlns="http://www.w3.org/2000/svg">
<path d="M10 0.5C4.45312 0.5 0 4.99219 0 10.5C0 16.0469 4.45312 20.5 10 20.5C15.5078 20.5 20 16.0469 20 10.5C20 4.99219 15.5078 0.5 10 0.5ZM13.3594 12.8047C13.1641 13.8984 12.2266 14.6406 10.9375 14.8359V15.5C10.9375 16.0469 10.5078 16.4375 10 16.4375C9.45312 16.4375 9.0625 16.0469 9.0625 15.5V14.7969C8.47656 14.7188 7.92969 14.5234 7.42188 14.3672L7.1875 14.2891C6.67969 14.1328 6.44531 13.5859 6.60156 13.1172C6.75781 12.6094 7.26562 12.3359 7.77344 12.5312L8.00781 12.6094C8.51562 12.7656 9.02344 12.9219 9.45312 13C10.5469 13.1562 11.4453 12.9219 11.5234 12.4531C11.6016 12.0625 11.4453 11.8672 9.72656 11.4375L9.41406 11.3203C8.4375 11.0859 6.17188 10.4609 6.60156 8.23438C6.79688 7.14062 7.73438 6.39844 9.0625 6.20312V5.5C9.0625 4.99219 9.45312 4.5625 10 4.5625C10.5078 4.5625 10.9375 4.99219 10.9375 5.5V6.20312C11.2891 6.24219 11.6406 6.35938 12.1484 6.51562C12.6172 6.67188 12.8906 7.17969 12.7344 7.6875C12.5781 8.15625 12.0703 8.42969 11.5625 8.27344C11.1328 8.15625 10.7812 8.03906 10.4688 8C9.41406 7.84375 8.51562 8.07812 8.4375 8.54688C8.39844 8.85938 8.32031 9.09375 9.88281 9.52344L10.2344 9.60156C11.5625 9.95312 13.7891 10.5391 13.3594 12.8047Z" fill="url(#paint0_linear_383_13)"/>
<defs>
<linearGradient id="paint0_linear_383_13" x1="10" y1="0" x2="10" y2="20" gradientUnits="userSpaceOnUse">
<stop stop-color="white"/>
<stop offset="0.674829" stop-color="white"/>
<stop offset="1" stop-color="white" stop-opacity="0.44"/>
</linearGradient>
</defs>
</svg>
