<svg width="11" height="13" viewBox="0 0 11 13" fill="none" xmlns="http://www.w3.org/2000/svg">
<path d="M5.72656 12.5C6.57031 12.5 7.25 11.8438 7.25 11H4.25C4.25 11.8438 4.90625 12.5 5.72656 12.5ZM10.7891 9.00781C10.3438 8.51562 9.47656 7.78906 9.47656 5.375C9.47656 3.57031 8.21094 2.11719 6.5 1.74219V1.25C6.5 0.851562 6.14844 0.5 5.75 0.5C5.32812 0.5 5 0.851562 5 1.25V1.74219C3.26562 2.11719 2 3.57031 2 5.375C2 7.78906 1.13281 8.51562 0.6875 9.00781C0.546875 9.14844 0.5 9.33594 0.5 9.5C0.5 9.89844 0.804688 10.25 1.25 10.25H10.2266C10.6953 10.25 10.9766 9.89844 11 9.5C11 9.33594 10.9297 9.14844 10.7891 9.00781Z" fill="url(#paint0_linear_170_1288)"/>
<defs>
<linearGradient id="paint0_linear_170_1288" x1="5.5" y1="0" x2="5.5" y2="12" gradientUnits="userSpaceOnUse">
<stop stop-color="#FF8200"/>
<stop offset="1" stop-color="#FFDFBD"/>
</linearGradient>
</defs>
</svg>
