<svg width="44" height="39" viewBox="0 0 44 39" fill="none" xmlns="http://www.w3.org/2000/svg">
<path d="M43.9023 12.7773L38.4336 2.52344C37.9453 1.25391 36.7734 0.375 35.4062 0.375H23.6875V12.875H43.8047C43.9023 12.875 43.9023 12.875 43.9023 12.7773ZM0.25 16V39.4375C0.25 42.0742 2.30078 44.125 4.9375 44.125H39.3125C41.8516 44.125 44 42.0742 44 39.4375V16H0.25ZM30.7188 26.2539L21.3438 35.6289C20.9531 36.1172 20.3672 36.3125 19.7812 36.3125C19.0977 36.3125 18.5117 36.1172 18.1211 35.6289L13.4336 30.9414C12.457 30.0625 12.457 28.5977 13.4336 27.7188C14.3125 26.7422 15.7773 26.7422 16.6562 27.7188L19.7812 30.7461L27.4961 23.0312C28.375 22.0547 29.8398 22.0547 30.7188 23.0312C31.6953 23.9102 31.6953 25.375 30.7188 26.2539ZM20.5625 12.875V0.375H8.74609C7.37891 0.375 6.20703 1.25391 5.71875 2.52344L0.25 12.7773C0.25 12.875 0.25 12.875 0.347656 12.875H20.5625Z" fill="url(#paint0_linear_7_1763)" fill-opacity="0.64"/>
<defs>
<linearGradient id="paint0_linear_7_1763" x1="22" y1="-3" x2="22" y2="47" gradientUnits="userSpaceOnUse">
<stop stop-color="white"/>
<stop offset="0.674829" stop-color="white"/>
<stop offset="1" stop-color="white" stop-opacity="0.44"/>
</linearGradient>
</defs>
</svg>
