<svg width="23" height="21" viewBox="0 0 23 21" fill="none" xmlns="http://www.w3.org/2000/svg">
<path d="M9.25 11.75H6.75V15.5L5.5 14.6797L4.25 15.5V11.75H1.75C1.04688 11.75 0.5 12.3359 0.5 13V19.25C0.5 19.9531 1.04688 20.5 1.75 20.5H9.25C9.91406 20.5 10.5 19.9531 10.5 19.25V13C10.5 12.3359 9.91406 11.75 9.25 11.75ZM8 9.25H15.5C16.1641 9.25 16.75 8.70312 16.75 8V1.75C16.75 1.08594 16.1641 0.5 15.5 0.5H13V4.25L11.75 3.42969L10.5 4.25V0.5H8C7.29688 0.5 6.75 1.08594 6.75 1.75V8C6.75 8.70312 7.29688 9.25 8 9.25ZM21.75 11.75H19.25V15.5L18 14.6797L16.75 15.5V11.75H14.25C13.5469 11.75 13 12.3359 13 13V19.25C13 19.9531 13.5469 20.5 14.25 20.5H21.75C22.4141 20.5 23 19.9531 23 19.25V13C23 12.3359 22.4141 11.75 21.75 11.75Z" fill="url(#paint0_linear_707_3)"/>
<defs>
<linearGradient id="paint0_linear_707_3" x1="11.5" y1="0" x2="11.5" y2="20" gradientUnits="userSpaceOnUse">
<stop stop-color="#0f8fce"/>
<stop offset="0.674829" stop-color="var(--primary)" stop-opacity="0.39"/>
<stop offset="1" stop-color="#0f8fce9e" stop-opacity="0.28"/>
</linearGradient>
</defs>
</svg>
