<svg width="14" height="16" viewBox="0 0 14 16" fill="none" xmlns="http://www.w3.org/2000/svg">
<path d="M0 14.5C0 15.3438 0.65625 16 1.5 16H12.5C13.3125 16 14 15.3438 14 14.5V6H0V14.5ZM4.1875 9.53125L5.875 9.28125L6.65625 7.71875C6.78125 7.4375 7.1875 7.4375 7.3125 7.71875L8.09375 9.28125L9.78125 9.53125C10.0938 9.5625 10.2188 9.9375 10 10.1562L8.78125 11.375L9.0625 13.0938C9.125 13.375 8.78125 13.625 8.5 13.4688L7 12.6562L5.46875 13.4688C5.1875 13.625 4.875 13.375 4.90625 13.0625L5.21875 11.375L3.96875 10.1562C3.75 9.9375 3.875 9.5625 4.1875 9.53125ZM12.5 2H11V1C11 0.46875 10.5312 0 10 0C9.4375 0 9 0.46875 9 1V2H5V1C5 0.46875 4.53125 0 4 0C3.4375 0 3 0.46875 3 1V2H1.5C0.65625 2 0 2.6875 0 3.5V5H14V3.5C14 2.6875 13.3125 2 12.5 2Z" fill="url(#paint0_linear_36_98)"/>
<defs>
<linearGradient id="paint0_linear_36_98" x1="7" y1="0" x2="7" y2="16" gradientUnits="userSpaceOnUse">
<stop stop-color="#B821FF"/>
<stop offset="1" stop-color="#E6B0FF"/>
</linearGradient>
</defs>
</svg>
