<svg width="10" height="11" viewBox="0 0 10 11" fill="none" xmlns="http://www.w3.org/2000/svg">
<path d="M5 0.25C2.22656 0.25 0 2.49609 0 5.25C0 8.02344 2.22656 10.25 5 10.25C7.75391 10.25 10 8.02344 10 5.25C10 2.49609 7.75391 0.25 5 0.25ZM5 9.3125C2.75391 9.3125 0.9375 7.49609 0.9375 5.25C0.9375 3.02344 2.75391 1.1875 5 1.1875C7.22656 1.1875 9.0625 3.02344 9.0625 5.25C9.0625 7.49609 7.22656 9.3125 5 9.3125ZM5 6.1875C5.25391 6.1875 5.46875 5.99219 5.46875 5.71875V3.21875C5.46875 2.96484 5.25391 2.75 5 2.75C4.72656 2.75 4.53125 2.96484 4.53125 3.21875V5.71875C4.53125 5.99219 4.72656 6.1875 5 6.1875ZM5 6.85156C4.64844 6.85156 4.375 7.125 4.375 7.45703C4.375 7.78906 4.64844 8.0625 5 8.0625C5.33203 8.0625 5.60547 7.78906 5.60547 7.45703C5.60547 7.125 5.33203 6.85156 5 6.85156Z" fill="#6C6C6C"/>
</svg>
