<svg width="16" height="16" viewBox="0 0 16 16" fill="none" xmlns="http://www.w3.org/2000/svg">
<path d="M0 8C0 3.59375 3.5625 0 8 0C12.4062 0 16 3.59375 16 8C16 12.4375 12.4062 16 8 16C3.5625 16 0 12.4375 0 8ZM8.625 4.1875C8.625 3.8125 8.34375 3.5 7.96875 3.5C7.59375 3.5 7.28125 3.8125 7.28125 4.1875V4.6875C7.09375 4.75 6.90625 4.78125 6.75 4.875C6.1875 5.125 5.65625 5.5625 5.53125 6.25C5.375 6.96875 5.6875 7.625 6.3125 8C6.75 8.28125 7.34375 8.46875 7.8125 8.59375C7.875 8.625 7.9375 8.625 8.03125 8.65625C8.40625 8.75 8.78125 8.84375 9.09375 9.0625C9.46875 9.3125 9.28125 9.78125 8.90625 9.90625C8.65625 10.0312 8.21875 10.0938 7.6875 10C7.3125 9.9375 6.96875 9.8125 6.59375 9.6875C6.53125 9.6875 6.4375 9.65625 6.375 9.625C6.03125 9.5 5.625 9.6875 5.53125 10.0625C5.40625 10.4062 5.59375 10.7812 5.9375 10.9062C6.375 11.0625 6.84375 11.1875 7.28125 11.2812V11.8438C7.28125 12.2188 7.59375 12.5 7.96875 12.5C8.34375 12.5 8.625 12.2188 8.625 11.8438V11.375C8.90625 11.3438 9.1875 11.2812 9.4375 11.1562C10 10.9375 10.5 10.4688 10.625 9.78125C10.75 9.0625 10.4688 8.375 9.875 7.96875C9.40625 7.625 8.78125 7.46875 8.28125 7.3125C8.21875 7.3125 8.15625 7.28125 8.0625 7.25C7.71875 7.15625 7.34375 7.0625 7.03125 6.875C6.65625 6.625 6.9375 6.25 7.28125 6.09375C7.65625 5.9375 8.125 5.90625 8.5625 5.96875C8.78125 6.03125 9 6.09375 9.21875 6.15625C9.25 6.15625 9.3125 6.1875 9.34375 6.1875C9.71875 6.28125 10.0938 6.09375 10.1875 5.71875C10.2812 5.375 10.0625 5 9.71875 4.875C9.65625 4.875 9.59375 4.84375 9.53125 4.84375C9.25 4.75 8.9375 4.65625 8.625 4.625V4.1875Z" fill="url(#paint0_linear_161_821)"/>
<defs>
<linearGradient id="paint0_linear_161_821" x1="8" y1="0" x2="8" y2="16" gradientUnits="userSpaceOnUse">
<stop stop-color="#FFB321"/>
<stop offset="1" stop-color="#FFB321" stop-opacity="0.2"/>
</linearGradient>
</defs>
</svg>
