<svg width="20" height="21" viewBox="0 0 20 21" fill="none" xmlns="http://www.w3.org/2000/svg">
<path id="circle-question" d="M10 0.5C4.45312 0.5 0 4.99219 0 10.5C0 16.0469 4.45312 20.5 10 20.5C15.5078 20.5 20 16.0469 20 10.5C20 4.99219 15.5078 0.5 10 0.5ZM10 16.125C9.29688 16.125 8.75 15.5781 8.75 14.875C8.75 14.1719 9.25781 13.625 10 13.625C10.6641 13.625 11.25 14.1719 11.25 14.875C11.25 15.5781 10.6641 16.125 10 16.125ZM12.6953 10.5781L10.9375 11.6719V11.75C10.9375 12.2578 10.5078 12.6875 10 12.6875C9.49219 12.6875 9.0625 12.2578 9.0625 11.75V11.125C9.0625 10.8125 9.21875 10.5 9.53125 10.3047L11.7578 8.97656C12.0312 8.82031 12.1875 8.54688 12.1875 8.23438C12.1875 7.76562 11.7578 7.375 11.2891 7.375H9.29688C8.78906 7.375 8.4375 7.76562 8.4375 8.23438C8.4375 8.74219 8.00781 9.17188 7.5 9.17188C6.99219 9.17188 6.5625 8.74219 6.5625 8.23438C6.5625 6.71094 7.77344 5.5 9.25781 5.5H11.25C12.8516 5.5 14.0625 6.71094 14.0625 8.23438C14.0625 9.17188 13.5547 10.0703 12.6953 10.5781Z" fill="url(#paint0_linear_633_4)"/>
<defs>
<linearGradient id="paint0_linear_633_4" x1="10" y1="0" x2="10" y2="20" gradientUnits="userSpaceOnUse">
<stop stop-color="white"/>
<stop offset="0.674829" stop-color="white"/>
<stop offset="1" stop-color="white" stop-opacity="0.44"/>
</linearGradient>
</defs>
</svg>
