<svg width="17" height="18" viewBox="0 0 17 18" fill="none" xmlns="http://www.w3.org/2000/svg">
<path d="M8.5 0.125C3.78516 0.125 0 3.94336 0 8.625C0 13.3398 3.78516 17.125 8.5 17.125C13.1816 17.125 17 13.3398 17 8.625C17 3.94336 13.1816 0.125 8.5 0.125ZM12.7168 10.8164L12.3184 12.4766C12.2852 12.7422 12.0859 12.875 11.8203 12.875C7.63672 12.875 4.25 9.48828 4.25 5.30469C4.25 5.03906 4.41602 4.83984 4.64844 4.77344L6.30859 4.4082C6.54102 4.3418 6.80664 4.47461 6.90625 4.70703L7.66992 6.5C7.76953 6.73242 7.70312 6.96484 7.53711 7.09766L6.64062 7.82813C7.20508 8.99023 8.13477 9.91992 9.29687 10.4844L10.0273 9.58789C10.1602 9.42188 10.3926 9.35547 10.625 9.45508L12.418 10.2188C12.6504 10.3184 12.7832 10.584 12.7168 10.8164Z" fill="url(#paint0_linear_102_137)"/>
<defs>
<linearGradient id="paint0_linear_102_137" x1="8" y1="2.125" x2="7.9921" y2="17" gradientUnits="userSpaceOnUse">
<stop stop-color="white"/>
<stop offset="1" stop-color="white"/>
</linearGradient>
</defs>
</svg>
