<svg width="512" height="512" viewBox="0 0 512 512" fill="none" xmlns="http://www.w3.org/2000/svg">
<g clip-path="url(#clip0_4_6)">
<path d="M256 512C397.4 512 512 397.4 512 256C512 114.6 397.4 0 256 0C114.6 0 0 114.6 0 256C0 397.4 114.6 512 256 512ZM369 209L241 337C231.6 346.4 216.4 346.4 207.1 337L143.1 273C133.7 263.6 133.7 248.4 143.1 239.1C152.5 229.8 167.7 229.7 177 239.1L224 286.1L335 175C344.4 165.6 359.6 165.6 368.9 175C378.2 184.4 378.3 199.6 368.9 208.9L369 209Z" fill="#11CA6D"/>
</g>
<defs>
<clipPath id="clip0_4_6">
<rect width="512" height="512" fill="white"/>
</clipPath>
</defs>
</svg>
