<svg width="15" height="16" viewBox="0 0 15 16" fill="none" xmlns="http://www.w3.org/2000/svg">
<path d="M7.5 0.875C3.33984 0.875 0 4.24414 0 8.375C0 12.5352 3.33984 15.875 7.5 15.875C11.6309 15.875 15 12.5352 15 8.375C15 4.24414 11.6309 0.875 7.5 0.875ZM7.5 14.4688C4.13086 14.4688 1.40625 11.7441 1.40625 8.375C1.40625 5.03516 4.13086 2.28125 7.5 2.28125C10.8398 2.28125 13.5938 5.03516 13.5938 8.375C13.5938 11.7441 10.8398 14.4688 7.5 14.4688ZM7.5 9.78125C7.88086 9.78125 8.20312 9.48828 8.20312 9.07812V5.32812C8.20312 4.94727 7.88086 4.625 7.5 4.625C7.08984 4.625 6.79688 4.94727 6.79688 5.32812V9.07812C6.79688 9.48828 7.08984 9.78125 7.5 9.78125ZM7.5 10.7773C6.97266 10.7773 6.5625 11.1875 6.5625 11.6855C6.5625 12.1836 6.97266 12.5938 7.5 12.5938C7.99805 12.5938 8.4082 12.1836 8.4082 11.6855C8.4082 11.1875 7.99805 10.7773 7.5 10.7773Z" fill="white"/>
</svg>
