<svg width="11" height="12" viewBox="0 0 11 12" fill="none" xmlns="http://www.w3.org/2000/svg">
<path d="M5.5 0.375C2.44922 0.375 0 2.8457 0 5.875C0 8.92578 2.44922 11.375 5.5 11.375C8.5293 11.375 11 8.92578 11 5.875C11 2.8457 8.5293 0.375 5.5 0.375ZM5.5 10.3438C3.0293 10.3438 1.03125 8.3457 1.03125 5.875C1.03125 3.42578 3.0293 1.40625 5.5 1.40625C7.94922 1.40625 9.96875 3.42578 9.96875 5.875C9.96875 8.3457 7.94922 10.3438 5.5 10.3438ZM5.5 6.90625C5.7793 6.90625 6.01562 6.69141 6.01562 6.39062V3.64062C6.01562 3.36133 5.7793 3.125 5.5 3.125C5.19922 3.125 4.98438 3.36133 4.98438 3.64062V6.39062C4.98438 6.69141 5.19922 6.90625 5.5 6.90625ZM5.5 7.63672C5.11328 7.63672 4.8125 7.9375 4.8125 8.30273C4.8125 8.66797 5.11328 8.96875 5.5 8.96875C5.86523 8.96875 6.16602 8.66797 6.16602 8.30273C6.16602 7.9375 5.86523 7.63672 5.5 7.63672Z" fill="#6C6C6C"/>
</svg>
