<svg width="17" height="17" viewBox="0 0 17 17" fill="none" xmlns="http://www.w3.org/2000/svg">
<path d="M15.6094 14.4355C16.0488 14.9238 16.0488 15.6562 15.6094 16.0957C15.1211 16.584 14.3887 16.584 13.9492 16.0957L8.1875 10.2852L2.37695 16.0957C1.88867 16.584 1.15625 16.584 0.716797 16.0957C0.228516 15.6562 0.228516 14.9238 0.716797 14.4355L6.52734 8.625L0.716797 2.81445C0.228516 2.32617 0.228516 1.59375 0.716797 1.1543C1.15625 0.666016 1.88867 0.666016 2.32812 1.1543L8.1875 7.01367L13.998 1.20312C14.4375 0.714844 15.1699 0.714844 15.6094 1.20312C16.0977 1.64258 16.0977 2.375 15.6094 2.86328L9.79883 8.625L15.6094 14.4355Z" fill="white"/>
</svg>
