<svg width="23" height="23" viewBox="0 0 23 23" fill="none" xmlns="http://www.w3.org/2000/svg">
<path d="M21.4688 19.1523C22.0664 19.8164 22.0664 20.8125 21.4688 21.4102C20.8047 22.0742 19.8086 22.0742 19.2109 21.4102L11.375 13.5078L3.47266 21.4102C2.80859 22.0742 1.8125 22.0742 1.21484 21.4102C0.550781 20.8125 0.550781 19.8164 1.21484 19.1523L9.11719 11.25L1.21484 3.34766C0.550781 2.68359 0.550781 1.6875 1.21484 1.08984C1.8125 0.425781 2.80859 0.425781 3.40625 1.08984L11.375 9.05859L19.2773 1.15625C19.875 0.492188 20.8711 0.492188 21.4688 1.15625C22.1328 1.75391 22.1328 2.75 21.4688 3.41406L13.5664 11.25L21.4688 19.1523Z" fill="url(#paint0_linear_647_2)"/>
<defs>
<linearGradient id="paint0_linear_647_2" x1="11" y1="-6" x2="11" y2="28" gradientUnits="userSpaceOnUse">
<stop stop-color="#FF1A1A"/>
<stop offset="0.674829" stop-color="#FF6363"/>
<stop offset="1" stop-color="#FFA6A6" stop-opacity="0.44"/>
</linearGradient>
</defs>
</svg>
