<svg width="63" height="45" viewBox="0 0 63 45" fill="none" xmlns="http://www.w3.org/2000/svg">
<path d="M14.5625 44.125C6.75 44.125 0.5 37.875 0.5 30.0625C0.5 24.0078 4.40625 18.7344 9.875 16.8789C9.875 16.5859 9.875 16.293 9.875 16C9.875 7.40625 16.8086 0.375 25.5 0.375C31.2617 0.375 36.3398 3.59766 38.9766 8.28516C40.4414 7.21094 42.2969 6.625 44.25 6.625C49.4258 6.625 53.625 10.8242 53.625 16C53.625 17.2695 53.332 18.3438 52.9414 19.418C58.7031 20.5898 63 25.668 63 31.625C63 38.5586 57.3359 44.125 50.5 44.125H14.5625ZM23.2539 16.6836C22.7656 17.8555 23.4492 19.2227 24.6211 19.7109C25.8906 20.1016 27.2578 19.5156 27.6484 18.2461L27.7461 18.1484C27.8438 17.8555 28.1367 17.5625 28.4297 17.5625H34.0938C34.9727 17.5625 35.6562 18.2461 35.6562 19.125C35.6562 19.6133 35.3633 20.1016 34.875 20.3945L30.5781 22.8359C29.7969 23.2266 29.4062 24.0078 29.4062 24.8867V26.1562C29.4062 27.5234 30.3828 28.5 31.75 28.5C33.0195 28.5 33.9961 27.5234 33.9961 26.2539L37.2188 24.3984C39.0742 23.3242 40.3438 21.2734 40.3438 19.125C40.3438 15.707 37.5117 12.875 34.0938 12.875H28.4297C26.0859 12.875 24.0352 14.3398 23.2539 16.5859V16.6836ZM31.75 31.625C29.9922 31.625 28.625 33.0898 28.625 34.75C28.625 36.5078 29.9922 37.875 31.75 37.875C33.4102 37.875 34.875 36.5078 34.875 34.75C34.875 33.0898 33.4102 31.625 31.75 31.625Z" fill="url(#paint0_linear_640_2)" fill-opacity="0.64"/>
<defs>
<linearGradient id="paint0_linear_640_2" x1="31.5" y1="-3" x2="31.5" y2="47" gradientUnits="userSpaceOnUse">
<stop stop-color="white"/>
<stop offset="0.674829" stop-color="white"/>
<stop offset="1" stop-color="white" stop-opacity="0.44"/>
</linearGradient>
</defs>
</svg>
