<svg width="20" height="16" viewBox="0 0 20 16" fill="none" xmlns="http://www.w3.org/2000/svg">
<path d="M12.48 1C12.48 0.6875 12.24 0 11.52 0C11.1 0 10.71 0.3125 10.59 0.75L8.67 7.75L6.75 14.75C6.72 14.8438 6.69 14.9375 6.69 15C6.69 15.3438 6.96 16 7.68 16C8.07 16 8.46 15.7188 8.58 15.2812L12.42 1.28125C12.45 1.1875 12.48 1.09375 12.48 1ZM5.28 4.5C5.28 3.90625 4.83 3.5 4.32 3.5C4.05 3.5 3.81 3.59375 3.63 3.78125L0.27 7.28125C0.09 7.5 0 7.75 0 8C0 8.21875 0.09 8.53125 0.27 8.71875L3.63 12.2188C3.81 12.4062 4.05 12.5 4.32 12.5C4.83 12.5 5.28 12.0625 5.28 11.5C5.28 11.2188 5.16 10.9688 4.98 10.7812L2.31 8L4.98 5.1875C5.16 5.03125 5.28 4.78125 5.28 4.5ZM19.2 8C19.2 7.71875 19.08 7.46875 18.9 7.28125L15.54 3.78125C15.36 3.625 15.12 3.5 14.88 3.5C14.34 3.5 13.92 3.90625 13.92 4.5C13.92 4.75 14.01 5 14.19 5.1875L16.86 8L14.19 10.7812C14.01 11 13.92 11.25 13.92 11.5C13.92 12.0625 14.34 12.5 14.88 12.5C15.12 12.5 15.36 12.375 15.54 12.1875L18.9 8.6875C19.08 8.53125 19.2 8.28125 19.2 8Z" fill="url(#paint0_linear_703_3)"/>
<defs>
<linearGradient id="paint0_linear_703_3" x1="9.38667" y1="-0.222222" x2="9.38667" y2="15.7778" gradientUnits="userSpaceOnUse">
<stop stop-color="#0f8fce"/>
<stop offset="1" stop-color="#0f8fce9e" stop-opacity="0.28"/>
</linearGradient>
</defs>
</svg>
