<svg width="12" height="11" viewBox="0 0 12 11" fill="none" xmlns="http://www.w3.org/2000/svg">
<path d="M10.5 0.25H1.5C0.65625 0.25 0 0.929688 0 1.75V9.25C0 10.0938 0.65625 10.75 1.5 10.75H10.5C11.3203 10.75 12 10.0938 12 9.25V1.75C12 0.929688 11.3203 0.25 10.5 0.25ZM2.25 3.25C1.82812 3.25 1.5 2.92188 1.5 2.5C1.5 2.10156 1.82812 1.75 2.25 1.75C2.64844 1.75 3 2.10156 3 2.5C3 2.92188 2.64844 3.25 2.25 3.25ZM4.5 3.25C4.07812 3.25 3.75 2.92188 3.75 2.5C3.75 2.10156 4.07812 1.75 4.5 1.75C4.89844 1.75 5.25 2.10156 5.25 2.5C5.25 2.92188 4.89844 3.25 4.5 3.25ZM6.75 3.25C6.32812 3.25 6 2.92188 6 2.5C6 2.10156 6.32812 1.75 6.75 1.75C7.14844 1.75 7.5 2.10156 7.5 2.5C7.5 2.92188 7.14844 3.25 6.75 3.25Z" fill="url(#paint0_linear_632_2)"/>
<defs>
<linearGradient id="paint0_linear_632_2" x1="6" y1="-1" x2="6" y2="11" gradientUnits="userSpaceOnUse">
<stop stop-color="#0f8fce"/>
<stop offset="1" stop-color="var(--primary)" stop-opacity="0.38"/>
</linearGradient>
</defs>
</svg>
