<svg width="20" height="19" viewBox="0 0 20 19" fill="none" xmlns="http://www.w3.org/2000/svg">
<path d="M10 0.125C15.1562 0.125 19.375 4.34375 19.375 9.5C19.375 14.6953 15.1562 18.875 10 18.875C4.80469 18.875 0.625 14.6953 0.625 9.5C0.625 4.34375 4.80469 0.125 10 0.125ZM10 2C6.28906 2 3.20312 4.73438 2.57812 8.25H6.5625C7.03125 7.50781 7.8125 7 8.75 7H11.25C12.1484 7 12.9688 7.50781 13.3984 8.25H17.3828C16.7578 4.73438 13.6719 2 10 2ZM2.5 10.125C2.8125 13.6797 5.54688 16.5312 9.0625 16.9609V13.4062L6.25 10.125H2.5ZM10.9375 16.9609C14.4141 16.5312 17.1484 13.6797 17.4609 10.125H13.75L10.9375 13.4062V16.9609Z" fill="white"/>
</svg>
