<svg width="25" height="26" viewBox="0 0 25 26" fill="none" xmlns="http://www.w3.org/2000/svg">
<path d="M24.9512 8.42578C24.9512 10.5254 24.1211 12.625 22.5098 14.2363C20.8008 15.9941 18.7012 17.3125 15.5762 17.3125H11.4258L9.42383 19.2656C9.13086 19.5586 8.98438 19.9492 8.98438 20.3398C8.98438 21.0234 9.375 21.2676 9.375 22.1465C9.375 23.8066 8.00781 25.125 6.39648 25.125C5.66406 25.125 4.88281 24.832 4.29688 24.2461C3.75977 23.6602 3.51562 22.9766 3.51562 22.2441C3.51562 22 3.51562 21.7559 3.56445 21.5117C3.36914 21.5605 3.125 21.6094 2.88086 21.6094C0.78125 21.6094 0 19.8027 0 18.6797C0 18.0938 0.146484 17.5566 0.439453 17.0684C1.02539 16.1895 1.95312 15.75 2.92969 15.75C3.85742 15.75 4.05273 16.0918 4.73633 16.0918C5.12695 16.0918 5.51758 15.9453 5.81055 15.6523L7.8125 13.6504V9.5C7.8125 6.375 9.13086 4.27539 10.8887 2.51758C12.5 0.90625 14.5996 0.125 16.6992 0.125C18.8477 0.125 20.9473 0.90625 22.5586 2.51758C24.1699 4.17773 24.9512 6.27734 24.9512 8.42578Z" fill="url(#paint0_linear_36_140)"/>
<defs>
<linearGradient id="paint0_linear_36_140" x1="12.5" y1="0" x2="12.5" y2="25" gradientUnits="userSpaceOnUse">
<stop stop-color="white"/>
<stop offset="0.674829" stop-color="white"/>
<stop offset="1" stop-color="white" stop-opacity="0.44"/>
</linearGradient>
</defs>
</svg>
