<svg width="21" height="6" viewBox="0 0 21 6" fill="none" xmlns="http://www.w3.org/2000/svg">
<path d="M5.625 3C5.625 4.45313 4.40625 5.625 3 5.625C1.54687 5.625 0.375 4.45312 0.375 3C0.375 1.59375 1.54687 0.375 3 0.375C4.40625 0.375 5.625 1.59375 5.625 3ZM13.125 3C13.125 4.45313 11.9062 5.625 10.5 5.625C9.04687 5.625 7.875 4.45313 7.875 3C7.875 1.59375 9.04687 0.375 10.5 0.375C11.9062 0.375 13.125 1.59375 13.125 3ZM15.375 3C15.375 1.59375 16.5469 0.375 18 0.375C19.4062 0.375 20.625 1.59375 20.625 3C20.625 4.45313 19.4062 5.625 18 5.625C16.5469 5.625 15.375 4.45313 15.375 3Z" fill="white"/>
</svg>
