<svg width="17" height="14" viewBox="0 0 17 14" fill="none" xmlns="http://www.w3.org/2000/svg">
<path d="M3 14H5C5.53125 14 6 13.5625 6 13C6 12.4688 5.53125 12 5 12H3C2.4375 12 2 11.5625 2 11V3C2 2.46875 2.4375 2 3 2H5C5.53125 2 6 1.5625 6 1C6 0.46875 5.53125 0 5 0H3C1.3125 0 0 1.34375 0 3V11C0 12.6562 1.3125 14 3 14ZM15.75 6.46875L11.25 2.21875C11.0312 2 10.7188 1.96875 10.4375 2.0625C10.1562 2.1875 10 2.46875 10 2.75V5H6C5.4375 5 5 5.46875 5 6V8C5 8.5625 5.4375 9 6 9H10V11.25C10 11.5312 10.1562 11.8125 10.4375 11.9375C10.7188 12.0312 11.0312 12 11.25 11.7812L15.75 7.53125C16.0625 7.28125 16.0625 6.75 15.75 6.46875Z" fill="url(#paint0_linear_430_2)"/>
<defs>
<linearGradient id="paint0_linear_430_2" x1="8" y1="-1" x2="8" y2="15" gradientUnits="userSpaceOnUse">
<stop stop-color="#0f8fce"/>
<stop offset="1" stop-color="var(--primary)" stop-opacity="0.4"/>
</linearGradient>
</defs>
</svg>
