<svg width="18" height="14" viewBox="0 0 18 14" fill="none" xmlns="http://www.w3.org/2000/svg">
<path d="M17.875 6.46875C16.1875 2.625 12.8125 0 9 0C5.15625 0 1.78125 2.625 0.09375 6.46875C0.03125 6.625 0 6.84375 0 7C0 7.15625 0.03125 7.40625 0.09375 7.5625C1.78125 11.4062 5.15625 14 9 14C12.8125 14 16.1875 11.4062 17.875 7.5625C17.9375 7.40625 18 7.15625 18 7C18 6.84375 17.9375 6.625 17.875 6.46875ZM13.5 7C13.5 9.5 11.4688 11.5 9 11.5C6.5 11.5 4.5 9.5 4.5 7C4.5 4.53125 6.5 2.5 9 2.5C11.4688 2.5 13.5 4.53125 13.5 7ZM9 4C8.90625 4 8.8125 4.03125 8.71875 4.03125C8.875 4.3125 9 4.65625 9 5C9 6.125 8.09375 7 7 7C6.625 7 6.28125 6.90625 6 6.75C6 6.84375 6 6.9375 6 7C6 8.65625 7.34375 10 9 10C10.6562 10 12 8.6875 12 7.03125C12 5.375 10.625 4 9 4Z" fill="url(#paint0_linear_36_834)"/>
<defs>
<linearGradient id="paint0_linear_36_834" x1="8" y1="-1" x2="8" y2="15" gradientUnits="userSpaceOnUse">
<stop stop-color="white"/>
<stop offset="1" stop-color="white" stop-opacity="0.97"/>
</linearGradient>
</defs>
</svg>
