<svg width="18" height="19" viewBox="0 0 18 19" fill="none" xmlns="http://www.w3.org/2000/svg">
<path d="M9 0.25C4.00781 0.25 0 4.29297 0 9.25C0 14.2422 4.00781 18.25 9 18.25C13.957 18.25 18 14.2422 18 9.25C18 4.29297 13.957 0.25 9 0.25ZM9 14.3125C8.36719 14.3125 7.875 13.8203 7.875 13.1875C7.875 12.5547 8.33203 12.0625 9 12.0625C9.59766 12.0625 10.125 12.5547 10.125 13.1875C10.125 13.8203 9.59766 14.3125 9 14.3125ZM11.4258 9.32031L9.84375 10.3047V10.375C9.84375 10.832 9.45703 11.2188 9 11.2188C8.54297 11.2188 8.15625 10.832 8.15625 10.375V9.8125C8.15625 9.53125 8.29688 9.25 8.57812 9.07422L10.582 7.87891C10.8281 7.73828 10.9688 7.49219 10.9688 7.21094C10.9688 6.78906 10.582 6.4375 10.1602 6.4375H8.36719C7.91016 6.4375 7.59375 6.78906 7.59375 7.21094C7.59375 7.66797 7.20703 8.05469 6.75 8.05469C6.29297 8.05469 5.90625 7.66797 5.90625 7.21094C5.90625 5.83984 6.99609 4.75 8.33203 4.75H10.125C11.5664 4.75 12.6562 5.83984 12.6562 7.21094C12.6562 8.05469 12.1992 8.86328 11.4258 9.32031Z" fill="url(#paint0_linear_36_1334)"/>
<defs>
<linearGradient id="paint0_linear_36_1334" x1="9" y1="0" x2="9" y2="18" gradientUnits="userSpaceOnUse">
<stop stop-color="#0f8fce"/>
<stop offset="1" stop-color="#0f8fce9e" stop-opacity="0.28"/>
</linearGradient>
</defs>
</svg>
