<svg width="50" height="45" viewBox="0 0 50 45" fill="none" xmlns="http://www.w3.org/2000/svg">
<path d="M45.3125 6.625H26.5625L20.3125 0.375H4.6875C2.05078 0.375 0 2.52344 0 5.0625V39.4375C0 42.0742 2.05078 44.125 4.6875 44.125H45.3125C47.8516 44.125 50 42.0742 50 39.4375V11.3125C50 8.77344 47.8516 6.625 45.3125 6.625ZM32.8125 27.7188H27.3438V33.1875C27.2461 34.5547 26.2695 35.5312 25 35.5312C23.6328 35.5312 22.6562 34.5547 22.6562 33.2852V27.7188H17.0898C15.8203 27.7188 14.8438 26.7422 14.8438 25.375C14.8438 24.1055 15.8203 23.1289 17.0898 23.1289H22.5586V17.5625C22.6562 16.293 23.6328 15.2188 25 15.2188C26.2695 15.2188 27.2461 16.293 27.2461 17.5625V23.0312H32.7148C34.082 23.0312 35.1562 24.1055 35.1562 25.375C35.1562 26.7422 34.082 27.7188 32.8125 27.7188Z" fill="#55B5FF"/>
</svg>
