<svg width="16" height="14" viewBox="0 0 16 14" fill="none" xmlns="http://www.w3.org/2000/svg">
<path d="M14.5 2L8.5 2L6.5 0L1.5 0C0.65625 0 0 0.6875 0 1.5L0 12.5C0 13.3438 0.65625 14 1.5 14L14.5 14C15.3125 14 16 13.3438 16 12.5L16 3.5C16 2.6875 15.3125 2 14.5 2ZM3.96875 5C4.5 5 4.96875 5.46875 4.96875 6C4.96875 6.5625 4.5 7 3.96875 7C3.40625 7 2.96875 6.5625 2.96875 6C2.96875 5.46875 3.4375 5 3.96875 5ZM12.9375 11.75C12.8437 11.9063 12.6562 12 12.5 12L3.5 12C3.28125 12 3.125 11.9062 3.03125 11.75C2.96875 11.5625 2.96875 11.375 3.09375 11.2188L5.28125 8.21875C5.375 8.09375 5.5 8 5.65625 8C5.78125 8 5.96875 8.09375 6.0625 8.21875L6.78125 9.1875L8.71875 6.25C8.8125 6.09375 8.96875 6 9.15625 6C9.34375 6 9.46875 6.09375 9.5625 6.25L12.9062 11.25C13 11.375 13 11.5938 12.9375 11.75Z" fill="url(#paint0_linear_161_778)"/>
<defs>
<linearGradient id="paint0_linear_161_778" x1="8" y1="1" x2="7.99265" y2="14" gradientUnits="userSpaceOnUse">
<stop stop-color="#F7697F"/>
<stop offset="1" stop-color="#F7697F" stop-opacity="0.2"/>
</linearGradient>
</defs>
</svg>
