<svg width="20" height="14" viewBox="0 0 20 14" fill="none" xmlns="http://www.w3.org/2000/svg">
<path id="road" d="M18.9062 12L14.9688 1C14.75 0.40625 14.1875 0.03125 13.5625 0.03125H11V2.53125C11 2.78125 10.75 3.03125 10.5 3.03125H9.5C9.21875 3.03125 9 2.78125 9 2.53125V0.03125H6.40625C5.78125 0.03125 5.21875 0.40625 5 1L1.0625 12C0.71875 13 1.4375 14 2.5 14H9V11.5C9 11.25 9.21875 11 9.5 11H10.5C10.75 11 11 11.25 11 11.5V14H17.4688C18.5312 14 19.25 13 18.9062 12ZM11 8.5C11 8.78125 10.75 9 10.5 9H9.5C9.21875 9 9 8.78125 9 8.5V5.5C9 5.25 9.21875 5 9.5 5H10.5C10.75 5 11 5.25 11 5.5V8.5Z" fill="url(#paint0_linear_392_15)"/>
<defs>
<linearGradient id="paint0_linear_392_15" x1="10" y1="-1" x2="10" y2="15" gradientUnits="userSpaceOnUse">
<stop stop-color="#0f8fce"/>
<stop offset="1" stop-color="#0f8fce9e" stop-opacity="0.28"/>
</linearGradient>
</defs>
</svg>
