<svg width="20" height="21" viewBox="0 0 20 21" fill="none" xmlns="http://www.w3.org/2000/svg">
<path d="M11.875 1.75C12.8906 1.75 13.75 2.60938 13.75 3.625C13.75 3.97656 14.0234 4.25 14.375 4.25C14.6875 4.25 15 3.97656 15 3.625C15 1.90625 13.5938 0.5 11.875 0.5C11.5234 0.5 11.25 0.8125 11.25 1.125C11.25 1.47656 11.5234 1.75 11.875 1.75ZM3.125 16.75C2.07031 16.75 1.25 15.9297 1.25 14.875C1.25 14.5625 0.9375 14.25 0.625 14.25C0.273438 14.25 0 14.5625 0 14.875C0 16.6328 1.36719 18 3.125 18C3.4375 18 3.75 17.7266 3.75 17.375C3.75 17.0625 3.4375 16.75 3.125 16.75ZM18.4375 4.25C17.5391 4.25 16.875 4.95312 16.875 5.8125V8.97656L9.14062 1.28125C8.90625 1.04688 8.55469 0.890625 8.24219 0.890625C7.53906 0.890625 7.03125 1.47656 7.03125 2.14062C7.03125 2.45312 7.14844 2.76562 7.42188 3L12.2656 7.88281C12.3828 8 12.4609 8.15625 12.4609 8.3125C12.4609 8.66406 12.1484 8.89844 11.875 8.89844C11.7188 8.89844 11.5234 8.85938 11.4062 8.70312L5.58594 3.03906C5.35156 2.80469 5.03906 2.6875 4.72656 2.6875C4.0625 2.6875 3.51562 3.19531 3.51562 3.9375C3.51562 4.25 3.63281 4.5625 3.86719 4.79688L9.57031 10.5391C9.6875 10.6953 9.76562 10.8516 9.76562 11.0078C9.76562 11.3594 9.45312 11.5938 9.17969 11.5938C9.02344 11.5938 8.86719 11.5156 8.71094 11.3984L3.82812 6.59375C3.59375 6.32031 3.28125 6.20312 2.96875 6.20312C2.22656 6.20312 1.71875 6.78906 1.71875 7.41406C1.71875 7.72656 1.83594 8.07812 2.07031 8.3125L6.91406 13.1562C7.07031 13.3125 7.10938 13.4688 7.10938 13.625C7.10938 13.9375 6.83594 14.2109 6.52344 14.2109C6.36719 14.2109 6.21094 14.1328 6.09375 14.0156L2.96875 11.0078C2.69531 10.7344 2.38281 10.6172 2.07031 10.6172C1.40625 10.6172 0.820312 11.1641 0.820312 11.8672C0.820312 12.1797 0.9375 12.5312 1.17188 12.7656L6.91406 18.5078C8.28125 19.8359 10.0391 20.5 11.7969 20.5C13.5547 20.5 15.3125 19.8359 16.6406 18.5078L17.6953 17.4531C19.1797 16.0078 20 14.0156 20 11.9453V5.8125C20 4.95312 19.2969 4.25 18.4375 4.25Z" fill="url(#paint0_linear_24_113)"/>
<defs>
<linearGradient id="paint0_linear_24_113" x1="10" y1="0" x2="10" y2="20" gradientUnits="userSpaceOnUse">
<stop stop-color="white"/>
<stop offset="0.674829" stop-color="white"/>
<stop offset="1" stop-color="white" stop-opacity="0.44"/>
</linearGradient>
</defs>
</svg>
