<svg width="25" height="26" viewBox="0 0 25 26" fill="none" xmlns="http://www.w3.org/2000/svg">
<path d="M14.8438 1.6875C16.1133 1.6875 17.1875 2.76172 17.1875 4.03125C17.1875 4.4707 17.5293 4.8125 17.9688 4.8125C18.3594 4.8125 18.75 4.4707 18.75 4.03125C18.75 1.88281 16.9922 0.125 14.8438 0.125C14.4043 0.125 14.0625 0.515625 14.0625 0.90625C14.0625 1.3457 14.4043 1.6875 14.8438 1.6875ZM3.90625 20.4375C2.58789 20.4375 1.5625 19.4121 1.5625 18.0938C1.5625 17.7031 1.17188 17.3125 0.78125 17.3125C0.341797 17.3125 0 17.7031 0 18.0938C0 20.291 1.70898 22 3.90625 22C4.29688 22 4.6875 21.6582 4.6875 21.2188C4.6875 20.8281 4.29688 20.4375 3.90625 20.4375ZM23.0469 4.8125C21.9238 4.8125 21.0938 5.69141 21.0938 6.76562V10.7207L11.4258 1.10156C11.1328 0.808594 10.6934 0.613281 10.3027 0.613281C9.42383 0.613281 8.78906 1.3457 8.78906 2.17578C8.78906 2.56641 8.93555 2.95703 9.27734 3.25L15.332 9.35352C15.4785 9.5 15.5762 9.69531 15.5762 9.89062C15.5762 10.3301 15.1855 10.623 14.8438 10.623C14.6484 10.623 14.4043 10.5742 14.2578 10.3789L6.98242 3.29883C6.68945 3.00586 6.29883 2.85938 5.9082 2.85938C5.07812 2.85938 4.39453 3.49414 4.39453 4.42188C4.39453 4.8125 4.54102 5.20312 4.83398 5.49609L11.9629 12.6738C12.1094 12.8691 12.207 13.0645 12.207 13.2598C12.207 13.6992 11.8164 13.9922 11.4746 13.9922C11.2793 13.9922 11.084 13.8945 10.8887 13.748L4.78516 7.74219C4.49219 7.40039 4.10156 7.25391 3.71094 7.25391C2.7832 7.25391 2.14844 7.98633 2.14844 8.76758C2.14844 9.1582 2.29492 9.59766 2.58789 9.89062L8.64258 15.9453C8.83789 16.1406 8.88672 16.3359 8.88672 16.5312C8.88672 16.9219 8.54492 17.2637 8.1543 17.2637C7.95898 17.2637 7.76367 17.166 7.61719 17.0195L3.71094 13.2598C3.36914 12.918 2.97852 12.7715 2.58789 12.7715C1.75781 12.7715 1.02539 13.4551 1.02539 14.334C1.02539 14.7246 1.17188 15.1641 1.46484 15.457L8.64258 22.6348C10.3516 24.2949 12.5488 25.125 14.7461 25.125C16.9434 25.125 19.1406 24.2949 20.8008 22.6348L22.1191 21.3164C23.9746 19.5098 25 17.0195 25 14.4316V6.76562C25 5.69141 24.1211 4.8125 23.0469 4.8125Z" fill="url(#paint0_linear_36_1345)"/>
<defs>
<linearGradient id="paint0_linear_36_1345" x1="12.5" y1="0" x2="12.5" y2="25" gradientUnits="userSpaceOnUse">
<stop stop-color="#EE3F3F"/>
<stop offset="1" stop-color="#EE3F3F" stop-opacity="0.3"/>
</linearGradient>
</defs>
</svg>
