<svg width="12" height="13" viewBox="0 0 12 13" fill="none" xmlns="http://www.w3.org/2000/svg">
<path d="M4.47656 5.75C4.47656 5.35156 4.125 5 3.72656 5H3.375C2.53125 5 1.875 5.67969 1.875 6.52344V7.625C1.875 8.46875 2.53125 9.125 3.375 9.125H3.75C4.14844 9.125 4.5 8.79688 4.5 8.375L4.47656 5.75ZM6 0.5C2.625 0.5 0.09375 3.3125 0 6.5V7.4375C0 7.76562 0.234375 8 0.539062 8C0.820312 8 1.125 7.76562 1.125 7.4375V6.5C1.125 3.82812 3.30469 1.64844 6 1.64844C8.67188 1.64844 10.875 3.82812 10.875 6.5V9.875C10.875 10.4141 10.4531 10.8125 9.9375 10.8125H7.33594C7.14844 10.4844 6.77344 10.25 6.375 10.25H5.64844C5.10938 10.25 4.61719 10.625 4.5 11.1641C4.38281 11.8906 4.92188 12.5 5.60156 12.5H6.375C6.77344 12.5 7.14844 12.2891 7.33594 11.9375H9.9375C11.0625 11.9375 12 11.0234 12 9.875V6.5C11.8828 3.3125 9.35156 0.5 6 0.5ZM8.625 9.125C9.44531 9.125 10.125 8.46875 10.125 7.625V6.52344C10.125 5.67969 9.44531 5 8.625 5H8.25C7.82812 5 7.5 5.35156 7.5 5.77344V8.375C7.5 8.79688 7.82812 9.125 8.25 9.125H8.625Z" fill="url(#paint0_linear_1715_4)"/>
<defs>
<linearGradient id="paint0_linear_1715_4" x1="6" y1="-1.49012e-08" x2="6" y2="12" gradientUnits="userSpaceOnUse">
<stop stop-color="white"/>
<stop offset="1" stop-color="white" stop-opacity="0.83"/>
</linearGradient>
</defs>
</svg>
