<svg width="20" height="16" viewBox="0 0 20 16" fill="none" xmlns="http://www.w3.org/2000/svg">
<path d="M0 10L0 11.9688C2.1875 12 4 13.7812 4 16H6C6 12.6875 3.28125 10 0 10ZM0 13L0 16H3C3 14.3438 1.625 13 0 13ZM20 7C20 6.71875 19.875 6.4375 19.6562 6.25L18 4.71875V1.5C18 1.25 17.75 1 17.5 1L16.5 1C16.2188 1 16 1.25 16 1.5V2.84375L13.1875 0.25C13 0.0625 12.75 0 12.5 0C12.2812 0 12.0312 0.0625 11.8438 0.25L5.3125 6.28125C5.09375 6.46875 5 6.75 5 7C5 7.25 5.0625 7.375 5.09375 7.40625C5.375 7.59375 5.65625 7.8125 5.9375 8C5.96875 8 5.96875 8 5.96875 8L6.03125 8.0625C7.65625 9.3125 8.875 11 9.5 13H16.4687C17.2812 13 17.9687 12.3125 17.9687 11.5L17.9688 8H18.9688C19.5312 8 20 7.5625 20 7ZM13.9687 8.5C13.9687 8.75 13.7187 9 13.4687 9H11.4687C11.1875 9 10.9687 8.75 10.9687 8.5V6.5C10.9687 6.21875 11.1875 6 11.4687 6H13.4687C13.75 6 13.9687 6.21875 13.9687 6.5V8.5ZM0 7L0 8.96875C3.84375 8.96875 7 12.125 7 16H9C9 11.0313 4.96875 7 0 7Z" fill="url(#paint0_linear_85_103)"/>
<defs>
<linearGradient id="paint0_linear_85_103" x1="10" y1="0" x2="10" y2="16" gradientUnits="userSpaceOnUse">
<stop stop-color="#FF8200"/>
<stop offset="1" stop-color="#FFDBB5"/>
</linearGradient>
</defs>
</svg>
