<svg width="12" height="11" viewBox="0 0 12 11" fill="none" xmlns="http://www.w3.org/2000/svg">
<path d="M11.7789 5.02406L10.7142 4.1118V1.37502C10.7142 1.21636 10.5535 1.07754 10.3928 1.07754H9.12711C8.94634 1.07754 8.82582 1.2362 8.82582 1.37502V2.44593L6.67625 0.58175C6.55572 0.48259 6.41509 0.423096 6.25438 0.423096C6.13384 0.423096 5.97312 0.462759 5.8325 0.58175L0.629373 5.02406C0.187409 5.42069 0.468659 6.13463 1.07134 6.13463H1.71419V9.28791C1.71419 9.98201 2.27669 10.5373 2.97982 10.5373H9.38828C10.0914 10.5373 10.6539 9.96213 10.6539 9.28791L10.6941 6.13463H11.3169C11.6584 6.13463 11.9597 5.83716 11.9597 5.50002C11.9799 5.32153 11.9195 5.16288 11.7789 5.02406ZM7.49991 6.35278C7.49991 6.59076 7.29901 6.76925 7.05795 6.76925H5.35036C5.10929 6.76925 4.92848 6.59076 4.92848 6.35278V4.66708C4.92848 4.42911 5.10929 4.25062 5.35036 4.25062H7.05795C7.29901 4.25062 7.49991 4.42911 7.49991 4.66708V6.35278Z" fill="url(#paint0_linear_1715_12)"/>
<defs>
<linearGradient id="paint0_linear_1715_12" x1="5.99991" y1="1.87682e-05" x2="5.99991" y2="10.1539" gradientUnits="userSpaceOnUse">
<stop stop-color="white"/>
<stop offset="1" stop-color="white"/>
</linearGradient>
</defs>
</svg>
