<svg width="14" height="13" viewBox="0 0 14 13" fill="none" xmlns="http://www.w3.org/2000/svg">
<path d="M13.7422 5.9375L12.5 4.85938V1.625C12.5 1.4375 12.3125 1.27344 12.125 1.27344H10.6484C10.4375 1.27344 10.2969 1.46094 10.2969 1.625V2.89062L7.78906 0.6875C7.64844 0.570312 7.48438 0.5 7.29688 0.5C7.15625 0.5 6.96875 0.546875 6.80469 0.6875L0.734375 5.9375C0.21875 6.40625 0.546875 7.25 1.25 7.25H2V10.9766C2 11.7969 2.65625 12.4531 3.47656 12.4531H10.9531C11.7734 12.4531 12.4297 11.7734 12.4297 10.9766L12.4766 7.25H13.2031C13.6016 7.25 13.9531 6.89844 13.9531 6.5C13.9766 6.28906 13.9062 6.10156 13.7422 5.9375ZM8.75 7.50781C8.75 7.78906 8.51562 8 8.23438 8H6.24219C5.96094 8 5.75 7.78906 5.75 7.50781V5.51562C5.75 5.23438 5.96094 5.02344 6.24219 5.02344H8.23438C8.51562 5.02344 8.75 5.23438 8.75 5.51562V7.50781Z" fill="url(#paint0_linear_161_871)"/>
<defs>
<linearGradient id="paint0_linear_161_871" x1="7" y1="0" x2="7" y2="12" gradientUnits="userSpaceOnUse">
<stop stop-color="#0f8fce"/>
<stop offset="1" stop-color="#AEDCFF"/>
</linearGradient>
</defs>
</svg>
