<svg width="21" height="21" viewBox="0 0 21 21" fill="none" xmlns="http://www.w3.org/2000/svg">
<path d="M18.8333 0.75H2.16667C1.22917 0.75 0.5 1.73214 0.5 2.89286V3.60714H20.5V2.89286C20.5 1.73214 19.7361 0.75 18.8333 0.75ZM0.5 18.6071C0.5 19.8125 1.22917 20.75 2.16667 20.75H18.8333C19.7361 20.75 20.5 19.8125 20.5 18.6071V5.03571H0.5V18.6071ZM13.2778 7.89286H17.7222C18 7.89286 18.2778 8.25 18.2778 8.60714C18.2778 9.00893 18 9.32143 17.7222 9.32143H13.2778C12.9653 9.32143 12.7222 9.00893 12.7222 8.60714C12.7222 8.25 12.9653 7.89286 13.2778 7.89286ZM13.2778 10.75H17.7222C18 10.75 18.2778 11.1071 18.2778 11.4643C18.2778 11.8661 18 12.1786 17.7222 12.1786H13.2778C12.9653 12.1786 12.7222 11.8661 12.7222 11.4643C12.7222 11.1071 12.9653 10.75 13.2778 10.75ZM13.2778 13.6071H17.7222C18 13.6071 18.2778 13.9643 18.2778 14.3214C18.2778 14.7232 18 15.0357 17.7222 15.0357H13.2778C12.9653 15.0357 12.7222 14.7232 12.7222 14.3214C12.7222 13.9643 12.9653 13.6071 13.2778 13.6071ZM6.61111 7.89286C7.82639 7.89286 8.83333 9.1875 8.83333 10.75C8.83333 12.3571 7.82639 13.6071 6.61111 13.6071C5.36111 13.6071 4.38889 12.3571 4.38889 10.75C4.38889 9.1875 5.36111 7.89286 6.61111 7.89286ZM4.38889 15.0357H8.83333C9.73611 15.0357 10.5 16.0179 10.5 17.1786C10.5 17.5804 10.2222 17.8929 9.94444 17.8929H3.27778C2.96528 17.8929 2.72222 17.5804 2.72222 17.1786C2.72222 16.0179 3.45139 15.0357 4.38889 15.0357Z" fill="url(#paint0_linear_701_106)"/>
<defs>
<linearGradient id="paint0_linear_701_106" x1="10.5" y1="0.75" x2="10.5" y2="20.75" gradientUnits="userSpaceOnUse">
<stop stop-color="#0f8fce"/>
<stop offset="0.674829" stop-color="var(--primary)" stop-opacity="0.39"/>
<stop offset="1" stop-color="#0f8fce9e" stop-opacity="0.28"/>
</linearGradient>
</defs>
</svg>
