<svg width="18" height="19" viewBox="0 0 18 19" fill="none" xmlns="http://www.w3.org/2000/svg">
<path d="M16.875 11.5H13.5L12.375 13.75H5.625L4.5 11.5H1.125C0.492188 11.5 0 12.0273 0 12.625V16.5625C0 17.5117 0.738281 18.25 1.6875 18.25H16.3125C17.2266 18.25 18 17.5117 18 16.5625V12.625C18 12.0273 17.4727 11.5 16.875 11.5ZM6.39844 5.55859L7.875 4.11719V10.375C7.875 11.0078 8.36719 11.5 9 11.5C9.59766 11.5 10.125 11.0078 10.125 10.375V4.11719L11.5664 5.55859C11.7773 5.76953 12.0586 5.875 12.375 5.875C12.6562 5.875 12.9375 5.76953 13.1484 5.55859C13.6055 5.13672 13.6055 4.39844 13.1484 3.97656L9.77344 0.601562C9.35156 0.144531 8.61328 0.144531 8.19141 0.601562L4.81641 3.97656C4.35938 4.39844 4.35938 5.13672 4.81641 5.55859C5.23828 6.01562 5.97656 6.01562 6.39844 5.55859Z" fill="url(#paint0_linear_256_5)"/>
<defs>
<linearGradient id="paint0_linear_256_5" x1="9" y1="0" x2="9" y2="18" gradientUnits="userSpaceOnUse">
<stop stop-color="#B01C08"/>
<stop offset="1" stop-color="#B01C08" stop-opacity="0.28"/>
</linearGradient>
</defs>
</svg>
