<svg width="20" height="21" viewBox="0 0 20 21" fill="none" xmlns="http://www.w3.org/2000/svg">
<path id="info-circle" d="M10 0.5C4.45312 0.5 0 4.99219 0 10.5C0 16.0469 4.45312 20.5 10 20.5C15.5078 20.5 20 16.0469 20 10.5C20 4.99219 15.5078 0.5 10 0.5ZM10 5.5C10.6641 5.5 11.25 6.08594 11.25 6.75C11.25 7.45312 10.6641 8 10 8C9.29688 8 8.75 7.45312 8.75 6.75C8.75 6.08594 9.29688 5.5 10 5.5ZM11.5625 15.5H8.4375C7.89062 15.5 7.5 15.1094 7.5 14.5625C7.5 14.0547 7.89062 13.625 8.4375 13.625H9.0625V11.125H8.75C8.20312 11.125 7.8125 10.7344 7.8125 10.1875C7.8125 9.67969 8.20312 9.25 8.75 9.25H10C10.5078 9.25 10.9375 9.67969 10.9375 10.1875V13.625H11.5625C12.0703 13.625 12.5 14.0547 12.5 14.5625C12.5 15.1094 12.0703 15.5 11.5625 15.5Z" fill="url(#paint0_linear_634_7)"/>
<defs>
<linearGradient id="paint0_linear_634_7" x1="10" y1="0" x2="10" y2="20" gradientUnits="userSpaceOnUse">
<stop stop-color="white"/>
<stop offset="0.674829" stop-color="white"/>
<stop offset="1" stop-color="white" stop-opacity="0.44"/>
</linearGradient>
</defs>
</svg>
