<svg id="Layer_1" data-name="Layer 1" xmlns="http://www.w3.org/2000/svg" viewBox="0 0 800 800"><defs><style>.cls-1{fill:#fafafa;}</style></defs><path class="cls-1" d="M681.11,242.32V598.54a31.4,31.4,0,0,1-31.4,31.4H603.89V355a31.4,31.4,0,0,0-31.4-31.4h-345a31.4,31.4,0,0,0-31.4,31.4v275H150.29a31.4,31.4,0,0,1-31.4-31.4V242.32a31.4,31.4,0,0,1,17.42-28.11L386,90a31.43,31.43,0,0,1,28,0l249.7,124.21A31.4,31.4,0,0,1,681.11,242.32Z"/><path class="cls-1" d="M458,424.89v84.26a4.85,4.85,0,0,1-4.85,4.85H349.45a4.85,4.85,0,0,1-4.85-4.85V424.89a4.85,4.85,0,0,1,4.85-4.85h35.38a18.64,18.64,0,1,0,32.9,0h35.38A4.85,4.85,0,0,1,458,424.89Z"/><path class="cls-1" d="M386,540.83v84.26a4.85,4.85,0,0,1-4.85,4.85H277.45a4.85,4.85,0,0,1-4.85-4.85V540.83a4.85,4.85,0,0,1,4.85-4.85h35.38a18.64,18.64,0,1,0,32.9,0h35.38A4.85,4.85,0,0,1,386,540.83Z"/><path class="cls-1" d="M527.4,540.83v84.26a4.85,4.85,0,0,1-4.85,4.85H418.89a4.85,4.85,0,0,1-4.85-4.85V540.83a4.85,4.85,0,0,1,4.85-4.85h35.38a18.64,18.64,0,1,0,32.9,0h35.38A4.85,4.85,0,0,1,527.4,540.83Z"/></svg>