<svg width="14" height="19" viewBox="0 0 14 19" fill="none" xmlns="http://www.w3.org/2000/svg">
<path d="M12.3125 2.5H10.4141C9.92188 1.19922 8.69141 0.25 7.25 0.25C5.77344 0.25 4.54297 1.19922 4.05078 2.5H2.1875C1.23828 2.5 0.5 3.27344 0.5 4.1875V16.5625C0.5 17.5117 1.23828 18.25 2.1875 18.25H12.3125C13.2266 18.25 14 17.5117 14 16.5625V4.1875C14 3.27344 13.2266 2.5 12.3125 2.5ZM3.875 14.0312C3.38281 14.0312 3.03125 13.6797 3.03125 13.1875C3.03125 12.7305 3.38281 12.3438 3.875 12.3438C4.33203 12.3438 4.71875 12.7305 4.71875 13.1875C4.71875 13.6797 4.33203 14.0312 3.875 14.0312ZM3.875 10.6562C3.38281 10.6562 3.03125 10.3047 3.03125 9.8125C3.03125 9.35547 3.38281 8.96875 3.875 8.96875C4.33203 8.96875 4.71875 9.35547 4.71875 9.8125C4.71875 10.3047 4.33203 10.6562 3.875 10.6562ZM7.25 2.5C7.84766 2.5 8.375 3.02734 8.375 3.625C8.375 4.25781 7.84766 4.75 7.25 4.75C6.61719 4.75 6.125 4.25781 6.125 3.625C6.125 3.02734 6.61719 2.5 7.25 2.5ZM11.1875 13.75H6.6875C6.37109 13.75 6.125 13.5039 6.125 13.1875C6.125 12.9062 6.37109 12.625 6.6875 12.625H11.1875C11.4688 12.625 11.75 12.9062 11.75 13.1875C11.75 13.5039 11.4688 13.75 11.1875 13.75ZM11.1875 10.375H6.6875C6.37109 10.375 6.125 10.1289 6.125 9.8125C6.125 9.53125 6.37109 9.25 6.6875 9.25H11.1875C11.4688 9.25 11.75 9.53125 11.75 9.8125C11.75 10.1289 11.4688 10.375 11.1875 10.375Z" fill="url(#paint0_linear_36_1393)"/>
<defs>
<linearGradient id="paint0_linear_36_1393" x1="7" y1="0" x2="7" y2="18" gradientUnits="userSpaceOnUse">
<stop stop-color="#0f8fce"/>
<stop offset="1" stop-color="#0f8fce9e" stop-opacity="0.28"/>
</linearGradient>
</defs>
</svg>
