<svg width="20" height="17" viewBox="0 0 20 17" fill="none" xmlns="http://www.w3.org/2000/svg">
<path d="M1.875 12.875C0.820312 12.875 0 13.7344 0 14.75C0 15.8047 0.820312 16.625 1.875 16.625C2.89062 16.625 3.75 15.8047 3.75 14.75C3.75 13.7344 2.89062 12.875 1.875 12.875ZM6.60156 4.125C6.83594 4.35938 7.10938 4.4375 7.38281 4.4375H16.4062C16.9922 4.4375 17.5 3.96875 17.5 3.34375V1.15625C17.5 0.570312 16.9922 0.0625 16.4062 0.0625H7.38281C7.10938 0.0625 6.83594 0.179688 6.64062 0.414062L5.15625 1.89844C4.92188 2.09375 4.92188 2.44531 5.15625 2.64062L6.60156 4.125ZM1.875 6.625C0.820312 6.625 0 7.48438 0 8.5C0 9.55469 0.820312 10.375 1.875 10.375C2.89062 10.375 3.75 9.55469 3.75 8.5C3.75 7.48438 2.89062 6.625 1.875 6.625ZM1.875 0.375C0.820312 0.375 0 1.23438 0 2.25C0 3.30469 0.820312 4.125 1.875 4.125C2.89062 4.125 3.75 3.30469 3.75 2.25C3.75 1.23438 2.89062 0.375 1.875 0.375ZM18.9062 6.3125H7.38281C7.10938 6.3125 6.83594 6.42969 6.64062 6.66406L5.15625 8.14844C4.92188 8.34375 4.92188 8.69531 5.15625 8.89062L6.64062 10.375C6.83594 10.6094 7.10938 10.6875 7.38281 10.6875H18.9062C19.4922 10.6875 20 10.2188 20 9.59375V7.40625C20 6.82031 19.4922 6.3125 18.9062 6.3125ZM16.4062 12.5625H7.38281C7.10938 12.5625 6.83594 12.6797 6.64062 12.9141L5.15625 14.3984C4.92188 14.5938 4.92188 14.9453 5.15625 15.1406L6.64062 16.625C6.83594 16.8594 7.10938 16.9375 7.38281 16.9375H16.4062C16.9922 16.9375 17.5 16.4688 17.5 15.8438V13.6562C17.5 13.0703 16.9922 12.5625 16.4062 12.5625Z" fill="url(#paint0_linear_161_729)"/>
<defs>
<linearGradient id="paint0_linear_161_729" x1="10" y1="-2" x2="10" y2="18" gradientUnits="userSpaceOnUse">
<stop stop-color="#ABABAB"/>
<stop offset="0.674829" stop-color="#ABABAB"/>
<stop offset="1" stop-color="#ABABAB" stop-opacity="0.44"/>
</linearGradient>
</defs>
</svg>
