<svg width="12" height="17" viewBox="0 0 12 17" fill="none" xmlns="http://www.w3.org/2000/svg">
<path d="M5.25 15.625C3.625 13.5938 0 8.75 0 6C0 2.6875 2.65625 0 6 0C9.3125 0 12 2.6875 12 6C12 8.75 8.34375 13.5938 6.71875 15.625C6.34375 16.0938 5.625 16.0938 5.25 15.625ZM6 8C7.09375 8 8 7.125 8 6C8 4.90625 7.09375 4 6 4C4.875 4 4 4.90625 4 6C4 7.125 4.875 8 6 8Z" fill="url(#paint0_linear_161_817)"/>
<defs>
<linearGradient id="paint0_linear_161_817" x1="6" y1="0" x2="6" y2="16" gradientUnits="userSpaceOnUse">
<stop stop-color="#FF2121"/>
<stop offset="1" stop-color="#FF2121" stop-opacity="0.2"/>
</linearGradient>
</defs>
</svg>
