<svg width="18" height="17" viewBox="0 0 18 17" fill="none" xmlns="http://www.w3.org/2000/svg">
<path id="ship" d="M17.5625 14.0312C16.6562 13.9375 15.8438 13.5312 15.3438 12.9375C15.1562 12.6875 14.7812 12.75 14.5938 12.9688C13.375 14.3438 10.4688 14.3438 9.375 12.9375C9.28125 12.8125 9.125 12.7812 8.96875 12.75C8.84375 12.7812 8.6875 12.8125 8.59375 12.9375C7.5 14.3438 4.59375 14.375 3.375 12.9688C3.1875 12.75 2.8125 12.6875 2.625 12.9375C2.125 13.5312 1.3125 13.9375 0.40625 14.0312C0.15625 14.0625 0 14.2812 0 14.5V15.5312C0 15.8125 0.21875 16.0312 0.5 16C1.40625 15.9375 2.25 15.6562 3 15.2188C4.75 16.2812 7.28125 16.2812 9 15.2188C10.6875 16.2812 13.2188 16.2812 14.9688 15.2188C15.7188 15.6562 16.5625 15.9375 17.4688 16C17.75 16.0312 18 15.8125 18 15.5312V14.5C18 14.2812 17.8125 14.0625 17.5625 14.0312ZM4.15625 12.25C4.5625 12.6562 5.40625 13 5.96875 13.0312C6.65625 13.0312 7.4375 12.8438 7.8125 12.3438C8.09375 11.9688 8.53125 11.7812 9 11.7812C9.4375 11.7812 9.875 11.9688 10.1562 12.3438C10.5312 12.8438 11.3125 13 12 13C12.5625 13 13.4062 12.6562 13.8125 12.25L16.6875 9.46875C16.8438 9.3125 17 9 17 8.78125C17 8.375 16.6875 7.9375 16.2812 7.8125L15 7.40625V3.03125C15 2.46875 14.5312 2.03125 14 2.03125H12V0.78125C12 0.34375 11.6562 0 11.25 0H6.75C6.3125 0 6 0.34375 6 0.78125L5.96875 2.03125H4C3.4375 2.03125 3 2.46875 3 3.03125V7.40625L1.6875 7.8125C1.28125 7.9375 1 8.375 1 8.78125C1 9 1.125 9.3125 1.28125 9.46875L4.15625 12.25ZM5 4.03125H13V6.75L9.28125 5.5625C9.1875 5.53125 9.0625 5.53125 9 5.53125C8.90625 5.53125 8.78125 5.53125 8.6875 5.5625L5 6.75V4.03125Z" fill="url(#paint0_linear_392_7)"/>
<defs>
<linearGradient id="paint0_linear_392_7" x1="9" y1="0" x2="9" y2="16" gradientUnits="userSpaceOnUse">
<stop stop-color="#0f8fce"/>
<stop offset="1" stop-color="#0f8fce9e" stop-opacity="0.28"/>
</linearGradient>
</defs>
</svg>
