<svg xmlns="http://www.w3.org/2000/svg" viewBox="0 0 18 16.02"><defs><style>.cls-1{fill:#fff;}</style></defs><title>maritime-transportation-white</title><g id="Layer_2" data-name="Layer 2"><g id="Layer_1-2" data-name="Layer 1"><path id="ship" class="cls-1" d="M17.56,14a3.37,3.37,0,0,1-2.22-1.09.49.49,0,0,0-.75,0c-1.21,1.37-4.12,1.37-5.21,0A.61.61,0,0,0,9,12.75a.6.6,0,0,0-.38.19,3.76,3.76,0,0,1-5.21,0,.49.49,0,0,0-.75,0A3.37,3.37,0,0,1,.41,14,.47.47,0,0,0,0,14.5v1A.45.45,0,0,0,.5,16,5.65,5.65,0,0,0,3,15.22a6.06,6.06,0,0,0,6,0,6,6,0,0,0,6,0,5.65,5.65,0,0,0,2.5.78.48.48,0,0,0,.53-.47v-1A.5.5,0,0,0,17.56,14ZM4.16,12.25A3.22,3.22,0,0,0,6,13a2.32,2.32,0,0,0,1.84-.69A1.46,1.46,0,0,1,9,11.78a1.45,1.45,0,0,1,1.16.56A2.3,2.3,0,0,0,12,13a3,3,0,0,0,1.81-.75l2.88-2.78A1.21,1.21,0,0,0,17,8.78a1.08,1.08,0,0,0-.72-1L15,7.41V3a1,1,0,0,0-1-1H12V.78A.76.76,0,0,0,11.25,0H6.75A.74.74,0,0,0,6,.78L6,2H4A1,1,0,0,0,3,3V7.41l-1.31.4a1.05,1.05,0,0,0-.69,1,1.17,1.17,0,0,0,.28.69ZM5,4h8V6.75L9.28,5.56a1,1,0,0,0-.28,0,1.09,1.09,0,0,0-.31,0L5,6.75Z"/></g></g></svg>