<svg width="18" height="16" viewBox="0 0 18 16" fill="none" xmlns="http://www.w3.org/2000/svg">
<path d="M16.8281 3.10156C17.1211 2.80859 17.1211 2.33984 16.8281 2.04688L15.8906 1.10938C15.5977 0.816406 15.1289 0.816406 14.8359 1.10938L14.0449 1.90039L16.0371 3.89258L16.8281 3.10156ZM16.3887 4.85938L12.375 8.90234C12.1113 9.16602 11.7598 9.3125 11.3789 9.3125H7.6875C7.42383 9.3125 7.21875 9.10742 7.21875 8.84375C7.21875 8.60938 7.42383 8.375 7.6875 8.375H8.625V6.55859C8.625 6.20703 8.77148 5.82617 9.03516 5.5625L9.97266 4.625H1.59375C0.802734 4.625 0.1875 5.26953 0.1875 6.03125V14.4688C0.1875 15.2598 0.802734 15.875 1.59375 15.875H15.6562C16.418 15.875 17.0625 15.2598 17.0625 14.4688V6.03125C17.0625 5.5332 16.7695 5.12305 16.3887 4.85938ZM6.19336 11.5098C6.07617 12.0957 5.63672 12.5059 4.99219 12.6523V12.9453C4.99219 13.2969 4.72852 13.5312 4.37695 13.5312C4.05469 13.5312 3.82031 13.2969 3.82031 12.9453V12.623C3.55664 12.5938 3.29297 12.5059 3.05859 12.418L2.94141 12.3594C2.64844 12.2715 2.50195 11.9199 2.58984 11.627C2.70703 11.3047 3.0293 11.1582 3.35156 11.2754L3.46875 11.3047C3.70312 11.3926 3.9668 11.4805 4.17188 11.5098C4.55273 11.5684 4.99219 11.5391 5.05078 11.3047C5.08008 11.1582 5.08008 11.0703 4.23047 10.8359L4.05469 10.7773C3.55664 10.6309 2.35547 10.2793 2.58984 9.01953C2.67773 8.43359 3.14648 8.02344 3.82031 7.87695V7.55469C3.82031 7.23242 4.05469 6.96875 4.40625 6.96875C4.72852 6.96875 4.99219 7.23242 4.99219 7.55469V7.87695C5.13867 7.93555 5.31445 7.96484 5.51953 8.05273C5.8125 8.14062 5.98828 8.49219 5.87109 8.78516C5.7832 9.10742 5.43164 9.25391 5.13867 9.13672C4.96289 9.07812 4.78711 9.01953 4.61133 9.01953C4.23047 8.96094 3.79102 9.01953 3.73242 9.22461C3.73242 9.37109 3.70312 9.45898 4.40625 9.66406L4.55273 9.69336C5.19727 9.89844 6.42773 10.2207 6.19336 11.5098ZM14.7188 12.125H7.6875C7.42383 12.125 7.21875 11.9199 7.21875 11.6562C7.21875 11.4219 7.42383 11.1875 7.6875 11.1875H14.7188C14.9531 11.1875 15.1875 11.4219 15.1875 11.6562C15.1875 11.9199 14.9531 12.125 14.7188 12.125ZM9.5625 6.55859V8.375H11.3789C11.4961 8.375 11.6133 8.3457 11.7012 8.25781L15.3633 4.56641L13.3711 2.57422L9.67969 6.23633C9.5918 6.32422 9.5625 6.44141 9.5625 6.55859Z" fill="url(#paint0_linear_180_344)"/>
<defs>
<linearGradient id="paint0_linear_180_344" x1="8.5" y1="1" x2="8.5" y2="16" gradientUnits="userSpaceOnUse">
<stop stop-color="#B821FF"/>
<stop offset="1" stop-color="#E6B0FF"/>
</linearGradient>
</defs>
</svg>
