<svg width="23" height="26" viewBox="0 0 23 26" fill="none" xmlns="http://www.w3.org/2000/svg">
<path d="M20.1823 12.4543L15.9137 19.3677C13.8205 22.7579 9.21284 23.6775 5.90759 21.2236C3.04714 19.0902 2.44924 15.0025 4.33723 11.9446L6.67671 8.15555C6.96401 7.69022 7.48108 7.5963 7.91317 7.86308C8.31202 8.10934 8.50566 8.68798 8.23887 9.12007L5.87888 12.9424C4.52445 15.1361 5.0137 18.2845 7.12529 19.7718C9.52822 21.5309 12.7997 20.8422 14.3183 18.3827L18.4842 11.6354C19.3462 10.2394 19.0956 8.34024 17.7817 7.34538C16.2684 6.22739 14.2128 6.65683 13.2688 8.18576L9.00032 15.0992C8.61041 15.7307 8.86762 16.5781 9.59394 16.8889C10.1668 17.1507 10.8402 16.8779 11.1686 16.3461L14.9035 10.2969C15.1908 9.83153 15.7284 9.70437 16.1605 9.97115C16.5594 10.2174 16.7657 10.8498 16.4989 11.2819L12.8255 17.2314C11.9431 18.6606 10.1329 19.2875 8.67537 18.5253C6.97736 17.7064 6.46092 15.6431 7.40491 14.1141L11.5171 7.37962C12.892 5.1527 15.926 4.17962 18.2017 5.4011C20.8304 6.79456 21.6803 10.0279 20.1823 12.4543Z" fill="black"/>
</svg>
