<svg width="24" height="24" viewBox="0 0 24 24" fill="none" xmlns="http://www.w3.org/2000/svg">
<path d="M22.9551 18.2598L21.877 22.7969C21.7422 23.4707 21.2031 23.9199 20.5293 23.9199C9.20898 23.875 0 14.666 0 3.3457C0 2.67188 0.404297 2.13281 1.07812 1.99805L5.61523 0.919922C6.24414 0.785156 6.91797 1.14453 7.1875 1.72852L9.29883 6.625C9.52344 7.20898 9.38867 7.88281 8.89453 8.24219L6.46875 10.2188C7.99609 13.3184 10.5117 15.834 13.6562 17.3613L15.6328 14.9355C15.9922 14.4863 16.666 14.3066 17.25 14.5312L22.1465 16.6426C22.7305 16.957 23.0898 17.6309 22.9551 18.2598Z" fill="url(#paint0_linear_931_9)"/>
<defs>
<linearGradient id="paint0_linear_931_9" x1="11.5" y1="1" x2="11.5" y2="24" gradientUnits="userSpaceOnUse">
<stop stop-color="#0f8fce"/>
<stop offset="1" stop-color="var(--primary)" stop-opacity="0.2"/>
</linearGradient>
</defs>
</svg>
