<svg width="20" height="16" viewBox="0 0 20 16" fill="none" xmlns="http://www.w3.org/2000/svg">
<path d="M11 13.5C11 13.7812 10.75 14 10.5 14H5.5C5.21875 14 5 13.7812 5 13.5V4H1.5C0.65625 4 0 4.6875 0 5.5V14.5C0 15.3438 0.65625 16 1.5 16H14.5C15.3125 16 16 15.3438 16 14.5V12H11V13.5ZM3.25 13.7188C3.25 13.875 3.09375 14 2.96875 14H2.03125C1.875 14 1.75 13.875 1.75 13.7188V12.7812C1.75 12.6562 1.875 12.5 2.03125 12.5H2.96875C3.09375 12.5 3.25 12.6562 3.25 12.7812V13.7188ZM3.25 10.4688C3.25 10.625 3.09375 10.75 2.96875 10.75H2.03125C1.875 10.75 1.75 10.625 1.75 10.4688V9.53125C1.75 9.40625 1.875 9.25 2.03125 9.25H2.96875C3.09375 9.25 3.25 9.40625 3.25 9.53125V10.4688ZM3.25 7.21875C3.25 7.375 3.09375 7.5 2.96875 7.5H2.03125C1.875 7.5 1.75 7.375 1.75 7.21875V6.28125C1.75 6.125 1.875 6 2.03125 6H2.96875C3.09375 6 3.25 6.15625 3.25 6.28125V7.21875ZM12.75 12.7812C12.75 12.6562 12.875 12.5 13.0312 12.5H13.9688C14.0938 12.5 14.25 12.6562 14.25 12.7812V13.7188C14.25 13.875 14.0938 14 13.9688 14H13.0312C12.875 14 12.75 13.875 12.75 13.7188V12.7812ZM18.4688 0H7.46875C6.65625 0 5.96875 0.6875 5.96875 1.5V9.5C5.96875 10.3438 6.625 11 7.46875 11H18.4688C19.2812 11 19.9688 10.3438 19.9688 9.5V1.5C20 0.6875 19.3125 0 18.4688 0ZM9.46875 2C10 2 10.4688 2.46875 10.4688 3C10.4688 3.5625 10 4 9.46875 4C8.9375 4 8.46875 3.5625 8.46875 3C8.46875 2.46875 8.9375 2 9.46875 2ZM17.9375 8.75C17.8438 8.90625 17.6562 9 17.5 9H8.46875C8.28125 9 8.125 8.90625 8.03125 8.75C7.96875 8.5625 7.96875 8.375 8.09375 8.21875L10.2812 5.21875C10.375 5.09375 10.5 5 10.6562 5C10.8125 5 10.9688 5.09375 11.0625 5.21875L11.75 6.1875L13.7188 3.25C13.8125 3.09375 13.9688 3 14.1562 3C14.3125 3 14.4688 3.09375 14.5625 3.25L17.9062 8.25C18 8.375 18 8.59375 17.9375 8.75Z" fill="url(#paint0_linear_271_723)"/>
<defs>
<linearGradient id="paint0_linear_271_723" x1="10" y1="0" x2="10" y2="16" gradientUnits="userSpaceOnUse">
<stop stop-color="#21D7FF"/>
<stop offset="1" stop-color="#21D7FF" stop-opacity="0.2"/>
</linearGradient>
</defs>
</svg>
