<svg width="20" height="20" viewBox="0 0 20 20" fill="none" xmlns="http://www.w3.org/2000/svg">
<path d="M20 11.6262V14.1621C20 14.5913 19.5703 14.9034 19.1797 14.7863L12.5 12.8746V15.6056L14.7266 17.3222C14.8828 17.4393 15 17.5953 15 17.7904V19.351C15 19.7801 14.6094 20.0922 14.2188 19.9752L10 18.7268L5.74219 19.9752C5.35156 20.0532 5 19.7801 5 19.351V17.7904C5 17.5953 5.07812 17.4393 5.23438 17.3222L7.5 15.6056V12.8746L0.78125 14.7863C0.390625 14.9034 0 14.5913 0 14.1621V11.6262C0 11.4311 0.117188 11.158 0.3125 11.08L7.5 6.98352V3.78436C7.5 2.37986 8.59375 0 10 0C11.3672 0 12.5 2.37986 12.5 3.74535V6.98352L19.6484 11.08C19.8438 11.197 20 11.3921 20 11.6262Z" fill="url(#paint0_linear_701_109)"/>
<defs>
<linearGradient id="paint0_linear_701_109" x1="10" y1="0" x2="10" y2="19.9752" gradientUnits="userSpaceOnUse">
<stop stop-color="#0f8fce"/>
<stop offset="1" stop-color="#0f8fce9e" stop-opacity="0.28"/>
</linearGradient>
</defs>
</svg>
