<svg width="23" height="21" viewBox="0 0 23 21" fill="none" xmlns="http://www.w3.org/2000/svg">
<path id="plane" d="M10.1094 0.5C10.3047 0.5 10.5781 0.65625 10.6562 0.851562L14.7578 8H19.25C20.6172 8 23 9.13281 23 10.5C23 11.9062 20.6172 13 19.25 13H14.7578L10.6562 20.1875C10.5391 20.3828 10.3438 20.5 10.1094 20.5H7.57031C7.14062 20.5 6.82812 20.1094 6.94531 19.7188L8.85938 13H4.83594L3.11719 15.2656C3.03906 15.4219 2.88281 15.5 2.64844 15.5H1.08594C0.695312 15.5 0.382812 15.1484 0.5 14.7578L1.71094 10.5L0.5 6.28125C0.382812 5.89062 0.695312 5.5 1.08594 5.5H2.64844C2.88281 5.5 3.03906 5.61719 3.15625 5.77344L4.83594 8H8.85938L6.94531 1.32031C6.82812 0.929688 7.14062 0.5 7.57031 0.5H10.1094Z" fill="url(#paint0_linear_634_6)"/>
<defs>
<linearGradient id="paint0_linear_634_6" x1="11.5" y1="0" x2="11.5" y2="20" gradientUnits="userSpaceOnUse">
<stop stop-color="white"/>
<stop offset="0.674829" stop-color="white"/>
<stop offset="1" stop-color="white" stop-opacity="0.44"/>
</linearGradient>
</defs>
</svg>
