<svg width="20" height="21" viewBox="0 0 20 21" fill="none" xmlns="http://www.w3.org/2000/svg">
<path id="plane-up" d="M20 12.1406V14.6797C20 15.1094 19.5703 15.4219 19.1797 15.3047L12.5 13.3906V16.125L14.7266 17.8438C14.8828 17.9609 15 18.1172 15 18.3125V19.875C15 20.3047 14.6094 20.6172 14.2188 20.5L10 19.25L5.74219 20.5C5.35156 20.5781 5 20.3047 5 19.875V18.3125C5 18.1172 5.07812 17.9609 5.23438 17.8438L7.5 16.125V13.3906L0.78125 15.3047C0.390625 15.4219 0 15.1094 0 14.6797V12.1406C0 11.9453 0.117188 11.6719 0.3125 11.5938L7.5 7.49219V4.28906C7.5 2.88281 8.59375 0.5 10 0.5C11.3672 0.5 12.5 2.88281 12.5 4.25V7.49219L19.6484 11.5938C19.8438 11.7109 20 11.9062 20 12.1406Z" fill="url(#paint0_linear_634_6)"/>
<defs>
<linearGradient id="paint0_linear_634_6" x1="10" y1="0" x2="10" y2="20" gradientUnits="userSpaceOnUse">
<stop stop-color="white"/>
<stop offset="0.674829" stop-color="white"/>
<stop offset="1" stop-color="white" stop-opacity="0.44"/>
</linearGradient>
</defs>
</svg>
