<svg width="16" height="16" viewBox="0 0 16 16" fill="none" xmlns="http://www.w3.org/2000/svg">
<path d="M15 5.78125V1C15 0.75 14.7812 0 14 0C13.75 0 13.5312 0.09375 13.375 0.25L10.7188 2.375C9.375 3.4375 7.6875 4 6 4H2C0.875 4 0 4.90625 0 6V9C0 10.125 0.875 11 2 11H2.0625C1.71875 13.4375 3.15625 15.5 3.21875 15.5938C3.40625 15.8438 3.6875 16 4 16H6C6.375 16 6.75 15.7188 6.90625 15.2812C7.0625 14.8438 6.96875 14.3438 6.6875 14.0312C6.6875 14 5.4375 12.4688 5.78125 11H6C7.6875 11 9.375 11.5938 10.6875 12.6562L13.375 14.7812C13.5 14.9062 13.7812 15 14 15C14.75 15 15 14.3125 15 14V9.25C15.5938 8.875 16 8.25 16 7.5C16 6.78125 15.5938 6.125 15 5.78125ZM13 11.9375L11.9375 11.0938C10.25 9.75 8.15625 9 6 9V6C8.15625 6 10.25 5.28125 11.9375 3.9375L13 3.09375V11.9375Z" fill="white"/>
</svg>
