<svg width="14" height="14" viewBox="0 0 14 14" fill="none" xmlns="http://www.w3.org/2000/svg">
<path d="M5 0H1C0.4375 0 0 0.46875 0 1V5C0 5.5625 0.4375 6 1 6H5C5.53125 6 6 5.5625 6 5V1C6 0.46875 5.53125 0 5 0ZM4 4H2V2H4V4ZM5 8H1C0.4375 8 0 8.46875 0 9V13C0 13.5625 0.4375 14 1 14H5C5.53125 14 6 13.5625 6 13V9C6 8.46875 5.53125 8 5 8ZM4 12H2V10H4V12ZM13 0H9C8.4375 0 8 0.46875 8 1V5C8 5.5625 8.4375 6 9 6H13C13.5312 6 14 5.5625 14 5V1C14 0.46875 13.5312 0 13 0ZM12 4H10V2H12V4ZM11 14H12V13H11V14ZM13 9H11V8H8V14H10V11H11V12H14V8H13V9ZM13 14H14V13H13V14Z" fill="white"/>
</svg>
