<svg xmlns="http://www.w3.org/2000/svg" viewBox="0 0 14 16"><defs><style>.cls-1{fill:#fff;}</style></defs><title>railroad-transportation-white</title><g id="Layer_2" data-name="Layer 2"><g id="Layer_1-2" data-name="Layer 1"><path id="train-subway" class="cls-1" d="M11,0H3A3,3,0,0,0,0,3v8a3,3,0,0,0,2.66,3l-1.6,1.62a.24.24,0,0,0,.19.41H2.53a.53.53,0,0,0,.38-.12L4.75,14H9.22l1.84,1.88a.53.53,0,0,0,.38.12h1.31a.24.24,0,0,0,.16-.41L11.31,14A3,3,0,0,0,14,11V3A3,3,0,0,0,11,0ZM2,11a1,1,0,0,1,1-1,1,1,0,0,1,1,1,1,1,0,0,1-1,1A1,1,0,0,1,2,11ZM6.5,7a1,1,0,0,1-1,1H3A1,1,0,0,1,2,7V4A1,1,0,0,1,3,3H5.5a1,1,0,0,1,1,1ZM11,12a1,1,0,0,1-1-1,1,1,0,0,1,1-1,1,1,0,0,1,1,1A1,1,0,0,1,11,12Zm1-5a1,1,0,0,1-1,1H8.5a1,1,0,0,1-1-1V4a1,1,0,0,1,1-1H11a1,1,0,0,1,1,1Z"/></g></g></svg>