<svg width="14" height="16" viewBox="0 0 14 16" fill="none" xmlns="http://www.w3.org/2000/svg">
<path id="train-subway" d="M11 0H3C1.3125 0 0 1.34375 0 3V11C0 12.5625 1.15625 13.8125 2.65625 13.9688L1.0625 15.5938C0.90625 15.75 1 16 1.25 16H2.53125C2.6875 16 2.8125 15.9688 2.90625 15.875L4.75 14H9.21875L11.0625 15.875C11.1562 15.9688 11.2812 16 11.4375 16H12.75C12.9688 16 13.0625 15.75 12.9062 15.5938L11.3125 13.9688C12.8125 13.8125 14 12.5625 14 11V3C14 1.34375 12.6562 0 11 0ZM2 11C2 10.4688 2.4375 10 3 10C3.53125 10 4 10.4688 4 11C4 11.5625 3.53125 12 3 12C2.4375 12 2 11.5625 2 11ZM6.5 7C6.5 7.5625 6.03125 8 5.5 8H3C2.4375 8 2 7.5625 2 7V4C2 3.46875 2.4375 3 3 3H5.5C6.03125 3 6.5 3.46875 6.5 4V7ZM11 12C10.4375 12 10 11.5625 10 11C10 10.4688 10.4375 10 11 10C11.5312 10 12 10.4688 12 11C12 11.5625 11.5312 12 11 12ZM12 7C12 7.5625 11.5312 8 11 8H8.5C7.9375 8 7.5 7.5625 7.5 7V4C7.5 3.46875 7.9375 3 8.5 3H11C11.5312 3 12 3.46875 12 4V7Z" fill="url(#paint0_linear_392_17)"/>
<defs>
<linearGradient id="paint0_linear_392_17" x1="7" y1="0" x2="7" y2="16" gradientUnits="userSpaceOnUse">
<stop stop-color="#0f8fce"/>
<stop offset="1" stop-color="#0f8fce9e" stop-opacity="0.28"/>
</linearGradient>
</defs>
</svg>
