<svg width="24" height="19" viewBox="0 0 24 19" fill="none" xmlns="http://www.w3.org/2000/svg">
<path d="M22.8828 15.75L17.9609 2C17.6875 1.25781 16.9844 0.789062 16.2031 0.789062H13V3.91406C13 4.22656 12.6875 4.53906 12.375 4.53906H11.125C10.7734 4.53906 10.5 4.22656 10.5 3.91406V0.789062H7.25781C6.47656 0.789062 5.77344 1.25781 5.5 2L0.578125 15.75C0.148438 17 1.04688 18.25 2.375 18.25H10.5V15.125C10.5 14.8125 10.7734 14.5 11.125 14.5H12.375C12.6875 14.5 13 14.8125 13 15.125V18.25H21.0859C22.4141 18.25 23.3125 17 22.8828 15.75ZM13 11.375C13 11.7266 12.6875 12 12.375 12H11.125C10.7734 12 10.5 11.7266 10.5 11.375V7.625C10.5 7.3125 10.7734 7 11.125 7H12.375C12.6875 7 13 7.3125 13 7.625V11.375Z" fill="url(#paint0_linear_383_17)"/>
<defs>
<linearGradient id="paint0_linear_383_17" x1="11.5" y1="-1" x2="11.5" y2="19" gradientUnits="userSpaceOnUse">
<stop stop-color="white"/>
<stop offset="0.674829" stop-color="white"/>
<stop offset="1" stop-color="white" stop-opacity="0.44"/>
</linearGradient>
</defs>
</svg>
