<svg width="20" height="19" viewBox="0 0 20 19" fill="none" xmlns="http://www.w3.org/2000/svg">
<path id="rotate" d="M17.5391 1.0625L15.6641 2.97656C14.1406 1.60938 12.1484 0.75 10 0.75C6.28906 0.75 3.04688 3.13281 1.91406 6.64844C1.71875 7.3125 2.07031 8.01562 2.73438 8.21094C3.39844 8.40625 4.10156 8.05469 4.29688 7.39062C5.07812 4.92969 7.38281 3.25 10 3.25C11.4453 3.25 12.8516 3.83594 13.9062 4.73438L12.1484 6.45312C11.5234 7.11719 11.9531 8.25 12.8906 8.25H18.6328C19.0234 8.25 19.375 7.9375 19.375 7.50781V1.84375C19.375 0.867188 18.2031 0.398438 17.5391 1.0625ZM17.2266 10.8281C16.5625 10.6328 15.8594 10.9844 15.6641 11.6484C14.8828 14.1094 12.5781 15.75 10 15.75C8.51562 15.75 7.14844 15.2031 6.05469 14.3047L7.8125 12.5469C8.4375 11.9219 8.00781 10.7891 7.07031 10.75H1.32812C0.9375 10.7891 0.625 11.1016 0.625 11.5312V17.1953C0.625 18.1719 1.75781 18.6406 2.42188 17.9766L4.29688 16.0625C5.82031 17.4297 7.8125 18.25 9.96094 18.25C13.6328 18.25 16.875 15.9062 18.0078 12.3906C18.2422 11.7266 17.8906 11.0234 17.2266 10.8281Z" fill="url(#paint0_linear_625_3)"/>
<defs>
<linearGradient id="paint0_linear_625_3" x1="10" y1="-1" x2="10" y2="19" gradientUnits="userSpaceOnUse">
<stop stop-color="#0f8fce"/>
<stop offset="1" stop-color="#0f8fce9e" stop-opacity="0.28"/>
</linearGradient>
</defs>
</svg>
