<svg width="16" height="16" viewBox="0 0 16 16" fill="none" xmlns="http://www.w3.org/2000/svg">
<path d="M14.7656 14.6738L10.8398 10.748C11.6895 9.72266 12.1582 8.4043 12.1582 6.96875C12.1582 3.62891 9.4043 0.875 6.06445 0.875C2.69531 0.875 0 3.62891 0 6.96875C0 10.3379 2.72461 13.0625 6.06445 13.0625C7.4707 13.0625 8.78906 12.5938 9.84375 11.7441L13.7695 15.6699C13.916 15.8164 14.0918 15.875 14.2969 15.875C14.4727 15.875 14.6484 15.8164 14.7656 15.6699C15.0586 15.4062 15.0586 14.9668 14.7656 14.6738ZM1.40625 6.96875C1.40625 4.39062 3.48633 2.28125 6.09375 2.28125C8.67188 2.28125 10.7812 4.39062 10.7812 6.96875C10.7812 9.57617 8.67188 11.6562 6.09375 11.6562C3.48633 11.6562 1.40625 9.57617 1.40625 6.96875Z" fill="url(#paint0_linear_180_437)"/>
<defs>
<linearGradient id="paint0_linear_180_437" x1="7.5" y1="1" x2="7.5" y2="16" gradientUnits="userSpaceOnUse">
<stop stop-color="#0f8fce"/>
<stop offset="1" stop-color="#00B2FF" stop-opacity="0.1"/>
</linearGradient>
</defs>
</svg>
