<svg width="21" height="21" viewBox="0 0 21 21" fill="none" xmlns="http://www.w3.org/2000/svg">
<path d="M19.7639 18.0391C18.7569 17.9219 17.8542 17.4141 17.2986 16.6719C17.0903 16.3594 16.6736 16.4375 16.4653 16.7109C15.1111 18.4297 11.8819 18.4297 10.6667 16.6719C10.5625 16.5156 10.3889 16.4766 10.2153 16.4375C10.0764 16.4766 9.90278 16.5156 9.79861 16.6719C8.58333 18.4297 5.35417 18.4688 4 16.7109C3.79167 16.4375 3.375 16.3594 3.16667 16.6719C2.61111 17.4141 1.70833 17.9219 0.701389 18.0391C0.423611 18.0781 0.25 18.3516 0.25 18.625V19.9141C0.25 20.2656 0.493056 20.5391 0.805556 20.5C1.8125 20.4219 2.75 20.0703 3.58333 19.5234C5.52778 20.8516 8.34028 20.8516 10.25 19.5234C12.125 20.8516 14.9375 20.8516 16.8819 19.5234C17.7153 20.0703 18.6528 20.4219 19.6597 20.5C19.9722 20.5391 20.25 20.2656 20.25 19.9141V18.625C20.25 18.3516 20.0417 18.0781 19.7639 18.0391ZM4.86806 15.8125C5.31944 16.3203 6.25694 16.75 6.88194 16.7891C7.64583 16.7891 8.51389 16.5547 8.93056 15.9297C9.24306 15.4609 9.72917 15.2266 10.25 15.2266C10.7361 15.2266 11.2222 15.4609 11.5347 15.9297C11.9514 16.5547 12.8194 16.75 13.5833 16.75C14.2083 16.75 15.1458 16.3203 15.5972 15.8125L18.7917 12.3359C18.9653 12.1406 19.1389 11.75 19.1389 11.4766C19.1389 10.9688 18.7917 10.4219 18.3403 10.2656L16.9167 9.75781V4.28906C16.9167 3.58594 16.3958 3.03906 15.8056 3.03906H13.5833V1.47656C13.5833 0.929688 13.2014 0.5 12.75 0.5H7.75C7.26389 0.5 6.91667 0.929688 6.91667 1.47656L6.88194 3.03906H4.69444C4.06944 3.03906 3.58333 3.58594 3.58333 4.28906V9.75781L2.125 10.2656C1.67361 10.4219 1.36111 10.9688 1.36111 11.4766C1.36111 11.75 1.5 12.1406 1.67361 12.3359L4.86806 15.8125ZM5.80556 5.53906H14.6944V8.9375L10.5625 7.45312C10.4583 7.41406 10.3194 7.41406 10.25 7.41406C10.1458 7.41406 10.0069 7.41406 9.90278 7.45312L5.80556 8.9375V5.53906Z" fill="url(#paint0_linear_701_104)"/>
<defs>
<linearGradient id="paint0_linear_701_104" x1="10.25" y1="0.5" x2="10.25" y2="20.5195" gradientUnits="userSpaceOnUse">
<stop stop-color="#0f8fce"/>
<stop offset="0.674829" stop-color="var(--primary)" stop-opacity="0.39"/>
<stop offset="1" stop-color="#0f8fce9e" stop-opacity="0.28"/>
</linearGradient>
</defs>
</svg>
