<svg width="24" height="26" viewBox="0 0 24 26" fill="none" xmlns="http://www.w3.org/2000/svg">
<path d="M22.5605 22.2441L15.627 18.875L22.5605 15.5059C22.9512 15.3105 23.0977 14.8711 22.9023 14.4805L22.2188 13.0645C22.0234 12.6738 21.5352 12.5273 21.1445 12.7227L12.0625 17.166L2.93164 12.7227C2.54102 12.5273 2.05273 12.6738 1.85742 13.0645L1.17383 14.4805C0.978516 14.8711 1.125 15.3105 1.51562 15.5059L8.44922 18.875L1.51562 22.293C1.125 22.4883 0.978516 22.9277 1.17383 23.3184L1.85742 24.7344C2.05273 25.125 2.54102 25.2715 2.93164 25.0762L12.0625 20.6328L21.1445 25.0762C21.5352 25.2715 22.0234 25.125 22.2188 24.7344L22.9023 23.3184C23.0977 22.9277 22.9512 22.4395 22.5605 22.2441ZM8.40039 11.7461L8.15625 13.0156C8.00977 13.6016 8.40039 14.1875 8.9375 14.1875H15.0898C15.627 14.1875 16.0176 13.6016 15.8711 13.0156L15.627 11.7461C17.6289 10.623 18.9961 8.66992 18.9961 6.375C19.0938 2.95703 15.9199 0.125 12.0625 0.125C8.15625 0.125 4.98242 2.95703 4.98242 6.375C4.98242 8.66992 6.39844 10.623 8.40039 11.7461ZM14.7969 5.59375C15.627 5.59375 16.3594 6.32617 16.3594 7.15625C16.3594 8.03516 15.627 8.71875 14.7969 8.71875C13.918 8.71875 13.1855 8.03516 13.1855 7.15625C13.1855 6.32617 13.918 5.59375 14.7969 5.59375ZM9.2793 5.59375C10.1094 5.59375 10.8418 6.32617 10.8418 7.15625C10.8418 8.03516 10.1582 8.71875 9.2793 8.71875C8.35156 8.71875 7.7168 8.03516 7.7168 7.15625C7.7168 6.32617 8.44922 5.59375 9.2793 5.59375Z" fill="url(#paint0_linear_34_71)"/>
<defs>
<linearGradient id="paint0_linear_34_71" x1="12" y1="0" x2="12" y2="25" gradientUnits="userSpaceOnUse">
<stop stop-color="white"/>
<stop offset="0.674829" stop-color="white"/>
<stop offset="1" stop-color="white" stop-opacity="0.44"/>
</linearGradient>
</defs>
</svg>
