<svg width="15" height="15" viewBox="0 0 15 15" fill="none" xmlns="http://www.w3.org/2000/svg">
<path d="M14.2969 11.3594H7.35352C7.06055 10.4219 6.18164 9.71875 5.15625 9.71875C4.10156 9.71875 3.22266 10.4219 2.92969 11.3594H0.703125C0.292969 11.3594 0 11.6816 0 12.0625C0 12.4727 0.292969 12.7656 0.703125 12.7656H2.92969C3.22266 13.7324 4.10156 14.4062 5.15625 14.4062C6.18164 14.4062 7.06055 13.7324 7.35352 12.7656H14.2969C14.6777 12.7656 15 12.4727 15 12.0625C15 11.6816 14.6777 11.3594 14.2969 11.3594ZM5.15625 13C4.62891 13 4.21875 12.5898 4.21875 12.0625C4.21875 11.5645 4.62891 11.125 5.15625 11.125C5.6543 11.125 6.09375 11.5645 6.09375 12.0625C6.09375 12.5898 5.6543 13 5.15625 13ZM14.2969 6.67188H12.041C11.748 5.73438 10.8691 5.03125 9.84375 5.03125C8.78906 5.03125 7.91016 5.73438 7.61719 6.67188H0.703125C0.292969 6.67188 0 6.99414 0 7.375C0 7.78516 0.292969 8.07812 0.703125 8.07812H7.61719C7.91016 9.04492 8.78906 9.71875 9.84375 9.71875C10.8691 9.71875 11.748 9.04492 12.041 8.07812H14.2969C14.6777 8.07812 15 7.78516 15 7.375C15 6.99414 14.6777 6.67188 14.2969 6.67188ZM9.84375 8.3125C9.31641 8.3125 8.90625 7.90234 8.90625 7.375C8.90625 6.87695 9.31641 6.4375 9.84375 6.4375C10.3418 6.4375 10.7812 6.87695 10.7812 7.375C10.7812 7.90234 10.3418 8.3125 9.84375 8.3125ZM0.703125 3.39062H3.86719C4.16016 4.35742 5.03906 5.03125 6.09375 5.03125C7.11914 5.03125 7.99805 4.35742 8.29102 3.39062H14.2969C14.6777 3.39062 15 3.09766 15 2.6875C15 2.30664 14.6777 1.98438 14.2969 1.98438H8.29102C7.99805 1.04688 7.11914 0.34375 6.09375 0.34375C5.03906 0.34375 4.16016 1.04688 3.86719 1.98438H0.703125C0.292969 1.98438 0 2.30664 0 2.6875C0 3.09766 0.292969 3.39062 0.703125 3.39062ZM6.09375 1.75C6.5918 1.75 7.03125 2.18945 7.03125 2.6875C7.03125 3.21484 6.5918 3.625 6.09375 3.625C5.56641 3.625 5.15625 3.21484 5.15625 2.6875C5.15625 2.18945 5.56641 1.75 6.09375 1.75Z" fill="#0f8fce"/>
</svg>
