<svg width="13" height="14" viewBox="0 0 13 14" fill="none" xmlns="http://www.w3.org/2000/svg">
<path d="M12.0605 10.4004C11.9082 10.6543 11.6289 10.7812 11.3496 10.7812C11.2227 10.7812 11.0703 10.7559 10.9434 10.6797L10.3086 10.2988L10.4609 10.832C10.5371 11.1621 10.334 11.4922 10.0039 11.5684C9.95312 11.5938 9.90234 11.5938 9.85156 11.5938C9.59766 11.5938 9.34375 11.416 9.26758 11.1367L8.81055 9.43555L7.3125 8.54688V10.3496L8.53125 11.5938C8.75977 11.8223 8.75977 12.2031 8.53125 12.457C8.4043 12.5586 8.25195 12.6094 8.09961 12.6094C7.94727 12.6094 7.76953 12.5586 7.66797 12.4316L7.3125 12.0762V12.8125C7.3125 13.2695 6.93164 13.625 6.47461 13.625C6.04297 13.625 5.66211 13.2695 5.66211 12.8125V12.0762L5.30664 12.4316C5.07812 12.6855 4.69727 12.6855 4.44336 12.457C4.21484 12.2031 4.21484 11.8223 4.44336 11.5938L5.66211 10.3496V8.54688L4.13867 9.43555L3.68164 11.1367C3.60547 11.416 3.35156 11.5938 3.09766 11.5938C3.04688 11.5938 2.99609 11.5938 2.94531 11.5684C2.61523 11.4922 2.41211 11.1621 2.51367 10.832L2.64062 10.2988L2.00586 10.6797C1.9043 10.7559 1.75195 10.7812 1.625 10.7812C1.3457 10.7812 1.06641 10.6543 0.914062 10.4004C0.685547 9.99414 0.8125 9.51172 1.19336 9.2832L1.85352 8.90234L1.3457 8.75C1.01562 8.67383 0.837891 8.34375 0.914062 8.01367C1.01562 7.68359 1.3457 7.48047 1.67578 7.58203L3.35156 8.03906L4.875 7.125L3.35156 6.23633L1.67578 6.69336C1.59961 6.71875 1.54883 6.71875 1.49805 6.71875C1.24414 6.71875 0.990234 6.54102 0.914062 6.26172C0.837891 5.93164 1.01562 5.60156 1.3457 5.52539L1.85352 5.37305L1.19336 4.99219C0.8125 4.76367 0.685547 4.28125 0.914062 3.875C1.14258 3.49414 1.625 3.36719 2.03125 3.5957L2.66602 3.95117L2.51367 3.44336C2.4375 3.11328 2.64062 2.7832 2.94531 2.70703C3.27539 2.60547 3.60547 2.80859 3.70703 3.13867L4.16406 4.83984L5.66211 5.72852V3.92578L4.44336 2.68164C4.21484 2.45312 4.21484 2.07227 4.44336 1.81836C4.69727 1.58984 5.07812 1.58984 5.30664 1.84375L5.6875 2.19922L5.66211 1.4375C5.66211 1.00586 6.01758 0.625 6.47461 0.625C6.90625 0.625 7.28711 1.00586 7.28711 1.4375V2.19922L7.64258 1.84375C7.87109 1.58984 8.25195 1.58984 8.50586 1.81836C8.73438 2.07227 8.73438 2.45312 8.50586 2.68164L7.28711 3.92578L7.3125 5.72852L8.81055 4.83984L9.26758 3.13867C9.36914 2.80859 9.69922 2.60547 10.0039 2.70703C10.334 2.7832 10.5371 3.11328 10.4609 3.44336L10.3086 3.97656L10.9434 3.5957C11.3496 3.36719 11.832 3.49414 12.0605 3.875C12.2891 4.28125 12.1621 4.76367 11.7812 4.99219L11.1211 5.37305L11.6289 5.52539C11.959 5.60156 12.1367 5.93164 12.0605 6.26172C11.9844 6.54102 11.7305 6.71875 11.4766 6.71875C11.4258 6.71875 11.3496 6.71875 11.2988 6.69336L9.62305 6.23633L8.09961 7.125L9.62305 8.03906L11.2988 7.58203C11.6289 7.48047 11.959 7.68359 12.0605 8.01367C12.1367 8.34375 11.959 8.67383 11.6289 8.75L11.1211 8.90234L11.7812 9.2832C12.1621 9.51172 12.2891 9.99414 12.0605 10.4004Z" fill="url(#paint0_linear_709_5)"/>
<defs>
<linearGradient id="paint0_linear_709_5" x1="6.5" y1="1" x2="6.5" y2="14" gradientUnits="userSpaceOnUse">
<stop stop-color="white"/>
<stop offset="0.674829" stop-color="white"/>
<stop offset="1" stop-color="white" stop-opacity="0.44"/>
</linearGradient>
</defs>
</svg>
