<svg width="21" height="21" viewBox="0 0 21 21" fill="none" xmlns="http://www.w3.org/2000/svg">
<path d="M17.6429 0.75H3.35714C1.75 0.75 0.5 2.04464 0.5 3.60714V17.8929C0.5 19.5 1.75 20.75 3.35714 20.75H17.6429C19.2054 20.75 20.5 19.5 20.5 17.8929V3.60714C20.5 2.04464 19.2054 0.75 17.6429 0.75ZM14.3393 13.3839C14.1161 14.6339 13.0446 15.4821 11.5714 15.7054V16.4643C11.5714 17.0893 11.0804 17.5357 10.5 17.5357C9.96429 17.5357 9.47321 17.0893 9.47321 16.4643V15.6607C8.84821 15.5714 8.22321 15.3929 7.64286 15.1696L7.375 15.0804C6.79464 14.9018 6.48214 14.2768 6.70536 13.7411C6.88393 13.1607 7.46429 12.8482 8.04464 13.0714L8.3125 13.1607C8.84821 13.3393 9.47321 13.5179 9.91964 13.6071C11.1696 13.7857 12.1964 13.5179 12.2857 12.9821C12.375 12.5357 12.1964 12.3125 10.2321 11.8214L9.83036 11.6875C8.71429 11.4196 6.125 10.7054 6.61607 8.16071C6.83929 6.91071 7.91071 6.0625 9.42857 5.83929V5.03571C9.42857 4.45536 9.875 3.96429 10.4554 3.96429C10.9911 3.96429 11.5714 4.45536 11.5714 5.03571V5.83929C11.9286 5.92857 12.375 6.01786 12.9554 6.19643C13.4911 6.375 13.8036 7 13.625 7.58036C13.4464 8.11607 12.8661 8.42857 12.2857 8.25C11.7946 8.07143 11.3482 7.98214 11.0357 7.9375C9.83036 7.75893 8.80357 8.02679 8.71429 8.5625C8.66964 8.875 8.58036 9.14286 10.3661 9.63393L10.7679 9.72321C12.2857 10.125 14.8304 10.7946 14.3393 13.3839Z" fill="url(#paint0_linear_701_98)"/>
<defs>
<linearGradient id="paint0_linear_701_98" x1="10.5" y1="0.75" x2="10.5" y2="20.75" gradientUnits="userSpaceOnUse">
<stop stop-color="#0f8fce"/>
<stop offset="0.674829" stop-color="var(--primary)" stop-opacity="0.39"/>
<stop offset="1" stop-color="#0f8fce9e" stop-opacity="0.28"/>
</linearGradient>
</defs>
</svg>
