<svg width="26" height="26" viewBox="0 0 26 26" fill="none" xmlns="http://www.w3.org/2000/svg">
<path d="M13.6465 4.32422L16.0879 5.34961L17.0645 7.79102C17.1621 7.88867 17.2598 7.98633 17.3574 7.98633C17.5039 7.98633 17.6016 7.88867 17.6504 7.79102L18.6758 5.34961L21.1172 4.32422C21.2148 4.27539 21.2637 4.17773 21.2637 4.03125C21.2637 3.93359 21.2148 3.83594 21.1172 3.73828L18.6758 2.76172L17.6504 0.320312C17.6016 0.222656 17.5039 0.125 17.4062 0.125C17.2598 0.125 17.1621 0.222656 17.1133 0.320312L16.0879 2.76172L13.6465 3.78711C13.5488 3.83594 13.5 3.93359 13.5 4.08008C13.5 4.17773 13.5488 4.27539 13.6465 4.32422ZM18.7734 13.2109L13.6465 12.4297L11.3516 7.79102C10.9609 6.96094 9.74023 6.96094 9.34961 7.79102L7.05469 12.4297L1.92773 13.2109C1 13.3086 0.658203 14.4805 1.3418 15.1152L5.00391 18.7285L4.17383 23.8555C4.02734 24.7344 5.00391 25.4668 5.83398 25.0273L10.375 22.5859L14.9648 25.0273C15.3555 25.2227 15.7949 25.1738 16.1367 24.9297C16.4297 24.6855 16.6738 24.2461 16.5762 23.8555L15.6973 18.7285L19.4082 15.1152C20.043 14.4805 19.7012 13.3086 18.7734 13.2109ZM25.8535 10.8672L23.9004 10.0371L23.0703 8.13281C23.0215 8.03516 22.9727 7.98633 22.875 7.98633C22.7773 7.98633 22.6797 8.03516 22.6309 8.13281L21.8008 10.0371L19.8965 10.8672C19.7988 10.916 19.7012 11.0137 19.7012 11.1113C19.7012 11.209 19.7988 11.2578 19.8965 11.3066L21.8008 12.1367L22.6309 14.0898C22.6797 14.1387 22.7285 14.2363 22.8262 14.2363C22.9238 14.2363 23.0215 14.1387 23.0703 14.0898L23.9004 12.1367L25.8047 11.3066C25.9023 11.2578 26 11.1602 26 11.0625C26 10.9648 25.9023 10.916 25.8535 10.8672Z" fill="url(#paint0_linear_36_1347)"/>
<defs>
<linearGradient id="paint0_linear_36_1347" x1="13.5" y1="0" x2="13.5" y2="25" gradientUnits="userSpaceOnUse">
<stop stop-color="#EE3F3F"/>
<stop offset="1" stop-color="#EE3F3F" stop-opacity="0.3"/>
</linearGradient>
</defs>
</svg>
