<svg width="20" height="17" viewBox="0 0 20 17" fill="none" xmlns="http://www.w3.org/2000/svg">
<path d="M10 6C8.3125 6 7 7.34375 7 9H13C13 7.34375 11.6562 6 10 6ZM4.03125 9H6C6 6.8125 7.78125 5.03125 10 5.03125C12.1875 5.03125 14 6.8125 14 9H15.9375L17.9062 6.15625C18.0938 5.875 17.9375 5.5 17.5938 5.4375L14.1875 4.8125L13.5625 1.40625C13.5 1.0625 13.125 0.90625 12.8438 1.09375L10 3.0625L7.125 1.09375C6.8125 0.90625 6.4375 1.0625 6.375 1.40625L5.78125 4.8125L2.375 5.4375C2.03125 5.5 1.875 5.875 2.0625 6.15625L4.03125 9ZM2.71875 11.5H12.7188C13.125 11.5 13.4688 11.1875 13.4688 10.7812C13.4688 10.4062 13.125 10.0625 12.7188 10.0625H2.71875C2.3125 10 2 10.3438 2 10.75C2 11.1875 2.3125 11.5 2.71875 11.5ZM15 10.75C15 11.1875 15.3125 11.5 15.75 11.5H19.25C19.6562 11.5 20 11.1562 20 10.75C20 10.375 19.6562 10.0312 19.25 10.0312H15.75C15.3125 10 15 10.3438 15 10.75ZM6.25 15.5H2.71875C2.3125 15.5 2 15.8438 2 16.25C2 16.6875 2.3125 17 2.71875 17H6.21875C6.65625 17 7 16.6875 7 16.25C7 15.8438 6.65625 15.5 6.25 15.5ZM19.25 15.5H9.25C8.8125 15.5 8.5 15.8438 8.5 16.25C8.5 16.625 8.8125 17 9.25 17H19.25C19.6562 17 20 16.6875 20 16.2812C20 15.9062 19.6562 15.5 19.25 15.5ZM18 13.5C18 13.0938 17.6562 12.7812 17.25 12.7812H0.75C0.3125 12.75 0 13.0938 0 13.5C0 13.9375 0.3125 14.25 0.71875 14.25H17.2188C17.6562 14.25 18 13.9375 18 13.5Z" fill="url(#paint0_linear_360_12)"/>
<defs>
<linearGradient id="paint0_linear_360_12" x1="10" y1="1" x2="10" y2="17" gradientUnits="userSpaceOnUse">
<stop stop-color="#E78B00"/>
<stop offset="1" stop-color="#E78B00" stop-opacity="0.28"/>
</linearGradient>
</defs>
</svg>
