<svg width="17" height="17" viewBox="0 0 17 17" fill="none" xmlns="http://www.w3.org/2000/svg">
<path d="M8.76562 0.390625C4.2168 0.390625 0.53125 4.10938 0.53125 8.625C0.53125 13.1738 4.2168 16.8594 8.76562 16.8594C13.2812 16.8594 17 13.1738 17 8.625C17 4.10938 13.2812 0.390625 8.76562 0.390625ZM12.5508 6.00195C12.4512 7.29688 11.9199 10.4844 11.6211 11.9121C11.5215 12.543 11.2891 12.7422 11.0566 12.7754C10.5918 12.8086 10.2266 12.4434 9.76172 12.1445C9.03125 11.6797 8.63281 11.3809 7.93555 10.916C7.10547 10.3848 7.63672 10.0859 8.10156 9.62109C8.23437 9.48828 10.3262 7.5625 10.3594 7.39648C10.3926 7.36328 10.3926 7.29688 10.3262 7.23047C10.293 7.19727 10.2266 7.23047 10.1602 7.23047C10.0937 7.23047 8.93164 7.99414 6.70703 9.52148C6.375 9.75391 6.07617 9.85352 5.81055 9.85352C5.51172 9.85352 4.94727 9.6875 4.51562 9.55469C4.01758 9.38867 3.58594 9.28906 3.61914 9.02344C3.65234 8.85742 3.85156 8.72461 4.25 8.55859C6.64062 7.49609 8.23437 6.83203 9.03125 6.5C11.3223 5.53711 11.8203 5.37109 12.1191 5.37109C12.1855 5.37109 12.3516 5.37109 12.4512 5.4707C12.4844 5.50391 12.5508 5.60352 12.5508 5.66992C12.584 5.80273 12.584 5.90234 12.5508 6.00195Z" fill="url(#paint0_linear_102_139)"/>
<defs>
<linearGradient id="paint0_linear_102_139" x1="7.5" y1="2.125" x2="7.49251" y2="17" gradientUnits="userSpaceOnUse">
<stop stop-color="white"/>
<stop offset="1" stop-color="white"/>
</linearGradient>
</defs>
</svg>
