<svg width="63" height="38" viewBox="0 0 63 38" fill="none" xmlns="http://www.w3.org/2000/svg">
<path d="M56.75 0.5C60.168 0.5 63 3.33203 63 6.75V13C59.4844 13 56.75 15.832 56.75 19.25C56.75 22.7656 59.4844 25.5 63 25.5V31.75C63 35.2656 60.168 38 56.75 38H6.75C3.23438 38 0.5 35.2656 0.5 31.75V6.75C0.5 3.33203 3.23438 0.5 6.75 0.5H56.75ZM42.6875 8.3125C43.4688 8.3125 44.25 7.62891 44.25 6.75C44.25 5.96875 43.4688 5.1875 42.6875 5.1875C41.8086 5.1875 41.125 5.96875 41.125 6.75C41.125 7.62891 41.8086 8.3125 42.6875 8.3125ZM42.6875 14.5625C43.4688 14.5625 44.25 13.8789 44.25 13C44.25 12.2188 43.4688 11.4375 42.6875 11.4375C41.8086 11.4375 41.125 12.2188 41.125 13C41.125 13.8789 41.8086 14.5625 42.6875 14.5625ZM42.6875 17.6875C41.8086 17.6875 41.125 18.4688 41.125 19.25C41.125 20.1289 41.8086 20.8125 42.6875 20.8125C43.4688 20.8125 44.25 20.1289 44.25 19.25C44.25 18.4688 43.4688 17.6875 42.6875 17.6875ZM42.6875 27.0625C43.4688 27.0625 44.25 26.3789 44.25 25.5C44.25 24.7188 43.4688 23.9375 42.6875 23.9375C41.8086 23.9375 41.125 24.7188 41.125 25.5C41.125 26.3789 41.8086 27.0625 42.6875 27.0625ZM42.6875 30.1875C41.8086 30.1875 41.125 30.9688 41.125 31.75C41.125 32.6289 41.8086 33.3125 42.6875 33.3125C43.4688 33.3125 44.25 32.6289 44.25 31.75C44.25 30.9688 43.4688 30.1875 42.6875 30.1875ZM12.2188 16.125L10.2656 13.6836C9.97266 13.293 9.58203 13 9.09375 13H7.72656C7.23828 13 6.84766 13.4883 6.94531 13.9766L8.21484 18.957C8.21484 19.1523 8.21484 19.4453 8.21484 19.6406L6.94531 24.6211C6.84766 25.1094 7.23828 25.5 7.72656 25.5H9.09375C9.58203 25.5 9.97266 25.3047 10.2656 24.9141L12.2188 22.375H17.6875L14.8555 30.7734C14.6602 31.2617 15.0508 31.75 15.6367 31.75H18.6641C19.4453 31.75 20.2266 31.3594 20.6172 30.6758L25.5 22.375H29.9922C31.5547 22.375 33.1172 21.7891 34.1914 20.7148C34.9727 19.9336 34.9727 18.6641 34.1914 17.8828C33.1172 16.8086 31.5547 16.125 29.9922 16.125H25.5L20.6172 7.92188C20.2266 7.23828 19.4453 6.75 18.6641 6.75H15.6367C15.0508 6.75 14.6602 7.33594 14.8555 7.82422L17.6875 16.125H12.2188Z" fill="url(#paint0_linear_640_3)" fill-opacity="0.64"/>
<defs>
<linearGradient id="paint0_linear_640_3" x1="31.5" y1="-6" x2="31.5" y2="44" gradientUnits="userSpaceOnUse">
<stop stop-color="white"/>
<stop offset="0.674829" stop-color="white"/>
<stop offset="1" stop-color="white" stop-opacity="0.44"/>
</linearGradient>
</defs>
</svg>
