<svg width="20" height="21" viewBox="0 0 20 21" fill="none" xmlns="http://www.w3.org/2000/svg">
<path d="M7.89062 11.8672L5.46875 12.6484C6.17188 14.1719 7.61719 15.2266 9.375 15.4609V12.9219C8.75 12.7656 8.20312 12.375 7.89062 11.8672ZM7.5 10.5C7.5 9.91406 7.69531 9.36719 8.04688 8.9375L6.5625 6.86719C5.58594 7.80469 5 9.09375 5 10.5C5 10.8516 5 11.1641 5.07812 11.4375L7.5 10.6562C7.5 10.6172 7.5 10.5781 7.5 10.5ZM10 8C10.3125 8 10.625 8.03906 10.8984 8.15625L12.3828 6.125C11.6797 5.77344 10.8594 5.5 10 5.5C9.10156 5.5 8.28125 5.77344 7.57812 6.16406L9.0625 8.19531C9.33594 8.07812 9.64844 8 10 8ZM11.9141 8.9375C12.2656 9.36719 12.5 9.91406 12.5 10.5C12.5 10.5781 12.4609 10.6172 12.4609 10.6562L14.8828 11.4375C14.9609 11.1641 15 10.8516 15 10.5C15 9.09375 14.375 7.80469 13.3984 6.86719L11.9141 8.9375ZM10 0.5C4.45312 0.5 0 4.99219 0 10.5C0 16.0469 4.45312 20.5 10 20.5C15.5078 20.5 20 16.0469 20 10.5C20 4.99219 15.5078 0.5 10 0.5ZM10 16.75C6.52344 16.75 3.75 13.9766 3.75 10.5C3.75 7.0625 6.52344 4.25 10 4.25C13.4375 4.25 16.25 7.0625 16.25 10.5C16.25 13.9766 13.4375 16.75 10 16.75ZM10.625 12.9219V15.4609C12.3438 15.2266 13.7891 14.1719 14.4922 12.6484L12.0703 11.8672C11.7578 12.375 11.2109 12.7656 10.625 12.9219ZM11.25 10.5C11.25 9.83594 10.6641 9.25 10 9.25C9.29688 9.25 8.75 9.83594 8.75 10.5C8.75 11.2031 9.29688 11.75 10 11.75C10.6641 11.75 11.25 11.2031 11.25 10.5Z" fill="url(#paint0_linear_175_163)"/>
<defs>
<linearGradient id="paint0_linear_175_163" x1="10" y1="0" x2="10" y2="20" gradientUnits="userSpaceOnUse">
<stop stop-color="white"/>
<stop offset="0.674829" stop-color="white"/>
<stop offset="1" stop-color="white" stop-opacity="0.44"/>
</linearGradient>
</defs>
</svg>
