<svg width="57" height="41" viewBox="0 0 57 41" fill="none" xmlns="http://www.w3.org/2000/svg">
<path d="M55.5938 31.5625H54.1875V21.543C54.1875 20.0488 53.5723 18.6426 52.5176 17.5L45.75 10.7324C44.6953 9.67773 43.2012 9.0625 41.707 9.0625H37.3125V4.84375C37.3125 2.55859 35.3789 0.625 33.0938 0.625H4.96875C2.5957 0.625 0.75 2.55859 0.75 4.84375V32.9688C0.75 35.3418 2.5957 37.1875 4.96875 37.1875H6.375C6.375 41.8457 10.1543 45.625 14.8125 45.625C19.4707 45.625 23.25 41.8457 23.25 37.1875H34.5C34.5 41.8457 38.2793 45.625 42.9375 45.625C47.5957 45.625 51.375 41.8457 51.375 37.1875H55.5938C56.2969 37.1875 57 36.5723 57 35.7812V32.9688C57 32.2656 56.2969 31.5625 55.5938 31.5625ZM14.8125 41.4062C12.4395 41.4062 10.5938 39.5605 10.5938 37.1875C10.5938 34.9023 12.4395 32.9688 14.8125 32.9688C17.0977 32.9688 19.0312 34.9023 19.0312 37.1875C19.0312 39.5605 17.0977 41.4062 14.8125 41.4062ZM37.3125 14.6875H41.707L48.5625 21.543V23.125H37.3125V14.6875ZM42.9375 41.4062C40.5645 41.4062 38.7188 39.5605 38.7188 37.1875C38.7188 34.9023 40.5645 32.9688 42.9375 32.9688C45.2227 32.9688 47.1562 34.9023 47.1562 37.1875C47.1562 39.5605 45.2227 41.4062 42.9375 41.4062Z" fill="url(#paint0_linear_7_1782)" fill-opacity="0.64"/>
<defs>
<linearGradient id="paint0_linear_7_1782" x1="28.5" y1="1" x2="28.5" y2="46" gradientUnits="userSpaceOnUse">
<stop stop-color="white"/>
<stop offset="0.674829" stop-color="white"/>
<stop offset="1" stop-color="white" stop-opacity="0.44"/>
</linearGradient>
</defs>
</svg>
