<svg width="20" height="16" viewBox="0 0 20 16" fill="none" xmlns="http://www.w3.org/2000/svg">
<path d="M19.5 11H19V7.4375C19 6.90625 18.7812 6.40625 18.4062 6L16 3.59375C15.625 3.21875 15.0938 3 14.5625 3H13V1.5C13 0.6875 12.3125 0 11.5 0H1.5C0.65625 0 0 0.6875 0 1.5V11.5C0 12.3438 0.65625 13 1.5 13H2C2 14.6562 3.34375 16 5 16C6.65625 16 8 14.6562 8 13H12C12 14.6562 13.3438 16 15 16C16.6562 16 18 14.6562 18 13H19.5C19.75 13 20 12.7812 20 12.5V11.5C20 11.25 19.75 11 19.5 11ZM5 14.5C4.15625 14.5 3.5 13.8438 3.5 13C3.5 12.1875 4.15625 11.5 5 11.5C5.8125 11.5 6.5 12.1875 6.5 13C6.5 13.8438 5.8125 14.5 5 14.5ZM13 5H14.5625L17 7.4375V8H13V5ZM15 14.5C14.1562 14.5 13.5 13.8438 13.5 13C13.5 12.1875 14.1562 11.5 15 11.5C15.8125 11.5 16.5 12.1875 16.5 13C16.5 13.8438 15.8125 14.5 15 14.5Z" fill="url(#paint0_linear_402_7)"/>
<defs>
<linearGradient id="paint0_linear_402_7" x1="10" y1="0" x2="10" y2="16" gradientUnits="userSpaceOnUse">
<stop stop-color="#0059DE"/>
<stop offset="1" stop-color="#0059DE" stop-opacity="0.2"/>
</linearGradient>
</defs>
</svg>
