<svg width="38" height="28" viewBox="0 0 38 28" fill="none" xmlns="http://www.w3.org/2000/svg">
<path d="M3.3125 15.625H21.125C22.6484 15.625 23.9375 14.3945 23.9375 12.8125V3.4375C23.9375 1.91406 22.6484 0.625 21.125 0.625H3.3125C1.73047 0.625 0.5 1.91406 0.5 3.4375V12.8125C0.5 14.3945 1.73047 15.625 3.3125 15.625ZM18.3125 3.4375H20.1875V12.8125H18.3125V3.4375ZM13.625 3.4375H15.5V12.8125H13.625V3.4375ZM8.9375 3.4375H10.8125V12.8125H8.9375V3.4375ZM4.25 3.4375H6.125V12.8125H4.25V3.4375ZM36.8867 12.6953L33.4297 9.23828C32.7266 8.59375 31.7891 8.18359 30.793 8.18359H27.6875C26.6328 8.18359 25.8125 9.00391 25.8125 10V17.5H2.375C1.32031 17.5 0.5 18.3789 0.5 19.375V21.9531C0.5 24.3555 2.14062 26.5234 4.54297 26.875C6.30078 27.1094 7.94141 26.2891 8.9375 25C9.99219 26.4648 11.8672 27.2852 13.918 26.7578C15.3828 26.3477 16.6133 25.2344 17.082 23.7695C17.375 22.8906 17.4336 22.0703 17.2578 21.3086H26.8086C26.6328 22.0703 26.6914 22.8906 26.9844 23.7695C27.4531 25.2344 28.7422 26.4062 30.2656 26.7578C33.3125 27.5195 36.125 25.1758 36.125 22.2461C36.125 21.8945 36.0664 21.6016 36.0078 21.3086H37.0625C37.5312 21.3086 38 20.8398 38 20.3711V15.332C38 14.3359 37.5898 13.3984 36.8867 12.6953ZM5.1875 24.0625C4.13281 24.0625 3.3125 23.2422 3.3125 22.1875C3.3125 21.1914 4.13281 20.3125 5.1875 20.3125C6.18359 20.3125 7.0625 21.1914 7.0625 22.1875C7.0625 23.2422 6.18359 24.0625 5.1875 24.0625ZM12.6875 24.0625C11.6328 24.0625 10.8125 23.2422 10.8125 22.1875C10.8125 21.1914 11.6328 20.3125 12.6875 20.3125C13.6836 20.3125 14.5625 21.1914 14.5625 22.1875C14.5625 23.2422 13.6836 24.0625 12.6875 24.0625ZM31.4375 24.0625C30.3828 24.0625 29.5625 23.2422 29.5625 22.1875C29.5625 21.1914 30.3828 20.3711 31.4375 20.3711C32.4336 20.3711 33.3125 21.25 33.3125 22.2461C33.3125 23.2422 32.4336 24.0625 31.4375 24.0625ZM28.625 13.75V10.9375H30.793C31.0273 10.9375 31.2617 10.9961 31.4375 11.1719L34.0156 13.75H28.625Z" fill="url(#paint0_linear_341_5)"/>
<defs>
<linearGradient id="paint0_linear_341_5" x1="19" y1="-1" x2="19" y2="29" gradientUnits="userSpaceOnUse">
<stop stop-color="white"/>
<stop offset="1" stop-color="white" stop-opacity="0.2"/>
</linearGradient>
</defs>
</svg>
