<svg width="19" height="16" viewBox="0 0 19 16" fill="none" xmlns="http://www.w3.org/2000/svg">
<path d="M18.5312 11.1875H18.0625V7.84766C18.0625 7.34961 17.8574 6.88086 17.5059 6.5L15.25 4.24414C14.8984 3.89258 14.4004 3.6875 13.9023 3.6875H12.4375V2.28125C12.4375 1.51953 11.793 0.875 11.0312 0.875H1.65625C0.865234 0.875 0.25 1.51953 0.25 2.28125V11.6562C0.25 12.4473 0.865234 13.0625 1.65625 13.0625H2.125C2.125 14.6152 3.38477 15.875 4.9375 15.875C6.49023 15.875 7.75 14.6152 7.75 13.0625H11.5C11.5 14.6152 12.7598 15.875 14.3125 15.875C15.8652 15.875 17.125 14.6152 17.125 13.0625H18.5312C18.7656 13.0625 19 12.8574 19 12.5938V11.6562C19 11.4219 18.7656 11.1875 18.5312 11.1875ZM4.9375 14.4688C4.14648 14.4688 3.53125 13.8535 3.53125 13.0625C3.53125 12.3008 4.14648 11.6562 4.9375 11.6562C5.69922 11.6562 6.34375 12.3008 6.34375 13.0625C6.34375 13.8535 5.69922 14.4688 4.9375 14.4688ZM12.4375 5.5625H13.9023L16.1875 7.84766V8.375H12.4375V5.5625ZM14.3125 14.4688C13.5215 14.4688 12.9062 13.8535 12.9062 13.0625C12.9062 12.3008 13.5215 11.6562 14.3125 11.6562C15.0742 11.6562 15.7188 12.3008 15.7188 13.0625C15.7188 13.8535 15.0742 14.4688 14.3125 14.4688Z" fill="url(#paint0_linear_173_88)"/>
<defs>
<linearGradient id="paint0_linear_173_88" x1="9.5" y1="1" x2="9.5" y2="16" gradientUnits="userSpaceOnUse">
<stop stop-color="#0f8fce"/>
<stop offset="1" stop-color="#00B2FF" stop-opacity="0.1"/>
</linearGradient>
</defs>
</svg>
