<svg width="25" height="19" viewBox="0 0 25 19" fill="none" xmlns="http://www.w3.org/2000/svg">
<path d="M1.875 10.75H13.75C14.7656 10.75 15.625 9.92969 15.625 8.875V2.625C15.625 1.60938 14.7656 0.75 13.75 0.75H1.875C0.820312 0.75 0 1.60938 0 2.625V8.875C0 9.92969 0.820312 10.75 1.875 10.75ZM11.875 2.625H13.125V8.875H11.875V2.625ZM8.75 2.625H10V8.875H8.75V2.625ZM5.625 2.625H6.875V8.875H5.625V2.625ZM2.5 2.625H3.75V8.875H2.5V2.625ZM24.2578 8.79688L21.9531 6.49219C21.4844 6.0625 20.8594 5.78906 20.1953 5.78906H18.125C17.4219 5.78906 16.875 6.33594 16.875 7V12H1.25C0.546875 12 0 12.5859 0 13.25V14.9688C0 16.5703 1.09375 18.0156 2.69531 18.25C3.86719 18.4062 4.96094 17.8594 5.625 17C6.32812 17.9766 7.57812 18.5234 8.94531 18.1719C9.92188 17.8984 10.7422 17.1562 11.0547 16.1797C11.25 15.5938 11.2891 15.0469 11.1719 14.5391H17.5391C17.4219 15.0469 17.4609 15.5938 17.6562 16.1797C17.9688 17.1562 18.8281 17.9375 19.8438 18.1719C21.875 18.6797 23.75 17.1172 23.75 15.1641C23.75 14.9297 23.7109 14.7344 23.6719 14.5391H24.375C24.6875 14.5391 25 14.2266 25 13.9141V10.5547C25 9.89062 24.7266 9.26562 24.2578 8.79688ZM3.125 16.375C2.42188 16.375 1.875 15.8281 1.875 15.125C1.875 14.4609 2.42188 13.875 3.125 13.875C3.78906 13.875 4.375 14.4609 4.375 15.125C4.375 15.8281 3.78906 16.375 3.125 16.375ZM8.125 16.375C7.42188 16.375 6.875 15.8281 6.875 15.125C6.875 14.4609 7.42188 13.875 8.125 13.875C8.78906 13.875 9.375 14.4609 9.375 15.125C9.375 15.8281 8.78906 16.375 8.125 16.375ZM20.625 16.375C19.9219 16.375 19.375 15.8281 19.375 15.125C19.375 14.4609 19.9219 13.9141 20.625 13.9141C21.2891 13.9141 21.875 14.5 21.875 15.1641C21.875 15.8281 21.2891 16.375 20.625 16.375ZM18.75 9.5V7.625H20.1953C20.3516 7.625 20.5078 7.66406 20.625 7.78125L22.3438 9.5H18.75Z" fill="url(#paint0_linear_175_155)"/>
<defs>
<linearGradient id="paint0_linear_175_155" x1="12.5" y1="-1" x2="12.5" y2="19" gradientUnits="userSpaceOnUse">
<stop stop-color="white"/>
<stop offset="0.674829" stop-color="white"/>
<stop offset="1" stop-color="white" stop-opacity="0.44"/>
</linearGradient>
</defs>
</svg>
