<svg width="20" height="21" viewBox="0 0 20 21" fill="none" xmlns="http://www.w3.org/2000/svg">
<path d="M19.5 14.25H19V9.79688C19 9.13281 18.7813 8.50781 18.4063 8L16 4.99219C15.625 4.52344 15.0938 4.25 14.5625 4.25H13V2.375C13 1.35938 12.3125 0.5 11.5 0.5H1.5C0.65625 0.5 0 1.35938 0 2.375V14.875C0 15.9297 0.65625 16.75 1.5 16.75H2C2 18.8203 3.34375 20.5 5 20.5C6.65625 20.5 8 18.8203 8 16.75H12C12 18.8203 13.3438 20.5 15 20.5C16.6563 20.5 18 18.8203 18 16.75H19.5C19.75 16.75 20 16.4766 20 16.125V14.875C20 14.5625 19.75 14.25 19.5 14.25ZM5 18.625C4.15625 18.625 3.5 17.8047 3.5 16.75C3.5 15.7344 4.15625 14.875 5 14.875C5.8125 14.875 6.5 15.7344 6.5 16.75C6.5 17.8047 5.8125 18.625 5 18.625ZM13 6.75H14.5625L17 9.79688V10.5H13V6.75ZM15 18.625C14.1563 18.625 13.5 17.8047 13.5 16.75C13.5 15.7344 14.1563 14.875 15 14.875C15.8125 14.875 16.5 15.7344 16.5 16.75C16.5 17.8047 15.8125 18.625 15 18.625Z" fill="url(#paint0_linear_701_101)"/>
<defs>
<linearGradient id="paint0_linear_701_101" x1="10" y1="0.5" x2="10" y2="20.5" gradientUnits="userSpaceOnUse">
<stop stop-color="#0f8fce"/>
<stop offset="0.674829" stop-color="var(--primary)" stop-opacity="0.39"/>
<stop offset="1" stop-color="#0f8fce9e" stop-opacity="0.28"/>
</linearGradient>
</defs>
</svg>
