<svg width="12" height="13" viewBox="0 0 12 13" fill="none" xmlns="http://www.w3.org/2000/svg">
<path d="M6 6.5C7.64062 6.5 9 5.16406 9 3.5C9 1.85938 7.64062 0.5 6 0.5C4.33594 0.5 3 1.85938 3 3.5C3 5.16406 4.33594 6.5 6 6.5ZM8.10938 7.74219L7.10156 11.75L6.375 8.5625L7.125 7.25H4.875L5.625 8.5625L4.875 11.75L3.86719 7.74219C2.0625 8.16406 0.75 9.78125 0.75 11.7031C0.75 12.1484 1.10156 12.5 1.54688 12.5H10.4297C10.875 12.5 11.25 12.1484 11.25 11.7031C11.25 9.78125 9.91406 8.16406 8.10938 7.74219Z" fill="url(#paint0_linear_632_2)"/>
<defs>
<linearGradient id="paint0_linear_632_2" x1="6" y1="0" x2="6" y2="12" gradientUnits="userSpaceOnUse">
<stop stop-color="#0f8fce"/>
<stop offset="1" stop-color="var(--primary)" stop-opacity="0.38"/>
</linearGradient>
</defs>
</svg>
