<svg width="27" height="31" viewBox="0 0 27 31" fill="none" xmlns="http://www.w3.org/2000/svg">
<path d="M13.875 15.75C17.9766 15.75 21.375 12.4102 21.375 8.25C21.375 4.14844 17.9766 0.75 13.875 0.75C9.71484 0.75 6.375 4.14844 6.375 8.25C6.375 12.4102 9.71484 15.75 13.875 15.75ZM19.1484 18.8555L16.6289 28.875L14.8125 20.9062L16.6875 17.625H11.0625L12.9375 20.9062L11.0625 28.875L8.54297 18.8555C4.03125 19.9102 0.75 23.9531 0.75 28.7578C0.75 29.8711 1.62891 30.75 2.74219 30.75H24.9492C26.0625 30.75 27 29.8711 27 28.7578C27 23.9531 23.6602 19.9102 19.1484 18.8555Z" fill="url(#paint0_linear_341_3)"/>
<defs>
<linearGradient id="paint0_linear_341_3" x1="13.5" y1="1" x2="13.5" y2="31" gradientUnits="userSpaceOnUse">
<stop stop-color="#2C41FF"/>
<stop offset="1" stop-color="#2C41FF" stop-opacity="0.44"/>
</linearGradient>
</defs>
</svg>
