<svg width="12" height="13" viewBox="0 0 12 13" fill="none" xmlns="http://www.w3.org/2000/svg">
<path d="M6 6.5C7.64062 6.5 9 5.16406 9 3.5C9 1.85938 7.64062 0.5 6 0.5C4.33594 0.5 3 1.85938 3 3.5C3 5.16406 4.33594 6.5 6 6.5ZM7.17188 7.625H4.80469C2.55469 7.625 0.75 9.45312 0.75 11.7031C0.75 12.1484 1.10156 12.5 1.54688 12.5H10.4297C10.875 12.5 11.25 12.1484 11.25 11.7031C11.25 9.45312 9.42188 7.625 7.17188 7.625Z" fill="url(#paint0_linear_632_2)"/>
<defs>
<linearGradient id="paint0_linear_632_2" x1="6" y1="0" x2="6" y2="12" gradientUnits="userSpaceOnUse">
<stop stop-color="#0f8fce"/>
<stop offset="1" stop-color="var(--primary)" stop-opacity="0.38"/>
</linearGradient>
</defs>
</svg>
