<svg width="12" height="13" viewBox="0 0 12 13" fill="none" xmlns="http://www.w3.org/2000/svg">
<path d="M5.83978 6.5C7.48041 6.5 8.83978 5.16406 8.83978 3.5C8.83978 1.85938 7.48041 0.5 5.83978 0.5C4.17572 0.5 2.83978 1.85938 2.83978 3.5C2.83978 5.16406 4.17572 6.5 5.83978 6.5ZM7.01166 7.625H4.64447C2.39447 7.625 0.589784 9.45312 0.589784 11.7031C0.589784 12.1484 0.941346 12.5 1.38666 12.5H10.2695C10.7148 12.5 11.0898 12.1484 11.0898 11.7031C11.0898 9.45312 9.26166 7.625 7.01166 7.625Z" fill="url(#paint0_linear_215_291)"/>
<defs>
<linearGradient id="paint0_linear_215_291" x1="5.04489" y1="0" x2="5.04489" y2="12" gradientUnits="userSpaceOnUse">
<stop stop-color="#2AB008"/>
<stop offset="1" stop-color="#2AB008" stop-opacity="0.1"/>
</linearGradient>
</defs>
</svg>
