<svg width="84" height="22" viewBox="0 0 84 22" fill="none" xmlns="http://www.w3.org/2000/svg">
<path d="M0.844308 17C0.683297 17 0.551561 16.9488 0.449099 16.8463C0.346637 16.7292 0.295407 16.5975 0.295407 16.4511V6.13176C0.295407 5.97075 0.346637 5.83901 0.449099 5.73655C0.551561 5.63409 0.683297 5.58286 0.844308 5.58286H3.36925C3.53026 5.58286 3.662 5.63409 3.76446 5.73655C3.88156 5.83901 3.94011 5.97075 3.94011 6.13176V6.96609C4.30604 6.51233 4.7964 6.13176 5.41117 5.82437C6.02593 5.51699 6.75048 5.3633 7.58481 5.3633C8.43378 5.3633 9.18029 5.55358 9.82433 5.93415C10.483 6.31472 10.9953 6.87094 11.3613 7.60281C11.7418 8.33468 11.9321 9.2422 11.9321 10.3254V16.4511C11.9321 16.5975 11.8809 16.7292 11.7784 16.8463C11.676 16.9488 11.5442 17 11.3832 17H8.61675C8.47037 17 8.33864 16.9488 8.22154 16.8463C8.11908 16.7292 8.06785 16.5975 8.06785 16.4511V10.4571C8.06785 9.76914 7.89952 9.2422 7.56286 8.87626C7.24084 8.49569 6.7578 8.30541 6.11376 8.30541C5.51363 8.30541 5.03059 8.49569 4.66466 8.87626C4.31336 9.2422 4.13771 9.76914 4.13771 10.4571V16.4511C4.13771 16.5975 4.07917 16.7292 3.96207 16.8463C3.8596 16.9488 3.73519 17 3.58881 17H0.844308ZM16.6887 17C16.5277 17 16.3959 16.9488 16.2935 16.8463C16.191 16.7292 16.1398 16.5975 16.1398 16.4511V5.07787H12.2316C12.0706 5.07787 11.9389 5.02664 11.8364 4.92417C11.7339 4.80708 11.6827 4.67534 11.6827 4.52897V2.17967C11.6827 2.01866 11.7339 1.88692 11.8364 1.78446C11.9389 1.682 12.0706 1.63077 12.2316 1.63077H24.044C24.205 1.63077 24.3367 1.682 24.4392 1.78446C24.5416 1.88692 24.5929 2.01866 24.5929 2.17967V4.52897C24.5929 4.67534 24.5416 4.80708 24.4392 4.92417C24.3367 5.02664 24.205 5.07787 24.044 5.07787H20.1358V16.4511C20.1358 16.5975 20.0846 16.7292 19.9821 16.8463C19.8796 16.9488 19.7479 17 19.5869 17H16.6887ZM26.7027 17C26.5417 17 26.4099 16.9488 26.3075 16.8463C26.205 16.7292 26.1538 16.5975 26.1538 16.4511V6.13176C26.1538 5.97075 26.205 5.83901 26.3075 5.73655C26.4099 5.63409 26.5417 5.58286 26.7027 5.58286H29.2935C29.4545 5.58286 29.5863 5.63409 29.6887 5.73655C29.7912 5.83901 29.8424 5.97075 29.8424 6.13176V16.4511C29.8424 16.5975 29.7912 16.7292 29.6887 16.8463C29.5863 16.9488 29.4545 17 29.2935 17H26.7027ZM26.6807 3.93615C26.5197 3.93615 26.388 3.88492 26.2855 3.78246C26.1831 3.68 26.1318 3.54826 26.1318 3.38725V1.41121C26.1318 1.26483 26.1831 1.14042 26.2855 1.03795C26.388 0.920856 26.5197 0.862307 26.6807 0.862307H29.3155C29.4618 0.862307 29.5863 0.920856 29.6887 1.03795C29.8058 1.14042 29.8644 1.26483 29.8644 1.41121V3.38725C29.8644 3.54826 29.8058 3.68 29.6887 3.78246C29.5863 3.88492 29.4618 3.93615 29.3155 3.93615H26.6807ZM33.6712 17C33.5102 17 33.3784 16.9488 33.276 16.8463C33.1735 16.7292 33.1223 16.5975 33.1223 16.4511V6.13176C33.1223 5.98538 33.1735 5.86097 33.276 5.7585C33.3784 5.64141 33.5102 5.58286 33.6712 5.58286H36.1961C36.3571 5.58286 36.4889 5.64141 36.5913 5.7585C36.7084 5.86097 36.767 5.98538 36.767 6.13176V7.01C37.1475 6.55624 37.6086 6.20494 38.1502 5.95611C38.7064 5.70727 39.3285 5.58286 40.0165 5.58286H40.9825C41.1435 5.58286 41.2753 5.63409 41.3777 5.73655C41.4802 5.83901 41.5314 5.97075 41.5314 6.13176V8.39323C41.5314 8.5396 41.4802 8.67134 41.3777 8.78844C41.2753 8.8909 41.1435 8.94213 40.9825 8.94213H38.8528C38.2527 8.94213 37.7843 9.11046 37.4476 9.44712C37.1256 9.76914 36.9646 10.2302 36.9646 10.8304V16.4511C36.9646 16.5975 36.906 16.7292 36.7889 16.8463C36.6865 16.9488 36.5547 17 36.3937 17H33.6712ZM41.4695 17C41.3524 17 41.2426 16.9561 41.1402 16.8683C41.0523 16.7658 41.0084 16.656 41.0084 16.5389C41.0084 16.4657 41.0158 16.3999 41.0304 16.3413L46.1901 2.24554C46.234 2.08453 46.3218 1.94547 46.4535 1.82837C46.5999 1.69664 46.7975 1.63077 47.0463 1.63077H50.2958C50.5447 1.63077 50.735 1.69664 50.8667 1.82837C51.0131 1.94547 51.1082 2.08453 51.1521 2.24554L56.2898 16.3413C56.3191 16.3999 56.3338 16.4657 56.3338 16.5389C56.3338 16.656 56.2825 16.7658 56.1801 16.8683C56.0922 16.9561 55.9825 17 55.8507 17H53.1501C52.9306 17 52.7622 16.9488 52.6451 16.8463C52.5427 16.7292 52.4768 16.6267 52.4475 16.5389L51.5912 14.2994H45.729L44.8947 16.5389C44.8654 16.6267 44.7995 16.7292 44.697 16.8463C44.5946 16.9488 44.4189 17 44.1701 17H41.4695ZM46.6292 11.1377H50.713L48.6711 5.34134L46.6292 11.1377ZM58.3717 21.1716C58.2107 21.1716 58.079 21.1131 57.9765 20.996C57.874 20.8935 57.8228 20.7691 57.8228 20.6227V6.13176C57.8228 5.97075 57.874 5.83901 57.9765 5.73655C58.079 5.63409 58.2107 5.58286 58.3717 5.58286H60.8528C60.9991 5.58286 61.1235 5.63409 61.226 5.73655C61.3431 5.83901 61.4017 5.97075 61.4017 6.13176V6.92217C61.753 6.48305 62.2067 6.11712 62.7629 5.82437C63.3191 5.51699 63.9998 5.3633 64.8048 5.3633C65.5367 5.3633 66.1808 5.48039 66.737 5.71459C67.2932 5.93415 67.7689 6.26349 68.1641 6.70261C68.574 7.14174 68.8887 7.676 69.1082 8.30541C69.3278 8.93481 69.4522 9.65936 69.4815 10.4791C69.4961 10.7718 69.5034 11.0426 69.5034 11.2914C69.5034 11.5403 69.4961 11.8111 69.4815 12.1038C69.4522 12.8942 69.3278 13.6041 69.1082 14.2335C68.8887 14.8629 68.5813 15.3972 68.1861 15.8363C67.7909 16.2755 67.3078 16.6194 66.737 16.8683C66.1808 17.1025 65.5367 17.2196 64.8048 17.2196C64.0876 17.2196 63.4582 17.0951 62.9166 16.8463C62.3897 16.5828 61.9506 16.2169 61.5993 15.7485V20.6227C61.5993 20.7691 61.548 20.8935 61.4456 20.996C61.3431 21.1131 61.2114 21.1716 61.0504 21.1716H58.3717ZM63.6192 14.2775C64.1169 14.2775 64.5048 14.175 64.7829 13.9701C65.061 13.7651 65.2586 13.487 65.3757 13.1357C65.5074 12.7844 65.5879 12.3965 65.6172 11.9721C65.6465 11.5183 65.6465 11.0645 65.6172 10.6108C65.5879 10.1863 65.5074 9.79842 65.3757 9.44712C65.2586 9.09582 65.061 8.81771 64.7829 8.61279C64.5048 8.40787 64.1169 8.30541 63.6192 8.30541C63.1508 8.30541 62.7702 8.41519 62.4775 8.63475C62.1848 8.83967 61.9725 9.11046 61.8408 9.44712C61.709 9.78378 61.6285 10.1497 61.5993 10.5449C61.5846 10.823 61.5773 11.0938 61.5773 11.3573C61.5773 11.6208 61.5846 11.8989 61.5993 12.1916C61.6139 12.5576 61.6944 12.9015 61.8408 13.2236C61.9871 13.5309 62.2067 13.7871 62.4995 13.992C62.7922 14.1823 63.1655 14.2775 63.6192 14.2775ZM72.2229 21.1716C72.0619 21.1716 71.9301 21.1131 71.8277 20.996C71.7252 20.8935 71.674 20.7691 71.674 20.6227V6.13176C71.674 5.97075 71.7252 5.83901 71.8277 5.73655C71.9301 5.63409 72.0619 5.58286 72.2229 5.58286H74.7039C74.8503 5.58286 74.9747 5.63409 75.0772 5.73655C75.1943 5.83901 75.2528 5.97075 75.2528 6.13176V6.92217C75.6041 6.48305 76.0579 6.11712 76.6141 5.82437C77.1703 5.51699 77.851 5.3633 78.656 5.3633C79.3879 5.3633 80.0319 5.48039 80.5881 5.71459C81.1444 5.93415 81.6201 6.26349 82.0153 6.70261C82.4251 7.14174 82.7398 7.676 82.9594 8.30541C83.179 8.93481 83.3034 9.65936 83.3327 10.4791C83.3473 10.7718 83.3546 11.0426 83.3546 11.2914C83.3546 11.5403 83.3473 11.8111 83.3327 12.1038C83.3034 12.8942 83.179 13.6041 82.9594 14.2335C82.7398 14.8629 82.4325 15.3972 82.0372 15.8363C81.642 16.2755 81.159 16.6194 80.5881 16.8683C80.0319 17.1025 79.3879 17.2196 78.656 17.2196C77.9388 17.2196 77.3094 17.0951 76.7678 16.8463C76.2409 16.5828 75.8017 16.2169 75.4504 15.7485V20.6227C75.4504 20.7691 75.3992 20.8935 75.2967 20.996C75.1943 21.1131 75.0625 21.1716 74.9015 21.1716H72.2229ZM77.4704 14.2775C77.9681 14.2775 78.3559 14.175 78.6341 13.9701C78.9122 13.7651 79.1098 13.487 79.2269 13.1357C79.3586 12.7844 79.4391 12.3965 79.4684 11.9721C79.4977 11.5183 79.4977 11.0645 79.4684 10.6108C79.4391 10.1863 79.3586 9.79842 79.2269 9.44712C79.1098 9.09582 78.9122 8.81771 78.6341 8.61279C78.3559 8.40787 77.9681 8.30541 77.4704 8.30541C77.002 8.30541 76.6214 8.41519 76.3287 8.63475C76.0359 8.83967 75.8237 9.11046 75.6919 9.44712C75.5602 9.78378 75.4797 10.1497 75.4504 10.5449C75.4358 10.823 75.4285 11.0938 75.4285 11.3573C75.4285 11.6208 75.4358 11.8989 75.4504 12.1916C75.4651 12.5576 75.5456 12.9015 75.6919 13.2236C75.8383 13.5309 76.0579 13.7871 76.3506 13.992C76.6434 14.1823 77.0166 14.2775 77.4704 14.2775Z" fill="var(--primary)"/>
</svg>
