<svg width="15" height="16" viewBox="0 0 15 16" fill="none" xmlns="http://www.w3.org/2000/svg">
<path d="M12.7422 2.37891C11.3809 0.984375 9.52148 0.1875 7.5293 0.1875C3.47852 0.1875 0.158203 3.50781 0.158203 7.55859C0.158203 8.88672 0.523437 10.1484 1.1543 11.2441L0.125 15.0625L4.00977 14.0664C5.10547 14.6309 6.30078 14.9629 7.5293 14.9629C11.6133 14.9629 15 11.6426 15 7.5918C15 5.59961 14.1367 3.77344 12.7422 2.37891ZM7.5293 13.7012C6.43359 13.7012 5.37109 13.4023 4.4082 12.8379L4.20898 12.7051L1.88477 13.3359L2.51562 11.0781L2.34961 10.8457C1.75195 9.84961 1.41992 8.7207 1.41992 7.55859C1.41992 4.20508 4.17578 1.44922 7.5625 1.44922C9.18945 1.44922 10.7168 2.08008 11.8789 3.24219C13.041 4.4043 13.7383 5.93164 13.7383 7.5918C13.7383 10.9453 10.916 13.7012 7.5293 13.7012ZM10.916 9.11914C10.7168 9.01953 9.82031 8.58789 9.6543 8.52148C9.48828 8.45508 9.35547 8.42188 9.22266 8.62109C9.12305 8.78711 8.75781 9.21875 8.6582 9.35156C8.52539 9.45117 8.42578 9.48438 8.25977 9.38477C7.16406 8.85352 6.4668 8.42188 5.73633 7.19336C5.53711 6.86133 5.93555 6.89453 6.26758 6.19727C6.33398 6.06445 6.30078 5.96484 6.26758 5.86523C6.23437 5.76563 5.83594 4.86914 5.70312 4.50391C5.53711 4.13867 5.4043 4.17188 5.27148 4.17188C5.17187 4.17188 5.03906 4.17188 4.93945 4.17188C4.80664 4.17188 4.60742 4.20508 4.44141 4.4043C4.27539 4.60352 3.81055 5.03516 3.81055 5.93164C3.81055 6.86133 4.44141 7.72461 4.54102 7.85742C4.64062 7.95703 5.83594 9.81641 7.69531 10.6133C8.85742 11.1445 9.32227 11.1777 9.91992 11.0781C10.252 11.0449 10.9824 10.6465 11.1484 10.2148C11.3145 9.7832 11.3145 9.41797 11.248 9.35156C11.2148 9.25195 11.082 9.21875 10.916 9.11914Z" fill="url(#paint0_linear_102_140)"/>
<defs>
<linearGradient id="paint0_linear_102_140" x1="6" y1="1.125" x2="5.9921" y2="16" gradientUnits="userSpaceOnUse">
<stop stop-color="white"/>
<stop offset="1" stop-color="white"/>
</linearGradient>
</defs>
</svg>
