<svg width="48" height="41" viewBox="0 0 48 41" fill="none" xmlns="http://www.w3.org/2000/svg">
<path d="M46.0703 14.6797L33.668 2.17969C32.7891 1.30078 31.6172 0.8125 30.543 0.8125H17.3594C16.2852 0.8125 15.1133 1.30078 14.332 2.17969L1.83203 14.6797C0.953125 15.4609 0.5625 16.5352 0.5625 17.707V30.793C0.5625 31.9648 0.953125 33.0391 1.83203 33.918L14.2344 46.3203C15.1133 47.2969 16.2852 47.6875 17.3594 47.6875H30.4453C31.6172 47.6875 32.6914 47.2969 33.5703 46.418L45.9727 34.0156C46.9492 33.1367 47.4375 31.9648 47.4375 30.793V17.707C47.4375 16.5352 46.9492 15.4609 46.0703 14.6797ZM31.8125 28.8398C32.6914 29.8164 32.6914 31.2812 31.8125 32.1602C30.8359 33.1367 29.3711 33.1367 28.4922 32.1602L24 27.5703L19.3125 32.1602C18.4336 33.1367 16.9688 33.1367 16.0898 32.1602C15.1133 31.2812 15.1133 29.8164 16.0898 28.8398L20.6797 24.25L16.0898 19.6602C15.1133 18.6836 15.1133 17.2188 16.0898 16.3398C16.9688 15.3633 18.4336 15.3633 19.3125 16.3398L24 21.0273L28.5898 16.4375C29.4688 15.4609 30.9336 15.4609 31.8125 16.4375C32.7891 17.3164 32.7891 18.7812 31.8125 19.7578L27.2227 24.3477L31.8125 28.8398Z" fill="url(#paint0_linear_7_1794)" fill-opacity="0.64"/>
<defs>
<linearGradient id="paint0_linear_7_1794" x1="24" y1="-1" x2="24" y2="49" gradientUnits="userSpaceOnUse">
<stop stop-color="white"/>
<stop offset="0.674829" stop-color="white"/>
<stop offset="1" stop-color="white" stop-opacity="0.44"/>
</linearGradient>
</defs>
</svg>
