<svg width="48" height="42" viewBox="0 0 48 42" fill="none" xmlns="http://www.w3.org/2000/svg">
<path d="M45.9453 40.6484L35.3984 30.1016C37.7715 26.5859 39.002 22.1914 38.3867 17.4453C37.2441 9.35938 30.6523 2.85547 22.6543 1.80078C10.7012 0.306641 0.59375 10.4141 2.08789 22.3672C3.14258 30.3652 9.64648 36.957 17.7324 38.0996C22.4785 38.7148 26.873 37.4844 30.4766 35.1113L40.9355 45.6582C42.3418 46.9766 44.5391 46.9766 45.9453 45.6582C47.2637 44.252 47.2637 42.0547 45.9453 40.6484ZM8.94336 19.9062C8.94336 13.7539 13.9531 8.65625 20.1934 8.65625C26.3457 8.65625 31.4434 13.7539 31.4434 19.9062C31.4434 26.1465 26.3457 31.1562 20.1934 31.1562C13.9531 31.1562 8.94336 26.1465 8.94336 19.9062Z" fill="url(#paint0_linear_7_1791)" fill-opacity="0.64"/>
<defs>
<linearGradient id="paint0_linear_7_1791" x1="24.5" y1="2" x2="24.5" y2="47" gradientUnits="userSpaceOnUse">
<stop stop-color="white"/>
<stop offset="0.674829" stop-color="white"/>
<stop offset="1" stop-color="white" stop-opacity="0.44"/>
</linearGradient>
</defs>
</svg>
