<svg width="12" height="16" viewBox="0 0 12 16" fill="none" xmlns="http://www.w3.org/2000/svg">
<path d="M11 14V13.3438C11 12.4688 10.7187 11.6563 10.1875 10.9375L8 8L10.1875 5.09375C10.7188 4.375 11 3.53125 11 2.6875V2C11.5312 2 12 1.5625 12 1C12 0.46875 11.5312 0 11 0L1 0C0.4375 0 0 0.46875 0 1C0 1.5625 0.4375 2 1 2L1 2.6875C1 3.5625 1.25 4.375 1.78125 5.09375L4 8L1.78125 10.9375C1.25 11.625 1 12.4688 1 13.3438L1 14C0.4375 14 0 14.4688 0 15C0 15.5625 0.4375 16 1 16H11C11.5312 16 12 15.5625 12 15C12 14.4688 11.5312 14 11 14ZM3 14V13.3438C3 12.9062 3.125 12.5 3.375 12.1562L6 8.6875L8.59375 12.1563C8.84375 12.5 9 12.9063 9 13.3438V14L3 14Z" fill="url(#paint0_linear_680_77)"/>
<defs>
<linearGradient id="paint0_linear_680_77" x1="6" y1="0" x2="6" y2="16" gradientUnits="userSpaceOnUse">
<stop stop-color="#0f8fce"/>
<stop offset="1" stop-color="#88CBFF"/>
</linearGradient>
</defs>
</svg>
