<svg width="12" height="17" viewBox="0 0 12 17" fill="none" xmlns="http://www.w3.org/2000/svg">
<path d="M6 0C2.65625 0 0 2.6875 0 6C0 8.4375 0.8125 9.125 5.375 15.6875C5.65625 16.125 6.3125 16.125 6.59375 15.6875C11.1562 9.09375 12 8.4375 12 6C12 2.6875 9.3125 0 6 0ZM6 8.5C4.59375 8.5 3.5 7.375 3.5 6C3.5 4.59375 4.59375 3.5 6 3.5C7.375 3.5 8.5 4.59375 8.5 6C8.5 7.375 7.375 8.5 6 8.5Z" fill="url(#paint0_linear_679_55)"/>
<defs>
<linearGradient id="paint0_linear_679_55" x1="6" y1="0" x2="6" y2="16" gradientUnits="userSpaceOnUse">
<stop stop-color="#0f8fce"/>
<stop offset="1" stop-color="#88CBFF"/>
</linearGradient>
</defs>
</svg>
