<svg width="25" height="21" viewBox="0 0 25 21" fill="none" xmlns="http://www.w3.org/2000/svg">
<path d="M19.9609 14.25H5V16.75H19.9609V14.25ZM5 20.5H20V18H5V20.5ZM5 13H19.9609L20 10.5H5V13ZM23.8281 5.07031L13.2031 0.65625C12.9688 0.578125 12.7344 0.539062 12.5 0.5C12.2266 0.539062 11.9922 0.578125 11.7578 0.65625L1.13281 5.07031C0.429688 5.38281 0 6.04688 0 6.82812V19.875C0 20.2266 0.273438 20.5 0.625 20.5H3.125C3.4375 20.5 3.75 20.2266 3.75 19.875L3.71094 10.5C3.71094 9.83594 4.29688 9.25 5 9.25H19.9609C20.6641 9.25 21.25 9.83594 21.25 10.5V19.875C21.25 20.2266 21.5234 20.5 21.875 20.5H24.375C24.6875 20.5 25 20.2266 25 19.875V6.82812C25 6.04688 24.5312 5.38281 23.8281 5.07031Z" fill="url(#paint0_linear_678_31)"/>
<defs>
<linearGradient id="paint0_linear_678_31" x1="12.5" y1="0" x2="12.5" y2="20" gradientUnits="userSpaceOnUse">
<stop stop-color="white"/>
<stop offset="0.578125" stop-color="white" stop-opacity="0.9"/>
<stop offset="1" stop-color="white" stop-opacity="0.56"/>
</linearGradient>
</defs>
</svg>
