<svg width="13" height="8" viewBox="0 0 13 8" fill="none" xmlns="http://www.w3.org/2000/svg">
<g clip-path="url(#clip0_601_7)">
<path d="M12.5518 4.89069L10.9184 4.88794L7.40404 5.78302L8.98522 5.78852C8.94947 5.97139 8.95634 6.1735 9.02371 6.38249C9.14196 6.7276 9.43345 7.00259 9.7868 7.09333C10.2763 7.21983 10.7245 7.02321 10.9816 6.6781C11.214 6.98884 11.6017 7.17858 12.0307 7.12083C12.5972 7.04659 13 6.52411 13 5.95214V5.33892C13 5.09006 12.8007 4.89069 12.5518 4.89069V4.89069ZM10.0852 6.45811C9.83768 6.45811 9.63694 6.25737 9.63694 5.99751C9.63694 5.76377 9.83768 5.56166 10.0852 5.56166C10.3327 5.56166 10.5334 5.76377 10.5334 6.00989C10.5334 6.256 10.3313 6.45811 10.0852 6.45811V6.45811ZM11.8781 6.45811C11.632 6.45811 11.4298 6.25737 11.4298 5.99751C11.4298 5.76377 11.632 5.56166 11.8781 5.56166C12.1242 5.56166 12.3277 5.76377 12.3277 6.00989C12.3277 6.256 12.1256 6.45811 11.8781 6.45811V6.45811ZM1.87131 4.88794L0.734239 4.89069C0.485376 4.89069 0.286011 5.09006 0.286011 5.33892V5.95214C0.286011 6.52411 0.688866 7.04659 1.25534 7.12083C1.68432 7.17858 2.07205 6.98884 2.30441 6.6781C2.56153 7.02321 3.00975 7.21983 3.49923 7.09333C3.85259 7.00259 4.14408 6.7276 4.26232 6.38249C4.32969 6.1735 4.33657 5.97139 4.29944 5.78852L5.54376 5.78165L1.87131 4.88794V4.88794ZM1.40658 6.45811C1.16047 6.45811 0.958353 6.25737 0.958353 6.00989C0.958353 5.7624 1.16047 5.56166 1.40658 5.56166C1.65269 5.56166 1.85619 5.76377 1.85619 5.99751C1.85619 6.25737 1.65407 6.45811 1.40658 6.45811V6.45811ZM3.20087 6.45811C2.95338 6.45811 2.75264 6.25737 2.75264 6.00989C2.75264 5.7624 2.95338 5.56166 3.20087 5.56166C3.44836 5.56166 3.6491 5.76377 3.6491 5.99751C3.6491 6.25737 3.44836 6.45811 3.20087 6.45811V6.45811Z" fill="white"/>
<path d="M13 2.18339C13 3.38784 12.5641 4.36542 12.0265 4.36542L10.9184 4.64865L7.40402 5.54373L6.49931 5.77472L5.54373 5.54236L1.87128 4.64865L0.706716 4.36542V4.28017C0.299736 4.02168 0 3.1816 0 2.18339C0 1.18519 0.299736 0.343733 0.706716 0.0852459V0H12.0265C12.5641 0 13 0.977578 13 2.18339Z" fill="white"/>
</g>
<defs>
<clipPath id="clip0_601_7">
<rect width="13" height="7.13178" fill="white"/>
</clipPath>
</defs>
</svg>
