<svg width="13" height="13" viewBox="0 0 13 13" fill="none" xmlns="http://www.w3.org/2000/svg">
<g clip-path="url(#clip0_601_6)">
<path d="M3.57495 8.35742C2.67917 8.35742 1.95007 9.399 1.95007 10.6787C1.95007 11.9584 2.67917 13 3.57495 13C4.47074 13 5.19983 11.9584 5.19983 10.6787C5.19983 9.399 4.47074 8.35742 3.57495 8.35742V8.35742ZM3.57495 11.6078C3.21693 11.6078 2.9251 11.1902 2.9251 10.6787C2.9251 10.1672 3.21693 9.75033 3.57495 9.75033C3.93298 9.75033 4.22481 10.1672 4.22481 10.6787C4.22481 11.1902 3.93249 11.6078 3.57495 11.6078Z" fill="white"/>
<path d="M12.6748 8.35744H11.05V0.928374C11.05 0.416215 10.7591 0 10.4001 0H0.649855C0.290864 0 0 0.416215 0 0.928374V9.28581C0 9.79866 0.290864 10.2149 0.649855 10.2149H1.33305C1.40649 9.49289 1.64372 8.84544 1.99015 8.35744C2.39746 7.78385 2.95551 7.42906 3.57493 7.42906C4.19434 7.42906 4.7524 7.78316 5.1597 8.35744C5.50613 8.84475 5.74337 9.49151 5.81729 10.2149H12.6748C12.8546 10.2149 13 10.0064 13 9.75035V8.82197C13 8.56658 12.8536 8.35744 12.6748 8.35744V8.35744ZM10.417 8.35744H6.00717C5.48246 7.23787 4.58909 6.50069 3.57493 6.50069C2.56077 6.50069 1.6674 7.23787 1.14268 8.35744H0.566751V3.62584C0.969226 4.69778 1.67223 5.86567 2.78012 5.57922C4.7437 5.0712 4.61276 6.54072 6.2961 6.56764C7.97945 6.59456 7.73642 4.96421 8.61529 4.51003C9.44343 4.08209 9.40864 8.32362 10.417 7.76935V8.35744Z" fill="white"/>
</g>
<defs>
<clipPath id="clip0_601_6">
<rect width="13" height="13" fill="white"/>
</clipPath>
</defs>
</svg>
