<svg width="13" height="13" viewBox="0 0 13 13" fill="none" xmlns="http://www.w3.org/2000/svg">
<path d="M12.6722 9.5523L8.87289 9.57551C8.94303 9.93532 8.93134 10.3299 8.80275 10.7246C8.56895 11.3978 8.00782 11.9317 7.30641 12.1058C6.34781 12.3495 5.47105 11.9665 4.96837 11.3049C4.51246 11.9085 3.75259 12.2799 2.92259 12.1638C1.81202 12.0129 1.02878 11.0031 1.02878 9.88889V8.6934C1.02878 8.20592 1.41456 7.8229 1.90555 7.8229L12.8709 7.79969L12.6839 9.5523H12.6722ZM4.09161 9.98174C4.09161 9.52908 3.69414 9.13446 3.21485 9.13446C2.73555 9.13446 2.33808 9.52908 2.33808 10.005C2.33808 10.4808 2.73555 10.8755 3.21485 10.8755C3.69414 10.8755 4.09161 10.4924 4.09161 9.98174ZM7.59866 9.98174C7.59866 9.52908 7.2012 9.13446 6.7219 9.13446C6.2426 9.13446 5.84514 9.52908 5.84514 10.005C5.84514 10.4808 6.2426 10.8755 6.7219 10.8755C7.2012 10.8755 7.59866 10.4924 7.59866 9.98174ZM0.818358 5.86137L0.0234262 1.54369C-0.128546 0.708007 0.467653 0 1.3678 0H11.6318C12.5319 0 13.1281 0.708007 12.9761 1.54369L12.1812 5.86137C12.0643 6.47653 11.3863 6.96401 10.6615 6.96401H2.33808C1.61329 6.96401 0.93526 6.47653 0.818358 5.86137V5.86137ZM2.64203 5.86137H3.55386L3.1447 1.54369H2.10428L2.64203 5.86137ZM4.90992 5.86137H5.82176L5.72823 1.54369H4.68781L4.90992 5.86137V5.86137ZM7.17782 5.86137H8.08965L8.31176 1.54369H7.27134L7.17782 5.86137V5.86137ZM9.44571 5.86137H10.3575L10.8953 1.54369H9.85487L9.44571 5.86137Z" fill="white"/>
</svg>
