<svg width="13" height="12" viewBox="0 0 13 12" fill="none" xmlns="http://www.w3.org/2000/svg">
<path d="M11.4948 6.02688C12.0072 6.02688 12.4235 4.67593 12.4235 3.01344C12.4235 1.35095 12.0072 0 11.4948 0H0.675477V0.11355C0.285331 0.471669 0 1.63337 0 3.01053C0 4.38769 0.285331 5.54939 0.675477 5.90751V6.02397H11.4948V6.02688Z" fill="white"/>
<path d="M0.928772 6.58008V8.59777H2.00313C2.27681 7.85242 2.99305 7.32252 3.83158 7.32252C4.6701 7.32252 5.38925 7.85242 5.66002 8.59777H6.4374C6.70817 7.85242 7.42441 7.32252 8.26585 7.32252C9.10728 7.32252 9.82061 7.85242 10.0943 8.59777H13V6.58008H0.928772Z" fill="white"/>
<path d="M3.83158 7.54675C2.8766 7.54675 2.10504 8.32122 2.10504 9.27621C2.10504 10.2312 2.8766 11.0027 3.83158 11.0027C4.78657 11.0027 5.56104 10.2283 5.56104 9.27621C5.56104 8.32413 4.78657 7.54675 3.83158 7.54675V7.54675ZM3.83158 10.7116C3.03965 10.7116 2.3962 10.0681 2.3962 9.27621C2.3962 8.48427 3.03965 7.83791 3.83158 7.83791C4.62352 7.83791 5.26988 8.48136 5.26988 9.27621C5.26988 10.0711 4.62352 10.7116 3.83158 10.7116Z" fill="white"/>
<path d="M8.26583 7.54675C7.31085 7.54675 6.53638 8.32122 6.53638 9.27621C6.53638 10.2312 7.31085 11.0027 8.26583 11.0027C9.22081 11.0027 9.99237 10.2283 9.99237 9.27621C9.99237 8.32413 9.22081 7.54675 8.26583 7.54675V7.54675ZM8.26583 10.7116C7.47389 10.7116 6.82753 10.0681 6.82753 9.27621C6.82753 8.48427 7.47389 7.83791 8.26583 7.83791C9.05777 7.83791 9.70122 8.48136 9.70122 9.27621C9.70122 10.0711 9.05777 10.7116 8.26583 10.7116Z" fill="white"/>
<path d="M8.26586 8.37354C7.76798 8.37354 7.36328 8.77824 7.36328 9.27611C7.36328 9.77399 7.76798 10.1787 8.26586 10.1787C8.76373 10.1787 9.16843 9.77399 9.16843 9.27611C9.16843 8.77824 8.76664 8.37354 8.26586 8.37354V8.37354Z" fill="white"/>
<path d="M3.83446 8.37354C3.33659 8.37354 2.93188 8.77824 2.93188 9.27611C2.93188 9.77399 3.33659 10.1787 3.83446 10.1787C4.33233 10.1787 4.73704 9.77399 4.73704 9.27611C4.73704 8.77824 4.33525 8.37354 3.83446 8.37354V8.37354Z" fill="white"/>
</svg>
