<svg width="13" height="6" viewBox="0 0 13 6" fill="none" xmlns="http://www.w3.org/2000/svg">
<path d="M12.7818 2.07821L8.61106 2.10574C8.68805 2.53239 8.67522 3.00033 8.53406 3.46828C8.27739 4.26653 7.6614 4.89963 6.89141 5.10607C5.83909 5.3951 4.8766 4.94092 4.32478 4.15643C3.82428 4.8721 2.99013 5.31252 2.07897 5.17489C0.859822 4.99597 0 3.79859 0 2.47734V1.05975C0 0.481704 0.423495 0.0275257 0.962488 0.0275257L13 0L12.7947 2.07821H12.7818ZM3.36229 2.58744C3.36229 2.05069 2.92596 1.58274 2.3998 1.58274C1.87364 1.58274 1.43732 2.05069 1.43732 2.61497C1.43732 3.17925 1.87364 3.64719 2.3998 3.64719C2.92596 3.64719 3.36229 3.19302 3.36229 2.58744ZM7.21224 2.58744C7.21224 2.05069 6.77591 1.58274 6.24975 1.58274C5.72359 1.58274 5.28727 2.05069 5.28727 2.61497C5.28727 3.17925 5.72359 3.64719 6.24975 3.64719C6.77591 3.64719 7.21224 3.19302 7.21224 2.58744Z" fill="white"/>
</svg>
