<svg width="24" height="24" viewBox="0 0 24 24" fill="white" xmlns="http://www.w3.org/2000/svg">
<path d="M22.8046 21.3727L18.5167 17.1162C20.1811 15.0393 20.9872 12.4032 20.7691 9.7498C20.551 7.09642 19.3253 4.62751 17.3442 2.85072C15.363 1.07393 12.7768 0.124313 10.1175 0.197136C7.4582 0.26996 4.92782 1.35969 3.04669 3.24224C1.16556 5.1248 0.0766647 7.6571 0.0038961 10.3184C-0.0688725 12.9798 0.880021 15.5679 2.65546 17.5506C4.43091 19.5333 6.89795 20.7598 9.54931 20.9781C12.2007 21.1964 14.8348 20.3897 16.9101 18.724L21.1634 22.9805C21.2709 23.0889 21.3987 23.175 21.5395 23.2337C21.6804 23.2924 21.8315 23.3226 21.984 23.3226C22.1366 23.3226 22.2877 23.2924 22.4285 23.2337C22.5694 23.175 22.6972 23.0889 22.8046 22.9805C23.013 22.7648 23.1294 22.4766 23.1294 22.1766C23.1294 21.8767 23.013 21.5884 22.8046 21.3727ZM10.4262 18.724C8.82606 18.724 7.26185 18.2491 5.93137 17.3595C4.6009 16.4698 3.56392 15.2053 2.95157 13.7258C2.33922 12.2463 2.17901 10.6184 2.49118 9.04779C2.80335 7.4772 3.5739 6.03452 4.70537 4.90218C5.83684 3.76985 7.27843 2.99872 8.84783 2.68631C10.4172 2.3739 12.044 2.53424 13.5223 3.14705C15.0006 3.75987 16.2642 4.79763 17.1532 6.12912C18.0422 7.4606 18.5167 9.026 18.5167 10.6274C18.5167 12.7747 17.6643 14.8341 16.147 16.3525C14.6298 17.871 12.5719 18.724 10.4262 18.724Z" fill="#ffffff"/>
</svg>
