<svg width="19" height="19" viewBox="0 0 19 19" fill="none" xmlns="http://www.w3.org/2000/svg">
<path d="M9.40759 0.0435791C7.57776 0.0435791 5.78903 0.586185 4.26758 1.60278C2.74614 2.61938 1.56032 4.06431 0.860075 5.75484C0.159831 7.44538 -0.0233843 9.3056 0.333597 11.1003C0.690578 12.8949 1.57172 14.5434 2.8656 15.8373C4.15949 17.1312 5.80799 18.0124 7.60266 18.3693C9.39733 18.7263 11.2575 18.5431 12.9481 17.8429C14.6386 17.1426 16.0835 15.9568 17.1001 14.4353C18.1167 12.9139 18.6593 11.1252 18.6593 9.29534C18.6593 8.08038 18.42 6.87732 17.9551 5.75484C17.4902 4.63237 16.8087 3.61246 15.9496 2.75336C15.0905 1.89425 14.0706 1.21277 12.9481 0.747828C11.8256 0.282883 10.6225 0.0435791 9.40759 0.0435791ZM9.40759 16.6967C7.94373 16.6967 6.51274 16.2627 5.29559 15.4494C4.07843 14.6361 3.12977 13.4802 2.56958 12.1277C2.00938 10.7753 1.86281 9.28713 2.1484 7.8514C2.43398 6.41566 3.1389 5.09686 4.174 4.06175C5.20911 3.02665 6.52791 2.32173 7.96364 2.03615C9.39938 1.75056 10.8876 1.89714 12.24 2.45733C13.5924 3.01753 14.7484 3.96618 15.5616 5.18334C16.3749 6.40049 16.809 7.83148 16.809 9.29534C16.809 11.2583 16.0292 13.1409 14.6412 14.5289C13.2531 15.917 11.3706 16.6967 9.40759 16.6967ZM13.1083 8.37016H10.3328V5.59464C10.3328 5.34926 10.2353 5.11394 10.0618 4.94044C9.88828 4.76693 9.65296 4.66946 9.40759 4.66946C9.16222 4.66946 8.92689 4.76693 8.75339 4.94044C8.57989 5.11394 8.48241 5.34926 8.48241 5.59464V8.37016H5.70688C5.46151 8.37016 5.22619 8.46764 5.05269 8.64114C4.87918 8.81465 4.78171 9.04997 4.78171 9.29534C4.78171 9.54071 4.87918 9.77603 5.05269 9.94954C5.22619 10.123 5.46151 10.2205 5.70688 10.2205H8.48241V12.996C8.48241 13.2414 8.57989 13.4767 8.75339 13.6502C8.92689 13.8237 9.16222 13.9212 9.40759 13.9212C9.65296 13.9212 9.88828 13.8237 10.0618 13.6502C10.2353 13.4767 10.3328 13.2414 10.3328 12.996V10.2205H13.1083C13.3537 10.2205 13.589 10.123 13.7625 9.94954C13.936 9.77603 14.0335 9.54071 14.0335 9.29534C14.0335 9.04997 13.936 8.81465 13.7625 8.64114C13.589 8.46764 13.3537 8.37016 13.1083 8.37016Z" fill="white"/>
</svg>
