<svg width="19" height="20" viewBox="0 0 19 20" fill="none" xmlns="http://www.w3.org/2000/svg">
<path d="M9.21568 17.5136H3.66463C3.41926 17.5136 3.18393 17.4162 3.01043 17.2427C2.83693 17.0692 2.73945 16.8338 2.73945 16.5885V3.636C2.73945 3.39063 2.83693 3.15531 3.01043 2.9818C3.18393 2.8083 3.41926 2.71083 3.66463 2.71083H8.29051V5.48635C8.29051 6.22247 8.58293 6.92844 9.10344 7.44895C9.62395 7.96946 10.3299 8.26188 11.066 8.26188H13.8416V12.8878C13.8416 13.1331 13.939 13.3685 14.1125 13.542C14.286 13.7155 14.5214 13.8129 14.7667 13.8129C15.0121 13.8129 15.2474 13.7155 15.4209 13.542C15.5944 13.3685 15.6919 13.1331 15.6919 12.8878V7.33671C15.6919 7.33671 15.6919 7.33671 15.6919 7.2812C15.6823 7.1962 15.6637 7.11247 15.6364 7.0314V6.94813C15.5919 6.85301 15.5326 6.76556 15.4606 6.68908L9.90957 1.13803C9.83309 1.06606 9.74564 1.00673 9.65052 0.962243C9.61991 0.956886 9.58861 0.956886 9.558 0.962243C9.46804 0.914137 9.37136 0.87983 9.27119 0.860474H3.66463C2.92851 0.860474 2.22255 1.15289 1.70203 1.67341C1.18152 2.19392 0.889099 2.89989 0.889099 3.636V16.5885C0.889099 17.3246 1.18152 18.0306 1.70203 18.5511C2.22255 19.0716 2.92851 19.364 3.66463 19.364H9.21568C9.46106 19.364 9.69638 19.2665 9.86988 19.093C10.0434 18.9195 10.1409 18.6842 10.1409 18.4388C10.1409 18.1934 10.0434 17.9581 9.86988 17.7846C9.69638 17.6111 9.46106 17.5136 9.21568 17.5136ZM10.1409 4.01532L12.5371 6.41153H11.066C10.8207 6.41153 10.5853 6.31406 10.4118 6.14055C10.2383 5.96705 10.1409 5.73173 10.1409 5.48635V4.01532ZM5.51498 11.9626H11.066C11.3114 11.9626 11.5467 11.8651 11.7202 11.6916C11.8937 11.5181 11.9912 11.2828 11.9912 11.0374C11.9912 10.792 11.8937 10.5567 11.7202 10.3832C11.5467 10.2097 11.3114 10.1122 11.066 10.1122H5.51498C5.26961 10.1122 5.03429 10.2097 4.86078 10.3832C4.68728 10.5567 4.5898 10.792 4.5898 11.0374C4.5898 11.2828 4.68728 11.5181 4.86078 11.6916C5.03429 11.8651 5.26961 11.9626 5.51498 11.9626ZM9.21568 13.8129H5.51498C5.26961 13.8129 5.03429 13.9104 4.86078 14.0839C4.68728 14.2574 4.5898 14.4927 4.5898 14.7381C4.5898 14.9835 4.68728 15.2188 4.86078 15.3923C5.03429 15.5658 5.26961 15.6633 5.51498 15.6633H9.21568C9.46106 15.6633 9.69638 15.5658 9.86988 15.3923C10.0434 15.2188 10.1409 14.9835 10.1409 14.7381C10.1409 14.4927 10.0434 14.2574 9.86988 14.0839C9.69638 13.9104 9.46106 13.8129 9.21568 13.8129ZM5.51498 8.26188H6.44016C6.68553 8.26188 6.92085 8.16441 7.09435 7.9909C7.26786 7.8174 7.36533 7.58208 7.36533 7.33671C7.36533 7.09133 7.26786 6.85601 7.09435 6.68251C6.92085 6.509 6.68553 6.41153 6.44016 6.41153H5.51498C5.26961 6.41153 5.03429 6.509 4.86078 6.68251C4.68728 6.85601 4.5898 7.09133 4.5898 7.33671C4.5898 7.58208 4.68728 7.8174 4.86078 7.9909C5.03429 8.16441 5.26961 8.26188 5.51498 8.26188ZM18.1991 14.0812C18.1131 13.9945 18.0108 13.9257 17.8981 13.8787C17.7853 13.8318 17.6644 13.8076 17.5423 13.8076C17.4201 13.8076 17.2992 13.8318 17.1865 13.8787C17.0737 13.9257 16.9714 13.9945 16.8854 14.0812L13.8416 17.1343L12.6481 15.9316C12.5618 15.8453 12.4594 15.7769 12.3467 15.7302C12.234 15.6835 12.1132 15.6595 11.9912 15.6595C11.8692 15.6595 11.7484 15.6835 11.6357 15.7302C11.523 15.7769 11.4206 15.8453 11.3343 15.9316C11.2481 16.0179 11.1796 16.1203 11.133 16.233C11.0863 16.3457 11.0623 16.4665 11.0623 16.5885C11.0623 16.7105 11.0863 16.8313 11.133 16.944C11.1796 17.0567 11.2481 17.1591 11.3343 17.2453L13.1847 19.0957C13.2707 19.1824 13.373 19.2512 13.4858 19.2982C13.5985 19.3452 13.7194 19.3694 13.8416 19.3694C13.9637 19.3694 14.0846 19.3452 14.1974 19.2982C14.3101 19.2512 14.4124 19.1824 14.4984 19.0957L18.1991 15.395C18.2859 15.309 18.3547 15.2067 18.4017 15.0939C18.4486 14.9812 18.4728 14.8602 18.4728 14.7381C18.4728 14.616 18.4486 14.4951 18.4017 14.3823C18.3547 14.2696 18.2859 14.1672 18.1991 14.0812Z" fill="white"/>
</svg>
