<svg width="15" height="21" viewBox="0 0 15 21" fill="none" xmlns="http://www.w3.org/2000/svg">
<g clip-path="url(#clip0_1461_72)">
<path d="M6.52518 6.42392C6.49737 6.77704 6.48294 7.16199 6.49325 7.57363C6.51076 8.32607 6.60347 8.99638 6.72193 9.56405C6.50458 9.59279 4.80902 9.84634 3.88398 11.3964C3.12067 12.6754 3.39158 13.9863 3.50078 14.402C3.5564 14.6125 3.69959 15.0847 4.04261 15.5949C4.13944 15.7396 5.1026 17.1254 6.74871 17.3215C6.94031 17.3441 7.07938 17.3441 7.19269 17.3441C8.03944 17.342 9.3106 17.3543 11.2111 17.4108C11.2204 16.6111 11.2256 15.64 11.2173 14.5324C11.206 12.7565 11.173 12.273 10.8795 11.6766C10.4643 10.8349 9.81844 10.3524 9.50838 10.1522C8.47827 9.48501 7.44198 9.49938 7.07938 9.52196C6.98564 9.02821 6.88881 8.3353 6.88366 7.50485C6.87851 6.65078 6.87336 5.33273 7.50172 3.84632C7.50172 3.84632 8.41131 1.69576 10.2913 0.544004C10.6508 0.323301 11.2791 -0.049326 12.0806 0.0194509C12.3031 0.0389548 12.4813 0.0872014 12.5946 0.12313C13.532 0.624072 13.7751 1.77788 13.2734 2.47694C12.8161 3.11339 11.821 3.25607 11.1524 2.81364C10.4705 2.36197 10.454 1.5192 10.453 1.44324C10.0296 1.78815 9.51971 2.2819 9.05513 2.95838C8.13215 4.30415 7.88904 5.6489 7.81385 6.3921C8.95006 6.46909 9.79681 6.79347 10.2954 7.02854C12.2742 7.96268 13.3311 9.64412 13.7565 10.7168C13.8822 11.034 14.1943 11.807 14.2386 12.7842C14.25 13.0306 14.2479 13.3673 14.2459 13.626C14.2407 14.3682 14.2108 14.9133 14.2046 15.021C14.1737 15.6164 14.147 17.0289 14.1511 20.361C13.157 20.3692 11.7746 20.3713 10.1223 20.3477C6.52312 20.2953 5.94523 20.1783 5.41678 20.0089C4.88936 19.8406 2.49436 19.0727 1.182 16.6953C-0.252944 14.089 0.404266 10.9909 1.70941 9.19245C2.23374 8.46978 2.84151 7.98321 3.04238 7.82923C4.398 6.78526 5.81337 6.51117 6.52518 6.42495V6.42392Z" fill="white"/>
<path d="M8.3176 13.5048C8.66976 13.5048 8.95524 13.2203 8.95524 12.8693C8.95524 12.5184 8.66976 12.2339 8.3176 12.2339C7.96544 12.2339 7.67996 12.5184 7.67996 12.8693C7.67996 13.2203 7.96544 13.5048 8.3176 13.5048Z" fill="white"/>
</g>
<defs>
<clipPath id="clip0_1461_72">
<rect width="13.8776" height="20.3539" fill="white" transform="translate(0.372375 0.0101318)"/>
</clipPath>
</defs>
</svg>
