<svg width="22" height="20" viewBox="0 0 22 20" fill="none" xmlns="http://www.w3.org/2000/svg">
<path d="M21 0H1C0.734784 0 0.48043 0.105357 0.292893 0.292893C0.105357 0.48043 0 0.734784 0 1V5C0.00173951 5.61894 0.194878 6.2222 0.552938 6.72707C0.910998 7.23193 1.41645 7.61369 2 7.82V19C2 19.2652 2.10536 19.5196 2.29289 19.7071C2.48043 19.8946 2.73478 20 3 20H19C19.2652 20 19.5196 19.8946 19.7071 19.7071C19.8946 19.5196 20 19.2652 20 19V7.82C20.5835 7.61369 21.089 7.23193 21.4471 6.72707C21.8051 6.2222 21.9983 5.61894 22 5V1C22 0.734784 21.8946 0.48043 21.7071 0.292893C21.5196 0.105357 21.2652 0 21 0V0ZM14 2H16V5C16 5.26522 15.8946 5.51957 15.7071 5.70711C15.5196 5.89464 15.2652 6 15 6C14.7348 6 14.4804 5.89464 14.2929 5.70711C14.1054 5.51957 14 5.26522 14 5V2ZM10 2H12V5C12 5.26522 11.8946 5.51957 11.7071 5.70711C11.5196 5.89464 11.2652 6 11 6C10.7348 6 10.4804 5.89464 10.2929 5.70711C10.1054 5.51957 10 5.26522 10 5V2ZM6 2H8V5C8 5.26522 7.89464 5.51957 7.70711 5.70711C7.51957 5.89464 7.26522 6 7 6C6.73478 6 6.48043 5.89464 6.29289 5.70711C6.10536 5.51957 6 5.26522 6 5V2ZM3 6C2.73478 6 2.48043 5.89464 2.29289 5.70711C2.10536 5.51957 2 5.26522 2 5V2H4V5C4 5.26522 3.89464 5.51957 3.70711 5.70711C3.51957 5.89464 3.26522 6 3 6ZM13 18H9V14C9 13.4696 9.21071 12.9609 9.58579 12.5858C9.96086 12.2107 10.4696 12 11 12C11.5304 12 12.0391 12.2107 12.4142 12.5858C12.7893 12.9609 13 13.4696 13 14V18ZM18 18H15V14C15 12.9391 14.5786 11.9217 13.8284 11.1716C13.0783 10.4214 12.0609 10 11 10C9.93913 10 8.92172 10.4214 8.17157 11.1716C7.42143 11.9217 7 12.9391 7 14V18H4V7.82C4.36757 7.68356 4.70664 7.48012 5 7.22C5.55002 7.71196 6.26207 7.98393 7 7.98393C7.73793 7.98393 8.44998 7.71196 9 7.22C9.55002 7.71196 10.2621 7.98393 11 7.98393C11.7379 7.98393 12.45 7.71196 13 7.22C13.55 7.71196 14.2621 7.98393 15 7.98393C15.7379 7.98393 16.45 7.71196 17 7.22C17.2934 7.48012 17.6324 7.68356 18 7.82V18ZM20 5C20 5.26522 19.8946 5.51957 19.7071 5.70711C19.5196 5.89464 19.2652 6 19 6C18.7348 6 18.4804 5.89464 18.2929 5.70711C18.1054 5.51957 18 5.26522 18 5V2H20V5Z" fill="white"/>
</svg>
