<svg width="18" height="20" viewBox="0 0 18 20" fill="none" xmlns="http://www.w3.org/2000/svg">
<path d="M9.82699 10.1122H5.20111C4.95574 10.1122 4.72042 10.2097 4.54691 10.3832C4.37341 10.5567 4.27594 10.792 4.27594 11.0374C4.27594 11.2828 4.37341 11.5181 4.54691 11.6916C4.72042 11.8651 4.95574 11.9626 5.20111 11.9626H9.82699C10.0724 11.9626 10.3077 11.8651 10.4812 11.6916C10.6547 11.5181 10.7522 11.2828 10.7522 11.0374C10.7522 10.792 10.6547 10.5567 10.4812 10.3832C10.3077 10.2097 10.0724 10.1122 9.82699 10.1122ZM10.7522 17.5136H3.35076C3.10539 17.5136 2.87007 17.4162 2.69656 17.2427C2.52306 17.0692 2.42558 16.8338 2.42558 16.5885V3.636C2.42558 3.39063 2.52306 3.15531 2.69656 2.9818C2.87007 2.8083 3.10539 2.71083 3.35076 2.71083H7.97664V5.48635C7.97664 6.22247 8.26906 6.92844 8.78957 7.44895C9.31009 7.96946 10.0161 8.26188 10.7522 8.26188H13.5277V9.18706C13.5277 9.43243 13.6252 9.66775 13.7987 9.84126C13.9722 10.0148 14.2075 10.1122 14.4529 10.1122C14.6982 10.1122 14.9336 10.0148 15.1071 9.84126C15.2806 9.66775 15.378 9.43243 15.378 9.18706V7.33671C15.3821 7.31842 15.3821 7.29948 15.378 7.2812C15.3702 7.19496 15.3483 7.11059 15.3133 7.0314V6.94813C15.2688 6.85301 15.2095 6.76556 15.1375 6.68908L9.58645 1.13803C9.50793 1.06426 9.41713 1.00477 9.31815 0.962243C9.31815 0.962243 9.27189 0.962243 9.24413 0.962243C9.15296 0.909487 9.05241 0.874925 8.94807 0.860474H3.39702C2.6609 0.860474 1.95494 1.15289 1.43442 1.67341C0.913911 2.19392 0.62149 2.89989 0.62149 3.636V16.5885C0.62149 17.3246 0.913911 18.0306 1.43442 18.5511C1.95494 19.0716 2.6609 19.364 3.39702 19.364H10.7984C11.0438 19.364 11.2791 19.2665 11.4526 19.093C11.6261 18.9195 11.7236 18.6842 11.7236 18.4388C11.7236 18.1934 11.6261 17.9581 11.4526 17.7846C11.2791 17.6111 11.0438 17.5136 10.7984 17.5136H10.7522ZM9.82699 4.01532L12.2139 6.41153H10.7522C10.5068 6.41153 10.2715 6.31406 10.098 6.14055C9.92447 5.96705 9.82699 5.73173 9.82699 5.48635V4.01532ZM14.9802 17.7819C14.9363 17.7422 14.8899 17.7051 14.8414 17.6709C14.7398 17.6048 14.6269 17.5578 14.5084 17.5321C14.3597 17.5024 14.2061 17.5096 14.0609 17.5532C13.9157 17.5967 13.7834 17.6753 13.6757 17.7819C13.589 17.868 13.5202 17.9703 13.4732 18.083C13.4262 18.1958 13.4021 18.3167 13.4021 18.4388C13.4021 18.561 13.4262 18.6819 13.4732 18.7946C13.5202 18.9074 13.589 19.0097 13.6757 19.0957C13.848 19.2666 14.0806 19.363 14.3233 19.364C14.4757 19.3648 14.6258 19.3279 14.7605 19.2567C14.8951 19.1855 15.0101 19.0822 15.0952 18.9559C15.1803 18.8296 15.2329 18.6842 15.2484 18.5327C15.2638 18.3811 15.2416 18.2281 15.1838 18.0873C15.1335 17.9748 15.0647 17.8716 14.9802 17.7819ZM9.82699 13.8129H5.20111C4.95574 13.8129 4.72042 13.9104 4.54691 14.0839C4.37341 14.2574 4.27594 14.4927 4.27594 14.7381C4.27594 14.9835 4.37341 15.2188 4.54691 15.3923C4.72042 15.5658 4.95574 15.6633 5.20111 15.6633H9.82699C10.0724 15.6633 10.3077 15.5658 10.4812 15.3923C10.6547 15.2188 10.7522 14.9835 10.7522 14.7381C10.7522 14.4927 10.6547 14.2574 10.4812 14.0839C10.3077 13.9104 10.0724 13.8129 9.82699 13.8129ZM14.3233 11.0374C13.8358 11.0371 13.3568 11.1652 12.9346 11.4088C12.5123 11.6524 12.1616 12.003 11.9179 12.4252C11.8571 12.5309 11.8178 12.6475 11.8021 12.7684C11.7865 12.8893 11.7948 13.0121 11.8265 13.1298C11.8583 13.2475 11.913 13.3578 11.9874 13.4544C12.0618 13.5509 12.1545 13.6319 12.2602 13.6927C12.3659 13.7534 12.4825 13.7927 12.6034 13.8084C12.7243 13.8241 12.8471 13.8158 12.9648 13.784C13.0825 13.7522 13.1928 13.6976 13.2894 13.6232C13.386 13.5488 13.4669 13.4561 13.5277 13.3504C13.609 13.2095 13.726 13.0926 13.8669 13.0114C14.0079 12.9302 14.1677 12.8875 14.3303 12.8878C14.493 12.888 14.6527 12.9311 14.7933 13.0128C14.934 13.0944 15.0506 13.2117 15.1315 13.3528C15.2124 13.4939 15.2547 13.6538 15.2541 13.8164C15.2535 13.9791 15.21 14.1387 15.128 14.2792C15.0461 14.4196 14.9285 14.536 14.7873 14.6166C14.646 14.6972 14.486 14.7391 14.3233 14.7381C14.078 14.7381 13.8427 14.8356 13.6691 15.0091C13.4956 15.1826 13.3982 15.4179 13.3982 15.6633C13.3982 15.9087 13.4956 16.144 13.6691 16.3175C13.8427 16.491 14.078 16.5885 14.3233 16.5885C15.0595 16.5885 15.7654 16.296 16.2859 15.7755C16.8065 15.255 17.0989 14.5491 17.0989 13.8129C17.0989 13.0768 16.8065 12.3709 16.2859 11.8503C15.7654 11.3298 15.0595 11.0374 14.3233 11.0374ZM5.20111 8.26188H6.12629C6.37166 8.26188 6.60698 8.16441 6.78049 7.9909C6.95399 7.8174 7.05146 7.58208 7.05146 7.33671C7.05146 7.09133 6.95399 6.85601 6.78049 6.68251C6.60698 6.509 6.37166 6.41153 6.12629 6.41153H5.20111C4.95574 6.41153 4.72042 6.509 4.54691 6.68251C4.37341 6.85601 4.27594 7.09133 4.27594 7.33671C4.27594 7.58208 4.37341 7.8174 4.54691 7.9909C4.72042 8.16441 4.95574 8.26188 5.20111 8.26188Z" fill="white"/>
</svg>
