<svg width="18" height="15" viewBox="0 0 18 15" fill="none" xmlns="http://www.w3.org/2000/svg">
<path d="M0 7.89474V11.8421C0 12.0515 0.086201 12.2523 0.23964 12.4003C0.393079 12.5484 0.601186 12.6316 0.818182 12.6316H1.63636C1.63636 13.2597 1.89497 13.8621 2.35528 14.3063C2.8156 14.7505 3.43992 15 4.09091 15C4.74189 15 5.36622 14.7505 5.82654 14.3063C6.28685 13.8621 6.54545 13.2597 6.54545 12.6316H11.4545C11.4545 13.2597 11.7131 13.8621 12.1735 14.3063C12.6338 14.7505 13.2581 15 13.9091 15C14.5601 15 15.1844 14.7505 15.6447 14.3063C16.105 13.8621 16.3636 13.2597 16.3636 12.6316H17.1818C17.3988 12.6316 17.6069 12.5484 17.7604 12.4003C17.9138 12.2523 18 12.0515 18 11.8421V2.36842C18 1.74028 17.7414 1.13786 17.2811 0.693695C16.8208 0.249529 16.1964 0 15.5455 0H8.18182C7.53083 0 6.90651 0.249529 6.44619 0.693695C5.98588 1.13786 5.72727 1.74028 5.72727 2.36842V3.94737H4.09091C3.70985 3.94737 3.33403 4.03298 2.9932 4.19741C2.65238 4.36184 2.35591 4.60059 2.12727 4.89474L0.163636 7.42105C0.139706 7.45537 0.120456 7.49252 0.106364 7.53158L0.0572728 7.61842C0.0211631 7.70647 0.00176322 7.80006 0 7.89474V7.89474ZM13.0909 12.6316C13.0909 12.4754 13.1389 12.3228 13.2288 12.193C13.3187 12.0631 13.4465 11.962 13.596 11.9022C13.7455 11.8424 13.91 11.8268 14.0687 11.8573C14.2274 11.8877 14.3732 11.9629 14.4876 12.0733C14.6021 12.1837 14.68 12.3244 14.7116 12.4776C14.7431 12.6307 14.7269 12.7894 14.665 12.9337C14.6031 13.078 14.4982 13.2013 14.3636 13.288C14.2291 13.3748 14.0709 13.4211 13.9091 13.4211C13.6921 13.4211 13.484 13.3379 13.3305 13.1898C13.1771 13.0418 13.0909 12.841 13.0909 12.6316ZM7.36364 2.36842C7.36364 2.15904 7.44984 1.95823 7.60328 1.81018C7.75672 1.66212 7.96482 1.57895 8.18182 1.57895H15.5455C15.7624 1.57895 15.9706 1.66212 16.124 1.81018C16.2774 1.95823 16.3636 2.15904 16.3636 2.36842V11.0526H15.7255C15.4954 10.8084 15.215 10.6133 14.9022 10.4797C14.5894 10.3462 14.2511 10.2772 13.9091 10.2772C13.5671 10.2772 13.2288 10.3462 12.916 10.4797C12.6032 10.6133 12.3228 10.8084 12.0927 11.0526H7.36364V2.36842ZM5.72727 7.10526H2.45455L3.43636 5.84211C3.51257 5.74406 3.6114 5.66447 3.72501 5.60966C3.83862 5.55485 3.96389 5.52632 4.09091 5.52632H5.72727V7.10526ZM3.27273 12.6316C3.27273 12.4754 3.32071 12.3228 3.41062 12.193C3.50052 12.0631 3.6283 11.962 3.7778 11.9022C3.92731 11.8424 4.09182 11.8268 4.25053 11.8573C4.40924 11.8877 4.55503 11.9629 4.66945 12.0733C4.78388 12.1837 4.8618 12.3244 4.89337 12.4776C4.92494 12.6307 4.90874 12.7894 4.84681 12.9337C4.78488 13.078 4.68002 13.2013 4.54547 13.288C4.41092 13.3748 4.25273 13.4211 4.09091 13.4211C3.87391 13.4211 3.66581 13.3379 3.51237 13.1898C3.35893 13.0418 3.27273 12.841 3.27273 12.6316ZM1.63636 8.68421H5.72727V10.8789C5.24441 10.4625 4.61056 10.2471 3.96384 10.2797C3.31711 10.3122 2.70992 10.59 2.27455 11.0526H1.63636V8.68421Z" fill="white"/>
</svg>
