<svg width="21" height="21" viewBox="0 0 21 21" fill="none" xmlns="http://www.w3.org/2000/svg">
<path d="M1.6608 15.28C1.75893 15.5267 1.95103 15.7242 2.19482 15.8292C2.43862 15.9343 2.71415 15.9381 2.9608 15.84C3.20745 15.7419 3.40502 15.5498 3.51004 15.306C3.61506 15.0622 3.61893 14.7867 3.5208 14.54L2.4008 11.72L9.0408 10.25V15C9.0408 15.2652 9.14616 15.5196 9.3337 15.7071C9.52123 15.8946 9.77559 16 10.0408 16C10.306 16 10.5604 15.8946 10.7479 15.7071C10.9354 15.5196 11.0408 15.2652 11.0408 15V10.25L17.6808 11.72L16.5608 14.54C16.5121 14.6621 16.4879 14.7926 16.4897 14.9241C16.4915 15.0556 16.5192 15.1854 16.5712 15.3061C16.6232 15.4269 16.6985 15.5362 16.7929 15.6278C16.8872 15.7194 16.9986 15.7915 17.1208 15.84C17.2386 15.8866 17.3641 15.9103 17.4908 15.91C17.6911 15.9102 17.8868 15.8502 18.0526 15.7379C18.2184 15.6256 18.3467 15.4661 18.4208 15.28L19.9708 11.37C20.024 11.2348 20.0471 11.0896 20.0385 10.9445C20.0298 10.7994 19.9897 10.658 19.9208 10.53C19.854 10.4025 19.7604 10.2909 19.6465 10.2029C19.5326 10.1149 19.401 10.0525 19.2608 10.02L16.0408 9.31V5C16.0408 4.73478 15.9354 4.48043 15.7479 4.29289C15.5604 4.10536 15.306 4 15.0408 4H13.0408V1C13.0408 0.734784 12.9354 0.48043 12.7479 0.292893C12.5604 0.105357 12.306 0 12.0408 0H8.0408C7.77559 0 7.52123 0.105357 7.3337 0.292893C7.14616 0.48043 7.0408 0.734784 7.0408 1V4H5.0408C4.77559 4 4.52123 4.10536 4.3337 4.29289C4.14616 4.48043 4.0408 4.73478 4.0408 5V9.31L0.820803 10C0.680566 10.0325 0.548999 10.0949 0.435092 10.1829C0.321185 10.2709 0.227623 10.3825 0.160802 10.51C0.0919318 10.638 0.0517813 10.7794 0.0431462 10.9245C0.0345111 11.0696 0.057599 11.2148 0.110802 11.35L1.6608 15.28ZM9.0408 2H11.0408V4H9.0408V2ZM6.0408 6H14.0408V8.86L10.2608 8H10.1608H10.0408H9.9208H9.8208L6.0408 8.86V6ZM18.7508 17.28C18.3999 17.3875 18.064 17.5387 17.7508 17.73C17.4322 17.9163 17.0698 18.0145 16.7008 18.0145C16.3318 18.0145 15.9694 17.9163 15.6508 17.73C14.9581 17.3392 14.1762 17.1339 13.3808 17.1339C12.5854 17.1339 11.8035 17.3392 11.1108 17.73C10.7879 17.9141 10.4225 18.011 10.0508 18.011C9.67906 18.011 9.31374 17.9141 8.9908 17.73C8.29745 17.3411 7.51579 17.1368 6.7208 17.1368C5.92581 17.1368 5.14416 17.3411 4.4508 17.73C4.13224 17.9163 3.76984 18.0145 3.4008 18.0145C3.03176 18.0145 2.66937 17.9163 2.3508 17.73C2.03764 17.5387 1.70167 17.3875 1.3508 17.28C1.21774 17.2327 1.07618 17.2141 0.935416 17.2255C0.794655 17.2368 0.657895 17.2778 0.534138 17.3459C0.410381 17.4139 0.302433 17.5073 0.217402 17.6201C0.132371 17.7328 0.0721835 17.8623 0.0408025 18C-0.0338518 18.2533 -0.00530475 18.5258 0.120215 18.7581C0.245735 18.9904 0.458038 19.1636 0.710803 19.24C0.912166 19.2946 1.10428 19.3788 1.2808 19.49C1.88751 19.846 2.57737 20.0357 3.2808 20.04C4.0114 20.0401 4.72903 19.8469 5.3608 19.48C5.75278 19.2638 6.19314 19.1504 6.6408 19.1504C7.08846 19.1504 7.52883 19.2638 7.9208 19.48C8.5481 19.8387 9.25819 20.0274 9.9808 20.0274C10.7034 20.0274 11.4135 19.8387 12.0408 19.48C12.4328 19.2638 12.8731 19.1504 13.3208 19.1504C13.7685 19.1504 14.2088 19.2638 14.6008 19.48C15.2206 19.8499 15.929 20.0453 16.6508 20.0453C17.3726 20.0453 18.081 19.8499 18.7008 19.48C18.8773 19.3688 19.0694 19.2846 19.2708 19.23C19.4039 19.2031 19.5301 19.1493 19.6417 19.0721C19.7534 18.9948 19.8481 18.8956 19.9201 18.7805C19.9922 18.6654 20.04 18.5368 20.0608 18.4027C20.0815 18.2685 20.0747 18.1315 20.0408 18C20.009 17.8647 19.9494 17.7374 19.8657 17.6265C19.782 17.5155 19.676 17.4232 19.5546 17.3554C19.4333 17.2877 19.2991 17.246 19.1607 17.233C19.0223 17.22 18.8827 17.236 18.7508 17.28Z" fill="white"/>
</svg>
