<svg width="21" height="20" viewBox="0 0 21 20" fill="none" xmlns="http://www.w3.org/2000/svg">
<path d="M17.6868 4.48101C16.6679 3.94546 15.4796 3.83058 14.3769 4.16101C14.3232 3.03948 13.8398 1.98165 13.0271 1.20692C12.2144 0.432185 11.1347 0 10.0118 0C8.88903 0 7.8093 0.432185 6.99659 1.20692C6.18387 1.98165 5.70055 3.03948 5.64685 4.16101C4.54713 3.82983 3.36222 3.93364 2.33685 4.45101C1.58174 4.8479 0.959311 5.45711 0.546308 6.20352C0.133305 6.94994 -0.0522062 7.8009 0.0126509 8.65149C0.0775081 9.50208 0.389898 10.3151 0.911296 10.9902C1.43269 11.6654 2.1403 12.1732 2.94685 12.451C2.43204 13.1835 2.15295 14.0557 2.14685 14.951C2.15129 15.2024 2.17469 15.4531 2.21685 15.701C2.38525 16.7166 2.90915 17.6392 3.69499 18.3041C4.48083 18.9691 5.47744 19.333 6.50685 19.331C6.71993 19.3456 6.93377 19.3456 7.14685 19.331C8.28988 19.1509 9.31672 18.5298 10.0068 17.601C10.7042 18.5148 11.73 19.121 12.8668 19.291C13.0799 19.3056 13.2938 19.3056 13.5068 19.291C14.305 19.2901 15.0876 19.0701 15.7693 18.655C16.451 18.2399 17.0057 17.6457 17.3729 16.937C17.7402 16.2284 17.9058 15.4325 17.8518 14.6362C17.7979 13.8399 17.5263 13.0736 17.0668 12.421C17.8773 12.148 18.5896 11.6427 19.1151 10.9679C19.6405 10.2931 19.9559 9.47869 20.022 8.62601C20.0881 7.77334 19.902 6.92005 19.4867 6.17237C19.0715 5.42469 18.4456 4.81564 17.6868 4.42101V4.48101ZM8.34685 2.54101C8.79359 2.11317 9.38828 1.87434 10.0068 1.87434C10.6254 1.87434 11.2201 2.11317 11.6668 2.54101C12.0079 2.8826 12.2395 3.31803 12.3321 3.79178C12.4248 4.26553 12.3742 4.75613 12.1868 5.20101L11.9268 5.79101L11.2668 6.37101C10.8611 6.23173 10.4358 6.15748 10.0068 6.15101C9.45242 6.15154 8.90415 6.26733 8.39685 6.49101L7.83685 5.20101C7.64278 4.75809 7.58763 4.26672 7.67868 3.7918C7.76974 3.31688 8.00272 2.88075 8.34685 2.54101V2.54101ZM2.24685 9.38101C2.02361 8.88978 1.97467 8.33707 2.10814 7.81426C2.2416 7.29144 2.54947 6.82982 2.98086 6.5057C3.41224 6.18158 3.94131 6.01436 4.48062 6.03169C5.01992 6.04902 5.53716 6.24986 5.94685 6.60101L6.43685 7.03101L6.78685 7.83101C6.28589 8.50127 6.01257 9.31425 6.00685 10.151C5.99499 10.3008 5.99499 10.4512 6.00685 10.601H5.45685L4.61685 10.681C4.1364 10.7317 3.65192 10.6344 3.22834 10.402C2.80476 10.1697 2.4623 9.81343 2.24685 9.38101V9.38101ZM8.84685 15.461C8.72647 15.9949 8.42579 16.4709 7.99547 16.809C7.56514 17.147 7.03146 17.3265 6.4843 17.3171C5.93714 17.3077 5.40993 17.11 4.99146 16.7574C4.573 16.4048 4.28884 15.9187 4.18685 15.381C4.17726 15.2412 4.17726 15.1009 4.18685 14.961C4.19047 14.5546 4.30037 14.1561 4.50561 13.8053C4.71086 13.4544 5.00432 13.1634 5.35685 12.961L5.86685 12.601L6.77685 12.501C7.3504 13.2989 8.1976 13.8578 9.15685 14.071L8.84685 15.461ZM10.0068 12.151C9.61129 12.151 9.22461 12.0337 8.89571 11.814C8.56681 11.5942 8.31047 11.2818 8.15909 10.9164C8.00771 10.5509 7.96811 10.1488 8.04528 9.76083C8.12245 9.37287 8.31293 9.01651 8.59264 8.7368C8.87234 8.4571 9.22871 8.26661 9.61667 8.18944C10.0046 8.11227 10.4068 8.15188 10.7722 8.30326C11.1377 8.45463 11.45 8.71098 11.6698 9.03987C11.8896 9.36877 12.0068 9.75545 12.0068 10.151C12.0068 10.6814 11.7961 11.1902 11.4211 11.5652C11.046 11.9403 10.5373 12.151 10.0068 12.151ZM15.8268 15.371C15.7237 15.9812 15.385 16.5264 14.8837 16.8893C14.3824 17.2521 13.7587 17.4036 13.1468 17.311C12.6647 17.2431 12.2149 17.0295 11.8574 16.6989C11.5 16.3683 11.2521 15.9364 11.1468 15.461L11.0068 14.861L11.2168 13.941C12.1394 13.6406 12.9212 13.0151 13.4168 12.181L13.9168 12.481H14.0068L14.6668 12.871C15.0957 13.1159 15.4377 13.4881 15.6455 13.936C15.8534 14.384 15.9167 14.8855 15.8268 15.371V15.371ZM17.7668 9.37101C17.5702 9.76849 17.2668 10.1034 16.8906 10.3383C16.5144 10.5732 16.0803 10.6988 15.6368 10.701H15.3968L14.7568 10.601L14.0068 10.191C14.0055 9.21872 13.65 8.28023 13.0068 7.55101L13.4368 7.18101L14.0668 6.60101C14.4777 6.23576 15.0028 6.02469 15.5521 6.00394C16.1015 5.9832 16.6409 6.15408 17.0782 6.48732C17.5154 6.82055 17.8232 7.29542 17.9488 7.83062C18.0744 8.36581 18.0101 8.92803 17.7668 9.42101V9.37101Z" fill="white"/>
</svg>
