<svg width="18" height="18" viewBox="0 0 18 18" fill="none" xmlns="http://www.w3.org/2000/svg">
<path d="M9 0C7.25111 0.00331996 5.54092 0.514712 4.07776 1.47189C2.61459 2.42906 1.46159 3.7907 0.759194 5.39096C0.0568011 6.99122 -0.164669 8.76103 0.12176 10.4848C0.408189 12.2086 1.19016 13.812 2.37241 15.0996V15.0996C3.2168 16.0141 4.24161 16.7439 5.38227 17.2431C6.52294 17.7423 7.75472 18 9 18C10.2453 18 11.4771 17.7423 12.6177 17.2431C13.7584 16.7439 14.7832 16.0141 15.6276 15.0996V15.0996C16.8098 13.812 17.5918 12.2086 17.8782 10.4848C18.1647 8.76103 17.9432 6.99122 17.2408 5.39096C16.5384 3.7907 15.3854 2.42906 13.9222 1.47189C12.4591 0.514712 10.7489 0.00331996 9 0V0ZM9 16.2168C7.13207 16.2139 5.33807 15.4873 3.99549 14.1897C4.40311 13.1982 5.09652 12.3502 5.98761 11.7534C6.8787 11.1567 7.92724 10.838 9 10.838C10.0728 10.838 11.1213 11.1567 12.0124 11.7534C12.9035 12.3502 13.5969 13.1982 14.0045 14.1897C12.6619 15.4873 10.8679 16.2139 9 16.2168ZM7.19657 7.20745C7.19657 6.85107 7.30234 6.5027 7.50051 6.20639C7.69867 5.91007 7.98033 5.67912 8.30986 5.54275C8.63939 5.40637 9.002 5.37068 9.35183 5.44021C9.70166 5.50973 10.023 5.68135 10.2752 5.93334C10.5274 6.18534 10.6992 6.5064 10.7688 6.85592C10.8384 7.20545 10.8026 7.56774 10.6661 7.89699C10.5297 8.22624 10.2985 8.50765 10.0019 8.70564C9.70536 8.90363 9.35668 9.00931 9 9.00931C8.5217 9.00931 8.06299 8.81947 7.72479 8.48156C7.38658 8.14364 7.19657 7.68533 7.19657 7.20745ZM15.2308 12.613C14.4252 11.2362 13.1852 10.1652 11.7051 9.56789C12.1643 9.04774 12.4634 8.40628 12.5667 7.72047C12.67 7.03467 12.573 6.33365 12.2874 5.70154C12.0018 5.06943 11.5398 4.53309 10.9566 4.15687C10.3735 3.78064 9.69413 3.58052 9 3.58052C8.30587 3.58052 7.62648 3.78064 7.04337 4.15687C6.46025 4.53309 5.99817 5.06943 5.71258 5.70154C5.42699 6.33365 5.33002 7.03467 5.4333 7.72047C5.53659 8.40628 5.83574 9.04774 6.29486 9.56789C4.81479 10.1652 3.57482 11.2362 2.76917 12.613C2.1271 11.5203 1.78785 10.2764 1.7863 9.00931C1.7863 7.09778 2.54631 5.26453 3.89914 3.91288C5.25197 2.56122 7.08681 1.80186 9 1.80186C10.9132 1.80186 12.748 2.56122 14.1009 3.91288C15.4537 5.26453 16.2137 7.09778 16.2137 9.00931C16.2122 10.2764 15.8729 11.5203 15.2308 12.613V12.613Z" fill="white"/>
</svg>
