<svg width="17" height="14" viewBox="0 0 17 14" fill="none" xmlns="http://www.w3.org/2000/svg">
<path id="arrow-right" d="M15.6484 8.05859L10.0234 13.6836C9.8125 13.8945 9.53125 14 9.25 14C8.93359 14 8.65234 13.8945 8.44141 13.6836C7.98438 13.2617 7.98438 12.5234 8.44141 12.1016L12.1328 8.375H1.375C0.742188 8.375 0.25 7.88281 0.25 7.25C0.25 6.65234 0.742188 6.125 1.375 6.125H12.1328L8.44141 2.43359C7.98438 2.01172 7.98438 1.27344 8.44141 0.851562C8.86328 0.394531 9.60156 0.394531 10.0234 0.851562L15.6484 6.47656C16.1055 6.89844 16.1055 7.63672 15.6484 8.05859Z" fill="url(#paint0_linear_267_11)"/>
<defs>
<linearGradient id="paint0_linear_267_11" x1="7" y1="-2" x2="7" y2="16" gradientUnits="userSpaceOnUse">
<stop stop-color="#EC3939"/>
<stop offset="1" stop-color="#EC3939" stop-opacity="0.46"/>
</linearGradient>
</defs>
</svg>
