<svg width="49" height="41" viewBox="0 0 49 41" fill="none" xmlns="http://www.w3.org/2000/svg">
<path d="M7.96313 10.7308C8.46686 9.74808 9.00715 8.83643 9.49863 8.06421C9.95918 8.85527 10.463 9.78758 10.9274 10.7894C12.335 13.8263 13.3765 17.4967 11.7229 19.7751C11.7229 19.7751 10.8933 20.9924 9.24469 20.8964C7.59333 20.9271 6.81278 19.678 6.81278 19.678C5.25084 17.3357 6.4365 13.7093 7.96313 10.7308Z" fill="#C4A11B"/>
<g style="mix-blend-mode:multiply" opacity="0.64">
<path d="M7.96313 10.7308C8.46686 9.74808 9.00715 8.83643 9.49863 8.06421C9.95918 8.85527 10.463 9.78758 10.9274 10.7894C12.335 13.8263 13.3765 17.4967 11.7229 19.7751C11.7229 19.7751 10.8933 20.9924 9.24469 20.8964C7.59333 20.9271 6.81278 19.678 6.81278 19.678C5.25084 17.3357 6.4365 13.7093 7.96313 10.7308Z" fill="#B97200"/>
</g>
<path opacity="0.75" d="M8.1263 10.6694C8.5749 9.7941 9.05616 8.98215 9.49409 8.29412C9.90423 8.9987 10.3532 9.82906 10.7668 10.7217C12.0206 13.4267 12.9483 16.6962 11.4755 18.7259C11.4755 18.7259 10.7366 19.8101 9.26788 19.7247C7.79696 19.7521 7.10154 18.6393 7.10154 18.6393C5.71019 16.5529 6.76649 13.3227 8.1263 10.6694Z" fill="#FDF374"/>
<path d="M7.21475 18.3667C6.85866 17.8588 6.93471 17.1827 7.53647 16.8763C8.11373 16.5826 8.80392 16.7904 9.4093 16.6193C10.946 16.1844 10.9265 14.6865 10.9577 13.3578C10.9766 12.5611 11.352 12.8631 11.5753 13.3875C11.8464 14.0243 11.9703 14.7664 12.0222 15.4453C12.1033 16.5016 11.9388 17.537 11.3382 18.4178C11.3376 18.4187 10.647 19.4312 9.27482 19.3512C8.619 19.313 7.83395 19.0176 7.35913 18.5394C7.30495 18.4848 7.25668 18.4269 7.21452 18.3667L7.21475 18.3667Z" fill="#FDF374"/>
<g style="mix-blend-mode:multiply" opacity="0.64">
<path d="M7.57848 19.7703C8.32655 20.334 9.3193 20.5766 10.2332 20.3858C11.0488 20.2156 11.7279 19.6899 12.1686 18.9872C12.0497 19.2645 11.9023 19.5279 11.7229 19.7751C11.7229 19.7751 10.8933 20.9924 9.24468 20.8963C7.59333 20.9271 6.81277 19.6779 6.81277 19.6779C6.39546 19.052 6.17494 18.3342 6.10419 17.5618C6.34816 18.4228 6.87469 19.2396 7.57871 19.77L7.57848 19.7703Z" fill="#B97200"/>
</g>
<g style="mix-blend-mode:screen">
<path d="M7.81965 17.7877C7.81965 17.7877 8.02788 17.3334 8.7422 17.7297C9.45652 18.1259 9.08867 19.1322 8.32322 18.7657C7.43517 18.3405 7.81965 17.7879 7.81965 17.7879L7.81965 17.7877Z" fill="#FDF374"/>
</g>
<g style="mix-blend-mode:screen">
<path d="M11.1946 14.6679C11.1946 14.6679 11.2449 14.0071 11.554 14.8131C11.8629 15.6189 11.8336 16.9745 11.1446 17.7389C10.4558 18.5033 11.842 16.8986 11.1946 14.6679Z" fill="#FDF374"/>
</g>
<path d="M35.57 28.2947L35.5903 28.3454L35.6159 28.412C35.6335 28.4571 35.6508 28.5046 35.6678 28.5534C35.7027 28.6486 35.7342 28.7502 35.7672 28.849C35.7829 28.8997 35.7984 28.9502 35.8137 29.0012C35.829 29.0519 35.844 29.1029 35.8587 29.1543C35.8882 29.257 35.9164 29.3601 35.9435 29.4643C35.9598 29.5259 35.9755 29.5877 35.9906 29.6495C36.0145 29.7446 36.0369 29.8402 36.0583 29.9359C36.0733 30.0032 36.088 30.0708 36.1018 30.1384L36.102 30.1386C36.1278 30.2614 36.152 30.3843 36.1743 30.5077C36.1829 30.5523 36.1909 30.5969 36.1986 30.6416C36.2041 30.6728 36.2095 30.7041 36.2149 30.7354C36.2222 30.7764 36.2293 30.8172 36.236 30.8582C36.2567 30.9809 36.2752 31.1042 36.2922 31.228C36.3292 31.4959 36.3591 31.7655 36.3875 32.0354C36.4038 32.2543 36.4236 32.4728 36.4361 32.6921C36.4438 32.9118 36.46 33.1309 36.4613 33.3514C36.4799 34.2313 36.4372 35.1153 36.3383 35.9948C36.2372 36.8745 36.073 37.7486 35.8615 38.612C35.7687 38.9947 35.6642 39.3747 35.5491 39.7517L36.3917 39.8885L36.9172 39.9736L37.4922 40.067C37.5906 39.7323 37.6811 39.3955 37.7638 39.0561C37.9953 38.1115 38.1749 37.1526 38.2863 36.1849C38.3953 35.2169 38.4426 34.2422 38.422 33.2685C38.4202 33.0249 38.4029 32.7818 38.3939 32.5384C38.3803 32.2953 38.3584 32.0527 38.34 31.8097C38.2895 31.3251 38.2332 30.8408 38.1473 30.3597C38.1169 30.1797 38.0837 30.0002 38.0478 29.8207C38.0288 29.7276 38.0094 29.6347 37.9889 29.5415C37.9621 29.419 37.9341 29.2965 37.9041 29.1741C37.8835 29.0903 37.8623 29.0064 37.8404 28.9228C37.7787 28.6846 37.7097 28.447 37.6356 28.209C37.5957 28.0894 37.5587 27.971 37.5146 27.85C37.4937 27.7902 37.4718 27.7295 37.4478 27.6674L37.4114 27.5729L37.3665 27.464L37.0535 27.6087L36.8347 27.7101L36.3489 27.9346L36.1378 28.0321L35.57 28.2947Z" fill="#464648"/>
<path d="M36.349 27.9345C36.5166 28.3463 36.6508 28.789 36.766 29.2295C36.8085 29.3911 36.8481 29.5536 36.8849 29.7168C36.912 29.838 36.9378 29.9594 36.962 30.0813C36.9758 30.1492 36.9888 30.2172 37.0014 30.2852C37.0194 30.3809 37.0364 30.4764 37.0527 30.5724C37.0738 30.69 37.0929 30.8079 37.1106 30.9259C37.1606 31.2616 37.1987 31.5995 37.2341 31.9376C37.2513 32.1668 37.2721 32.3958 37.285 32.6254C37.2933 32.8553 37.3098 33.085 37.3114 33.3152C37.3309 34.2361 37.2862 35.1594 37.1829 36.0772C37.0775 36.9949 36.9065 37.9057 36.6864 38.8045C36.598 39.1684 36.4996 39.5297 36.3917 39.8884L36.9172 39.9735C37.0204 39.6265 37.1149 39.2768 37.2006 38.9246C37.4262 38.004 37.6013 37.0701 37.7097 36.1286C37.8155 35.1869 37.8615 34.2389 37.8414 33.2929C37.8399 33.0563 37.8229 32.8203 37.8143 32.5838C37.801 32.3478 37.7797 32.1122 37.762 31.8765C37.7221 31.4954 37.6788 31.1148 37.6195 30.7365C37.6055 30.6477 37.5908 30.5593 37.5751 30.4709C37.5521 30.3348 37.5274 30.1988 37.501 30.0632C37.4619 29.8603 37.4189 29.6577 37.3716 29.4564C37.3423 29.3315 37.3114 29.2071 37.2788 29.083C37.2194 28.8539 37.1532 28.6256 37.0824 28.3985C37.0446 28.285 37.0092 28.1715 36.9679 28.0583C36.9481 28.0017 36.9275 27.9448 36.9054 27.8877L36.8723 27.8016L36.8347 27.71L36.349 27.9345Z" fill="#6C6B6D"/>
<g style="mix-blend-mode:multiply">
<path d="M37.7266 30.6956C37.2521 30.879 36.7689 31.0465 36.2915 31.2283C36.2687 31.0634 36.2443 30.8988 36.2149 30.7354C36.142 30.3057 36.0533 29.8799 35.9437 29.464C35.8897 29.2559 35.8302 29.0509 35.7674 28.8488C35.7343 28.7499 35.7029 28.6483 35.668 28.5532C35.6509 28.5044 35.6337 28.4568 35.6162 28.4115L35.5906 28.3449L35.5703 28.2942L37.367 27.4637L37.4117 27.5728L37.4483 27.667C37.4723 27.7292 37.4941 27.7898 37.5151 27.8497C37.5592 27.9706 37.5961 28.0891 37.6361 28.2087C37.7103 28.4467 37.7792 28.6843 37.8411 28.9226C37.9663 29.399 38.0662 29.8779 38.148 30.3595C38.1572 30.4114 38.165 30.4636 38.1736 30.5157C38.0258 30.5778 37.8768 30.6375 37.7273 30.6954L37.7266 30.6956Z" fill="#464648"/>
</g>
<path d="M25.4061 25.6012L29.0618 25.3365C29.0618 25.3365 30.0665 25.195 30.647 26.2385C31.2275 27.2821 32.0748 29.6528 32.0748 29.6528C32.0748 29.6528 32.3699 30.1002 31.752 30.5189C31.1341 30.9377 28.9056 32.5052 28.9056 32.5052L28.3438 31.8511L30.98 30.1388C30.98 30.1388 31.3703 30.0378 31.2066 29.3876C31.0429 28.7374 30.0337 26.5831 30.0337 26.5831C30.0337 26.5831 29.8651 26.0074 29.1246 26.0468C28.3841 26.0862 25.793 26.4413 25.793 26.4413L25.4058 25.6012L25.4061 25.6012Z" fill="#393A3B"/>
<path d="M26.4208 18.7173L23.4352 21.9221L28.0241 32.8966C28.0241 32.8966 28.5792 33.879 29.5521 33.4473C30.525 33.0155 36.3626 30.4244 36.3626 30.4244L36.0311 29.6318L30.4368 32.1149C30.4368 32.1149 29.0029 32.8237 28.4322 31.6313C27.8616 30.439 25.4238 24.437 25.4238 24.437L27.4639 22.5919L26.4207 18.7179L26.4208 18.7173Z" fill="#030306"/>
<path d="M36.1855 23.5184L38.6998 29.5313L35.8723 30.7864L33.1683 24.3196C33.1683 24.3196 36.3484 23.5805 36.1855 23.5184Z" fill="#399E16"/>
<g style="mix-blend-mode:screen">
<path d="M35.2285 23.8182C35.3329 23.7913 35.4332 23.7651 35.527 23.74C35.7083 24.0873 35.8903 24.4343 36.0722 24.7815C36.5734 25.7386 38.1377 28.9895 38.4065 29.6614L38.1057 29.7949C37.9734 29.4682 35.5491 24.5533 35.2285 23.8182Z" fill="#4DD51D"/>
</g>
<g style="mix-blend-mode:multiply">
<path d="M37.0326 29.6376C37.4986 29.388 37.9658 29.1406 38.4339 28.8955L38.6998 29.5314L35.8723 30.7864L35.6936 30.3592C36.1396 30.1182 36.5857 29.8771 37.0326 29.6376Z" fill="#399E16"/>
</g>
<g style="mix-blend-mode:multiply">
<path d="M36.1894 23.5281L36.8515 25.1117C36.3799 25.3325 35.9205 25.5823 35.4535 25.8124C35.4276 25.8252 35.4131 25.862 35.4209 25.8889C35.5445 26.3136 35.679 26.7349 35.8223 27.1527C36.1844 28.2087 36.601 29.2435 37.0415 30.2673L35.872 30.7865L33.168 24.3197C33.168 24.3197 36.1155 23.6347 36.1893 23.5283L36.1894 23.5281Z" fill="#399E16"/>
</g>
<g style="mix-blend-mode:multiply">
<path d="M35.8204 25.2004C35.1865 25.5023 34.5375 25.7738 33.8975 26.0639L33.1683 24.3196C33.1683 24.3196 36.1158 23.6347 36.1896 23.5282L36.7006 24.7501C36.4119 24.9096 36.1181 25.0589 35.8206 25.2005L35.8204 25.2004Z" fill="#399E16"/>
</g>
<path d="M8.78369 6.08916C8.78369 6.08916 13.4807 5.21488 16.2903 5.71641C19.0998 6.21795 28.7066 12.1765 28.7066 12.1765L26.9202 14.4491C26.9202 14.4491 18.0597 8.96631 16.3429 8.78688C14.626 8.60744 10.0173 9.03904 10.0173 9.03904L8.78388 6.08927L8.78369 6.08916Z" fill="#8A8C8E"/>
<g style="mix-blend-mode:multiply">
<path d="M27.0642 11.1796C28.0638 11.7783 28.7062 12.1767 28.7062 12.1767L26.9199 14.4493C26.9199 14.4493 26.3251 14.0813 25.4151 13.5336C25.9591 12.7451 26.5138 11.9642 27.064 11.1798L27.0642 11.1796Z" fill="#8A8C8E"/>
</g>
<g style="mix-blend-mode:overlay">
<g style="mix-blend-mode:screen">
<path d="M8.94103 6.30471C9.78867 6.15789 13.7854 5.51401 16.2863 5.96068C19.0958 6.46221 28.7026 12.4208 28.7026 12.4208L28.546 12.6199C26.6988 11.4905 18.9976 6.84698 16.5319 6.40679C14.2123 5.99254 10.6077 6.51628 9.4207 6.71161C9.2601 6.57689 9.10105 6.44042 8.94111 6.30502L8.94103 6.30471Z" fill="white"/>
</g>
</g>
<g style="mix-blend-mode:multiply">
<path d="M12.9497 7.23016C14.3559 7.13245 15.8133 7.16655 17.1576 7.56585C18.6761 8.01653 20.1307 8.7949 21.4994 9.56275C23.6303 10.7586 25.6391 12.1427 27.6568 13.512L26.9202 14.4491C26.9202 14.4491 18.0597 8.96633 16.3429 8.78689C14.6258 8.60734 10.0171 9.03894 10.0171 9.03894L9.46 7.70632C10.6168 7.48964 11.7797 7.31141 12.9497 7.23016Z" fill="#8A8C8E"/>
</g>
<g style="mix-blend-mode:multiply">
<path d="M26.1057 10.6102C26.2399 10.6893 26.3757 10.7694 26.5022 10.8446C26.0307 11.6701 25.457 12.4418 24.8856 13.2157C24.782 13.1539 24.6711 13.0878 24.5621 13.0231C25.0462 12.1983 25.535 11.3762 26.1055 10.6101L26.1057 10.6102Z" fill="#8A8C8E"/>
</g>
<g style="mix-blend-mode:multiply">
<path d="M19.8215 7.13916C19.9407 7.19864 20.0591 7.25686 20.1805 7.31841C19.7579 8.1608 19.33 9.00032 18.8948 9.83668C18.7606 9.76848 18.6301 9.70293 18.502 9.63957C18.9482 8.80935 19.3931 7.97815 19.8213 7.13904L19.8215 7.13916Z" fill="#8A8C8E"/>
</g>
<g style="mix-blend-mode:multiply">
<path d="M15.3794 5.6045C15.5953 5.62143 15.8062 5.64321 16.0084 5.67187C15.7565 6.70833 15.4351 7.72924 15.0938 8.74382C15.0408 8.74425 14.9848 8.74533 14.9305 8.7461C15.1138 7.70286 15.2615 6.65507 15.3796 5.60462L15.3794 5.6045Z" fill="#8A8C8E"/>
</g>
<g style="mix-blend-mode:multiply">
<path d="M11.0293 5.76465C11.2316 5.74149 11.4417 5.71887 11.6586 5.69786C11.7411 6.76061 11.7911 7.82647 11.8337 8.89304C11.6748 8.90427 11.5247 8.91538 11.3798 8.92626C11.3166 7.86602 11.1851 6.81273 11.0293 5.76465Z" fill="#8A8C8E"/>
</g>
<g style="mix-blend-mode:multiply">
<path d="M23.1069 8.88617C23.2026 8.93964 23.2986 8.99302 23.3936 9.04634C23.0317 9.91833 22.5254 10.7286 22.0104 11.5343C21.9483 11.4989 21.8859 11.4638 21.8237 11.4282C22.2383 10.5751 22.6863 9.73666 23.107 8.88598L23.1069 8.88617Z" fill="#8A8C8E"/>
</g>
<path d="M28.1963 10.957L25.486 14.7829C25.486 14.7829 26.8189 16.0071 26.8391 16.3009C26.8592 16.5946 25.0357 18.6146 25.2337 19.3338C25.4318 20.053 27.155 23.9287 27.155 23.9287C27.155 23.9287 27.5107 24.7795 28.1368 24.8042C28.7628 24.8289 34.6928 25.0215 34.6928 25.0215L36.8566 24.061C36.8566 24.061 37.5799 23.3365 37.3308 22.741C37.082 22.1451 33.1376 13.2026 33.1376 13.2026C33.1376 13.2026 31.9932 11.6928 31.3209 12.2939C30.6486 12.895 28.1963 10.957 28.1963 10.957Z" fill="#4DD51D"/>
<g style="mix-blend-mode:multiply">
<path d="M25.2339 19.3336C25.0358 18.6144 26.8594 16.5944 26.8391 16.3009C26.8189 16.0071 25.486 14.7829 25.486 14.7829L28.1963 10.957C28.1963 10.957 30.6486 12.895 31.3209 12.2939C31.5364 12.1013 31.8001 12.1265 32.0593 12.2483C31.3116 12.8524 30.7503 13.9405 30.2372 14.5954C29.2895 15.8051 28.0929 16.9902 27.6396 18.488C27.222 19.8674 27.8037 21.4187 28.7598 22.3934C30.3373 24.0014 32.6503 24.5107 34.8791 24.939L34.6933 25.0216C34.6933 25.0216 28.7634 24.829 28.1373 24.8043C27.5112 24.7796 27.1553 23.9286 27.1553 23.9286C27.1553 23.9286 25.4321 20.0529 25.234 19.3339L25.2339 19.3336Z" fill="#4DD51D"/>
</g>
<g style="mix-blend-mode:multiply">
<path d="M26.8391 16.3008C26.8189 16.0071 25.486 14.7829 25.486 14.7829L28.1963 10.9569C28.1963 10.9569 28.2951 11.0348 28.4569 11.1538C28.3347 11.3301 28.2156 11.5087 28.1003 11.6899C27.8731 12.0456 27.6573 12.4086 27.4463 12.7741C27.3451 12.9492 27.2453 13.125 27.1457 13.301C27.0564 13.4589 26.961 13.6147 26.8911 13.7825C26.6495 14.364 26.7648 15.0138 27.2503 15.4098C27.2836 15.4369 28.7446 13.972 29.5753 13.4311C29.4641 13.6397 27.7416 16.0725 27.3212 16.7107C27.0289 17.1544 26.6961 17.5695 26.4119 18.0184C26.1365 18.4537 25.8539 18.9743 25.8638 19.5025C25.8744 20.0676 26.0987 20.6058 26.3236 21.1098C26.5597 21.6389 26.7873 22.1726 27.0254 22.7006C27.2677 23.2376 27.5493 23.7685 27.9515 24.1999C28.1768 24.4416 28.4354 24.6476 28.7129 24.8245C28.432 24.8148 28.2281 24.8077 28.1371 24.8041C27.511 24.7794 27.1551 23.9284 27.1551 23.9284C27.1551 23.9284 25.4319 20.0527 25.2339 19.3335C25.0358 18.6143 26.8594 16.5944 26.8391 16.3008Z" fill="#4DD51D"/>
</g>
<path d="M28.7488 21.009C29.3683 22.4905 31.0684 23.16 32.5462 22.504C34.0238 21.8482 34.7195 20.1152 34.1 18.6337C33.4805 17.1521 31.7804 16.4826 30.3026 17.1386C28.825 17.7945 28.1294 19.5274 28.7488 21.009Z" fill="#399E16"/>
<path d="M29.0842 20.7957C29.6208 22.0789 31.0934 22.6586 32.3731 22.0905C33.6531 21.5225 34.2556 20.0217 33.7188 18.7384C33.1822 17.4553 31.7097 16.8756 30.4299 17.4437C29.1502 18.0118 28.5476 19.5126 29.0842 20.7957Z" fill="#4DD51D"/>
<path d="M29.0842 20.7957C29.6208 22.0789 31.0934 22.6586 32.3731 22.0905C33.6531 21.5225 34.2556 20.0217 33.7188 18.7384C33.1822 17.4553 31.7097 16.8756 30.4299 17.4437C29.1502 18.0118 28.5476 19.5126 29.0842 20.7957Z" fill="#4DD51D"/>
<g style="mix-blend-mode:screen">
<path d="M33.2195 18.8632C32.7518 17.7448 31.5595 17.172 30.4187 17.4491C30.4226 17.4473 30.4261 17.4454 30.4299 17.4436C31.7097 16.8755 33.1822 17.4553 33.7188 18.7384C34.2554 20.0215 33.6529 21.5223 32.3731 22.0905C32.0629 22.2281 31.7417 22.2977 31.4251 22.3069C31.5848 22.2716 31.7435 22.2198 31.8996 22.1505C33.1548 21.5934 33.7459 20.1215 33.2195 18.8627L33.2195 18.8632Z" fill="#4DD51D"/>
</g>
<g style="mix-blend-mode:screen">
<path d="M31.805 12.7427C31.805 12.7427 32.3258 12.6844 32.769 13.2068C33.2119 13.7292 37.0285 22.4868 37.0285 22.4868C37.0285 22.4868 37.4189 23.0395 36.9074 23.6799L36.4784 24.0309C36.4784 24.0309 37.0851 23.5948 36.7018 22.7097C36.3184 21.8246 32.664 13.9587 32.664 13.9587C32.664 13.9587 32.3534 13.0487 31.8049 12.7429L31.805 12.7427Z" fill="#4DD51D"/>
</g>
</svg>
