<svg width="19" height="11" viewBox="0 0 19 11" fill="none" xmlns="http://www.w3.org/2000/svg">
<g clip-path="url(#clip0_200_7016)">
<path d="M18.3449 7.14782L15.9576 7.1438L10.8213 8.452L13.1322 8.46003C13.08 8.7273 13.09 9.0227 13.1885 9.32815C13.3613 9.83253 13.7873 10.2344 14.3038 10.3671C15.0191 10.5519 15.6742 10.2646 16.05 9.76019C16.3896 10.2143 16.9563 10.4917 17.5833 10.4073C18.4112 10.2987 19 9.53513 19 8.69917V7.80292C19 7.4392 18.7086 7.14782 18.3449 7.14782V7.14782ZM14.7398 9.43867C14.3781 9.43867 14.0847 9.14528 14.0847 8.76548C14.0847 8.42386 14.3781 8.12846 14.7398 8.12846C15.1015 8.12846 15.3949 8.42386 15.3949 8.78357C15.3949 9.14327 15.0995 9.43867 14.7398 9.43867V9.43867ZM17.3602 9.43867C17.0005 9.43867 16.7051 9.14528 16.7051 8.76548C16.7051 8.42386 17.0005 8.12846 17.3602 8.12846C17.7199 8.12846 18.0173 8.42386 18.0173 8.78357C18.0173 9.14327 17.7219 9.43867 17.3602 9.43867V9.43867ZM2.73496 7.1438L1.07308 7.14782C0.70936 7.14782 0.41798 7.4392 0.41798 7.80292V8.69917C0.41798 9.53513 1.00677 10.2987 1.83469 10.4073C2.46166 10.4917 3.02835 10.2143 3.36795 9.76019C3.74373 10.2646 4.39884 10.5519 5.11423 10.3671C5.63067 10.2344 6.05669 9.83253 6.22951 9.32815C6.32797 9.0227 6.33802 8.7273 6.28377 8.46003L8.10238 8.44999L2.73496 7.1438V7.1438ZM2.05574 9.43867C1.69603 9.43867 1.40063 9.14528 1.40063 8.78357C1.40063 8.42185 1.69603 8.12846 2.05574 8.12846C2.41544 8.12846 2.71285 8.42386 2.71285 8.76548C2.71285 9.14528 2.41745 9.43867 2.05574 9.43867V9.43867ZM4.67816 9.43867C4.31645 9.43867 4.02306 9.14528 4.02306 8.78357C4.02306 8.42185 4.31645 8.12846 4.67816 8.12846C5.03987 8.12846 5.33326 8.42386 5.33326 8.76548C5.33326 9.14528 5.03987 9.43867 4.67816 9.43867V9.43867Z" fill="#404040"/>
<path d="M19 3.19112C19 4.95145 18.363 6.38022 17.5773 6.38022L15.9576 6.79418L10.8213 8.10238L9.499 8.43998L8.10238 8.10037L2.73495 6.79418L1.03289 6.38022V6.25563C0.438075 5.87784 0 4.65003 0 3.19112C0 1.73221 0.438075 0.50238 1.03289 0.12459V0H17.5773C18.363 0 19 1.42877 19 3.19112Z" fill="#404040"/>
</g>
<defs>
<clipPath id="clip0_200_7016">
<rect width="19" height="10.4234" fill="white"/>
</clipPath>
</defs>
</svg>
