<svg width="16" height="16" viewBox="0 0 16 16" fill="none" xmlns="http://www.w3.org/2000/svg">
<path d="M8 0C3.5625 0 0 3.59375 0 8C0 12.4375 3.5625 16 8 16C12.4062 16 16 12.4375 16 8C16 3.59375 12.4062 0 8 0ZM12.5312 7.25L10.6562 9.0625L11.0938 11.5938C11.1875 12.0625 10.6875 12.4062 10.2812 12.1875L8 11L5.6875 12.1875C5.28125 12.4062 4.78125 12.0625 4.875 11.5938L5.3125 9.0625L3.4375 7.25C3.125 6.90625 3.28125 6.34375 3.75 6.28125L6.34375 5.90625L7.46875 3.5625C7.6875 3.15625 8.28125 3.15625 8.5 3.5625L9.625 5.90625L12.2188 6.28125C12.6875 6.34375 12.8438 6.90625 12.5312 7.25Z" fill="url(#paint0_linear_267_23)"/>
<defs>
<linearGradient id="paint0_linear_267_23" x1="8" y1="0" x2="8" y2="16" gradientUnits="userSpaceOnUse">
<stop stop-color="#0f8fce"/>
<stop offset="1" stop-color="#0f8fce9e" stop-opacity="0.28"/>
</linearGradient>
</defs>
</svg>
