<svg width="19" height="14" viewBox="0 0 19 14" fill="none" xmlns="http://www.w3.org/2000/svg">
<g clip-path="url(#clip0_98_3791)">
<path d="M5.22489 9.00037C3.91567 9.00037 2.85007 10.1221 2.85007 11.5002C2.85007 12.8784 3.91567 14 5.22489 14C6.53412 14 7.59972 12.8784 7.59972 11.5002C7.59972 10.1221 6.53412 9.00037 5.22489 9.00037ZM5.22489 12.5007C4.70163 12.5007 4.27511 12.051 4.27511 11.5002C4.27511 10.9494 4.70163 10.5004 5.22489 10.5004C5.74816 10.5004 6.17468 10.9494 6.17468 11.5002C6.17468 12.051 5.74745 12.5007 5.22489 12.5007Z" fill="#404040"/>
<path d="M18.5248 9.00032H16.1499V0.999788C16.1499 0.448232 15.7248 0 15.2001 0H0.949788C0.42511 0 0 0.448232 0 0.999788V10.0001C0 10.5524 0.42511 11.0006 0.949788 11.0006H1.9483C2.05564 10.2231 2.40236 9.52586 2.90868 9.00032C3.50398 8.38261 4.31959 8.00053 5.22489 8.00053C6.13019 8.00053 6.94581 8.38186 7.54111 9.00032C8.04743 9.52511 8.39415 10.2216 8.50219 11.0006H18.5248C18.7874 11.0006 19 10.7761 19 10.5004V9.50058C19 9.22555 18.786 9.00032 18.5248 9.00032ZM15.2249 9.00032H8.77972C8.01282 7.79463 6.70713 7.00074 5.22489 7.00074C3.74266 7.00074 2.43697 7.79463 1.67007 9.00032H0.828328V3.90475C1.41656 5.05915 2.44403 6.31687 4.06326 6.00839C6.9331 5.46129 6.74173 7.04386 9.202 7.07285C11.6623 7.10184 11.3071 5.34608 12.5916 4.85696C13.8019 4.39609 13.7511 8.96389 15.2249 8.367V9.00032Z" fill="#404040"/>
</g>
<defs>
<clipPath id="clip0_98_3791">
<rect width="19" height="14" fill="white"/>
</clipPath>
</defs>
</svg>
