<svg width="26" height="19" viewBox="0 0 26 19" fill="none" xmlns="http://www.w3.org/2000/svg">
<path d="M25.25 2.5C25.25 2.99218 25.0313 3.42968 24.7031 3.75781L10.7031 17.7578C10.375 18.0859 9.9375 18.25 9.5 18.25C9.00782 18.25 8.57032 18.0859 8.24219 17.7578L1.24219 10.7578C0.914065 10.4297 0.750003 9.99219 0.750003 9.5C0.750002 8.51562 1.51563 7.75 2.5 7.75C2.9375 7.75 3.375 7.96875 3.70313 8.29687L9.5 14.0391L22.2422 1.29687C22.5703 0.968746 23.0078 0.749996 23.5 0.749996C24.4297 0.749996 25.25 1.51562 25.25 2.5Z" fill="white"/>
</svg>
