<svg width="17" height="16" viewBox="0 0 17 16" fill="none" xmlns="http://www.w3.org/2000/svg">
<path d="M8.96875 0C4.53125 0 0.96875 3.59375 0.96875 8C0.96875 12.4375 4.53125 16 8.96875 16C13.375 16 16.9375 12.4375 16.9375 8C16.9688 3.59375 13.4062 0 8.96875 0ZM11.5938 10.4688C11.4375 10.6562 11.2188 10.75 10.9688 10.75C10.8125 10.75 10.6562 10.7188 10.5 10.625L8.5 9.125C8.34375 8.96875 8.25 8.75 8.25 8.5V4.75C8.25 4.34375 8.5625 4 9 4C9.40625 4 9.75 4.34375 9.75 4.75V8.125L11.4375 9.40625C11.7812 9.65625 11.8438 10.125 11.5938 10.4688Z" fill="url(#paint0_linear_993_6)"/>
<defs>
<linearGradient id="paint0_linear_993_6" x1="9" y1="0" x2="9" y2="16" gradientUnits="userSpaceOnUse">
<stop stop-color="#0f8fce"/>
<stop offset="1" stop-color="var(--primary)" stop-opacity="0.4"/>
</linearGradient>
</defs>
</svg>
