<svg width="14" height="14" viewBox="0 0 14 14" fill="none" xmlns="http://www.w3.org/2000/svg">
<path d="M8.10938 7.22656V4.48438C8.10938 4.1543 7.83008 3.875 7.5 3.875C7.14453 3.875 6.89062 4.1543 6.89062 4.48438L6.89063 7.53125C6.89063 7.73438 6.9668 7.91211 7.11914 8.03906L8.74414 9.25781C8.8457 9.33398 8.97266 9.35938 9.09961 9.35938C9.27734 9.35938 9.45508 9.2832 9.58203 9.13086C9.78516 8.85156 9.73438 8.4707 9.45508 8.26758L8.10938 7.22656ZM7.47461 0.625C3.86914 0.625 0.974609 3.54492 0.974609 7.125C0.974609 10.7305 3.86914 13.625 7.47461 13.625C11.0547 13.625 13.9492 10.7305 13.9492 7.125C13.9492 3.54492 11.0801 0.625 7.47461 0.625ZM7.5 12.4062C4.58008 12.4062 2.21875 10.0449 2.21875 7.125C2.21875 4.23047 4.58008 1.84375 7.5 1.84375C10.3945 1.84375 12.7812 4.23047 12.7812 7.125C12.7812 10.0449 10.3945 12.4062 7.5 12.4062Z" fill="url(#paint0_linear_267_19)"/>
<defs>
<linearGradient id="paint0_linear_267_19" x1="7.5" y1="1" x2="7.5" y2="14" gradientUnits="userSpaceOnUse">
<stop stop-color="#404040"/>
<stop offset="1" stop-color="#404040" stop-opacity="0.46"/>
</linearGradient>
</defs>
</svg>
