<svg width="19" height="19" viewBox="0 0 19 19" fill="none" xmlns="http://www.w3.org/2000/svg">
<path d="M17.4531 15.2969C18.1641 15.9531 18.1641 17.1016 17.4531 17.7578C17.125 18.0859 16.6875 18.25 16.25 18.25C15.7578 18.25 15.3203 18.0859 14.9922 17.7578L9.25 12.0156L3.45313 17.7578C3.125 18.0859 2.6875 18.25 2.25 18.25C1.75781 18.25 1.32031 18.0859 0.992188 17.7578C0.28125 17.1016 0.28125 15.9531 0.992187 15.2969L6.73437 9.5L0.992185 3.75781C0.281248 3.10156 0.281247 1.95312 0.992185 1.29687C1.64843 0.585937 2.79687 0.585937 3.45312 1.29687L9.25 7.03906L14.9922 1.29687C15.6484 0.585935 16.7969 0.585935 17.4531 1.29687C18.1641 1.95312 18.1641 3.10156 17.4531 3.75781L11.7109 9.55469L17.4531 15.2969Z" fill="#0988EA"/>
</svg>
