<svg width="16" height="16" viewBox="0 0 16 16" fill="none" xmlns="http://www.w3.org/2000/svg">
<path d="M11.9688 13.9766H1.96875V3.97656H6.84375L8.84375 1.97656H1.96875C0.875 1.97656 0 2.88281 0 3.97656V13.9766C0 15.1016 0.875 15.9766 1.96875 15.9766H11.9375C13.0312 15.9766 13.9062 15.1016 13.9062 13.9766V7.10156L11.9375 9.10156V13.9766H11.9688ZM15.5312 1.32031L14.6562 0.445312C14.0938 -0.148438 13.125 -0.148438 12.5312 0.445312L11.3438 1.63281L14.3438 4.63281L15.5312 3.44531C16.125 2.85156 16.125 1.88281 15.5312 1.32031ZM4.59375 8.57031L4 11.5391C3.9375 11.8203 4.15625 12.0391 4.4375 11.9766L7.40625 11.3828C7.5625 11.3516 7.6875 11.2891 7.78125 11.1953L13.625 5.35156L10.625 2.35156L4.78125 8.19531C4.6875 8.28906 4.625 8.41406 4.59375 8.57031Z" fill="#FF5C00"/>
</svg>
