<svg width="19" height="19" viewBox="0 0 19 19" fill="none" xmlns="http://www.w3.org/2000/svg">
<path d="M17.6957 0.125C16.9926 0.125 16.4457 0.710937 16.4457 1.375V4.30469C14.8832 2.11719 12.3441 0.75 9.57071 0.75C5.85977 0.75 2.61758 3.13281 1.48477 6.64844C1.28946 7.3125 1.64102 8.01562 2.30508 8.21094C2.96915 8.40625 3.67227 8.05469 3.86758 7.39062C4.64883 4.92969 6.95352 3.25 9.57071 3.25C11.5238 3.25 13.3207 4.22656 14.4145 5.75H12.6957C11.9926 5.75 11.4457 6.33594 11.4457 7C11.4457 7.70312 11.9926 8.25 12.6957 8.25H17.6957C18.3598 8.25 18.9457 7.70312 18.9457 7V1.375C18.9457 0.710937 18.3598 0.125 17.6957 0.125ZM16.7973 10.8281C16.1332 10.6328 15.4301 10.9844 15.2348 11.6484C14.4535 14.1094 12.1488 15.75 9.57071 15.75C7.57852 15.75 5.78165 14.8125 4.6879 13.25H6.44571C7.10977 13.25 7.69571 12.7031 7.69571 12C7.69571 11.3359 7.10977 10.75 6.44571 10.75H1.44571C0.742584 10.75 0.195709 11.3359 0.195709 12L0.195709 17.625C0.195709 18.3281 0.742584 18.875 1.44571 18.875C2.10977 18.875 2.69571 18.3281 2.69571 17.625V14.7344C4.21915 16.9219 6.75821 18.25 9.53165 18.25C13.2035 18.25 16.4457 15.9062 17.5785 12.3906C17.8129 11.7266 17.4613 11.0234 16.7973 10.8281Z" fill="url(#paint0_linear_202_12569)"/>
<defs>
<linearGradient id="paint0_linear_202_12569" x1="10.0053" y1="-1" x2="10.0053" y2="19" gradientUnits="userSpaceOnUse">
<stop stop-color="#0f8fce"/>
<stop offset="1" stop-color="var(--primary)" stop-opacity="0.38"/>
</linearGradient>
</defs>
</svg>
