<svg width="16" height="16" viewBox="0 0 16 16" fill="none" xmlns="http://www.w3.org/2000/svg">
<path d="M10.5 14H0.5C0.21875 14 0 14.25 0 14.5V15.5C0 15.7812 0.21875 16 0.5 16H10.5C10.75 16 11 15.7812 11 15.5V14.5C11 14.25 10.75 14 10.5 14ZM15.4062 3.375L12.875 0.84375C12.6562 0.65625 12.3438 0.65625 12.1562 0.84375L11.8125 1.1875C11.625 1.375 11.625 1.6875 11.8125 1.90625L12.9688 3.0625V5C12.9688 5.90625 13.625 6.625 14.4688 6.75V11.75C14.4688 12.1875 14.1562 12.5 13.7188 12.5C13.3125 12.5 12.9688 12.1875 12.9688 11.75V10.75C12.9688 9.25 11.75 8 10.2188 8H10V2C10 0.90625 9.125 0 8 0H3C1.875 0 1 0.90625 1 2V13H10V9.5H10.25C10.9375 9.5 11.5 10.0625 11.5 10.75V11.625C11.5 12.8125 12.3438 13.875 13.5 14C14.8438 14.125 16 13.0938 16 11.75V4.78125C16 4.25 15.7812 3.75 15.4062 3.375ZM8 6H3V2H7.96875V6H8Z" fill="url(#paint0_linear_306_18)"/>
<defs>
<linearGradient id="paint0_linear_306_18" x1="8" y1="0" x2="8" y2="16" gradientUnits="userSpaceOnUse">
<stop stop-color="#0f8fce"/>
<stop offset="1" stop-color="var(--primary)" stop-opacity="0.4"/>
</linearGradient>
</defs>
</svg>
