<svg width="18" height="18" viewBox="0 0 18 18" fill="none" xmlns="http://www.w3.org/2000/svg">
<path fill-rule="evenodd" clip-rule="evenodd" d="M9 18C13.9706 18 18 13.9706 18 9C18 4.02944 13.9706 0 9 0C4.02944 0 0 4.02944 0 9C0 13.9706 4.02944 18 9 18ZM8.18616 5.07446C8.18616 4.65143 7.84323 4.3085 7.42021 4.3085C6.99718 4.3085 6.65425 4.65143 6.65425 5.07446V8.32978H4.02129C3.59826 8.32978 3.25533 8.67271 3.25533 9.09574V13.0691C3.25533 13.4922 3.59826 13.8351 4.02129 13.8351C4.44432 13.8351 4.78725 13.4922 4.78725 13.0691V9.8617H6.65425V13.1649C6.65425 13.5879 6.99718 13.9308 7.42021 13.9308C7.84323 13.9308 8.18616 13.5879 8.18616 13.1649V9.8617H9.95746V13.1649C9.95746 13.5879 10.3004 13.9308 10.7234 13.9308C11.1464 13.9308 11.4894 13.5879 11.4894 13.1649V9.8617H14.0266C14.4496 9.8617 14.7926 9.51877 14.7926 9.09574V5.17021C14.7926 4.74718 14.4496 4.40425 14.0266 4.40425C13.6036 4.40425 13.2607 4.74718 13.2607 5.17021V8.32978H11.4894V5.07446C11.4894 4.65143 11.1464 4.3085 10.7234 4.3085C10.3004 4.3085 9.95746 4.65143 9.95746 5.07446V8.32978H8.18616V5.07446Z" fill="url(#paint0_linear_417_14)"/>
<defs>
<linearGradient id="paint0_linear_417_14" x1="9" y1="18" x2="9" y2="-0.239362" gradientUnits="userSpaceOnUse">
<stop stop-color="#58B6FF" stop-opacity="0.53"/>
<stop offset="1" stop-color="var(--primary)"/>
</linearGradient>
</defs>
</svg>
