<svg width="18" height="14" viewBox="0 0 18 14" fill="none" xmlns="http://www.w3.org/2000/svg">
<path d="M17.0625 2.21875V1.28125C17.0625 1.04687 16.8281 0.8125 16.5938 0.8125L0.65625 0.8125C0.392578 0.8125 0.158203 1.04688 0.158203 1.28125L0.1875 2.21875C0.1875 2.48242 0.392578 2.6875 0.65625 2.6875L0.65625 12.0625C0.392578 12.0625 0.1875 12.2969 0.1875 12.5312L0.1875 13.4688C0.1875 13.7324 0.392578 13.9375 0.65625 13.9375H16.5938C16.8281 13.9375 17.0625 13.7324 17.0625 13.4688V12.5312C17.0625 12.2969 16.8281 12.0625 16.5938 12.0625V2.6875C16.8281 2.6875 17.0625 2.48242 17.0625 2.21875ZM3.46875 12.0625H2.53125L2.53125 2.6875H3.46875L3.46875 12.0625ZM6.28125 12.0625H5.34375L5.34375 2.6875H6.28125L6.28125 12.0625ZM9.09375 12.0625H8.15625L8.15625 2.6875H9.09375L9.09375 12.0625ZM11.9063 12.0625H10.9688L10.9688 2.6875H11.9062L11.9063 12.0625ZM14.7188 12.0625H13.7813L13.7812 2.6875H14.7188L14.7188 12.0625Z" fill="#404040"/>
</svg>
