<svg width="16" height="15" viewBox="0 0 16 15" fill="none" xmlns="http://www.w3.org/2000/svg">
<g clip-path="url(#clip0_193_7007)">
<path d="M15.5972 11.7571L10.921 11.7857C11.0073 12.2286 10.9929 12.7143 10.8346 13.2C10.5469 14.0286 9.8562 14.6857 8.9929 14.9C7.81304 15.2 6.7339 14.7286 6.1152 13.9143C5.55405 14.6571 4.6188 15.1143 3.59721 14.9714C2.23031 14.7857 1.26628 13.5429 1.26628 12.1714V10.7C1.26628 10.1 1.7411 9.62857 2.34541 9.62857L15.8418 9.6L15.6116 11.7571H15.5972ZM5.03606 12.2857C5.03606 11.7286 4.54685 11.2429 3.95692 11.2429C3.367 11.2429 2.87779 11.7286 2.87779 12.3143C2.87779 12.9 3.367 13.3857 3.95692 13.3857C4.54685 13.3857 5.03606 12.9143 5.03606 12.2857ZM9.35261 12.2857C9.35261 11.7286 8.8634 11.2429 8.27347 11.2429C7.68354 11.2429 7.19433 11.7286 7.19433 12.3143C7.19433 12.9 7.68354 13.3857 8.27347 13.3857C8.8634 13.3857 9.35261 12.9143 9.35261 12.2857ZM1.00728 7.21429L0.0288675 1.9C-0.158183 0.871429 0.57563 0 1.68354 0H14.3166C15.4246 0 16.1584 0.871429 15.9713 1.9L14.9929 7.21429C14.849 7.97143 14.0145 8.57143 13.1224 8.57143H2.87779C1.9857 8.57143 1.15117 7.97143 1.00728 7.21429ZM3.25189 7.21429H4.37419L3.87059 1.9H2.59002L3.25189 7.21429ZM6.04325 7.21429H7.16556L7.05045 1.9H5.76987L6.04325 7.21429ZM8.83462 7.21429H9.95692L10.2303 1.9H8.94973L8.83462 7.21429ZM11.626 7.21429H12.7483L13.4102 1.9H12.1296L11.626 7.21429Z" fill="#404040"/>
</g>
<defs>
<clipPath id="clip0_193_7007">
<rect width="16" height="15" fill="white"/>
</clipPath>
</defs>
</svg>
