<svg width="18" height="25" viewBox="0 0 18 25" fill="none" xmlns="http://www.w3.org/2000/svg">
<path d="M9.375 0.875C4.56836 0.875 0.75 4.73828 0.75 9.5C0.75 13.0039 1.91797 13.9922 8.47656 23.4258C8.88086 24.0547 9.82422 24.0547 10.2285 23.4258C16.7871 13.9473 18 13.0039 18 9.5C18 4.73828 14.1367 0.875 9.375 0.875ZM9.375 13.0938C7.35352 13.0938 5.78125 11.4766 5.78125 9.5C5.78125 7.47852 7.35352 5.90625 9.375 5.90625C11.3516 5.90625 12.9688 7.47852 12.9688 9.5C12.9688 11.4766 11.3516 13.0938 9.375 13.0938Z" fill="url(#paint0_linear_26_364)"/>
<defs>
<linearGradient id="paint0_linear_26_364" x1="9" y1="1" x2="9" y2="24" gradientUnits="userSpaceOnUse">
<stop stop-color="#0f8fce"/>
<stop offset="1" stop-color="var(--primary)" stop-opacity="0.2"/>
</linearGradient>
</defs>
</svg>
