<svg width="20" height="16" viewBox="0 0 20 16" fill="none" xmlns="http://www.w3.org/2000/svg">
<path d="M3 16L17 16C18.6875 16 20 14.6562 20 13L20 11C20 10.4375 19.5625 10 19 10C18.4688 10 18 10.4375 18 11L18 13C18 13.5312 17.5625 14 17 14L3 14C2.46875 14 2 13.5312 2 13L2 11C2 10.4375 1.5625 10 1 10C0.468751 10 4.86289e-07 10.4375 4.37114e-07 11L2.62268e-07 13C1.17474e-07 14.6562 1.34375 16 3 16ZM16 1.5C16 0.65625 15.3438 -4.07062e-07 14.5 -4.80825e-07L5.5 -1.26763e-06C4.6875 -1.33866e-06 4 0.656249 4 1.5L4 13L16 13L16 1.5ZM10 9.5C8.34375 9.5 7 8.375 7 7C7 5.59375 8.34375 4.5 10 4.5C11.6875 4.5 13 5.59375 13 7C13 8.375 11.6875 9.5 10 9.5Z" fill="url(#paint0_linear_997_4)"/>
<defs>
<linearGradient id="paint0_linear_997_4" x1="10" y1="16" x2="10" y2="-8.74228e-07" gradientUnits="userSpaceOnUse">
<stop stop-color="#0f8fce"/>
<stop offset="1" stop-color="var(--primary)" stop-opacity="0.4"/>
</linearGradient>
</defs>
</svg>
