<svg width="17" height="18" viewBox="0 0 17 18" fill="none" xmlns="http://www.w3.org/2000/svg">
<path d="M7.375 1.1875C4.25 1.78125 1.75 4.28125 1.15625 7.375C0.03125 13.2188 5.25 17.5625 9.21875 16.9688C10.5312 16.75 11.1562 15.25 10.5625 14.0938C9.84375 12.6875 10.875 11.0312 12.4688 11.0312H14.9688C16.0625 11.0312 16.9688 10.0938 16.9688 8.96875C16.9688 4.0625 12.5 0.1875 7.375 1.1875ZM4 11C3.4375 11 3 10.5625 3 10C3 9.46875 3.4375 9 3.96875 9C4.46875 9 4.96875 9.46875 4.96875 10C4.96875 10.5625 4.53125 11 4 11ZM5 7C4.4375 7 4 6.5625 4 6C4 5.46875 4.4375 5 5 5C5.53125 5 6 5.46875 6 6C6 6.5625 5.53125 7 5 7ZM9 5C8.4375 5 8 4.5625 8 4C8 3.46875 8.4375 3.03125 9 3.03125C9.53125 3.03125 10 3.46875 10 4.03125C10 4.5625 9.53125 5 9 5ZM13 7C12.4375 7 12 6.5625 12 6C12 5.46875 12.4375 5 13 5C13.5312 5 14 5.46875 14 6C14 6.5625 13.5312 7 13 7Z" fill="url(#paint0_linear_993_7)"/>
<defs>
<linearGradient id="paint0_linear_993_7" x1="9" y1="1" x2="9" y2="17" gradientUnits="userSpaceOnUse">
<stop stop-color="#0f8fce"/>
<stop offset="1" stop-color="var(--primary)" stop-opacity="0.4"/>
</linearGradient>
</defs>
</svg>
