<svg width="18" height="19" viewBox="0 0 18 19" fill="none" xmlns="http://www.w3.org/2000/svg">
<path d="M17.9778 14.33L17.1335 18.0734C17.0279 18.6294 16.6058 19 16.078 19C7.21225 18.9629 0 11.3649 0 2.02479C0 1.46883 0.316635 1.02406 0.844361 0.912872L4.39771 0.0233416C4.89025 -0.0878498 5.41798 0.208661 5.62907 0.69049L7.28261 4.73044C7.45852 5.21227 7.35297 5.76823 6.96597 6.06474L5.06616 7.69554C6.26234 10.2529 8.23252 12.3285 10.6952 13.5887L12.2432 11.5872C12.5247 11.2166 13.0524 11.0683 13.5098 11.2537L17.3446 12.9957C17.8019 13.2551 18.0834 13.8111 17.9778 14.33Z" fill="white"/>
</svg>
