<svg width="17" height="18" viewBox="0 0 17 18" fill="none" xmlns="http://www.w3.org/2000/svg">
<path d="M8.5 0.125C3.78516 0.125 0 3.94336 0 8.625C0 13.3398 3.78516 17.125 8.5 17.125C13.1816 17.125 17 13.3398 17 8.625C17 3.94336 13.1816 0.125 8.5 0.125ZM12.75 10.75C12.75 11.3477 12.252 11.8125 11.6875 11.8125H5.3125C4.71484 11.8125 4.25 11.3477 4.25 10.75V8.02734L8.30078 9.6543C8.33398 9.6875 8.40039 9.6875 8.5 9.6875C8.56641 9.6875 8.63281 9.6875 8.66602 9.6543L12.75 8.02734V10.75ZM12.75 6.89844L8.5 8.5918L4.25 6.89844V6.5C4.25 5.93555 4.71484 5.4375 5.3125 5.4375L11.6875 5.4375C12.252 5.4375 12.75 5.93555 12.75 6.5V6.89844Z" fill="url(#paint0_linear_309_58)"/>
<defs>
<linearGradient id="paint0_linear_309_58" x1="7.5" y1="2.125" x2="7.49251" y2="17" gradientUnits="userSpaceOnUse">
<stop stop-color="white"/>
<stop offset="1" stop-color="white"/>
</linearGradient>
</defs>
</svg>
