<svg width="80" height="80" viewBox="0 0 80 80" fill="none" xmlns="http://www.w3.org/2000/svg">
<path d="M78.9062 3.28125C78.5938 2.1875 77.8125 1.40625 76.875 1.25C71.7188 0 67.5 0 63.5938 0C50 0 39.6875 5.9375 30.9375 18.5938L28.4375 22.9688L15.4688 49.2188C14.5313 51.25 14.8438 53.5938 16.4062 55.1562L25 63.5938C26.0938 64.6875 27.3438 65.1562 28.4375 65.1562C29.6875 65.1562 30.625 64.6875 30.7813 64.5312C30.7813 64.5312 50.625 54.6875 57.0312 51.5625L61.5625 48.9062C74.0625 40.3125 79.8438 30 79.8438 16.4062C80 12.5 80 8.4375 78.9062 3.28125ZM60.3125 46.7188L55.9375 49.2188C49.5312 52.3438 29.6875 62.1875 29.6875 62.1875C29.6875 62.1875 29.0625 62.5 28.4375 62.5C27.8125 62.5 27.1875 62.1875 26.7188 61.7188L18.125 53.125C17.3438 52.3438 17.1875 51.25 17.6562 50.1562L30.9375 23.4375L33.125 19.8438C41.25 8.125 50.9375 2.5 63.5938 2.5C67.5 2.5 71.4062 2.5 76.4062 3.75C77.5 8.59375 77.5 12.5 77.5 16.4062C77.3438 29.0625 71.875 38.75 60.3125 46.7188ZM57.3438 13.75C52.5 13.75 48.75 17.8125 48.75 22.5C48.75 27.3438 52.6562 31.25 57.3438 31.25C62.0312 31.25 65.9375 27.3438 65.9375 22.5C65.9375 17.8125 62.1875 13.75 57.3438 13.75ZM57.3438 28.75C53.9062 28.75 51.0938 26.0938 51.0938 22.5C51.0938 19.0625 53.9062 16.25 57.3438 16.25C60.7812 16.25 63.5938 19.0625 63.5938 22.5C63.5938 26.0938 60.9375 28.75 57.3438 28.75ZM12.5 42.5H4.84375C3.4375 42.5 2.5 41.5625 2.5 40.3125C2.5 40 2.5 39.5312 2.65625 39.2188L10 25.7812C10.9375 24.0625 13.4375 22.5 15.3125 22.5H23.75C24.375 22.5 25 22.0312 25 21.25C25 20.625 24.375 20 23.75 20H15.3125C12.5 20.1562 9.21875 22.0312 7.8125 24.6875L0.46875 38.125C0.15625 38.75 0 39.5312 0 40.3125C0 42.9688 2.03125 45 4.84375 45H12.5C13.125 45 13.75 44.5312 13.75 43.75C13.75 43.125 13.125 42.5 12.5 42.5ZM58.75 55C57.9688 55 57.5 55.625 57.5 56.25V64.6875C57.3438 66.5625 55.9375 69.0625 54.0625 70L40.7812 77.3438C40.4688 77.5 40 77.5 39.6875 77.5C38.4375 77.5 37.5 76.5625 37.5 75.1562V67.5C37.5 66.875 36.875 66.25 36.25 66.25C35.4688 66.25 35 66.875 35 67.5V75.1562C35 77.9688 37.0312 80 39.6875 80C40.4688 80 41.25 79.8438 41.875 79.5312L55.3125 72.1875C57.9688 70.7812 59.8438 67.5 60 64.6875V56.25C60 55.625 59.375 55 58.75 55Z" fill="white"/>
</svg>
