<svg width="79" height="21" viewBox="0 0 79 21" fill="none" xmlns="http://www.w3.org/2000/svg">
<path fill-rule="evenodd" clip-rule="evenodd" d="M10.6771 2.11552C13.0122 2.11552 15.3351 1.83588 17.575 1.27661L17.8576 1.2067L18.0696 1.40123C19.6735 2.87235 20.7766 4.77205 21.262 6.89363L21.3235 7.17327L21.1176 7.38299C17.8761 10.69 15.501 14.7751 14.2505 19.1793L14.1706 19.459L13.8879 19.5441C12.8647 19.8541 11.7801 20.0183 10.671 20.0183C9.56176 20.0183 8.49866 19.8541 7.44478 19.5289L7.16825 19.4438L7.08836 19.1702C5.82862 14.7751 3.45354 10.6961 0.20586 7.37995L0 7.17023L0.06145 6.89059C0.549985 4.77509 1.66532 2.86628 3.28762 1.37995L3.49963 1.18542L3.7823 1.25533C6.08057 1.82372 8.39112 2.11248 10.6648 2.11248L10.6771 2.11552Z" fill="#002E66"/>
<path fill-rule="evenodd" clip-rule="evenodd" d="M1.2997 9.2766C1.2997 6.79331 2.2737 4.46809 4.04349 2.71733C5.81635 0.963526 8.16684 0 10.6679 0C13.169 0 15.5287 0.963526 17.2985 2.71429C19.0682 4.46505 20.0422 6.79027 20.0422 9.27356C20.0422 14.3769 15.8328 18.541 10.6648 18.541C8.16377 18.541 5.8102 17.5775 4.04042 15.8267C2.27063 14.076 1.29663 11.7508 1.29663 9.27356L1.2997 9.2766Z" fill="#002E66"/>
<path d="M3.74542 2.09725C3.05717 2.75074 2.45802 3.49846 1.9787 4.31913C1.5086 5.12156 1.15219 5.99694 0.924817 6.92095C2.54098 8.59269 3.95742 10.4498 5.12806 12.462C6.27719 14.4316 7.19589 16.5532 7.84726 18.7903C8.27742 18.9149 8.72294 19.0152 9.18075 19.0851C9.66621 19.158 10.164 19.1975 10.674 19.1975C11.184 19.1975 11.6972 19.1611 12.1888 19.0881C12.6343 19.0213 13.0706 18.927 13.4946 18.8055C14.146 16.5623 15.0677 14.4346 16.2169 12.4559C17.3875 10.4468 18.7978 8.58965 20.4109 6.92095C20.1835 5.99694 19.8302 5.12156 19.3632 4.31609C18.89 3.5015 18.3031 2.75682 17.621 2.1094C16.5211 2.37688 15.3934 2.58357 14.2505 2.72339C13.0767 2.86624 11.8846 2.94223 10.674 2.94223C9.46342 2.94223 8.24669 2.86016 7.06069 2.70819C5.92999 2.56229 4.82388 2.3556 3.74234 2.09117L3.74542 2.09725ZM1.46559 4.02734C2.00328 3.1094 2.67617 2.27658 3.4566 1.55925L3.57642 1.44983L3.73005 1.48934C4.84846 1.76898 5.98223 1.98478 7.13443 2.13372C8.28664 2.28266 9.46342 2.35864 10.674 2.35864C11.8846 2.35864 13.0307 2.2857 14.1767 2.14284C15.3535 1.99694 16.5088 1.78418 17.6333 1.5015L17.79 1.46199L17.9068 1.57141C18.6811 2.2857 19.3478 3.11244 19.8763 4.0243C20.3955 4.92095 20.7858 5.90272 21.0223 6.94223L21.0561 7.09725L20.9455 7.20971C19.3232 8.86928 17.9037 10.7295 16.73 12.7477C15.5747 14.7325 14.656 16.8693 14.0169 19.1155L13.9739 19.2705L13.8203 19.3191C13.3164 19.4741 12.8002 19.5896 12.2717 19.6687C11.7494 19.7447 11.2148 19.7842 10.6709 19.7842C10.1271 19.7842 9.60476 19.7416 9.09165 19.6626C8.55395 19.5805 8.02855 19.4589 7.5185 19.3039L7.36488 19.2553L7.32186 19.1003C6.68277 16.8571 5.76715 14.7295 4.61187 12.7507C3.43509 10.7325 2.00943 8.87232 0.384049 7.20971L0.273438 7.09725L0.307236 6.94223C0.543822 5.90272 0.937107 4.91791 1.46251 4.02126L1.46559 4.02734Z" fill="#DCDDDE"/>
<path d="M1.53935 9.27656C1.53935 6.78112 2.56251 4.52276 4.21246 2.88446C5.86549 1.24617 8.1484 0.234009 10.6679 0.234009C13.1874 0.234009 15.4764 1.24617 17.1294 2.88143C18.7825 4.51668 19.8056 6.77808 19.8056 9.27352C19.8056 11.769 18.7825 14.0243 17.1264 15.6595C15.4733 17.2948 13.1904 18.3039 10.6648 18.3039C8.13918 18.3039 5.86242 17.2918 4.20939 15.6565C2.55636 14.0212 1.5332 11.7629 1.5332 9.27048L1.53935 9.27656ZM4.6334 3.29784C3.08791 4.82671 2.13235 6.93918 2.13235 9.27656C2.13235 11.6139 3.08791 13.7203 4.6334 15.2462C6.17889 16.775 8.31124 17.7203 10.6679 17.7203C13.0245 17.7203 15.1661 16.775 16.7116 15.2462C18.2571 13.7173 19.2126 11.6079 19.2126 9.27352C19.2126 6.93918 18.2571 4.82671 16.7116 3.2948C15.1661 1.76592 13.0307 0.820635 10.6679 0.820635C8.3051 0.820635 6.17582 1.76592 4.63033 3.2948L4.6334 3.29784Z" fill="#DCDDDE"/>
<path d="M7.56463 8.8267C7.8596 8.76895 8.15149 8.79023 8.41266 8.88445C8.66768 8.97564 8.8889 9.13977 9.05175 9.37077L9.19616 9.70512L8.86125 9.58354C8.36042 9.31606 7.85653 9.465 7.36185 9.6109C6.73197 9.79631 6.11746 9.97564 5.47223 9.43764C5.34011 9.34646 5.23257 9.20664 5.14961 9.06682C5.06666 8.93004 5.0052 8.79023 4.96526 8.69296L4.7594 8.20056L5.19263 8.51971C5.19263 8.51971 6.08981 9.20056 7.56156 8.82974H7.57078L7.56463 8.8267Z" fill="#DCDDDE"/>
<path fill-rule="evenodd" clip-rule="evenodd" d="M10.4713 6.39512C9.84139 6.39512 9.26068 6.51062 9.03331 6.82977C9.03331 6.82977 8.78136 7.06381 8.73527 7.26442C8.73527 7.26442 7.12218 6.18235 6.61829 8.5319C6.61829 8.5319 7.59228 7.83889 8.15149 8.29177C8.15149 8.29177 8.43416 8.68995 8.95342 8.82065C9.66011 9.00606 9.58329 9.14892 9.61402 9.29481C9.61402 9.29481 9.51877 9.51366 8.90733 9.8936C8.30204 10.2827 7.95484 10.0972 7.39564 9.91791C7.39564 9.91791 7.3557 10.7355 8.46488 10.7203C8.46488 10.7203 8.64617 10.7355 8.86739 10.7112C8.86739 10.7112 7.53698 11.2644 8.04087 12.617C8.04087 12.617 8.49561 12.0729 8.99951 11.9483C8.99951 11.9483 7.55848 13.5653 9.46346 15.1459C9.46346 15.1459 9.46346 13.6991 10.0073 13.2553C10.0073 13.2553 10.3053 14.4073 10.2132 15.0365C10.2132 15.0365 10.1886 15.5896 10.0165 15.8754C10.0165 15.8754 12.2748 15.8298 11.6296 13.1428C11.6296 13.1428 12.5329 13.4468 12.3455 14.6687C12.3455 14.6687 14.3734 13.6656 13.0368 11.6018C13.0368 11.6018 13.7988 11.6018 14.0354 12.5045C14.0354 12.5045 15.12 10.848 13.3287 9.26746C13.3287 9.26746 14.0047 9.10332 14.3734 9.65652C14.3734 9.65652 14.3273 8.39512 13.1229 7.78114C12.8463 7.6322 13.2796 7.19755 13.169 6.95743L10.4713 6.38904V6.39512Z" fill="#CE1141"/>
<path fill-rule="evenodd" clip-rule="evenodd" d="M11.8723 7.36171C11.8723 7.36171 12.6036 6.44377 13.6974 6.56839C13.6974 6.56839 13.3902 7.92098 12.1857 8.17022L11.8723 7.36171Z" fill="#CE1141"/>
<path fill-rule="evenodd" clip-rule="evenodd" d="M12.2257 7.49241C12.2257 7.49241 12.6436 7.08816 13.1475 7.00305C13.1475 7.00305 12.8955 7.58664 12.321 7.70214L12.2257 7.49241Z" fill="#DCDDDE"/>
<path fill-rule="evenodd" clip-rule="evenodd" d="M10.0718 8.79935C9.93657 8.70513 9.76451 8.66561 9.62317 8.73856C10.0564 8.75376 10.1271 9.36166 10.5972 9.23704C10.6832 9.21273 10.7631 9.17625 10.8338 9.12762C10.5265 9.25224 10.2745 8.9726 10.0718 8.79935Z" fill="#DCDDDE"/>
<path fill-rule="evenodd" clip-rule="evenodd" d="M12.533 10.538C12.4777 10.2858 12.3916 10.0973 12.2718 9.94838C12.1151 9.75689 11.9 9.63227 11.6235 9.53197C11.6849 9.79945 11.7587 10.0669 11.7618 10.3435C11.7618 10.6019 11.7064 10.8238 11.5928 11.0092C11.5098 11.1429 11.4023 11.2371 11.3009 11.307C11.3992 11.0517 11.4053 10.8329 11.3746 10.6596C11.3162 10.3344 11.1288 10.1672 10.9168 9.9423C10.9076 10.1429 10.9107 10.3466 10.8615 10.5411C10.797 10.7873 10.671 10.9393 10.545 11.0305C10.6372 10.7508 10.5696 10.4894 10.502 10.3557L10.2347 10.4955C10.2347 10.4955 10.3576 10.7478 10.2224 11.0183C10.1333 11.2007 9.95203 11.3405 9.80762 11.4833C10.3484 11.4499 10.84 11.3952 11.0919 10.7964C11.1165 11.1976 10.8676 11.5168 10.6495 11.8268C11.1319 11.7326 11.5405 11.6353 11.8386 11.1733C12.0229 10.8876 12.0905 10.5411 12.0506 10.1308C12.3302 10.5016 12.2964 10.9849 12.2964 11.4225C12.6651 10.9818 12.9355 10.5684 12.9324 9.94838C12.9324 9.53805 12.7788 9.06085 12.3056 8.58972L12.2042 8.89975C12.7388 9.57452 12.6774 10.1672 12.5422 10.535L12.533 10.538Z" fill="#DCDDDE"/>
<path d="M8.24975 9.13978C8.05618 9.08203 7.84418 9.07595 7.6291 9.11546C6.64896 9.36167 5.89311 9.17626 5.45374 8.99084C5.51211 9.07595 5.57664 9.15194 5.65038 9.20057L5.65652 9.20665H5.6596C6.18193 9.65042 6.72577 9.49236 7.27883 9.32823C7.59837 9.23401 7.91792 9.13978 8.24975 9.13978Z" fill="#CE1141"/>
<path fill-rule="evenodd" clip-rule="evenodd" d="M10.9843 5.58669C11.1718 5.89672 11.479 6.31009 11.8661 6.31009C12.2533 6.31009 12.496 6.13988 12.6834 5.82681C12.5728 5.842 12.5421 5.84201 12.4315 5.81161C12.1888 5.7265 12.0689 5.48334 12.1181 5.17331C12.198 4.89976 12.4714 4.74474 12.7388 4.82377C12.834 4.85416 12.9108 4.90279 12.9661 4.96359C12.9047 4.84808 12.8801 4.69915 12.92 4.56541C12.9999 4.29185 13.3225 4.07605 13.6052 4.12164L12.5052 6.80553H8.87042L7.76123 4.24626C8.03776 4.20067 8.36038 4.41647 8.43719 4.69003C8.47713 4.82377 8.45255 4.92407 8.3911 5.03349C8.44641 4.9727 8.53244 4.85416 8.61847 4.82377C8.88578 4.74474 9.19304 4.97878 9.26985 5.24322C9.31594 5.55325 9.21454 5.74778 8.97181 5.83593C8.8612 5.86024 8.76595 5.84504 8.65841 5.82681C8.84584 6.13684 9.13159 6.31009 9.52487 6.31009C9.91816 6.31009 10.1947 5.89672 10.3821 5.58669C10.2961 5.64748 10.1947 5.68091 10.0841 5.68091C9.8014 5.68091 9.58018 5.45599 9.58018 5.17635C9.58018 4.89672 9.8014 4.66267 10.0841 4.66267C10.1701 4.66267 10.2654 4.68699 10.336 4.73258C10.2408 4.63836 10.1793 4.50766 10.1793 4.36784C10.1793 4.08821 10.4067 3.86328 10.6832 3.86328C10.9597 3.86328 11.1933 4.08821 11.1933 4.36784C11.1933 4.50766 11.1226 4.64748 11.0273 4.7417C11.1072 4.69611 11.1933 4.66267 11.2854 4.66267C11.5681 4.66267 11.7893 4.89672 11.7893 5.17635C11.7893 5.45599 11.5681 5.68091 11.2854 5.68091C11.1748 5.68091 10.9874 5.58669 10.9874 5.58669H10.9843Z" fill="#E6B23A"/>
<path d="M9.78294 7.47716C9.73685 7.47412 9.68462 7.47108 9.62317 7.47716C9.61702 7.62609 9.50026 7.73552 9.34971 7.73552C9.21452 7.73552 9.10391 7.65041 9.07318 7.52579C9.01787 7.51971 8.96871 7.51059 8.92263 7.49539C8.95642 7.65649 9.0486 7.84494 9.27904 7.89053C9.27904 7.89053 9.6078 7.96044 9.74607 7.56226C9.75836 7.52883 9.77065 7.50147 9.78294 7.47716ZM9.26061 6.80846C9.21759 6.8419 9.18379 6.87533 9.15614 6.91485L9.14692 6.927L9.1377 6.93612C9.1377 6.93612 8.99944 7.06378 8.9257 7.19448C9.00251 7.234 9.15921 7.27959 9.43267 7.21272H9.44496C9.80752 7.14889 10.0318 7.23096 10.1424 7.28871C10.2961 7.3343 10.4251 7.4802 10.4251 7.4802L10.21 7.67169C10.21 7.67169 10.0718 7.51667 10.0195 7.65649C9.7983 8.28567 9.22988 8.16713 9.22988 8.16713C8.72598 8.0729 8.6338 7.59266 8.61844 7.36469C8.40644 7.24007 7.33105 6.70208 6.8548 8.22792C7.22043 8.04555 7.82573 7.83582 8.24974 8.17928L8.2651 8.19448L8.27432 8.20664C8.27432 8.20664 8.52627 8.56226 8.99329 8.6808C9.71227 8.87229 9.73378 9.04858 9.75529 9.22488C9.75529 9.24007 9.75836 9.25831 9.76143 9.26743L9.77065 9.31302L9.75221 9.35558C9.75221 9.35558 9.63853 9.61697 8.98715 10.0212C8.41258 10.389 8.05617 10.2948 7.58607 10.1367C7.65981 10.3282 7.87181 10.5835 8.46481 10.5744H8.47403C8.47403 10.5744 8.64917 10.5896 8.85196 10.5683L9.82595 10.465L8.9257 10.848C8.9257 10.848 7.88103 11.2826 8.11147 12.3343C8.30197 12.1519 8.62152 11.8936 8.96564 11.8085L9.41731 11.696L9.1162 12.0455C9.1162 12.0455 7.89639 13.4164 9.33435 14.8297C9.36814 14.3586 9.49105 13.4924 9.91813 13.1458L10.0963 13L10.1547 13.2218C10.1547 13.2218 10.4589 14.389 10.3636 15.0516C10.3636 15.0942 10.3421 15.4194 10.253 15.7051C10.7815 15.6048 11.9614 15.158 11.4851 13.1854L11.4206 12.9209L11.6787 13.0121C11.6787 13.0121 12.5421 13.3039 12.5175 14.3951C12.9815 14.0607 13.8725 13.1702 12.9108 11.6899L12.7633 11.4589H13.0398C13.0398 11.4589 13.7097 11.462 14.0569 12.1428C14.2627 11.6231 14.487 10.4893 13.2334 9.38597L13.0214 9.19752L13.2979 9.13369C13.2979 9.13369 13.7496 9.02427 14.1521 9.25527C14.0384 8.86014 13.7557 8.27655 13.0583 7.92093L13.0491 7.91485C12.8309 8.09722 12.5605 8.24615 12.2225 8.31606L12.1611 8.03035C12.8309 7.89053 13.3932 7.10026 13.5069 6.70512C12.5943 6.69904 11.9952 7.45284 11.9921 7.45588L11.7617 7.27351C11.7617 7.27351 12.5421 6.29175 13.7189 6.42548L13.8848 6.44372L13.8479 6.60482C13.8479 6.60482 13.7127 7.2036 13.2703 7.70208C14.4809 8.36773 14.53 9.65953 14.53 9.66257L14.5577 10.1975L14.2596 9.75071C14.0999 9.51363 13.8725 9.43156 13.6851 9.41029C15.2152 10.9969 14.1705 12.5896 14.1675 12.5957L13.9862 12.8814L13.9001 12.5531C13.7865 12.1215 13.5437 11.927 13.3471 11.8358C14.3979 13.8328 12.4253 14.8085 12.4192 14.8085L12.1611 14.9392L12.2041 14.6565C12.3086 13.9908 12.0597 13.6291 11.8477 13.4498C12.2748 15.9848 10.0349 16.0303 10.0287 16.0303L9.75836 16.0395L9.89662 15.8085C10.0502 15.5531 10.0718 15.0395 10.0718 15.0364V15.0212C10.1363 14.6079 10.0195 13.9544 9.93964 13.5805C9.62317 14.1155 9.62317 15.1458 9.62317 15.1519V15.465L9.38043 15.2644C7.99779 14.1155 8.28046 12.9452 8.60001 12.3191C8.34806 12.5015 8.16678 12.7173 8.16678 12.7173L8.00393 12.9088L7.91483 12.6717C7.57685 11.7598 7.99164 11.1793 8.36649 10.8693C7.21736 10.8297 7.26038 9.91789 7.26038 9.91485L7.26959 9.72032L7.45702 9.78111C7.53076 9.80542 7.57992 9.82062 7.63215 9.83886C8.05617 9.98172 8.36035 10.0851 8.84274 9.77503C9.28211 9.50147 9.42959 9.3343 9.47568 9.27047V9.26135C9.46339 9.18232 9.45418 9.1033 8.93184 8.96652C8.4218 8.83582 8.12069 8.47716 8.05924 8.39813C7.58607 8.04251 6.72268 8.65649 6.71961 8.65649L6.41235 8.87229L6.48917 8.50755C6.77799 7.16409 7.40479 6.85406 7.93634 6.86317C8.19751 6.86621 8.44945 6.94828 8.67989 7.0577C8.73213 6.96956 8.79358 6.88749 8.86117 6.80846H9.2729H9.26061Z" fill="#DCDDDE"/>
<path fill-rule="evenodd" clip-rule="evenodd" d="M75.6479 5.29787H70.8885L68.3936 11.3921L68.4028 5.2918H65.2012V13.4772H70.8024L71.3063 12.231H75.3037L75.8783 13.4772H79L75.6479 5.29787ZM61.4496 9.69301L58.0667 5.28876H54.0079V11.3647L51.4608 5.29483H46.7659L44.7995 10.1581H41.8652C41.6225 11.1763 41.0633 11.6292 40.0493 11.6292C38.8848 11.6292 38.0983 10.772 38.0983 9.49848C38.0983 7.84195 38.7589 6.9848 40.0248 6.9848C41.0633 6.9848 41.6532 7.44377 41.8345 8.40122H45.162L45.1713 8.2766C45.1713 6.30091 43.1495 5 40.0739 5C36.7863 5 35.2285 6.26748 34.9612 9.17933C34.488 8.67477 33.7199 8.2766 33.1361 8.231L31.8917 8.12158L30.0605 8.09119C29.2739 8.07599 28.8253 7.80243 28.8253 7.34347C28.8253 6.82067 29.2801 6.53496 30.1158 6.53496C31.0744 6.53496 31.4616 6.8845 31.4616 7.74772H34.9612V7.6383C34.9612 5.94833 33.3082 5.0152 30.3124 5.0152C26.9849 5.0152 25.3564 5.91793 25.3564 7.74772C25.3564 9.31307 26.5516 10.152 28.8407 10.2158L30.2018 10.2462C31.2004 10.2766 31.649 10.5198 31.649 11.0395C31.649 11.4833 31.0191 11.9027 30.3677 11.9027C29.2278 11.9027 28.6287 11.5137 28.6287 10.7812H25V10.8602C25 12.6353 26.8097 13.6079 30.0974 13.6079C33.385 13.6079 34.826 12.924 35.3268 11.2979C36.3408 13.0091 37.662 13.6322 40.2337 13.6322C41.8683 13.6322 42.7194 13.4073 43.7825 12.6444L43.4445 13.4772H46.5355L47.1008 12.2006H51.1597L51.7035 13.462H57.0036V8.61398L60.7706 13.4772H64.5222V5.29787H61.4465V9.69301H61.4496ZM72.1636 10.1763L73.2574 7.46809L74.5018 10.1611L72.1667 10.1763H72.1636ZM47.9519 10.1763L49.0519 7.38298L50.3116 10.1763H47.9519Z" fill="#002E66"/>
</svg>
