<svg width="24" height="24" viewBox="0 0 24 24" fill="none" xmlns="http://www.w3.org/2000/svg">
<path d="M22.6406 22.0332L16.6211 16.0137C17.9238 14.4414 18.6426 12.4199 18.6426 10.2188C18.6426 5.09766 14.4199 0.875 9.29883 0.875C4.13281 0.875 0 5.09766 0 10.2188C0 15.3848 4.17773 19.5625 9.29883 19.5625C11.4551 19.5625 13.4766 18.8438 15.0938 17.541L21.1133 23.5605C21.3379 23.7852 21.6074 23.875 21.9219 23.875C22.1914 23.875 22.4609 23.7852 22.6406 23.5605C23.0898 23.1562 23.0898 22.4824 22.6406 22.0332ZM2.15625 10.2188C2.15625 6.26562 5.3457 3.03125 9.34375 3.03125C13.2969 3.03125 16.5312 6.26562 16.5312 10.2188C16.5312 14.2168 13.2969 17.4062 9.34375 17.4062C5.3457 17.4062 2.15625 14.2168 2.15625 10.2188Z" fill="url(#paint0_linear_26_363)"/>
<defs>
<linearGradient id="paint0_linear_26_363" x1="11.5" y1="1" x2="11.5" y2="24" gradientUnits="userSpaceOnUse">
<stop stop-color="white"/>
<stop offset="1" stop-color="white" stop-opacity="0.71"/>
</linearGradient>
</defs>
</svg>
