<svg width="17" height="17" viewBox="0 0 17 17" fill="none" xmlns="http://www.w3.org/2000/svg">
<path id="share-alt" d="M13.6352 10.5C12.7212 10.5 11.9477 10.957 11.4204 11.5898L6.18212 8.98828C6.25243 8.74219 6.32274 8.53125 6.32274 8.25C6.32274 8.00391 6.25243 7.75781 6.18212 7.54688L11.3852 4.94531C11.9477 5.57812 12.7212 6 13.6352 6C15.1821 6 16.4477 4.76953 16.4477 3.1875C16.4477 1.64062 15.1821 0.375 13.6352 0.375C12.0532 0.375 10.8227 1.64062 10.8227 3.1875C10.8227 3.46875 10.8579 3.67969 10.9282 3.92578L5.68993 6.52734C5.16258 5.89453 4.38915 5.4375 3.51024 5.4375C1.92821 5.4375 0.697741 6.70312 0.697741 8.25C0.697741 9.83203 1.92821 11.0625 3.51024 11.0625C4.38915 11.0625 5.16258 10.6406 5.68993 10.0078L10.9282 12.6094C10.8579 12.8203 10.8227 13.0664 10.8227 13.3125C10.8227 14.8945 12.0532 16.125 13.6352 16.125C15.1821 16.125 16.4477 14.8945 16.4477 13.3125C16.4477 11.7656 15.1821 10.5 13.6352 10.5ZM13.6352 1.5C14.5493 1.5 15.3227 2.27344 15.3227 3.1875C15.3227 4.13672 14.5493 4.875 13.6352 4.875C12.686 4.875 11.9477 4.13672 11.9477 3.1875C11.9477 2.27344 12.686 1.5 13.6352 1.5ZM3.51024 9.9375C2.56102 9.9375 1.82274 9.19922 1.82274 8.25C1.82274 7.33594 2.56102 6.5625 3.51024 6.5625C4.4243 6.5625 5.19774 7.33594 5.19774 8.25C5.19774 9.19922 4.4243 9.9375 3.51024 9.9375ZM13.6352 15C12.686 15 11.9477 14.2617 11.9477 13.3125C11.9477 12.3984 12.686 11.625 13.6352 11.625C14.5493 11.625 15.3227 12.3984 15.3227 13.3125C15.3227 14.2617 14.5493 15 13.6352 15Z" fill="url(#paint0_linear_292_4)"/>
<defs>
<linearGradient id="paint0_linear_292_4" x1="8.38366" y1="-1" x2="8.38366" y2="17" gradientUnits="userSpaceOnUse">
<stop stop-color="#EC3939"/>
<stop offset="1" stop-color="#EC3939" stop-opacity="0.46"/>
</linearGradient>
</defs>
</svg>
