<svg width="15" height="16" viewBox="0 0 15 16" fill="none" xmlns="http://www.w3.org/2000/svg">
<path d="M13.916 12.1543C13.7402 12.4473 13.418 12.5938 13.0957 12.5938C12.9492 12.5938 12.7734 12.5645 12.627 12.4766L11.8945 12.0371L12.0703 12.6523C12.1582 13.0332 11.9238 13.4141 11.543 13.502C11.4844 13.5312 11.4258 13.5312 11.3672 13.5312C11.0742 13.5312 10.7813 13.3262 10.6934 13.0039L10.166 11.041L8.4375 10.0156V12.0957L9.84375 13.5312C10.1074 13.7949 10.1074 14.2344 9.84375 14.5273C9.69727 14.6445 9.52148 14.7031 9.3457 14.7031C9.16992 14.7031 8.96484 14.6445 8.84766 14.498L8.4375 14.0879V14.9375C8.4375 15.4648 7.99805 15.875 7.4707 15.875C6.97266 15.875 6.5332 15.4648 6.5332 14.9375V14.0879L6.12305 14.498C5.85938 14.791 5.41992 14.791 5.12695 14.5273C4.86328 14.2344 4.86328 13.7949 5.12695 13.5312L6.5332 12.0957V10.0156L4.77539 11.041L4.24805 13.0039C4.16016 13.3262 3.86719 13.5312 3.57422 13.5312C3.51563 13.5312 3.45703 13.5312 3.39844 13.502C3.01758 13.4141 2.7832 13.0332 2.90039 12.6523L3.04688 12.0371L2.31445 12.4766C2.19727 12.5645 2.02148 12.5938 1.875 12.5938C1.55273 12.5938 1.23047 12.4473 1.05469 12.1543C0.791016 11.6855 0.9375 11.1289 1.37695 10.8652L2.13867 10.4258L1.55273 10.25C1.17188 10.1621 0.966797 9.78125 1.05469 9.40039C1.17188 9.01953 1.55273 8.78516 1.93359 8.90234L3.86719 9.42969L5.625 8.375L3.86719 7.34961L1.93359 7.87695C1.8457 7.90625 1.78711 7.90625 1.72852 7.90625C1.43555 7.90625 1.14258 7.70117 1.05469 7.37891C0.966797 6.99805 1.17188 6.61719 1.55273 6.5293L2.13867 6.35352L1.37695 5.91406C0.9375 5.65039 0.791016 5.09375 1.05469 4.625C1.31836 4.18555 1.875 4.03906 2.34375 4.30273L3.07617 4.71289L2.90039 4.12695C2.8125 3.74609 3.04688 3.36523 3.39844 3.27734C3.7793 3.16016 4.16016 3.39453 4.27734 3.77539L4.80469 5.73828L6.5332 6.76367L6.5332 4.68359L5.12695 3.24805C4.86328 2.98438 4.86328 2.54492 5.12695 2.25195C5.41992 1.98828 5.85938 1.98828 6.12305 2.28125L6.5625 2.69141L6.5332 1.8125C6.5332 1.31445 6.94336 0.875 7.4707 0.875C7.96875 0.875 8.4082 1.31445 8.4082 1.8125V2.69141L8.81836 2.28125C9.08203 1.98828 9.52148 1.98828 9.81445 2.25195C10.0781 2.54492 10.0781 2.98438 9.81445 3.24805L8.4082 4.68359L8.4375 6.76367L10.166 5.73828L10.6934 3.77539C10.8105 3.39453 11.1914 3.16016 11.543 3.27734C11.9238 3.36523 12.1582 3.74609 12.0703 4.12695L11.8945 4.74219L12.627 4.30273C13.0957 4.03906 13.6523 4.18555 13.916 4.625C14.1797 5.09375 14.0332 5.65039 13.5938 5.91406L12.832 6.35352L13.418 6.5293C13.7988 6.61719 14.0039 6.99805 13.916 7.37891C13.8281 7.70117 13.5352 7.90625 13.2422 7.90625C13.1836 7.90625 13.0957 7.90625 13.0371 7.87695L11.1035 7.34961L9.3457 8.375L11.1035 9.42969L13.0371 8.90234C13.418 8.78516 13.7988 9.01953 13.916 9.40039C14.0039 9.78125 13.7988 10.1621 13.418 10.25L12.832 10.4258L13.5938 10.8652C14.0332 11.1289 14.1797 11.6855 13.916 12.1543Z" fill="#404040"/>
</svg>
