<svg width="81" height="80" viewBox="0 0 81 80" fill="none" xmlns="http://www.w3.org/2000/svg">
<path d="M57.875 41.875L41.4688 39.375L34.125 24.5312C33.5 23.2812 32.25 22.5 30.8438 22.5C29.5938 22.5 28.3438 23.2812 27.7188 24.5312L20.375 39.375L3.96878 41.875C1.00003 42.1875 -0.0937195 45.9375 2.09378 47.9688L13.8125 59.5312L11.1563 75.9375C10.6875 78.125 12.5625 80 14.5938 80C15.2188 80 15.6875 80 16.3125 79.6875L31 71.875L45.5313 79.6875C46.1563 80 46.625 80 47.25 80C48.0313 80 48.6563 79.8438 49.4375 79.375C50.375 78.5938 51 77.1875 50.8438 75.9375L48.0313 59.5312L59.9063 47.9688C61.9375 45.9375 60.8438 42.1875 57.875 41.875ZM58.0313 46.25L45.375 58.5938L48.3438 76.25C48.5 77.0312 47.5625 77.8125 46.7813 77.3438L30.8438 68.9062L15.0625 77.5C14.2813 77.8125 13.3438 77.1875 13.5 76.25L16.625 58.75L3.81253 46.0938C3.03128 45.4688 3.50003 44.375 4.43753 44.375L22.0938 41.7188L29.9063 25.625C30.2188 25.1562 30.6875 25 30.8438 25L31.7813 25.625L39.75 41.7188L57.4063 44.375C58.3438 44.375 58.8125 45.4688 58.0313 46.25ZM42.25 13.75H52.25V23.75C52.25 24.5312 52.7188 25.1562 53.5 25.1562C54.125 25.1562 54.75 24.5312 54.75 23.75V13.75H64.75C65.375 13.75 66 13.2812 66 12.6562C66 11.875 65.375 11.25 64.75 11.25H54.75V1.25C54.75 0.625 54.125 0 53.5 0C52.7188 0 52.25 0.625 52.25 1.25V11.25H42.25C41.4688 11.25 41 11.875 41 12.6562C41 13.2812 41.4688 13.75 42.25 13.75ZM79.75 33.75H72.25V26.25C72.25 25.625 71.625 25.1562 71 25.1562C70.2188 25.1562 69.75 25.625 69.75 26.25V33.75H62.25C61.4688 33.75 61 34.375 61 35.1562C61 35.7812 61.4688 36.25 62.25 36.25H69.75V43.75C69.75 44.5312 70.2188 45.1562 71 45.1562C71.625 45.1562 72.25 44.5312 72.25 43.75V36.25H79.75C80.375 36.25 81 35.7812 81 35.1562C81 34.375 80.375 33.75 79.75 33.75Z" fill="white"/>
</svg>
