<svg width="19" height="17" viewBox="0 0 19 17" fill="none" xmlns="http://www.w3.org/2000/svg">
<g clip-path="url(#clip0_100_3794)">
<path d="M16.8 8.81278C17.5489 8.81278 18.1574 6.83831 18.1574 4.40853C18.1574 1.97874 17.5489 0.00427246 16.8 0.00427246H0.987234V0.17023C0.417021 0.693634 0 2.39151 0 4.40427C0 6.41704 0.417021 8.11491 0.987234 8.63831V8.80853H16.8V8.81278Z" fill="#404040"/>
<path d="M1.35744 9.62134V12.5703H2.92766C3.32766 11.4809 4.37447 10.7064 5.6 10.7064C6.82553 10.7064 7.87659 11.4809 8.27234 12.5703H9.40851C9.80425 11.4809 10.8511 10.7064 12.0808 10.7064C13.3106 10.7064 14.3532 11.4809 14.7532 12.5703H19V9.62134H1.35744Z" fill="#404040"/>
<path d="M5.6 11.0341C4.20426 11.0341 3.0766 12.166 3.0766 13.5617C3.0766 14.9575 4.20426 16.0851 5.6 16.0851C6.99575 16.0851 8.12766 14.9532 8.12766 13.5617C8.12766 12.1702 6.99575 11.0341 5.6 11.0341ZM5.6 15.6596C4.44256 15.6596 3.50213 14.7192 3.50213 13.5617C3.50213 12.4043 4.44256 11.4596 5.6 11.4596C6.75745 11.4596 7.70213 12.4 7.70213 13.5617C7.70213 14.7234 6.75745 15.6596 5.6 15.6596Z" fill="#404040"/>
<path d="M12.0809 11.0341C10.6851 11.0341 9.55319 12.166 9.55319 13.5617C9.55319 14.9575 10.6851 16.0851 12.0809 16.0851C13.4766 16.0851 14.6043 14.9532 14.6043 13.5617C14.6043 12.1702 13.4766 11.0341 12.0809 11.0341ZM12.0809 15.6596C10.9234 15.6596 9.97872 14.7192 9.97872 13.5617C9.97872 12.4043 10.9234 11.4596 12.0809 11.4596C13.2383 11.4596 14.1787 12.4 14.1787 13.5617C14.1787 14.7234 13.2383 15.6596 12.0809 15.6596Z" fill="#404040"/>
<path d="M12.0809 12.2426C11.3532 12.2426 10.7617 12.834 10.7617 13.5617C10.7617 14.2894 11.3532 14.8809 12.0809 14.8809C12.8085 14.8809 13.4 14.2894 13.4 13.5617C13.4 12.834 12.8128 12.2426 12.0809 12.2426Z" fill="#404040"/>
<path d="M5.60425 12.2426C4.87659 12.2426 4.2851 12.834 4.2851 13.5617C4.2851 14.2894 4.87659 14.8809 5.60425 14.8809C6.33191 14.8809 6.9234 14.2894 6.9234 13.5617C6.9234 12.834 6.33617 12.2426 5.60425 12.2426Z" fill="#404040"/>
</g>
<defs>
<clipPath id="clip0_100_3794">
<rect width="19" height="16.0851" fill="white"/>
</clipPath>
</defs>
</svg>
