<svg width="16" height="15" viewBox="0 0 16 15" fill="none" xmlns="http://www.w3.org/2000/svg">
<path d="M15.7483 9.39794L10.9358 9.4297C11.0247 9.92199 11.0099 10.4619 10.847 11.0019C10.5508 11.9229 9.84008 12.6534 8.95163 12.8916C7.73741 13.2251 6.62685 12.7011 5.99013 11.7959C5.41264 12.6217 4.45015 13.1298 3.39882 12.971C1.9921 12.7646 1 11.383 1 9.85847V8.22279C1 7.55581 1.48865 7.03176 2.11056 7.03176L16 7L15.7631 9.39794H15.7483ZM4.87957 9.98551C4.87957 9.36618 4.37611 8.82624 3.769 8.82624C3.1619 8.82624 2.65844 9.36618 2.65844 10.0173C2.65844 10.6684 3.1619 11.2083 3.769 11.2083C4.37611 11.2083 4.87957 10.6842 4.87957 9.98551ZM9.32182 9.98551C9.32182 9.36618 8.81836 8.82624 8.21125 8.82624C7.60415 8.82624 7.10069 9.36618 7.10069 10.0173C7.10069 10.6684 7.60415 11.2083 8.21125 11.2083C8.81836 11.2083 9.32182 10.6842 9.32182 9.98551Z" fill="#404040"/>
</svg>
