<svg width="18" height="16" viewBox="0 0 18 16" fill="none" xmlns="http://www.w3.org/2000/svg">
<path d="M13.1562 1.78125C11.875 0.90625 10.2812 0.53125 8.71875 0.5C8.3125 0.5 7.96875 0.84375 7.96875 1.25V3.46875C7.96875 3.96875 8.3125 4.4375 8.78125 4.5C9.40625 4.59375 9.96875 4.125 9.96875 3.53125V2.625C11.4688 2.875 12.8125 3.78125 13.6562 5.15625C14.7812 6.96875 14.75 9.25 13.5938 11C11.5938 14.0312 7.46875 14.3125 5.0625 11.9062C3.15625 9.96875 2.96875 6.9375 4.53125 4.78125C4.8125 4.375 4.8125 3.84375 4.46875 3.5C4 3.03125 3.28125 3.09375 2.90625 3.625C0.78125 6.5625 1.03125 10.6875 3.6875 13.3125C5.15625 14.7812 7.0625 15.5312 9 15.5312C10.9062 15.5312 12.8125 14.7812 14.2812 13.3125C17.5625 10.0625 17.1875 4.53125 13.1562 1.78125ZM8.46875 8.53125C8.59375 8.65625 8.78125 8.75 8.96875 8.75C9.1875 8.75 9.375 8.65625 9.5 8.53125C9.8125 8.21875 9.8125 7.75 9.5 7.46875L7.03125 4.96875C6.75 4.65625 6.28125 4.65625 5.96875 4.96875C5.6875 5.25 5.6875 5.71875 5.96875 6.03125L8.46875 8.53125Z" fill="url(#paint0_linear_306_24)"/>
<defs>
<linearGradient id="paint0_linear_306_24" x1="9" y1="0" x2="8" y2="16" gradientUnits="userSpaceOnUse">
<stop stop-color="#0f8fce"/>
<stop offset="1" stop-color="var(--primary)" stop-opacity="0.3"/>
</linearGradient>
</defs>
</svg>
