<svg width="18" height="21" viewBox="0 0 18 21" fill="none" xmlns="http://www.w3.org/2000/svg">
<path d="M11.5938 0.5C12.0625 0.5 12.4922 0.773437 12.6875 1.20312L13 1.75H16.75C17.4141 1.75 18 2.33594 18 3C18 3.70312 17.4141 4.25 16.75 4.25H1.75C1.04688 4.25 0.5 3.70312 0.5 3C0.5 2.33594 1.04688 1.75 1.75 1.75L5.5 1.75L5.77344 1.20312C5.96875 0.773437 6.39844 0.5 6.86719 0.5L11.5938 0.5ZM1.71094 5.5H16.75L15.8906 18.7422C15.8516 19.7578 15.0312 20.5 14.0156 20.5H4.44531C3.42969 20.5 2.60938 19.7578 2.57031 18.7422L1.71094 5.5ZM6.08594 11.1641L7.92188 13L6.08594 14.8359C5.69531 15.2266 5.69531 15.8125 6.08594 16.1641C6.4375 16.5547 7.02344 16.5547 7.375 16.1641L9.21094 14.3281L11.0859 16.1641C11.4375 16.5547 12.0234 16.5547 12.375 16.1641C12.7656 15.8125 12.7656 15.2266 12.375 14.8359L10.5391 13L12.375 11.1641C12.7656 10.8125 12.7656 10.2266 12.375 9.83594C12.0234 9.48438 11.4375 9.48438 11.0859 9.83594L9.21094 11.7109L7.375 9.83594C7.02344 9.48438 6.4375 9.48438 6.08594 9.83594C5.69531 10.2266 5.69531 10.8125 6.08594 11.1641Z" fill="url(#paint0_linear_880_680)"/>
<defs>
<linearGradient id="paint0_linear_880_680" x1="9" y1="0" x2="9" y2="20" gradientUnits="userSpaceOnUse">
<stop stop-color="#FF5656"/>
<stop offset="1" stop-color="#D71515"/>
</linearGradient>
</defs>
</svg>
