<svg width="175" height="200" viewBox="0 0 175 200" fill="none" xmlns="http://www.w3.org/2000/svg">
<path d="M12.5 181.25C12.5 191.797 20.7031 200 31.25 200H143.75C153.906 200 162.5 191.797 162.5 181.25V50L12.5 50L12.5 181.25ZM118.75 81.25C118.75 78.125 121.484 75 125 75C128.125 75 131.25 78.125 131.25 81.25V168.75C131.25 172.266 128.125 175 125 175C121.484 175 118.75 172.266 118.75 168.75V81.25ZM81.25 81.25C81.25 78.125 83.9844 75 87.5 75C90.625 75 93.75 78.125 93.75 81.25V168.75C93.75 172.266 90.625 175 87.5 175C83.9844 175 81.25 172.266 81.25 168.75V81.25ZM43.75 81.25C43.75 78.125 46.4844 75 50 75C53.125 75 56.25 78.125 56.25 81.25L56.25 168.75C56.25 172.266 53.125 175 50 175C46.4844 175 43.75 172.266 43.75 168.75L43.75 81.25ZM168.75 12.5H125L120.312 3.51562C119.141 1.5625 117.188 0 114.844 0L59.7656 0C57.4219 0 55.4688 1.5625 54.2969 3.51562L50 12.5L6.25 12.5C2.73438 12.5 0 15.625 0 18.75L0 31.25C0 34.7656 2.73438 37.5 6.25 37.5L168.75 37.5C171.875 37.5 175 34.7656 175 31.25V18.75C175 15.625 171.875 12.5 168.75 12.5Z" fill="url(#paint0_linear_885_2)"/>
<defs>
<linearGradient id="paint0_linear_885_2" x1="87.5" y1="0" x2="87.5" y2="200" gradientUnits="userSpaceOnUse">
<stop stop-color="#E7E7E7"/>
<stop offset="1" stop-color="#F7F7F7"/>
</linearGradient>
</defs>
</svg>
