<svg width="15" height="15" viewBox="0 0 15 15" fill="none" xmlns="http://www.w3.org/2000/svg">
<path d="M10 6C10 6.5625 10.4375 7 11 7H13C13.5312 7 14 6.5625 14 6C14 5.46875 13.5312 5 13 5V2C13 1.65625 12.8125 1.34375 12.5 1.15625C12.2188 0.96875 11.8438 0.96875 11.5312 1.125L10.5312 1.65625C10.0312 1.90625 9.84375 2.5 10.0938 3C10.2812 3.34375 10.625 3.53125 11 3.53125V5C10.4375 5 10 5.46875 10 6ZM12.25 8C10.7188 8 9.5 9.21875 9.5 10.75C9.5 11.9062 10.1875 12.875 11.1562 13.2812L10.9375 13.5312C10.5938 13.875 10.5938 14.4375 10.9375 14.7812C11.125 14.9375 11.3438 15 11.5625 15C11.7812 15 12 14.9375 12.1875 14.75C14.375 12.4688 14.9688 12.0625 14.9688 10.75C15 9.21875 13.75 8 12.25 8ZM12.25 11.5C11.8125 11.5 11.5 11.1562 11.5 10.75C11.5 10.3438 11.8125 10 12.25 10C12.6562 10 13 10.3438 13 10.75C13 11.1562 12.6562 11.5 12.25 11.5ZM1.21875 6C1.5 6 1.78125 5.90625 1.96875 5.6875L3 4.5625L3 14C3 14.5625 3.4375 15 3.96875 15C4.46875 15 4.96875 14.5625 4.96875 14V4.5625L6 5.6875C6.375 6.09375 7 6.125 7.40625 5.75C7.8125 5.375 7.84375 4.75 7.46875 4.34375L4.71875 1.3125C4.34375 0.90625 3.625 0.90625 3.25 1.3125L0.53125 4.34375C0.125 4.75 0.15625 5.375 0.5625 5.75C0.75 5.90625 1 6 1.21875 6Z" fill="url(#paint0_linear_998_8)"/>
<defs>
<linearGradient id="paint0_linear_998_8" x1="8" y1="0" x2="7" y2="16" gradientUnits="userSpaceOnUse">
<stop stop-color="#0f8fce"/>
<stop offset="1" stop-color="var(--primary)" stop-opacity="0.3"/>
</linearGradient>
</defs>
</svg>
