<svg width="15" height="16" viewBox="0 0 15 16" fill="none" xmlns="http://www.w3.org/2000/svg">
<path d="M7.40625 5.75C7.8125 5.375 7.84375 4.75 7.46875 4.34375L4.71875 1.3125C4.34375 0.90625 3.625 0.90625 3.25 1.3125L0.53125 4.34375C0.125 4.75 0.15625 5.375 0.5625 5.75C0.96875 6.125 1.59375 6.09375 1.96875 5.6875L3 4.5625L3 14C3 14.5625 3.4375 15 3.96875 15C4.46875 15 4.96875 14.5625 4.96875 14V4.5625L6 5.6875C6.1875 5.90625 6.46875 6 6.75 6C6.96875 6 7.21875 5.90625 7.40625 5.75ZM11.1562 6.3125L10.9375 6.5625C10.5938 6.90625 10.5938 7.4375 10.9375 7.78125C11.125 7.9375 11.3438 8.03125 11.5625 8.03125C11.7812 8.03125 12 7.9375 12.1875 7.75C14.375 5.5 15 5.09375 15 3.78125C15 2.25 13.75 1.03125 12.25 1.03125C10.7188 1.03125 9.5 2.25 9.5 3.78125C9.46875 4.90625 10.1875 5.875 11.1562 6.3125ZM12.25 3C12.6562 3 13 3.34375 13 3.75C13 4.1875 12.6562 4.5 12.25 4.5C11.8125 4.5 11.5 4.1875 11.5 3.75C11.5 3.34375 11.8125 3 12.25 3ZM13 13.0312V10.0312C13 9.6875 12.8125 9.34375 12.5 9.1875C12.2188 9 11.8438 8.96875 11.5312 9.125L10.5312 9.65625C10.0312 9.90625 9.84375 10.5312 10.0938 11C10.2812 11.3438 10.625 11.5312 11 11.5312V13.0312C10.4375 13.0312 10 13.4688 10 14.0312C10 14.5938 10.4375 15.0312 11 15.0312H13C13.5312 15.0312 14 14.5938 14 14.0312C14 13.4688 13.5312 13.0312 13 13.0312Z" fill="url(#paint0_linear_998_7)"/>
<defs>
<linearGradient id="paint0_linear_998_7" x1="8" y1="0" x2="7" y2="16" gradientUnits="userSpaceOnUse">
<stop stop-color="#0f8fce"/>
<stop offset="1" stop-color="var(--primary)" stop-opacity="0.3"/>
</linearGradient>
</defs>
</svg>
