<svg width="66" height="76" viewBox="0 0 66 76" fill="none" xmlns="http://www.w3.org/2000/svg">
<path d="M33.1875 37.875C43.4414 37.875 51.9375 29.5254 51.9375 19.125C51.9375 8.87109 43.4414 0.375 33.1875 0.375C22.7871 0.375 14.4375 8.87109 14.4375 19.125C14.4375 29.5254 22.7871 37.875 33.1875 37.875ZM46.3711 45.6387L40.0723 70.6875L35.5312 50.7656L40.2188 42.5625H26.1562L30.8438 50.7656L26.1563 70.6875L19.8574 45.6387C8.57813 48.2754 0.375 58.3828 0.375 70.3945C0.375 73.1777 2.57227 75.375 5.35547 75.375H60.873C63.6562 75.375 66 73.1777 66 70.3945C66 58.3828 57.6504 48.2754 46.3711 45.6387Z" fill="white" fill-opacity="0.53"/>
</svg>
