<svg width="21" height="24" viewBox="0 0 21 24" fill="none" xmlns="http://www.w3.org/2000/svg">
<path d="M10.9375 12.375C14.082 12.375 16.6875 9.81445 16.6875 6.625C16.6875 3.48047 14.082 0.875 10.9375 0.875C7.74805 0.875 5.1875 3.48047 5.1875 6.625C5.1875 9.81445 7.74805 12.375 10.9375 12.375ZM13.1836 14.5312H8.64648C4.33398 14.5312 0.875 18.0352 0.875 22.3477C0.875 23.2012 1.54883 23.875 2.40234 23.875H19.4277C20.2812 23.875 21 23.2012 21 22.3477C21 18.0352 17.4961 14.5312 13.1836 14.5312Z" fill="url(#paint0_linear_865_2)"/>
<defs>
<linearGradient id="paint0_linear_865_2" x1="10.5" y1="1" x2="10.5" y2="24" gradientUnits="userSpaceOnUse">
<stop stop-color="white"/>
<stop offset="1" stop-color="white" stop-opacity="0.71"/>
</linearGradient>
</defs>
</svg>
