<svg width="14" height="16" viewBox="0 0 14 16" fill="none" xmlns="http://www.w3.org/2000/svg">
<path d="M14 3.5V5H0L0 3.5C0 2.6875 0.65625 2 1.5 2H3V1C3 0.46875 3.4375 0 4 0C4.53125 0 5 0.46875 5 1V2H9V1C9 0.46875 9.4375 0 10 0C10.5312 0 11 0.46875 11 1V2L12.5 2C13.3125 2 14 2.6875 14 3.5ZM0 6H14V14.5C14 15.3438 13.3125 16 12.5 16H1.5C0.65625 16 0 15.3438 0 14.5L0 6ZM10 10.2188C9.6875 9.9375 9.21875 9.9375 8.9375 10.2188L7.75 11.4688V8.25C7.75 7.84375 7.40625 7.5 7 7.5C6.5625 7.5 6.25 7.84375 6.25 8.25V11.4688L5 10.25C4.875 10.0938 4.6875 10 4.5 10C4.28125 10 4.09375 10.0938 3.96875 10.25C3.65625 10.5312 3.65625 11 3.96875 11.2812L6.46875 13.7812C6.75 14.0938 7.21875 14.0938 7.5 13.7812L10 11.2812C10.3125 11 10.3125 10.5312 10 10.2188Z" fill="url(#paint0_linear_998_6)"/>
<defs>
<linearGradient id="paint0_linear_998_6" x1="7" y1="0" x2="5.8585" y2="15.981" gradientUnits="userSpaceOnUse">
<stop stop-color="#0f8fce"/>
<stop offset="1" stop-color="var(--primary)" stop-opacity="0.3"/>
</linearGradient>
</defs>
</svg>
