<svg width="14" height="16" viewBox="0 0 14 16" fill="none" xmlns="http://www.w3.org/2000/svg">
<path d="M14 3.5V5H0L0 3.5C0 2.6875 0.65625 2 1.5 2H3V1C3 0.46875 3.4375 0 4 0C4.53125 0 5 0.46875 5 1V2H9V1C9 0.46875 9.4375 0 10 0C10.5312 0 11 0.46875 11 1V2L12.5 2C13.3125 2 14 2.6875 14 3.5ZM0 6H14V14.5C14 15.3438 13.3125 16 12.5 16H1.5C0.65625 16 0 15.3438 0 14.5L0 6ZM3.96875 11.2812C4.25 11.5625 4.71875 11.5625 5 11.2812L6.25 10.0625V13.25C6.25 13.6875 6.5625 14 7 14C7.40625 14 7.75 13.6875 7.75 13.25V10.0625L8.96875 11.2812C9.09375 11.4375 9.28125 11.5 9.5 11.5C9.6875 11.5 9.875 11.4375 10 11.2812C10.3125 11 10.3125 10.5312 10 10.25L7.5 7.75C7.21875 7.4375 6.75 7.4375 6.46875 7.75L3.96875 10.25C3.65625 10.5312 3.65625 11 3.96875 11.2812Z" fill="url(#paint0_linear_998_5)"/>
<defs>
<linearGradient id="paint0_linear_998_5" x1="7" y1="0" x2="5.8585" y2="15.981" gradientUnits="userSpaceOnUse">
<stop stop-color="#0f8fce"/>
<stop offset="1" stop-color="var(--primary)" stop-opacity="0.3"/>
</linearGradient>
</defs>
</svg>
