<svg width="18" height="16" viewBox="0 0 18 16" fill="none" xmlns="http://www.w3.org/2000/svg">
<path d="M17.1696 9.39844L10.9196 15.6484C10.6852 15.8828 10.3727 16 10.0602 16C9.70862 16 9.39612 15.8828 9.16174 15.6484C8.65393 15.1797 8.65393 14.3594 9.16174 13.8906L13.2633 9.75H1.31018C0.607056 9.75 0.0601807 9.20312 0.0601807 8.5C0.0601807 7.83594 0.607056 7.25 1.31018 7.25H13.2633L9.16174 3.14844C8.65393 2.67969 8.65393 1.85937 9.16174 1.39062C9.63049 0.882812 10.4508 0.882812 10.9196 1.39062L17.1696 7.64062C17.6774 8.10938 17.6774 8.92969 17.1696 9.39844Z" fill="url(#paint0_linear_331_2303)"/>
<defs>
<linearGradient id="paint0_linear_331_2303" x1="7.99474" y1="-2" x2="7.99474" y2="18" gradientUnits="userSpaceOnUse">
<stop stop-color="#EC3939"/>
<stop offset="1" stop-color="#EC3939" stop-opacity="0.46"/>
</linearGradient>
</defs>
</svg>
