<svg width="10" height="18" viewBox="0 0 10 18" fill="none" xmlns="http://www.w3.org/2000/svg">
<path d="M5.84326 8.96638C5.84326 9.47501 5.46657 9.88726 5.00182 9.88726C4.53708 9.88726 4.16039 9.47501 4.16039 8.96638C4.16039 8.45776 4.53708 8.04551 5.00182 8.04551C5.46657 8.04551 5.84326 8.45776 5.84326 8.96638ZM9.99926 8.99158C9.943 10.9729 6.22323 12.8766 4.51187 12.8766C1.35696 12.8766 -0.0467665 10.3123 0.556448 7.83598C1.16003 5.35926 3.38509 5.15293 3.38509 5.15293C3.67738 4.35841 3.58312 3.28519 4.1677 1.64456C4.75228 0.00354322 6.84545 -0.0436402 8.35403 0.0139395C9.86262 0.0715192 9.76616 0.63692 9.76616 0.63692C9.76616 0.63692 9.83448 0.963205 9.41943 1.09756C9.08951 1.09756 9.08001 1.11835 8.2974 1.00479C7.51479 0.89123 5.69528 0.643318 5.05407 1.60298C4.58275 2.37711 4.08768 3.49671 4.1677 5.15293C6.83595 5.21491 10.0559 7.01027 9.99926 8.99158ZM6.41943 9.15752C6.41943 7.87277 5.46803 6.83114 4.29412 6.83114C3.1202 6.83114 2.16843 7.87277 2.16843 9.15752C2.16843 10.4423 3.1202 11.4835 4.29412 11.4835C5.46803 11.4835 6.41943 10.4423 6.41943 9.15752ZM2.20643 13.1705C0.987942 13.1705 0 14.2517 0 15.5852C0 16.9188 0.987942 18 2.20643 18C3.42492 18 4.41286 16.9188 4.41286 15.5852C4.41286 14.2517 3.42492 13.1705 2.20643 13.1705ZM5.00182 8.04551C4.53708 8.04551 4.16039 8.45776 4.16039 8.96638C4.16039 9.47501 4.53708 9.88726 5.00182 9.88726C5.46657 9.88726 5.84326 9.47501 5.84326 8.96638C5.84326 8.45776 5.46657 8.04551 5.00182 8.04551ZM5.00182 8.04551C4.53708 8.04551 4.16039 8.45776 4.16039 8.96638C4.16039 9.47501 4.53708 9.88726 5.00182 9.88726C5.46657 9.88726 5.84326 9.47501 5.84326 8.96638C5.84326 8.45776 5.46657 8.04551 5.00182 8.04551Z" fill="white"/>
</svg>
