<svg width="70" height="56" viewBox="0 0 70 56" fill="none" xmlns="http://www.w3.org/2000/svg">
<mask id="mask0_1160_1320" style="mask-type:alpha" maskUnits="userSpaceOnUse" x="0" y="3" width="70" height="51">
<path d="M5.32335 31.5198H38.5357C41.3762 31.5198 43.7797 29.2256 43.7797 26.2758V8.7956C43.7797 5.95507 41.3762 3.55155 38.5357 3.55155H5.32335C2.37357 3.55155 0.0792999 5.95507 0.0792999 8.7956V26.2758C0.0792999 29.2256 2.37357 31.5198 5.32335 31.5198ZM33.2916 8.7956H36.7877V26.2758H33.2916V8.7956ZM24.5515 8.7956H28.0476V26.2758H24.5515V8.7956ZM15.8115 8.7956H19.3075V26.2758H15.8115V8.7956ZM7.07137 8.7956H10.5674V26.2758H7.07137V8.7956ZM67.9242 26.0573L61.4784 19.6115C60.1674 18.4097 58.4194 17.6449 56.5621 17.6449H50.7718C48.8053 17.6449 47.2758 19.1745 47.2758 21.0317V35.0159H3.57533C1.60882 35.0159 0.0792999 36.6546 0.0792999 38.5119V43.3189C0.0792999 47.7982 3.13833 51.8405 7.61763 52.496C10.8952 52.933 13.9542 51.4035 15.8115 49C17.778 51.7313 21.274 53.2608 25.0978 52.2775C27.8291 51.5128 30.1233 49.437 30.9974 46.7057C31.5436 45.067 31.6529 43.5374 31.3251 42.1172H49.133C48.8053 43.5374 48.9145 45.067 49.4608 46.7057C50.3348 49.437 52.7383 51.622 55.5789 52.2775C61.2599 53.6978 66.504 49.3278 66.504 43.8652C66.504 43.2097 66.3947 42.6634 66.2855 42.1172H68.252C69.126 42.1172 70 41.2432 70 40.3692V30.9736C70 29.1163 69.2352 27.3683 67.9242 26.0573ZM8.81939 47.252C6.85287 47.252 5.32335 45.7225 5.32335 43.7559C5.32335 41.8987 6.85287 40.2599 8.81939 40.2599C10.6767 40.2599 12.3154 41.8987 12.3154 43.7559C12.3154 45.7225 10.6767 47.252 8.81939 47.252ZM22.8035 47.252C20.837 47.252 19.3075 45.7225 19.3075 43.7559C19.3075 41.8987 20.837 40.2599 22.8035 40.2599C24.6608 40.2599 26.2996 41.8987 26.2996 43.7559C26.2996 45.7225 24.6608 47.252 22.8035 47.252ZM57.7639 47.252C55.7974 47.252 54.2678 45.7225 54.2678 43.7559C54.2678 41.8987 55.7974 40.3692 57.7639 40.3692C59.6211 40.3692 61.2599 42.0079 61.2599 43.8652C61.2599 45.7225 59.6211 47.252 57.7639 47.252ZM52.5198 28.0238V22.7797H56.5621C56.9991 22.7797 57.4361 22.889 57.7639 23.2167L62.5709 28.0238H52.5198Z" fill="black" fill-opacity="0.15"/>
</mask>
<g mask="url(#mask0_1160_1320)">
<rect x="-7.5" y="-31.5" width="379" height="85" rx="7.5" fill="var(--primary)" stroke="var(--primary)"/>
</g>
</svg>
