<svg width="14" height="14" viewBox="0 0 14 14" fill="none" xmlns="http://www.w3.org/2000/svg">
<path d="M12 0L2 0C0.875 0 0 0.90625 0 2L0 12C0 13.125 0.875 14 2 14L12 14C13.0937 14 14 13.125 14 12L14 2C14 0.90625 13.0938 0 12 0ZM7 11.5C6.4375 11.5 6 11.0625 6 10.5C6 9.9375 6.40625 9.5 7 9.5C7.53125 9.5 8 9.9375 8 10.5C8 11.0625 7.53125 11.5 7 11.5ZM9.15625 7.0625L7.75 7.9375V8C7.75 8.40625 7.40625 8.75 7 8.75C6.59375 8.75 6.25 8.40625 6.25 8V7.5C6.25 7.25 6.375 7 6.625 6.84375L8.40625 5.78125C8.625 5.65625 8.75 5.4375 8.75 5.1875C8.75 4.8125 8.4375 4.5 8.0625 4.5H6.4375C6.03125 4.5 5.75 4.8125 5.75 5.1875C5.75 5.59375 5.40625 5.9375 5 5.9375C4.59375 5.9375 4.25 5.59375 4.25 5.1875C4.25 3.96875 5.21875 3 6.40625 3H8.03125C9.28125 3 10.25 3.96875 10.25 5.1875C10.25 5.9375 9.84375 6.65625 9.15625 7.0625Z" fill="url(#paint0_linear_677_6)"/>
<defs>
<linearGradient id="paint0_linear_677_6" x1="7" y1="-1" x2="7" y2="15" gradientUnits="userSpaceOnUse">
<stop stop-color="#0f8fce"/>
<stop offset="1" stop-color="#88CBFF"/>
</linearGradient>
</defs>
</svg>
