<svg width="20" height="16" viewBox="0 0 20 16" fill="none" xmlns="http://www.w3.org/2000/svg">
<path d="M18.8438 10.1562L16.875 8.15625C16.6562 7.96875 16.3438 7.96875 16.1562 8.15625L14.1875 10.1562C13.8125 10.4688 14.0312 11 14.4688 11H15.3125C14.875 12.75 13.3125 14 11.4688 14H10.9688V7.5H12.4688C12.7188 7.5 12.9375 7.28125 12.9375 7V6C12.9375 5.75 12.6875 5.5 12.4688 5.5H11.625C12.4062 4.96875 12.9688 4.0625 12.9688 3C12.9688 1.34375 11.625 0 9.96875 0C8.34375 0 7 1.34375 7 3C7 4.0625 7.53125 4.96875 8.34375 5.5H7.5C7.21875 5.5 7 5.75 7 6V7C7 7.28125 7.21875 7.5 7.46875 7.5H8.9375V14H8.5C6.625 14 5.0625 12.75 4.625 11H5.46875C5.9375 11 6.15625 10.4688 5.84375 10.1562L3.875 8.15625C3.65625 7.96875 3.34375 7.96875 3.15625 8.15625L1.1875 10.1562C0.8125 10.4688 1.03125 11 1.5 11H2.5625C3.0625 13.8438 5.53125 16 8.5 16H11.4688C14.4375 16 16.875 13.8438 17.375 11H18.4688C18.9375 11 19.1562 10.4688 18.8438 10.1562ZM10 2C10.5312 2 10.9688 2.46875 10.9688 3C10.9688 3.5625 10.5 4 9.96875 4C9.40625 4 9 3.5625 9 3C9 2.46875 9.4375 2 10 2Z" fill="url(#paint0_linear_677_3)"/>
<defs>
<linearGradient id="paint0_linear_677_3" x1="10" y1="0" x2="10" y2="16" gradientUnits="userSpaceOnUse">
<stop stop-color="#0f8fce"/>
<stop offset="1" stop-color="#88CBFF"/>
</linearGradient>
</defs>
</svg>
