<svg width="19" height="17" viewBox="0 0 19 17" fill="none" xmlns="http://www.w3.org/2000/svg">
<path d="M18.5 10.5L16.8751 8.15625C16.6564 7.96875 16.3439 7.96875 16.1564 8.15625L14.1876 10.1563C13.8126 10.4688 16.0625 9.5 16.5 9.5L17 11C16.5625 12.75 13.3126 14 11.4689 14H10.9689V7.5H12.4689C12.7189 7.5 12.9376 7.28125 12.9376 7V6C12.9376 5.75 12.6876 5.5 12.4689 5.5H11.6251C12.4064 4.96875 12.9689 4.0625 12.9689 3C12.9689 1.34375 11.6251 0 9.96885 0C8.34385 0 7.0001 1.34375 7.0001 3C7.0001 4.0625 7.53135 4.96875 8.34385 5.5H7.5001C7.21885 5.5 7.0001 5.75 7.0001 6V7C7.0001 7.28125 7.21885 7.5 7.46885 7.5H8.9376L8.9376 14H8.5001C6.6251 14 5.0626 12.75 4.6251 11H5.46885C5.9376 11 6.15635 10.4688 5.84385 10.1562L3.8751 8.15625C3.65635 7.96875 3.34385 7.96875 3.15635 8.15625L1.1876 10.1562C0.812603 10.4688 1.03135 11 1.5001 11H2.5626C3.0626 13.8438 5.53135 16 8.5001 16H11.4689C14.4376 16 16.8751 13.8438 17.3751 11L18.4689 11C18.9376 11 18.8125 10.8125 18.5 10.5ZM10.0001 2C10.5314 2 10.9689 2.46875 10.9689 3C10.9689 3.5625 10.5001 4 9.96885 4C9.40635 4 9.0001 3.5625 9.0001 3C9.0001 2.46875 9.4376 2 10.0001 2Z" fill="url(#paint0_linear_677_24)"/>
<path d="M14.5 7.125C12.0039 7.125 10 9.14648 10 11.625C10 14.1211 12.0039 16.125 14.5 16.125C16.9785 16.125 19 14.1211 19 11.625C19 9.14648 16.9785 7.125 14.5 7.125ZM16.5215 10.8516L14.2715 13.1016C14.1836 13.207 14.0605 13.2422 13.9375 13.2422C13.7969 13.2422 13.6738 13.207 13.5859 13.1016L12.4609 11.9766C12.2676 11.7832 12.2676 11.4844 12.4609 11.291C12.6543 11.0977 12.9531 11.0977 13.1465 11.291L13.9375 12.0645L15.8359 10.166C16.0293 9.97266 16.3281 9.97266 16.5215 10.166C16.7148 10.3594 16.7148 10.6582 16.5215 10.8516Z" fill="url(#paint1_linear_677_24)"/>
<defs>
<linearGradient id="paint0_linear_677_24" x1="9.88788" y1="0" x2="9.88788" y2="16" gradientUnits="userSpaceOnUse">
<stop stop-color="#0f8fce"/>
<stop offset="1" stop-color="#88CBFF"/>
</linearGradient>
<linearGradient id="paint1_linear_677_24" x1="14.5" y1="7" x2="14.5" y2="16" gradientUnits="userSpaceOnUse">
<stop stop-color="#0f8fce"/>
<stop offset="1" stop-color="#88CBFF"/>
</linearGradient>
</defs>
</svg>
