<svg width="23" height="21" viewBox="0 0 23 21" fill="none" xmlns="http://www.w3.org/2000/svg">
<path d="M22.2031 18.0391C21.0703 17.9219 20.0547 17.4141 19.4297 16.6719C19.1953 16.3594 18.7266 16.4375 18.4922 16.7109C16.9688 18.4297 13.3359 18.4297 11.9688 16.6719C11.8516 16.5156 11.6562 16.4766 11.4609 16.4375C11.3047 16.4766 11.1094 16.5156 10.9922 16.6719C9.625 18.4297 5.99219 18.4688 4.46875 16.7109C4.23438 16.4375 3.76562 16.3594 3.53125 16.6719C2.90625 17.4141 1.89062 17.9219 0.757812 18.0391C0.445312 18.0781 0.25 18.3516 0.25 18.625V19.9141C0.25 20.2656 0.523438 20.5391 0.875 20.5C2.00781 20.4219 3.0625 20.0703 4 19.5234C6.1875 20.8516 9.35156 20.8516 11.5 19.5234C13.6094 20.8516 16.7734 20.8516 18.9609 19.5234C19.8984 20.0703 20.9531 20.4219 22.0859 20.5C22.4375 20.5391 22.75 20.2656 22.75 19.9141V18.625C22.75 18.3516 22.5156 18.0781 22.2031 18.0391ZM5.44531 15.8125C5.95312 16.3203 7.00781 16.75 7.71094 16.7891C8.57031 16.7891 9.54688 16.5547 10.0156 15.9297C10.3672 15.4609 10.9141 15.2266 11.5 15.2266C12.0469 15.2266 12.5938 15.4609 12.9453 15.9297C13.4141 16.5547 14.3906 16.75 15.25 16.75C15.9531 16.75 17.0078 16.3203 17.5156 15.8125L21.1094 12.3359C21.3047 12.1406 21.5 11.75 21.5 11.4766C21.5 10.9688 21.1094 10.4219 20.6016 10.2656L19 9.75781V4.28906C19 3.58594 18.4141 3.03906 17.75 3.03906H15.25V1.47656C15.25 0.929688 14.8203 0.5 14.3125 0.5H8.6875C8.14062 0.5 7.75 0.929688 7.75 1.47656L7.71094 3.03906H5.25C4.54688 3.03906 4 3.58594 4 4.28906V9.75781L2.35938 10.2656C1.85156 10.4219 1.5 10.9688 1.5 11.4766C1.5 11.75 1.65625 12.1406 1.85156 12.3359L5.44531 15.8125ZM6.5 5.53906H16.5V8.9375L11.8516 7.45312C11.7344 7.41406 11.5781 7.41406 11.5 7.41406C11.3828 7.41406 11.2266 7.41406 11.1094 7.45312L6.5 8.9375V5.53906Z" fill="url(#paint0_linear_677_26)"/>
<defs>
<linearGradient id="paint0_linear_677_26" x1="11.5" y1="0" x2="11.5" y2="20" gradientUnits="userSpaceOnUse">
<stop stop-color="white"/>
<stop offset="0.674829" stop-color="white" stop-opacity="0.92"/>
<stop offset="1" stop-color="white" stop-opacity="0.75"/>
</linearGradient>
</defs>
</svg>
