<svg width="25" height="26" viewBox="0 0 25 26" fill="none" xmlns="http://www.w3.org/2000/svg">
<path id="&#216;&#162;&#216;&#177;&#216;&#167;&#219;&#140;&#216;&#180;&#219;&#140;" d="M15.8203 5.20312L18.75 6.375L19.9219 9.30469C20.0195 9.45117 20.166 9.5 20.3125 9.5C20.459 9.5 20.5566 9.45117 20.6543 9.30469L21.875 6.375L24.7559 5.20312C24.9023 5.10547 25 4.95898 25 4.8125C25 4.66602 24.9023 4.56836 24.7559 4.4707L21.875 3.25L20.6543 0.369141C20.5566 0.222656 20.459 0.125 20.3125 0.125C20.166 0.125 20.0195 0.222656 19.9219 0.369141L18.75 3.25L15.8203 4.4707C15.6738 4.56836 15.625 4.66602 15.625 4.8125C15.625 4.95898 15.6738 5.10547 15.8203 5.20312ZM24.7559 20.0957L21.875 18.875L20.6543 15.9941C20.5566 15.8477 20.459 15.75 20.3125 15.75C20.166 15.75 20.0195 15.8477 19.9219 15.9941L18.75 18.875L15.8203 20.0957C15.6738 20.1934 15.625 20.291 15.625 20.4375C15.625 20.584 15.6738 20.7305 15.8203 20.8281L18.75 22L19.9219 24.9297C20.0195 25.0762 20.166 25.125 20.3125 25.125C20.459 25.125 20.5566 25.0762 20.6543 24.9297L21.875 22L24.7559 20.8281C24.9023 20.7305 25 20.584 25 20.4375C25 20.291 24.9023 20.1934 24.7559 20.0957ZM18.75 12.625C18.75 12.332 18.5547 12.0391 18.3105 11.9414L12.793 9.1582L10.0586 3.68945C9.76562 3.15234 8.93555 3.15234 8.64258 3.68945L5.9082 9.1582L0.390625 11.9414C0.146484 12.0391 0 12.332 0 12.625C0 12.918 0.146484 13.2109 0.390625 13.3086L5.9082 16.0918L8.64258 21.6094C8.78906 21.8535 9.0332 22 9.375 22C9.61914 22 9.91211 21.8535 10.0586 21.6094L12.793 16.0918L18.3105 13.3086C18.5547 13.2109 18.75 12.918 18.75 12.625Z" fill="url(#paint0_linear_665_42)"/>
<defs>
<linearGradient id="paint0_linear_665_42" x1="12.5" y1="0" x2="12.5" y2="25" gradientUnits="userSpaceOnUse">
<stop stop-color="white"/>
<stop offset="0.674829" stop-color="white"/>
<stop offset="1" stop-color="white" stop-opacity="0.44"/>
</linearGradient>
</defs>
</svg>
