<svg width="19" height="26" viewBox="0 0 19 26" fill="none" xmlns="http://www.w3.org/2000/svg">
<path id="&#216;&#167;&#217;&#132;&#218;&#169;&#216;&#170;&#216;&#177;&#219;&#140;&#218;&#169;&#219;&#140;" d="M11.1875 3.25H15.875C16.2656 3.25 16.6562 2.9082 16.6562 2.46875C16.6562 2.07812 16.2656 1.6875 15.875 1.6875H14.7031V1.29688C14.7031 0.662109 14.166 0.125 13.5312 0.125C12.8477 0.125 12.3594 0.662109 12.3594 1.29688V1.6875H11.1875C10.748 1.6875 10.4062 2.07812 10.4062 2.46875C10.4062 2.9082 10.748 3.25 11.1875 3.25ZM11.1875 6.375H15.875C16.2656 6.375 16.6562 6.0332 16.6562 5.59375C16.6562 5.20312 16.2656 4.8125 15.875 4.8125H11.1875C10.748 4.8125 10.4062 5.20312 10.4062 5.59375C10.4062 6.0332 10.748 6.375 11.1875 6.375ZM19 10.2812V8.71875C19 8.32812 18.6094 7.9375 18.2188 7.9375H1.03125C0.591797 7.9375 0.25 8.32812 0.25 8.71875V10.2812C0.25 10.7207 0.591797 11.0625 1.03125 11.0625V22C0.591797 22 0.25 22.3906 0.25 22.7812V24.3438C0.25 24.7832 0.591797 25.125 1.03125 25.125H18.2188C18.6094 25.125 19 24.7832 19 24.3438V22.7812C19 22.3906 18.6094 22 18.2188 22V11.0625C18.6094 11.0625 19 10.7207 19 10.2812ZM13.4824 16.9707L8.01367 21.8535C7.86719 21.9512 7.7207 22 7.52539 22C7.37891 22 7.23242 22 7.08594 21.9023C6.8418 21.707 6.74414 21.3652 6.89062 21.0723L8.55078 17.3125H6.1582C5.86523 17.3125 5.62109 17.166 5.52344 16.873C5.37695 16.6289 5.47461 16.3359 5.66992 16.1406L11.1387 11.2578C11.3828 11.0625 11.7246 11.0137 12.0176 11.209C12.2617 11.4043 12.3594 11.7461 12.2129 12.0391L10.6504 15.75H12.9941C13.2871 15.75 13.5801 15.9453 13.6777 16.2383C13.7754 16.4824 13.6777 16.7754 13.4824 16.9707ZM3.375 3.25H8.0625C8.45312 3.25 8.84375 2.9082 8.84375 2.46875C8.84375 2.07812 8.45312 1.6875 8.0625 1.6875H6.89062V1.29688C6.89062 0.662109 6.35352 0.125 5.71875 0.125C5.03516 0.125 4.54688 0.662109 4.54688 1.29688V1.6875H3.375C2.93555 1.6875 2.59375 2.07812 2.59375 2.46875C2.59375 2.9082 2.93555 3.25 3.375 3.25ZM3.375 6.375H8.0625C8.45312 6.375 8.84375 6.0332 8.84375 5.59375C8.84375 5.20312 8.45312 4.8125 8.0625 4.8125H3.375C2.93555 4.8125 2.59375 5.20312 2.59375 5.59375C2.59375 6.0332 2.93555 6.375 3.375 6.375Z" fill="url(#paint0_linear_665_56)"/>
<defs>
<linearGradient id="paint0_linear_665_56" x1="9.5" y1="0" x2="9.5" y2="25" gradientUnits="userSpaceOnUse">
<stop stop-color="white"/>
<stop offset="0.674829" stop-color="white"/>
<stop offset="1" stop-color="white" stop-opacity="0.44"/>
</linearGradient>
</defs>
</svg>
