<svg width="24" height="24" viewBox="0 0 24 24" fill="none" xmlns="http://www.w3.org/2000/svg">
<path id="&#217;&#132;&#217;&#136;&#217;&#132;&#216;&#178;&#217;&#133; &#216;&#170;&#216;&#173;&#216;&#177;&#219;&#140;&#216;&#177;" d="M23.4375 7.15625V18.875L18.75 23.5625H7.03125C5.71289 23.5625 4.6875 22.5371 4.6875 21.2188V7.15625C4.6875 5.88672 5.71289 4.8125 7.03125 4.8125H21.0938C22.3633 4.8125 23.4375 5.88672 23.4375 7.15625ZM18.75 13.0156C18.75 12.8203 18.5547 12.625 18.3594 12.625H15.625V9.89062C15.625 9.69531 15.4297 9.5 15.2344 9.5H12.8906C12.6465 9.5 12.5 9.69531 12.5 9.89062V12.625H9.76562C9.52148 12.625 9.375 12.8203 9.375 13.0156V15.3594C9.375 15.6035 9.52148 15.75 9.76562 15.75H12.5V18.4844C12.5 18.7285 12.6465 18.875 12.8906 18.875H15.2344C15.4297 18.875 15.625 18.7285 15.625 18.4844V15.75H18.3594C18.5547 15.75 18.75 15.6035 18.75 15.3594V13.0156ZM0 17.7031V5.98438C0 2.76172 2.58789 0.125 5.85938 0.125H17.5781C18.2129 0.125 18.75 0.662109 18.75 1.29688C18.75 1.98047 18.2129 2.46875 17.5781 2.46875H5.85938C3.90625 2.46875 2.34375 4.08008 2.34375 5.98438V17.7031C2.34375 18.3867 1.80664 18.875 1.17188 18.875C0.488281 18.875 0 18.3867 0 17.7031Z" fill="url(#paint0_linear_665_54)"/>
<defs>
<linearGradient id="paint0_linear_665_54" x1="12.5" y1="0" x2="12.5" y2="25" gradientUnits="userSpaceOnUse">
<stop stop-color="white"/>
<stop offset="0.674829" stop-color="white"/>
<stop offset="1" stop-color="white" stop-opacity="0.44"/>
</linearGradient>
</defs>
</svg>
