<svg width="27" height="27" viewBox="0 0 27 27" fill="none" xmlns="http://www.w3.org/2000/svg">
<path id="&#217;&#190;&#216;&#178;&#216;&#180;&#218;&#169;&#219;&#140;" d="M5.54102 15.2852C3.00195 17.873 1.39062 21.2422 1 24.8555C0.902344 25.5879 1.53711 26.2227 2.26953 26.125C5.88281 25.7344 9.25195 24.123 11.791 21.5352L15.502 17.873L9.25195 11.623L5.54102 15.2852ZM24.6816 2.44336C22.9727 0.734375 20.1406 0.734375 18.4316 2.44336L17.3574 3.51758L15.5996 1.71094C14.8184 0.978516 13.5977 0.978516 12.8164 1.71094L7.73828 6.78906C7.44531 7.13086 7.44531 7.61914 7.73828 7.91211L8.27539 8.44922C8.61719 8.79102 9.10547 8.79102 9.39844 8.44922L14.1836 3.66406L15.6973 5.17773L10.375 10.5488L16.5762 16.75L24.6328 8.64453C26.3906 6.98438 26.3906 4.15234 24.6816 2.44336Z" fill="url(#paint0_linear_665_52)"/>
<defs>
<linearGradient id="paint0_linear_665_52" x1="13.5" y1="1" x2="13.5" y2="26" gradientUnits="userSpaceOnUse">
<stop stop-color="white"/>
<stop offset="0.674829" stop-color="white"/>
<stop offset="1" stop-color="white" stop-opacity="0.44"/>
</linearGradient>
</defs>
</svg>
