<svg width="32" height="26" viewBox="0 0 32 26" fill="none" xmlns="http://www.w3.org/2000/svg">
<path id="&#217;&#190;&#217;&#136;&#216;&#180;&#216;&#167;&#218;&#169;" d="M30.3887 18.5332L18.8164 10.8672L19.207 10.5742C20.8672 9.45117 21.8438 7.5957 21.8438 5.59375C21.8438 2.61523 19.3535 0.125 16.375 0.125C13.7383 0.125 11.4922 1.98047 11.0039 4.51953C10.8086 5.34961 11.3457 6.17969 12.2246 6.375C13.0547 6.52148 13.8848 5.98438 14.0312 5.1543C14.2754 4.08008 15.252 3.25 16.375 3.25C17.6445 3.25 18.7188 4.32422 18.7188 5.59375C18.7188 6.57031 18.2305 7.44922 17.4492 8.03516L2.26367 18.582C1.28711 19.2656 0.75 20.3398 0.75 21.5605C0.75 23.5137 2.36133 25.125 4.31445 25.125H28.3867C30.3398 25.125 32 23.5137 32 21.5605C32 20.3398 31.3652 19.2168 30.3887 18.5332ZM28.3867 22H4.31445C4.07031 22 3.875 21.8047 3.875 21.5117C3.875 21.3652 3.92383 21.2188 4.07031 21.1211L16.082 12.7715L28.6309 21.1699C28.7773 21.2676 28.875 21.4141 28.875 21.5605C28.875 21.8047 28.6309 22 28.3867 22Z" fill="url(#paint0_linear_665_48)"/>
<defs>
<linearGradient id="paint0_linear_665_48" x1="16" y1="0" x2="16" y2="25" gradientUnits="userSpaceOnUse">
<stop stop-color="white"/>
<stop offset="0.674829" stop-color="white"/>
<stop offset="1" stop-color="white" stop-opacity="0.44"/>
</linearGradient>
</defs>
</svg>
