<svg width="32" height="27" viewBox="0 0 32 27" fill="none" xmlns="http://www.w3.org/2000/svg">
<path id="&#218;&#134;&#217;&#136;&#216;&#168;&#219;&#140;" d="M12.4688 11.0859L15.7891 14.4062L4.50977 25.6855C3.875 26.3203 2.89844 26.3203 2.3125 25.6855L1.18945 24.6113C0.554688 23.9766 0.554688 23 1.18945 22.3652L12.4688 11.0859ZM32 8.9375V10.5C32 16.5059 27.0684 21.4375 21.0625 21.4375H19.5L19.4512 15.8711L12.127 8.54688C11.4922 7.91211 11.4922 6.93555 12.127 6.30078L16.8145 1.61328C17.1562 1.32031 17.5469 1.125 17.9375 1.125C18.3281 1.125 18.7188 1.32031 19.0605 1.61328L20.4766 3.07812L21.9414 1.61328C22.5762 0.978516 23.5527 0.978516 24.1875 1.61328L25.2617 2.6875C25.8965 3.32227 25.8965 4.29883 25.2617 4.93359L23.7969 6.39844L26.3848 8.9375H32ZM28.6797 12.0625H26.8242C26.043 14.0156 24.5293 15.5293 22.625 16.3105V18.166C25.6523 17.5312 28.0938 15.1387 28.6797 12.0625Z" fill="url(#paint0_linear_665_50)"/>
<defs>
<linearGradient id="paint0_linear_665_50" x1="16" y1="1" x2="16" y2="26" gradientUnits="userSpaceOnUse">
<stop stop-color="white"/>
<stop offset="0.674829" stop-color="white"/>
<stop offset="1" stop-color="white" stop-opacity="0.44"/>
</linearGradient>
</defs>
</svg>
