<svg width="17" height="16" viewBox="0 0 17 16" fill="none" xmlns="http://www.w3.org/2000/svg">
<path d="M4.125 10.0938L4.5 9.71875C4.53125 9.6875 4.5625 9.625 4.5625 9.53125V9.125C4.5625 9.0625 4.625 9 4.6875 9H4.875C4.9375 9 5 9.0625 5 9.09375L5.125 9.5625C5.15625 9.625 5.1875 9.65625 5.25 9.65625H5.375C5.4375 9.65625 5.46875 9.625 5.5 9.5625L5.65625 9.15625C5.6875 9.0625 5.78125 9 5.875 9H6.25C6.3125 9 6.375 9.03125 6.40625 9.0625L7.15625 9.59375C7.21875 9.625 7.25 9.65625 7.3125 9.6875L8.5625 10.1875C8.65625 10.2188 8.71875 10.3125 8.71875 10.4062V10.7188C8.71875 10.7812 8.6875 10.8438 8.625 10.9062L8.25 11.2812C8.1875 11.375 8.03125 11.4375 7.90625 11.4375H7.59375C7.5625 11.4375 7.5 11.4062 7.46875 11.4062L6.8125 11.25C6.53125 11.1875 6.21875 11.25 6 11.4688L5.59375 11.875C5.5 11.9688 5.375 12 5.25 12H4.78125C4.65625 12 4.53125 11.9688 4.40625 11.875L4.25 11.6875C4.15625 11.5938 4.09375 11.5 4 11.375C4 11.3125 3.96875 11.2812 3.96875 11.2188V10.4375C3.96875 10.3125 4.03125 10.1875 4.125 10.0938ZM8.96875 0C13.4062 0 16.9688 3.59375 16.9688 8C16.9688 12.4375 13.4062 16 8.96875 16C4.5625 16 0.96875 12.4375 0.96875 8C0.96875 3.59375 4.5625 0 8.96875 0ZM8.96875 14.5C12.2188 14.5 14.9062 12.125 15.4062 9H13.1875C13.0625 9 12.9375 8.96875 12.8438 8.875L12.2188 8.25C12.0938 8.125 11.9062 8.15625 11.8125 8.3125L11.125 9.75C11.0312 9.90625 10.8438 10 10.6562 10H10.4688C10.1875 10 9.96875 9.78125 9.96875 9.5V9.21875C9.96875 9.09375 10.0312 8.96875 10.125 8.875L10.3125 8.6875C10.4062 8.59375 10.4062 8.4375 10.3125 8.34375L10.125 8.15625C10.0312 8.0625 9.90625 8 9.78125 8H9.75C9.59375 8 9.4375 7.90625 9.34375 7.78125L8.78125 6.875C8.71875 6.78125 8.59375 6.78125 8.53125 6.875C8.5 6.96875 8.40625 7 8.3125 7H8.21875C8.09375 7 7.96875 6.90625 7.96875 6.75V4.3125C7.96875 4.125 8.09375 3.96875 8.25 3.875L8.59375 3.71875C8.75 3.625 8.78125 3.375 8.625 3.28125L7.6875 2.5625C7.4375 2.375 7.28125 2.09375 7.28125 1.78125V1.75C4.53125 2.5 2.46875 5 2.46875 8C2.46875 11.5938 5.40625 14.5 8.96875 14.5Z" fill="url(#paint0_linear_702_3)"/>
<defs>
<linearGradient id="paint0_linear_702_3" x1="11" y1="0" x2="11" y2="16" gradientUnits="userSpaceOnUse">
<stop stop-color="#FF008A"/>
<stop offset="1" stop-color="#00D1FF"/>
</linearGradient>
</defs>
</svg>
