<svg width="16" height="16" viewBox="0 0 16 16" fill="none" xmlns="http://www.w3.org/2000/svg">
<path d="M15.4286 1H11.4286L11 0.28125C10.8929 0.125 10.7143 0 10.5 0H5.46429C5.25 0 5.07143 0.125 4.96429 0.28125L4.57143 1H0.571429C0.25 1 0 1.25 0 1.5V2.5C0 2.78125 0.25 3 0.571429 3H15.4286C15.7143 3 16 2.78125 16 2.5V1.5C16 1.25 15.7143 1 15.4286 1ZM1.14286 14.5C1.14286 15.3438 1.89286 16 2.85714 16H13.1429C14.0714 16 14.8571 15.3438 14.8571 14.5V4H1.14286V14.5ZM5.10714 8.03125C4.75 7.71875 4.75 7.25 5.10714 6.96875C5.42857 6.65625 5.96429 6.65625 6.28571 6.96875L7.96429 8.4375L9.67857 6.96875C10 6.65625 10.5357 6.65625 10.8571 6.96875C11.2143 7.25 11.2143 7.71875 10.8571 8.03125L9.17857 9.5L10.8571 11C11.2143 11.2812 11.2143 11.75 10.8571 12.0312C10.5357 12.3438 10 12.3438 9.64286 12.0312L7.96429 10.5625L6.28571 12.0312C5.96429 12.3438 5.42857 12.3438 5.07143 12.0312C4.75 11.75 4.75 11.2812 5.07143 11L6.78571 9.5L5.10714 8.03125Z" fill="#FF5C00"/>
</svg>
