<svg width="16" height="16" viewBox="0 0 16 16" fill="none" xmlns="http://www.w3.org/2000/svg">
<path d="M16 8C16 6.875 15.4062 5.875 14.5312 5.3125C14.75 4.28125 14.4688 3.15625 13.6562 2.34375C12.875 1.5625 11.75 1.25 10.7188 1.46875C10.125 0.59375 9.15625 0 8 0C6.875 0 5.875 0.59375 5.28125 1.46875C4.28125 1.25 3.15625 1.5625 2.34375 2.34375C1.5625 3.15625 1.25 4.28125 1.46875 5.3125C0.59375 5.875 0 6.875 0 8C0 9.15625 0.59375 10.1562 1.46875 10.7188C1.25 11.75 1.5625 12.875 2.34375 13.6562C3.15625 14.4688 4.25 14.7812 5.28125 14.5625C5.875 15.4375 6.875 16 8 16C9.15625 16 10.125 15.4375 10.7188 14.5625C11.75 14.7812 12.875 14.4688 13.6562 13.6562C14.4688 12.875 14.75 11.75 14.5312 10.7188C15.4375 10.1562 16 9.15625 16 8ZM11.0312 6.78125L7.53125 10.2812C7.40625 10.4375 7.21875 10.5 7.03125 10.5C6.8125 10.5 6.625 10.4375 6.5 10.2812L5 8.78125C4.6875 8.5 4.6875 8.03125 5 7.75C5.28125 7.4375 5.75 7.4375 6.03125 7.75L7.03125 8.71875L10 5.75C10.2812 5.4375 10.75 5.4375 11.0312 5.75C11.3438 6.03125 11.3438 6.5 11.0312 6.78125Z" fill="#03E515"/>
</svg>
