<svg width="16" height="14" viewBox="0 0 16 14" fill="none" xmlns="http://www.w3.org/2000/svg">
<path d="M14 0H2C0.875 0 0 0.90625 0 2V12C0 13.125 0.875 14 2 14H14C15.0938 14 16 13.125 16 12V2C16 0.90625 15.0938 0 14 0ZM10.5 8.46875C10.7812 8.78125 10.7812 9.25 10.5 9.53125C10.1875 9.84375 9.71875 9.84375 9.4375 9.53125L8 8.0625L6.5 9.53125C6.21875 9.84375 5.75 9.84375 5.46875 9.53125C5.15625 9.25 5.15625 8.78125 5.46875 8.46875L6.9375 7L5.46875 5.53125C5.15625 5.21875 5.15625 4.75 5.46875 4.46875C5.75 4.15625 6.21875 4.15625 6.5 4.46875L8 5.96875L9.46875 4.5C9.75 4.1875 10.2188 4.1875 10.5 4.5C10.8125 4.78125 10.8125 5.25 10.5 5.5625L9.03125 7.03125L10.5 8.46875Z" fill="#404040"/>
</svg>
