<svg width="16" height="12" viewBox="0 0 16 12" fill="none" xmlns="http://www.w3.org/2000/svg">
<path d="M1.2 6.4H8.8C9.45 6.4 10 5.875 10 5.2V1.2C10 0.55 9.45 0 8.8 0H1.2C0.525 0 0 0.55 0 1.2V5.2C0 5.875 0.525 6.4 1.2 6.4ZM7.6 1.2H8.4V5.2H7.6V1.2ZM5.6 1.2H6.4V5.2H5.6V1.2ZM3.6 1.2H4.4V5.2H3.6V1.2ZM1.6 1.2H2.4V5.2H1.6V1.2ZM15.525 5.15L14.05 3.675C13.75 3.4 13.35 3.225 12.925 3.225H11.6C11.15 3.225 10.8 3.575 10.8 4V7.2H0.8C0.35 7.2 0 7.575 0 8V9.1C0 10.125 0.7 11.05 1.725 11.2C2.475 11.3 3.175 10.95 3.6 10.4C4.05 11.025 4.85 11.375 5.725 11.15C6.35 10.975 6.875 10.5 7.075 9.875C7.2 9.5 7.225 9.15 7.15 8.825H11.225C11.15 9.15 11.175 9.5 11.3 9.875C11.5 10.5 12.05 11 12.7 11.15C14 11.475 15.2 10.475 15.2 9.225C15.2 9.075 15.175 8.95 15.15 8.825H15.6C15.8 8.825 16 8.625 16 8.425V6.275C16 5.85 15.825 5.45 15.525 5.15ZM2 10C1.55 10 1.2 9.65 1.2 9.2C1.2 8.775 1.55 8.4 2 8.4C2.425 8.4 2.8 8.775 2.8 9.2C2.8 9.65 2.425 10 2 10ZM5.2 10C4.75 10 4.4 9.65 4.4 9.2C4.4 8.775 4.75 8.4 5.2 8.4C5.625 8.4 6 8.775 6 9.2C6 9.65 5.625 10 5.2 10ZM13.2 10C12.75 10 12.4 9.65 12.4 9.2C12.4 8.775 12.75 8.425 13.2 8.425C13.625 8.425 14 8.8 14 9.225C14 9.65 13.625 10 13.2 10ZM12 5.6V4.4H12.925C13.025 4.4 13.125 4.425 13.2 4.5L14.3 5.6H12Z" fill="#9D01E7"/>
</svg>
