<svg width="17" height="16" viewBox="0 0 17 16" fill="none" xmlns="http://www.w3.org/2000/svg">
<path d="M8.9843 0C4.53818 0 0.96875 3.59375 0.96875 8C0.96875 12.4375 4.53818 16 8.9843 16C13.3991 16 16.9685 12.4375 16.9685 8C16.9999 3.59375 13.4304 0 8.9843 0ZM11.6144 10.4688C11.4579 10.6562 11.2387 10.75 10.9882 10.75C10.8316 10.75 10.6751 10.7188 10.5185 10.625L8.51464 9.125C8.35809 8.96875 8.26416 8.75 8.26416 8.5V4.75C8.26416 4.34375 8.57726 4 9.01561 4C9.42265 4 9.76707 4.34375 9.76707 4.75V8.125L11.4579 9.40625C11.8023 9.65625 11.8649 10.125 11.6144 10.4688Z" fill="#FEC601"/>
</svg>
