<svg width="16" height="16" viewBox="0 0 16 16" fill="none" xmlns="http://www.w3.org/2000/svg">
<path d="M11 6.71875C11 6.34375 10.6562 6 10.2812 6H5.6875C5.3125 6 5 6.34375 5 6.71875V9.3125C5 9.6875 5.3125 10 5.6875 10H10.2812C10.6562 10 11 9.6875 11 9.3125V6.71875ZM10.25 11C9.8125 11 9.5 11.3438 9.5 11.75C9.5 12.1875 9.8125 12.5 10.25 12.5C10.6562 12.5 11 12.1875 11 11.75C11 11.3438 10.6562 11 10.25 11ZM5.75 12.5C6.15625 12.5 6.5 12.1875 6.5 11.75C6.5 11.3438 6.15625 11 5.75 11C5.3125 11 5 11.3438 5 11.75C5 12.1875 5.3125 12.5 5.75 12.5ZM8 0C3.5625 0 0 3.59375 0 8V14C0 15.125 0.875 16 2 16H3.28125L5.28125 14C4.28125 13.9062 3.5 13.0625 3.5 12V6C3.5 4.90625 4.375 4 5.5 4H10.5C11.5938 4 12.5 4.90625 12.5 6V12C12.5 13.0625 11.6875 13.9062 10.6875 14L12.6875 16H14C15.0938 16 16 15.125 16 14V8C16 3.59375 12.4062 0 8 0ZM6.6875 14L4.6875 16H11.2812L9.28125 14H6.6875Z" fill="url(#paint0_linear_679_54)"/>
<defs>
<linearGradient id="paint0_linear_679_54" x1="8" y1="0" x2="8" y2="16" gradientUnits="userSpaceOnUse">
<stop stop-color="#0f8fce"/>
<stop offset="1" stop-color="#88CBFF"/>
</linearGradient>
</defs>
</svg>
