<svg width="18" height="21" viewBox="0 0 18 21" fill="none" xmlns="http://www.w3.org/2000/svg">
<path d="M14.25 0.5H4.25C2.14062 0.5 0.5 2.17969 0.5 4.25V14.25C0.5 16.2031 1.94531 17.7656 3.82031 17.9609L1.82812 19.9922C1.63281 20.1875 1.75 20.5 2.0625 20.5H3.66406C3.85938 20.5 4.01562 20.4609 4.13281 20.3438L6.4375 18H12.0234L14.3281 20.3438C14.4453 20.4609 14.6016 20.5 14.7969 20.5H16.4375C16.7109 20.5 16.8281 20.1875 16.6328 19.9922L14.6406 17.9609C16.5156 17.7656 18 16.2031 18 14.25V4.25C18 2.17969 16.3203 0.5 14.25 0.5ZM3 14.25C3 13.5859 3.54688 13 4.25 13C4.91406 13 5.5 13.5859 5.5 14.25C5.5 14.9531 4.91406 15.5 4.25 15.5C3.54688 15.5 3 14.9531 3 14.25ZM8.625 9.25C8.625 9.95312 8.03906 10.5 7.375 10.5H4.25C3.54688 10.5 3 9.95312 3 9.25V5.5C3 4.83594 3.54688 4.25 4.25 4.25H7.375C8.03906 4.25 8.625 4.83594 8.625 5.5V9.25ZM14.25 15.5C13.5469 15.5 13 14.9531 13 14.25C13 13.5859 13.5469 13 14.25 13C14.9141 13 15.5 13.5859 15.5 14.25C15.5 14.9531 14.9141 15.5 14.25 15.5ZM15.5 9.25C15.5 9.95312 14.9141 10.5 14.25 10.5H11.125C10.4219 10.5 9.875 9.95312 9.875 9.25V5.5C9.875 4.83594 10.4219 4.25 11.125 4.25H14.25C14.9141 4.25 15.5 4.83594 15.5 5.5V9.25Z" fill="url(#paint0_linear_678_30)"/>
<defs>
<linearGradient id="paint0_linear_678_30" x1="9" y1="0" x2="9" y2="20" gradientUnits="userSpaceOnUse">
<stop stop-color="white"/>
<stop offset="0.578125" stop-color="white" stop-opacity="0.9"/>
<stop offset="1" stop-color="white" stop-opacity="0.56"/>
</linearGradient>
</defs>
</svg>
