<svg width="20" height="14" viewBox="0 0 20 14" fill="none" xmlns="http://www.w3.org/2000/svg">
<path d="M5.5 9C4.09375 9 3 10.125 3 11.5C3 12.9062 4.09375 14 5.5 14C6.875 14 8 12.9063 8 11.5C8 10.125 6.875 9 5.5 9ZM5.5 12.5C4.9375 12.5 4.5 12.0625 4.5 11.5C4.5 10.9688 4.9375 10.5 5.5 10.5C6.03125 10.5 6.5 10.9688 6.5 11.5C6.5 12.0625 6.03125 12.5 5.5 12.5ZM19.5 9H17V1C17 0.46875 16.5312 0 16 0L1 0C0.4375 0 0 0.46875 0 1L0 10C0 10.5625 0.4375 11 1 11H2.03125C2.28125 9.3125 3.71875 8 5.5 8C7.25 8 8.6875 9.3125 8.9375 11L19.5 11C19.75 11 20 10.7813 20 10.5L20 9.5C20 9.25 19.75 9 19.5 9ZM3 6.625C2.625 6.8125 2.28125 7.03125 2 7.28125L2 2.25C2 2.125 2.09375 2 2.25 2H2.75C2.875 2 3 2.125 3 2.25L3 6.625ZM6 6.0625C5.8125 6.03125 5.65625 6 5.5 6C5.3125 6 5.15625 6.03125 5 6.0625V2.25C5 2.125 5.09375 2 5.25 2H5.75C5.875 2 6 2.125 6 2.25V6.0625ZM9 7.28125C8.6875 7.03125 8.34375 6.8125 8 6.625V2.25C8 2.125 8.09375 2 8.25 2H8.75C8.875 2 9 2.125 9 2.25L9 7.28125ZM12 9H11L11 2.25C11 2.125 11.0938 2 11.25 2H11.75C11.875 2 12 2.125 12 2.25L12 9ZM15 9H14L14 2.25C14 2.125 14.0938 2 14.25 2H14.75C14.875 2 15 2.125 15 2.25L15 9Z" fill="url(#paint0_linear_677_6)"/>
<defs>
<linearGradient id="paint0_linear_677_6" x1="10" y1="-1" x2="10" y2="15" gradientUnits="userSpaceOnUse">
<stop stop-color="#0f8fce"/>
<stop offset="1" stop-color="#88CBFF"/>
</linearGradient>
</defs>
</svg>
