<svg width="44" height="51" viewBox="0 0 44 51" fill="none" xmlns="http://www.w3.org/2000/svg">
<path d="M37.75 0.25H6.5C2.98438 0.25 0.25 3.08203 0.25 6.5V44C0.25 47.5156 2.98438 50.25 6.5 50.25H37.75C41.168 50.25 44 47.5156 44 44V6.5C44 3.08203 41.168 0.25 37.75 0.25ZM6.5 11.1875C6.5 10.4062 7.18359 9.625 8.0625 9.625H11.1875C11.9688 9.625 12.75 10.4062 12.75 11.1875V14.3125C12.75 15.1914 11.9688 15.875 11.1875 15.875H8.0625C7.18359 15.875 6.5 15.1914 6.5 14.3125V11.1875ZM12.75 39.3125C12.75 40.1914 11.9688 40.875 11.1875 40.875H8.0625C7.18359 40.875 6.5 40.1914 6.5 39.3125V36.1875C6.5 35.4062 7.18359 34.625 8.0625 34.625H11.1875C11.9688 34.625 12.75 35.4062 12.75 36.1875V39.3125ZM16.168 22.5156L10.6992 27.9844C10.4062 28.2773 10.0156 28.375 9.625 28.375C9.13672 28.375 8.74609 28.2773 8.45312 27.9844L6.10938 25.6406C5.52344 25.0547 5.52344 23.9805 6.10938 23.3945C6.69531 22.8086 7.76953 22.8086 8.35547 23.3945L9.625 24.6641L13.9219 20.2695C14.5078 19.6836 15.582 19.6836 16.168 20.2695C16.7539 20.8555 16.7539 21.9297 16.168 22.5156ZM36.1875 39.3125H20.5625C19.6836 39.3125 19 38.6289 19 37.75C19 36.9688 19.6836 36.1875 20.5625 36.1875H36.1875C36.9688 36.1875 37.75 36.9688 37.75 37.75C37.75 38.6289 36.9688 39.3125 36.1875 39.3125ZM36.1875 26.8125H20.5625C19.6836 26.8125 19 26.1289 19 25.25C19 24.4688 19.6836 23.6875 20.5625 23.6875H36.1875C36.9688 23.6875 37.75 24.4688 37.75 25.25C37.75 26.1289 36.9688 26.8125 36.1875 26.8125ZM36.1875 14.3125H20.5625C19.6836 14.3125 19 13.6289 19 12.75C19 11.9688 19.6836 11.1875 20.5625 11.1875H36.1875C36.9688 11.1875 37.75 11.9688 37.75 12.75C37.75 13.6289 36.9688 14.3125 36.1875 14.3125Z" fill="url(#paint0_linear_940_2)" fill-opacity="0.64"/>
<defs>
<linearGradient id="paint0_linear_940_2" x1="22" y1="0" x2="22" y2="50" gradientUnits="userSpaceOnUse">
<stop stop-color="white"/>
<stop offset="0.674829" stop-color="white"/>
<stop offset="1" stop-color="white" stop-opacity="0.44"/>
</linearGradient>
</defs>
</svg>
