<svg width="57" height="51" viewBox="0 0 57 51" fill="none" xmlns="http://www.w3.org/2000/svg">
<path d="M10.125 3.375C10.125 1.71484 11.4922 0.25 13.25 0.25C14.9102 0.25 16.375 1.71484 16.375 3.375V6.5H28.875V3.375C28.875 1.71484 30.2422 0.25 32 0.25C33.6602 0.25 35.125 1.71484 35.125 3.375V6.5H39.8125C42.3516 6.5 44.5 8.64844 44.5 11.1875V15.875H0.75V11.1875C0.75 8.64844 2.80078 6.5 5.4375 6.5H10.125V3.375ZM41.375 19.0977C32.5859 19.8789 25.75 27.3008 25.75 36.1875C25.75 42.0469 28.582 47.2227 32.9766 50.25H5.4375C2.80078 50.25 0.75 48.1992 0.75 45.5625V19H41.375V19.0977ZM57 36.1875C57 44 50.6523 50.25 42.9375 50.25C35.125 50.25 28.875 44 28.875 36.1875C28.875 28.4727 35.125 22.125 42.9375 22.125C50.6523 22.125 57 28.4727 57 36.1875ZM42.9375 40.875C41.5703 40.875 40.5938 41.9492 40.5938 43.2188C40.5938 44.5859 41.5703 45.5625 42.9375 45.5625C44.207 45.5625 45.2812 44.5859 45.2812 43.2188C45.2812 41.9492 44.207 40.875 42.9375 40.875ZM44.4023 28.375C44.4023 27.5938 43.7188 26.8125 42.8398 26.8125C42.0586 26.8125 41.2773 27.5938 41.2773 28.375V36.1875C41.2773 37.0664 42.0586 37.75 42.8398 37.75C43.7188 37.75 44.4023 37.0664 44.4023 36.1875V28.375Z" fill="url(#paint0_linear_940_5)" fill-opacity="0.64"/>
<defs>
<linearGradient id="paint0_linear_940_5" x1="28.5" y1="0" x2="28.5" y2="50" gradientUnits="userSpaceOnUse">
<stop stop-color="white"/>
<stop offset="0.674829" stop-color="white"/>
<stop offset="1" stop-color="white" stop-opacity="0.44"/>
</linearGradient>
</defs>
</svg>
