<svg width="38" height="51" viewBox="0 0 38 51" fill="none" xmlns="http://www.w3.org/2000/svg">
<path d="M38 12.75H25.5V0.25L38 12.75ZM25.5 15.875H38V45.5625C38 48.1992 35.8516 50.25 33.3125 50.25H5.1875C2.55078 50.25 0.5 48.1992 0.5 45.5625V4.9375C0.5 2.39844 2.55078 0.25 5.1875 0.25H22.375V12.75C22.375 14.5078 23.7422 15.875 25.5 15.875ZM24.4258 26.1289L16.7109 35.1133L13.7812 32.2812C12.9023 31.3047 11.4375 31.3047 10.5586 32.2812C9.58203 33.1602 9.58203 34.625 10.5586 35.5039L15.2461 40.1914C15.6367 40.6797 16.2227 40.9727 16.9062 40.9727C16.9062 40.9727 16.9062 40.9727 16.9062 40.875C17.5898 40.875 18.1758 40.582 18.6641 40.0938L28.0391 29.1562C28.8203 28.1797 28.7227 26.7148 27.7461 25.8359C26.7695 25.0547 25.3047 25.1523 24.4258 26.1289Z" fill="url(#paint0_linear_940_3)" fill-opacity="0.64"/>
<defs>
<linearGradient id="paint0_linear_940_3" x1="19" y1="0" x2="19" y2="50" gradientUnits="userSpaceOnUse">
<stop stop-color="white"/>
<stop offset="0.674829" stop-color="white"/>
<stop offset="1" stop-color="white" stop-opacity="0.44"/>
</linearGradient>
</defs>
</svg>
