<svg width="63" height="51" viewBox="0 0 63 51" fill="none" xmlns="http://www.w3.org/2000/svg">
<path d="M9.875 6.5H53.625V22.125C55.9688 22.125 58.2148 23.1016 59.875 24.5664V5.13281C59.875 2.49609 57.7266 0.25 55.1875 0.25H8.3125C5.67578 0.25 3.625 2.49609 3.625 5.13281V24.6641C5.28516 23.1016 7.43359 22.2227 9.875 22.2227V6.5ZM25.5 31.5C25.5 35.0156 28.2344 37.75 31.6523 37.75C35.168 37.75 37.9023 35.0156 37.9023 31.5C37.9023 28.082 35.168 25.3477 31.75 25.25C28.2344 25.3477 25.5 28.082 25.5 31.5ZM33.9961 40.875H29.4062C25.5 40.875 22.375 44.1953 22.375 48.1992C22.375 49.3711 23.2539 50.25 24.3281 50.25H39.0742C40.1484 50.25 41.125 49.3711 41.125 48.1992C41.125 44.1953 37.9023 40.875 33.9961 40.875ZM55.8711 40.875H51.2812C47.375 40.875 44.25 44.1953 44.25 48.1992C44.25 49.3711 45.1289 50.25 46.2031 50.25H60.9492C62.0234 50.25 63 49.3711 63 48.1992C63 44.1953 59.7773 40.875 55.8711 40.875ZM47.375 31.5C47.375 35.0156 50.1094 37.75 53.5273 37.75C57.043 37.75 59.7773 35.0156 59.7773 31.5C59.7773 28.082 57.043 25.3477 53.625 25.25C50.1094 25.3477 47.375 28.082 47.375 31.5ZM3.625 31.5C3.625 35.0156 6.35938 37.75 9.875 37.75C13.293 37.75 16.0273 35.0156 16.0273 31.5C16.0273 28.082 13.293 25.3477 9.875 25.25C6.35938 25.3477 3.625 28.082 3.625 31.5ZM12.1211 40.875H7.53125C3.625 40.875 0.5 44.1953 0.5 48.1992C0.5 49.3711 1.37891 50.25 2.45312 50.25H17.1992C18.2734 50.25 19.25 49.3711 19.25 48.1992C19.25 44.1953 16.0273 40.875 12.1211 40.875Z" fill="url(#paint0_linear_940_4)" fill-opacity="0.64"/>
<defs>
<linearGradient id="paint0_linear_940_4" x1="31.5" y1="0" x2="31.5" y2="50" gradientUnits="userSpaceOnUse">
<stop stop-color="white"/>
<stop offset="0.674829" stop-color="white"/>
<stop offset="1" stop-color="white" stop-opacity="0.44"/>
</linearGradient>
</defs>
</svg>
