<svg width="14" height="14" viewBox="0 0 14 14" fill="none" xmlns="http://www.w3.org/2000/svg">
<path d="M13.9688 3.96875L12.2188 0.6875C12.0625 0.28125 11.6875 0 11.25 0L7.5 0L7.5 4L13.9375 4C13.9688 4 13.9688 4 13.9688 3.96875ZM0 5L0 12.5C0 13.3438 0.65625 14 1.5 14L12.5 14C13.3125 14 14 13.3438 14 12.5V5L0 5ZM6.5 4L6.5 0L2.71875 0C2.28125 0 1.90625 0.28125 1.75 0.6875L0 3.96875C0 4 0 4 0.03125 4L6.5 4Z" fill="url(#paint0_linear_642_15)"/>
<defs>
<linearGradient id="paint0_linear_642_15" x1="7" y1="-1" x2="7" y2="15" gradientUnits="userSpaceOnUse">
<stop stop-color="#0f8fce"/>
<stop offset="1" stop-color="#88CBFF"/>
</linearGradient>
</defs>
</svg>
