<svg width="16" height="16" viewBox="0 0 16 16" fill="none" xmlns="http://www.w3.org/2000/svg">
<path d="M10.5 5.59375C10.125 5.21875 9.5 5.21875 9.09375 5.59375L2 12.5937L2 10C2 9.46875 1.5625 9.03125 1.03125 9.03125C0.46875 9.03125 -2.8549e-07 9.46875 -2.62268e-07 10L-4.37114e-08 15C-3.14176e-08 15.2812 0.125 15.5312 0.3125 15.7187C0.5 15.9062 0.75 16 1 16L6 16C6.5625 16 7 15.5625 7 15.0312C7 14.4687 6.5625 14.0312 6 14.0312L3.4375 14.0312L10.5 7C10.9062 6.625 10.9062 6 10.5 5.59375ZM2.125 5.84375C2 6.40625 2.375 6.90625 2.9375 7C3.46875 7.09375 4 6.71875 4.09375 6.1875C4.5 3.78125 6.5625 2 9 2C11.7812 2 14 4.25 14 7C14 9.46875 12.25 11.5312 9.84375 11.9375C9.3125 12.0312 8.9375 12.5312 9.03125 13.0937C9.125 13.6562 9.625 14 10.1875 13.9062C13.5625 13.3437 16 10.4375 16 7C16 3.15625 12.875 -5.62784e-07 9 -3.93402e-07C5.59375 -2.44511e-07 2.6875 2.46875 2.125 5.84375Z" fill="url(#paint0_linear_642_5)"/>
<defs>
<linearGradient id="paint0_linear_642_5" x1="-3.49691e-07" y1="8" x2="16" y2="8" gradientUnits="userSpaceOnUse">
<stop stop-color="#0f8fce"/>
<stop offset="1" stop-color="#88CBFF"/>
</linearGradient>
</defs>
</svg>
