<svg width="16" height="16" viewBox="0 0 16 16" fill="none" xmlns="http://www.w3.org/2000/svg">
<path d="M10.4062 10.5C10.7812 10.125 10.7812 9.5 10.4062 9.09375L3.40625 2H6C6.53125 2 6.96875 1.5625 6.96875 1.03125C6.96875 0.46875 6.53125 0 6 0H1C0.71875 0 0.46875 0.125 0.28125 0.3125C0.09375 0.5 0 0.75 0 1V6C0 6.5625 0.4375 7 0.96875 7C1.53125 7 1.96875 6.5625 1.96875 6V3.4375L9 10.5C9.375 10.9062 10 10.9062 10.4062 10.5ZM10.1562 2.125C9.59375 2 9.09375 2.375 9 2.9375C8.90625 3.46875 9.28125 4 9.8125 4.09375C12.2188 4.5 14 6.5625 14 9C14 11.7812 11.75 14 9 14C6.53125 14 4.46875 12.25 4.0625 9.84375C3.96875 9.3125 3.46875 8.9375 2.90625 9.03125C2.34375 9.125 2 9.625 2.09375 10.1875C2.65625 13.5625 5.5625 16 9 16C12.8438 16 16 12.875 16 9C16 5.59375 13.5312 2.6875 10.1562 2.125Z" fill="url(#paint0_linear_642_3)"/>
<defs>
<linearGradient id="paint0_linear_642_3" x1="8" y1="0" x2="8" y2="16" gradientUnits="userSpaceOnUse">
<stop stop-color="#0f8fce"/>
<stop offset="1" stop-color="#88CBFF"/>
</linearGradient>
</defs>
</svg>
