<svg width="14" height="14" viewBox="0 0 14 14" fill="none" xmlns="http://www.w3.org/2000/svg">
<path d="M13.9687 9V13.2188C13.9687 13.625 13.625 13.9375 13.25 13.9375H9C8.59375 13.9375 8.25 13.6875 8.09375 13.3125C7.9375 12.9688 8.03125 12.5 8.3125 12.2188L9.25 11.2813L7 9.125L4.75 11.375L5.6875 12.3125C5.96875 12.5938 6.0625 13.0313 5.90625 13.4063C5.75 13.7813 5.375 14 5 14H0.75C0.3125 14 0 13.6562 0 13.25L0 9.03125C0 8.625 0.25 8.28125 0.625 8.125C0.71875 8.03125 0.84375 8 1 8C1.25 8 1.5 8.125 1.6875 8.3125L2.625 9.25L4.875 7L2.625 4.78125L1.6875 5.71875C1.40625 6 0.96875 6.09375 0.59375 5.9375C0.21875 5.78125 0 5.40625 0 5L0 0.75C0 0.34375 0.3125 0.03125 0.71875 0.03125L4.9375 0.03125C5.34375 0.03125 5.6875 0.28125 5.84375 0.65625C5.96875 0.75 5.96875 0.875 5.96875 1C5.96875 1.25 5.84375 1.5 5.65625 1.6875L4.75 2.65625L7 4.90625L9.21875 2.65625L8.28125 1.71875C8 1.4375 7.90625 1 8.0625 0.625C8.21875 0.25 8.59375 0.03125 9 0.03125L13.2188 0.03125C13.625 0.03125 13.9375 0.34375 13.9375 0.75L13.9375 4.96875C13.9375 5.375 13.6875 5.71875 13.3125 5.875C12.9687 6.03125 12.5 5.9375 12.2187 5.65625L11.2812 4.71875L9.0625 6.96875L11.2812 9.1875L12.2187 8.25C12.5 7.96875 12.9375 7.875 13.3125 8.03125C13.75 8.25 13.9687 8.625 13.9687 9Z" fill="url(#paint0_linear_642_22)"/>
<defs>
<linearGradient id="paint0_linear_642_22" x1="7" y1="-1" x2="7" y2="15" gradientUnits="userSpaceOnUse">
<stop stop-color="#0f8fce"/>
<stop offset="1" stop-color="#88CBFF"/>
</linearGradient>
</defs>
</svg>
