<svg width="22" height="15" viewBox="0 0 22 15" fill="none" xmlns="http://www.w3.org/2000/svg">
<path d="M3.5 9.6875C3.6875 9.90625 3.96875 10 4.25 10H8.34375C8.65625 10 8.96875 9.9375 9.25 9.78125L18.3438 5.1875C19.1562 4.75 19.9062 4.15625 20.4062 3.34375C20.9688 2.46875 21.0312 1.8125 20.8125 1.375C20.5625 0.90625 20.0312 0.5625 18.9688 0.5C18.0625 0.4375 17.125 0.6875 16.2812 1.125L13.2188 2.6875L6.4375 0.125C6.25 0 6.0625 0 5.90625 0.0625L3.8125 1.125C3.46875 1.28125 3.40625 1.75 3.65625 2L8.53125 5.0625L5.3125 6.71875L3.0625 5.5625C2.875 5.5 2.71875 5.5 2.53125 5.5625L1.28125 6.21875C0.96875 6.375 0.875 6.8125 1.125 7.0625L3.5 9.6875ZM20 13H1.96875C1.4375 13 1 13.4688 1 14C1 14.5 1.4375 15 1.96875 15H19.9688C20.5312 15 21 14.5625 21 14C21 13.4688 20.5312 13 20 13Z" fill="url(#paint0_linear_642_4)"/>
<defs>
<linearGradient id="paint0_linear_642_4" x1="11" y1="-1" x2="11" y2="15" gradientUnits="userSpaceOnUse">
<stop stop-color="#0f8fce"/>
<stop offset="1" stop-color="#88CBFF"/>
</linearGradient>
</defs>
</svg>
