<svg width="20" height="17" viewBox="0 0 20 17" fill="none" xmlns="http://www.w3.org/2000/svg">
<path d="M1.375 7.4375L4.15625 9.9375C4.375 10.1562 4.65625 10.2812 4.96875 10.3438L13.9375 12.7813C14.7812 13.0313 15.6562 13.0625 16.4375 12.8438C17.375 12.5625 17.8125 12.1875 17.9062 11.7188C18.0312 11.2813 17.875 10.6875 17.1875 10C16.5938 9.375 15.8125 8.96875 14.9687 8.75L11.9375 7.9375L8.8125 1.96875C8.78125 1.78125 8.625 1.625 8.46875 1.625L6.40625 1.03125C6.09375 0.9375 5.78125 1.1875 5.78125 1.53125L7.28125 6.6875L4.0625 5.8125L3.21875 3.6875C3.15625 3.53125 3.03125 3.40625 2.875 3.375L1.625 3.03125C1.3125 2.9375 1 3.1875 1 3.53125L1 6.71875C1 7 1.1875 7.25 1.375 7.4375ZM19 15L0.96875 15C0.4375 15 0 15.4688 0 16C0 16.5 0.4375 17 0.96875 17L18.9687 17C19.5312 17 20 16.5625 20 16C20 15.4688 19.5312 15 19 15Z" fill="url(#paint0_linear_642_6)"/>
<defs>
<linearGradient id="paint0_linear_642_6" x1="10" y1="1" x2="10" y2="17" gradientUnits="userSpaceOnUse">
<stop stop-color="#0f8fce"/>
<stop offset="1" stop-color="#88CBFF"/>
</linearGradient>
</defs>
</svg>
