<svg width="21" height="17" viewBox="0 0 21 17" fill="none" xmlns="http://www.w3.org/2000/svg">
<path d="M6.96875 8C9.15625 8 10.9687 6.21875 10.9688 4C10.9688 1.8125 9.15625 0 6.96875 0C4.78125 0 3 1.8125 3 4C3 6.21875 4.78125 8 6.96875 8ZM8.5625 9.5L5.40625 9.5C2.40625 9.5 0 11.9375 0 14.9375C0 15.5312 0.46875 16 1.0625 16H10.0312C9.96875 15.8438 9.96875 15.6563 10 15.4688L10.4687 13.25C10.5312 12.9375 10.6562 12.6563 10.875 12.4375L12.3125 11.0313C11.3437 10.0938 10.0312 9.5 8.5625 9.5ZM11.5937 13.1563C11.5 13.25 11.4687 13.3438 11.4375 13.4375L11 15.6875C10.9375 15.875 11.125 16.0625 11.3125 16L13.5625 15.5625C13.6562 15.5313 13.75 15.5 13.8437 15.4063L17.75 11.5L15.5 9.25L11.5937 13.1563ZM19.6562 8L19 7.34375C18.5625 6.90625 17.8438 6.90625 17.4062 7.34375L16.2188 8.53125L18.4688 10.7813L19.6562 9.59375C20.0938 9.15625 20.0938 8.4375 19.6562 8Z" fill="url(#paint0_linear_642_8)"/>
<defs>
<linearGradient id="paint0_linear_642_8" x1="10" y1="0" x2="10" y2="16" gradientUnits="userSpaceOnUse">
<stop stop-color="#0f8fce"/>
<stop offset="1" stop-color="#88CBFF"/>
</linearGradient>
</defs>
</svg>
