<svg width="16" height="16" viewBox="0 0 16 16" fill="none" xmlns="http://www.w3.org/2000/svg">
<path d="M9.6875 3.0625C9.4375 2.9375 9.125 3.0625 9.03125 3.3125L7.96875 5.75C7.28125 5.78125 6.75 6.3125 6.75 7C6.75 7.71875 7.28125 8.25 8 8.25C8.6875 8.25 9.25 7.71875 9.25 7C9.25 6.6875 9.09375 6.375 8.90625 6.15625L9.9375 3.71875C10.0625 3.46875 9.9375 3.15625 9.6875 3.0625ZM14 2L12.2188 2C11.2188 0.78125 9.6875 0 8 0C6.28125 0 4.75 0.78125 3.75 2H2C0.875 2 0 2.90625 0 4L0 14C0 15.125 0.875 16 2 16L14 16C15.0937 16 16 15.125 16 14L16 4C16 2.90625 15.0938 2 14 2ZM8 9.5C5.78125 9.5 4 7.71875 4 5.5C4 3.3125 5.78125 1.5 8 1.5C10.1875 1.5 12 3.3125 12 5.5C12 7.71875 10.1875 9.5 8 9.5Z" fill="url(#paint0_linear_642_20)"/>
<defs>
<linearGradient id="paint0_linear_642_20" x1="8" y1="0" x2="8" y2="16" gradientUnits="userSpaceOnUse">
<stop stop-color="#0f8fce"/>
<stop offset="1" stop-color="#88CBFF"/>
</linearGradient>
</defs>
</svg>
