<svg width="415" height="234" viewBox="0 0 415 234" fill="none" xmlns="http://www.w3.org/2000/svg">
<rect width="415" height="234" fill="#D9D9D9"/>
<path d="M187.734 116.783C187.734 120.061 185.173 122.718 182.012 122.718C178.852 122.718 176.291 120.061 176.291 116.783C176.291 113.506 178.852 110.849 182.012 110.849C185.173 110.849 187.734 113.506 187.734 116.783ZM215.995 116.946C215.612 129.714 190.318 141.983 178.681 141.983C157.227 141.983 147.682 125.457 151.784 109.499C155.888 93.5374 171.019 92.2078 171.019 92.2078C173.006 87.0875 172.365 80.1712 176.34 69.5983C180.316 59.0228 194.549 58.7188 204.807 59.0898C215.066 59.4609 214.41 63.1046 214.41 63.1046C214.41 63.1046 214.874 65.2073 212.052 66.0731C209.809 66.0731 209.744 66.2071 204.422 65.4753C199.101 64.7435 186.728 63.1458 182.368 69.3303C179.163 74.3191 175.796 81.5344 176.34 92.2078C194.484 92.6072 216.38 104.177 215.995 116.946ZM191.652 118.015C191.652 109.736 185.183 103.023 177.2 103.023C169.217 103.023 162.745 109.736 162.745 118.015C162.745 126.295 169.217 133.005 177.2 133.005C185.183 133.005 191.652 126.295 191.652 118.015ZM163.004 143.877C154.718 143.877 148 150.844 148 159.438C148 168.032 154.718 175 163.004 175C171.289 175 178.007 168.032 178.007 159.438C178.007 150.844 171.289 143.877 163.004 143.877ZM182.012 110.849C178.852 110.849 176.291 113.506 176.291 116.783C176.291 120.061 178.852 122.718 182.012 122.718C185.173 122.718 187.734 120.061 187.734 116.783C187.734 113.506 185.173 110.849 182.012 110.849ZM182.012 110.849C178.852 110.849 176.291 113.506 176.291 116.783C176.291 120.061 178.852 122.718 182.012 122.718C185.173 122.718 187.734 120.061 187.734 116.783C187.734 113.506 185.173 110.849 182.012 110.849Z" fill="#AAAAAA"/>
<path d="M189.783 153H194.038V170.006H190.053L186.255 161.08V170.006H182V153H185.992L189.791 162.088V153H189.783Z" fill="#AAAAAA"/>
<path d="M206.454 153V156.309H203.157V170.006H198.501V156.309H195.227V153H206.446H206.454Z" fill="#AAAAAA"/>
<path d="M207.651 153H212.307V170.006H207.651V153Z" fill="#AAAAAA"/>
<path d="M219.078 163.965V170.006H214.422V153H222.321C224.924 153 226.228 154.093 226.228 156.286V160.687C226.228 162.365 225.464 163.396 223.943 163.788L227.078 170.014H222.082L219.372 163.973H219.078V163.965ZM220.916 156.309H219.078V160.81H220.916C221.356 160.81 221.58 160.618 221.58 160.226V156.886C221.58 156.501 221.356 156.301 220.916 156.301V156.309Z" fill="#AAAAAA"/>
<path d="M236.784 170.006L236.251 167.459H232.159L231.603 170.006H227.032L231.417 153H237.077L241.463 170.006H236.784ZM232.877 164.181H235.533L234.228 158.063L232.869 164.181H232.877Z" fill="#AAAAAA"/>
<path d="M242.528 153H250.428C253.03 153 254.335 154.093 254.335 156.286V161.164C254.335 163.357 253.03 164.45 250.428 164.45H247.185V170.014H242.528V153ZM249.679 160.549V156.894C249.679 156.509 249.455 156.309 249.014 156.309H247.177V161.134H249.014C249.455 161.134 249.679 160.941 249.679 160.549Z" fill="#AAAAAA"/>
<path d="M255.925 153H263.824C266.426 153 267.731 154.093 267.731 156.286V161.164C267.731 163.357 266.426 164.45 263.824 164.45H260.581V170.014H255.925V153ZM263.075 160.549V156.894C263.075 156.509 262.851 156.309 262.411 156.309H260.574V161.134H262.411C262.851 161.134 263.075 160.941 263.075 160.549Z" fill="#AAAAAA"/>
</svg>
