<svg width="141" height="36" viewBox="0 0 141 36" fill="none" xmlns="http://www.w3.org/2000/svg">
<path d="M1.11684 28C0.844732 28 0.622101 27.9134 0.448943 27.7403C0.275786 27.5424 0.189207 27.3197 0.189207 27.0724V9.63292C0.189207 9.36082 0.275786 9.13819 0.448943 8.96503C0.622101 8.79187 0.844732 8.70529 1.11684 8.70529H5.38394C5.65604 8.70529 5.87867 8.79187 6.05183 8.96503C6.24972 9.13819 6.34867 9.36082 6.34867 9.63292V11.0429C6.96709 10.2761 7.79577 9.63292 8.83472 9.11345C9.87367 8.59398 11.0981 8.33424 12.5081 8.33424C13.9429 8.33424 15.2044 8.65582 16.2929 9.29898C17.406 9.94213 18.2718 10.8821 18.8902 12.119C19.5334 13.3558 19.855 14.8895 19.855 16.72V27.0724C19.855 27.3197 19.7684 27.5424 19.5952 27.7403C19.4221 27.9134 19.1994 28 18.9273 28H14.2521C14.0047 28 13.7821 27.9134 13.5842 27.7403C13.411 27.5424 13.3244 27.3197 13.3244 27.0724V16.9426C13.3244 15.78 13.04 14.8895 12.471 14.2711C11.9268 13.6279 11.1105 13.3063 10.0221 13.3063C9.00788 13.3063 8.19156 13.6279 7.57314 14.2711C6.97946 14.8895 6.68262 15.78 6.68262 16.9426V27.0724C6.68262 27.3197 6.58367 27.5424 6.38578 27.7403C6.21262 27.9134 6.00236 28 5.75499 28H1.11684ZM27.8935 28C27.6214 28 27.3987 27.9134 27.2256 27.7403C27.0524 27.5424 26.9658 27.3197 26.9658 27.0724V7.85187H20.3611C20.089 7.85187 19.8664 7.7653 19.6932 7.59214C19.5201 7.39424 19.4335 7.17161 19.4335 6.92424V2.95399C19.4335 2.68188 19.5201 2.45925 19.6932 2.28609C19.8664 2.11294 20.089 2.02636 20.3611 2.02636H40.3237C40.5958 2.02636 40.8184 2.11294 40.9916 2.28609C41.1648 2.45925 41.2513 2.68188 41.2513 2.95399V6.92424C41.2513 7.17161 41.1648 7.39424 40.9916 7.59214C40.8184 7.7653 40.5958 7.85187 40.3237 7.85187H33.719V27.0724C33.719 27.3197 33.6324 27.5424 33.4592 27.7403C33.2861 27.9134 33.0634 28 32.7913 28H27.8935ZM44.8169 28C44.5448 28 44.3222 27.9134 44.149 27.7403C43.9759 27.5424 43.8893 27.3197 43.8893 27.0724V9.63292C43.8893 9.36082 43.9759 9.13819 44.149 8.96503C44.3222 8.79187 44.5448 8.70529 44.8169 8.70529H49.1953C49.4674 8.70529 49.6901 8.79187 49.8632 8.96503C50.0364 9.13819 50.123 9.36082 50.123 9.63292V27.0724C50.123 27.3197 50.0364 27.5424 49.8632 27.7403C49.6901 27.9134 49.4674 28 49.1953 28H44.8169ZM44.7798 5.9224C44.5077 5.9224 44.2851 5.83582 44.1119 5.66267C43.9388 5.48951 43.8522 5.26688 43.8522 4.99477V1.65531C43.8522 1.40794 43.9388 1.19767 44.1119 1.02452C44.2851 0.826623 44.5077 0.727676 44.7798 0.727676H49.2324C49.4798 0.727676 49.6901 0.826623 49.8632 1.02452C50.0611 1.19767 50.1601 1.40794 50.1601 1.65531V4.99477C50.1601 5.26688 50.0611 5.48951 49.8632 5.66267C49.6901 5.83582 49.4798 5.9224 49.2324 5.9224H44.7798ZM56.5935 28C56.3214 28 56.0987 27.9134 55.9256 27.7403C55.7524 27.5424 55.6658 27.3197 55.6658 27.0724V9.63292C55.6658 9.38556 55.7524 9.17529 55.9256 9.00214C56.0987 8.80424 56.3214 8.70529 56.5935 8.70529H60.8606C61.1327 8.70529 61.3553 8.80424 61.5285 9.00214C61.7263 9.17529 61.8253 9.38556 61.8253 9.63292V11.1171C62.4685 10.3503 63.2477 9.75661 64.1629 9.33608C65.1029 8.91556 66.1542 8.70529 67.3169 8.70529H68.9495C69.2216 8.70529 69.4442 8.79187 69.6174 8.96503C69.7905 9.13819 69.8771 9.36082 69.8771 9.63292V13.4548C69.8771 13.7021 69.7905 13.9248 69.6174 14.1227C69.4442 14.2958 69.2216 14.3824 68.9495 14.3824H65.3503C64.3361 14.3824 63.5445 14.6669 62.9756 15.2358C62.4313 15.78 62.1592 16.5592 62.1592 17.5734V27.0724C62.1592 27.3197 62.0603 27.5424 61.8624 27.7403C61.6892 27.9134 61.4666 28 61.1945 28H56.5935ZM69.7725 28C69.5746 28 69.3891 27.9258 69.2159 27.7774C69.0675 27.6042 68.9933 27.4187 68.9933 27.2208C68.9933 27.0971 69.0056 26.9858 69.0304 26.8868L77.7501 3.0653C77.8243 2.7932 77.9727 2.5582 78.1954 2.3603C78.4427 2.13767 78.7767 2.02636 79.1972 2.02636H84.6888C85.1093 2.02636 85.4309 2.13767 85.6535 2.3603C85.9009 2.5582 86.0617 2.7932 86.1359 3.0653L94.8185 26.8868C94.868 26.9858 94.8927 27.0971 94.8927 27.2208C94.8927 27.4187 94.8061 27.6042 94.633 27.7774C94.4845 27.9258 94.299 28 94.0764 28H89.5124C89.1414 28 88.8569 27.9134 88.659 27.7403C88.4859 27.5424 88.3745 27.3692 88.3251 27.2208L86.878 23.4361H76.9709L75.5609 27.2208C75.5114 27.3692 75.4001 27.5424 75.2269 27.7403C75.0538 27.9134 74.7569 28 74.3364 28H69.7725ZM78.4922 18.0929H85.3938L81.943 8.29714L78.4922 18.0929ZM98.3368 35.05C98.0647 35.05 97.8421 34.951 97.6689 34.7531C97.4958 34.58 97.4092 34.3697 97.4092 34.1224V9.63292C97.4092 9.36082 97.4958 9.13819 97.6689 8.96503C97.8421 8.79187 98.0647 8.70529 98.3368 8.70529H102.53C102.777 8.70529 102.987 8.79187 103.16 8.96503C103.358 9.13819 103.457 9.36082 103.457 9.63292V10.9687C104.051 10.2266 104.818 9.60819 105.758 9.11345C106.698 8.59398 107.848 8.33424 109.209 8.33424C110.445 8.33424 111.534 8.53214 112.474 8.92793C113.414 9.29898 114.218 9.85556 114.886 10.5977C115.578 11.3398 116.11 12.2427 116.481 13.3063C116.852 14.37 117.063 15.5945 117.112 16.9798C117.137 17.4745 117.149 17.9321 117.149 18.3526C117.149 18.7732 117.137 19.2308 117.112 19.7255C117.063 21.0613 116.852 22.2611 116.481 23.3247C116.11 24.3884 115.591 25.2913 114.923 26.0334C114.255 26.7755 113.439 27.3568 112.474 27.7774C111.534 28.1732 110.445 28.3711 109.209 28.3711C107.997 28.3711 106.933 28.1608 106.018 27.7403C105.127 27.295 104.385 26.6766 103.791 25.885V34.1224C103.791 34.3697 103.705 34.58 103.532 34.7531C103.358 34.951 103.136 35.05 102.864 35.05H98.3368ZM107.205 23.399C108.046 23.399 108.702 23.2258 109.172 22.8795C109.642 22.5332 109.975 22.0632 110.173 21.4695C110.396 20.8758 110.532 20.2203 110.582 19.5029C110.631 18.7361 110.631 17.9692 110.582 17.2024C110.532 16.485 110.396 15.8295 110.173 15.2358C109.975 14.6421 109.642 14.1721 109.172 13.8258C108.702 13.4795 108.046 13.3063 107.205 13.3063C106.413 13.3063 105.77 13.4919 105.275 13.8629C104.781 14.2092 104.422 14.6669 104.199 15.2358C103.977 15.8048 103.841 16.4232 103.791 17.0911C103.767 17.5611 103.754 18.0187 103.754 18.464C103.754 18.9092 103.767 19.3792 103.791 19.874C103.816 20.4924 103.952 21.0737 104.199 21.6179C104.447 22.1374 104.818 22.5703 105.313 22.9166C105.807 23.2382 106.438 23.399 107.205 23.399ZM121.745 35.05C121.473 35.05 121.25 34.951 121.077 34.7531C120.904 34.58 120.817 34.3697 120.817 34.1224V9.63292C120.817 9.36082 120.904 9.13819 121.077 8.96503C121.25 8.79187 121.473 8.70529 121.745 8.70529H125.938C126.185 8.70529 126.395 8.79187 126.569 8.96503C126.767 9.13819 126.865 9.36082 126.865 9.63292V10.9687C127.459 10.2266 128.226 9.60819 129.166 9.11345C130.106 8.59398 131.256 8.33424 132.617 8.33424C133.854 8.33424 134.942 8.53214 135.882 8.92793C136.822 9.29898 137.626 9.85556 138.294 10.5977C138.987 11.3398 139.518 12.2427 139.889 13.3063C140.26 14.37 140.471 15.5945 140.52 16.9798C140.545 17.4745 140.557 17.9321 140.557 18.3526C140.557 18.7732 140.545 19.2308 140.52 19.7255C140.471 21.0613 140.26 22.2611 139.889 23.3247C139.518 24.3884 138.999 25.2913 138.331 26.0334C137.663 26.7755 136.847 27.3568 135.882 27.7774C134.942 28.1732 133.854 28.3711 132.617 28.3711C131.405 28.3711 130.341 28.1608 129.426 27.7403C128.535 27.295 127.793 26.6766 127.199 25.885V34.1224C127.199 34.3697 127.113 34.58 126.94 34.7531C126.767 34.951 126.544 35.05 126.272 35.05H121.745ZM130.613 23.399C131.454 23.399 132.11 23.2258 132.58 22.8795C133.05 22.5332 133.384 22.0632 133.582 21.4695C133.804 20.8758 133.94 20.2203 133.99 19.5029C134.039 18.7361 134.039 17.9692 133.99 17.2024C133.94 16.485 133.804 15.8295 133.582 15.2358C133.384 14.6421 133.05 14.1721 132.58 13.8258C132.11 13.4795 131.454 13.3063 130.613 13.3063C129.822 13.3063 129.178 13.4919 128.684 13.8629C128.189 14.2092 127.83 14.6669 127.608 15.2358C127.385 15.8048 127.249 16.4232 127.199 17.0911C127.175 17.5611 127.162 18.0187 127.162 18.464C127.162 18.9092 127.175 19.3792 127.199 19.874C127.224 20.4924 127.36 21.0737 127.608 21.6179C127.855 22.1374 128.226 22.5703 128.721 22.9166C129.215 23.2382 129.846 23.399 130.613 23.399Z" fill="white"/>
</svg>
