<svg width="22" height="26" viewBox="0 0 22 26" fill="none" xmlns="http://www.w3.org/2000/svg">
<path d="M14.8711 15.1152L12.6738 19.5586L11.8438 16.5312L13.4062 14.1875H8.71875L10.2812 16.5312L9.40234 19.5586L7.20508 15.1152C3.15234 15.8477 0.125 19.3633 0.125 23.5625C0.125 24.4414 0.808594 25.125 1.6875 25.125H20.4375C21.2676 25.125 22 24.4414 22 23.5625C22 19.3633 18.9238 15.8477 14.8711 15.1152ZM2.46875 22.7812C2.76172 20.6816 4.08008 18.875 5.98438 17.9473L8.42578 22.7812H2.46875ZM13.6504 22.7812L16.0918 17.9473C17.9961 18.875 19.3145 20.6816 19.6074 22.7812H13.6504ZM11.0625 12.625C14.4805 12.625 17.3125 9.8418 17.3125 6.375C17.3125 2.95703 14.4805 0.125 11.0625 0.125C7.5957 0.125 4.8125 2.95703 4.8125 6.375C4.8125 9.8418 7.5957 12.625 11.0625 12.625ZM11.0625 2.46875C13.2109 2.46875 14.9688 4.22656 14.9688 6.375C14.9688 8.57227 13.2109 10.2812 11.0625 10.2812C8.86523 10.2812 7.15625 8.57227 7.15625 6.375C7.15625 4.22656 8.86523 2.46875 11.0625 2.46875Z" fill="url(#paint0_linear_860_14)"/>
<defs>
<linearGradient id="paint0_linear_860_14" x1="11" y1="0" x2="11" y2="25" gradientUnits="userSpaceOnUse">
<stop stop-color="#005191"/>
<stop offset="1" stop-color="var(--primary)"/>
</linearGradient>
</defs>
</svg>
