<svg width="33" height="26" viewBox="0 0 33 26" fill="none" xmlns="http://www.w3.org/2000/svg">
<path d="M31.7559 8.76758L27.3125 0.955078C27.0195 0.466797 26.4824 0.125 25.9453 0.125H6.75586C6.21875 0.125 5.68164 0.466797 5.38867 0.955078L0.945312 8.76758C0.359375 9.79297 1.0918 11.0625 2.26367 11.0625H3.82617V22.7812C3.875 24.0996 4.90039 25.125 6.16992 25.125H17.1074C18.377 25.125 19.4023 24.0996 19.4023 22.8301L19.4512 11.0625H26.4824V23.9531C26.4824 24.6367 26.9707 25.125 27.6543 25.125C28.2891 25.125 28.8262 24.5879 28.8262 23.9531V11.0625H30.3887C31.6094 11.0625 32.3418 9.79297 31.7559 8.76758ZM17.1074 22.7812H6.16992V18.1426H17.0586V22.7812H17.1074ZM17.1074 15.7988H6.16992V11.0625H17.0586V15.7988H17.1074ZM3.63086 8.71875L7.19531 2.46875H25.5059L29.0703 8.71875H3.63086Z" fill="url(#paint0_linear_857_177)"/>
<defs>
<linearGradient id="paint0_linear_857_177" x1="16" y1="0" x2="16" y2="25" gradientUnits="userSpaceOnUse">
<stop stop-color="#005191"/>
<stop offset="1" stop-color="var(--primary)"/>
</linearGradient>
</defs>
</svg>
