<svg width="18" height="31" viewBox="0 0 18 31" fill="none" xmlns="http://www.w3.org/2000/svg">
<g clip-path="url(#clip0_860_53)">
<path d="M10.5176 15.4422C10.5176 16.3181 9.83957 17.0281 9.00301 17.0281C8.16644 17.0281 7.48837 16.3181 7.48837 15.4422C7.48837 14.5662 8.16644 13.8562 9.00301 13.8562C9.83957 13.8562 10.5176 14.5662 10.5176 15.4422ZM17.9987 15.4855C17.8975 18.8978 11.2016 22.1764 8.12106 22.1764C2.44201 22.1764 -0.0847932 17.7601 1.00103 13.4954C2.08752 9.22989 6.09278 8.87455 6.09278 8.87455C6.61892 7.50622 6.44924 5.6579 7.50153 2.83239C8.55381 0.00619374 12.3217 -0.0750663 15.0372 0.0240984C17.7528 0.123263 17.5791 1.09701 17.5791 1.09701C17.5791 1.09701 17.7021 1.65894 16.955 1.89032C16.3611 1.89032 16.344 1.92613 14.9353 1.73056C13.5265 1.53498 10.2513 1.10802 9.09706 2.76077C8.24865 4.09398 7.3575 6.02219 7.50153 8.87455C12.3046 8.98129 18.1007 12.0733 17.9987 15.4855ZM11.5548 15.7713C11.5548 13.5587 9.8422 11.7648 7.72908 11.7648C5.61596 11.7648 3.90271 13.5587 3.90271 15.7713C3.90271 17.9839 5.61596 19.7772 7.72908 19.7772C9.8422 19.7772 11.5548 17.9839 11.5548 15.7713V15.7713ZM3.97111 22.6826C1.77775 22.6826 -0.000610352 24.5446 -0.000610352 26.8413C-0.000610352 29.1379 1.77775 31 3.97111 31C6.16447 31 7.94283 29.1379 7.94283 26.8413C7.94283 24.5446 6.16447 22.6826 3.97111 22.6826ZM9.00301 13.8562C8.16644 13.8562 7.48837 14.5662 7.48837 15.4422C7.48837 16.3181 8.16644 17.0281 9.00301 17.0281C9.83957 17.0281 10.5176 16.3181 10.5176 15.4422C10.5176 14.5662 9.83957 13.8562 9.00301 13.8562ZM9.00301 13.8562C8.16644 13.8562 7.48837 14.5662 7.48837 15.4422C7.48837 16.3181 8.16644 17.0281 9.00301 17.0281C9.83957 17.0281 10.5176 16.3181 10.5176 15.4422C10.5176 14.5662 9.83957 13.8562 9.00301 13.8562Z" fill="url(#paint0_linear_860_53)"/>
</g>
<defs>
<linearGradient id="paint0_linear_860_53" x1="8.99972" y1="9.15527e-05" x2="8.99972" y2="31" gradientUnits="userSpaceOnUse">
<stop stop-color="#005191"/>
<stop offset="1" stop-color="var(--primary)"/>
</linearGradient>
<clipPath id="clip0_860_53">
<rect width="18" height="31" fill="white"/>
</clipPath>
</defs>
</svg>
