<svg width="30" height="23" viewBox="0 0 30 23" fill="none" xmlns="http://www.w3.org/2000/svg">
<path d="M28.4629 18.4121L22.8965 2.78711C22.457 1.51758 21.2852 0.6875 19.918 0.6875H9.9082C8.54102 0.6875 7.36914 1.51758 6.92969 2.78711L1.36328 18.4121C0.630859 20.4629 2.14453 22.5625 4.29297 22.5625H25.5332C27.6816 22.5625 29.1953 20.4629 28.4629 18.4121ZM26.168 19.9258C26.0703 20.0234 25.875 20.2188 25.5332 20.2188H16.1094V19.0469C16.1094 18.4121 15.5723 17.875 14.9375 17.875C14.2539 17.875 13.7656 18.4121 13.7656 19.0469V20.2188H4.29297C3.95117 20.2188 3.75586 20.0234 3.6582 19.9258C3.56055 19.7793 3.46289 19.5352 3.56055 19.1934L9.12695 3.56836C9.27344 3.27539 9.56641 3.03125 9.9082 3.03125H13.7656V4.20312C13.7656 4.88672 14.2539 5.375 14.9375 5.375C15.5723 5.375 16.1094 4.88672 16.1094 4.20312V3.03125H19.918C20.2598 3.03125 20.5527 3.27539 20.6992 3.56836L26.2656 19.1934C26.3633 19.5352 26.2656 19.7793 26.168 19.9258ZM14.9375 8.5C14.2539 8.5 13.7656 9.03711 13.7656 9.67188V13.5781C13.7656 14.2617 14.2539 14.75 14.9375 14.75C15.5723 14.75 16.1094 14.2617 16.1094 13.5781V9.67188C16.1094 9.03711 15.5723 8.5 14.9375 8.5Z" fill="url(#paint0_linear_857_187)"/>
<defs>
<linearGradient id="paint0_linear_857_187" x1="14.5" y1="-1" x2="14.5" y2="24" gradientUnits="userSpaceOnUse">
<stop stop-color="#005191"/>
<stop offset="1" stop-color="var(--primary)"/>
</linearGradient>
</defs>
</svg>
