<svg width="32" height="24" viewBox="0 0 32 24" fill="none" xmlns="http://www.w3.org/2000/svg">
<path d="M31.1699 8.79297L28.582 6.20508C28.0449 5.66797 27.3613 5.375 26.6289 5.375H23.4062C22.5273 5.375 21.8438 6.10742 21.8438 6.9375V15.5312H13.25V15.5801C12.5664 15.0918 11.7852 14.75 10.9062 14.75C9.58789 14.75 8.46484 15.3848 7.78125 16.3613C7.04883 15.3848 5.92578 14.75 4.65625 14.75C2.45898 14.75 0.75 16.5078 0.75 18.6562C0.75 20.8535 2.45898 22.5625 4.65625 22.5625C5.92578 22.5625 7.04883 21.9766 7.78125 21C8.66016 22.2207 10.2227 22.9043 11.9316 22.4648C13.1523 22.123 14.1777 21.1953 14.5684 19.9746C14.8125 19.2422 14.8613 18.5586 14.7148 17.9238H22.6738C22.5273 18.5586 22.5762 19.2422 22.8203 19.9746C23.2109 21.1953 24.2852 22.1719 25.5547 22.4648C28.0938 23.0996 30.4375 21.1465 30.4375 18.7051C30.4375 18.4121 30.3887 18.168 30.3398 17.9238L30.4375 17.875C31.2676 17.875 32 17.1914 32 16.3125V10.7461C32 10.0137 31.707 9.33008 31.1699 8.79297ZM4.65625 20.2188C3.77734 20.2188 3.09375 19.5352 3.09375 18.6562C3.09375 17.8262 3.77734 17.0938 4.65625 17.0938C5.48633 17.0938 6.21875 17.8262 6.21875 18.6562C6.21875 19.4375 5.48633 20.2188 4.65625 20.2188ZM10.9062 20.2188C10.0273 20.2188 9.34375 19.5352 9.34375 18.6562C9.34375 17.8262 10.0273 17.0938 10.9062 17.0938C11.7363 17.0938 12.4688 17.8262 12.4688 18.6562C12.4688 19.4375 11.7363 20.2188 10.9062 20.2188ZM24.1875 7.71875H26.6289C26.7266 7.71875 26.8242 7.76758 26.9219 7.86523L29.168 10.0625H24.1875V7.71875ZM26.5312 20.2188C25.6523 20.2188 24.9688 19.5352 24.9688 18.6562C24.9688 17.8262 25.6523 17.1426 26.5312 17.1426C27.3613 17.1426 28.0938 17.875 28.0938 18.7051C28.0938 19.584 27.3613 20.2188 26.5312 20.2188ZM29.6562 15.5312H28.875V15.5801C28.1914 15.0918 27.4102 14.75 26.5312 14.75C25.6035 14.75 24.8223 15.0918 24.1875 15.5801V12.4062H29.6562V15.5312ZM1.92188 13.9688C2.55664 13.9688 3.09375 13.4805 3.09375 12.7969V3.42188C3.09375 3.22656 3.24023 3.03125 3.48438 3.03125H17.5469C17.7422 3.03125 17.9375 3.22656 17.9375 3.42188V12.7969C17.9375 13.4805 18.4258 13.9688 19.1094 13.9688C19.7441 13.9688 20.2812 13.4805 20.2812 12.7969V3.42188C20.2812 1.95703 19.0117 0.6875 17.5469 0.6875H3.48438C1.9707 0.6875 0.75 1.95703 0.75 3.42188V12.7969C0.75 13.4805 1.23828 13.9688 1.92188 13.9688ZM9.34375 5.375V11.625C9.34375 12.3086 9.83203 12.7969 10.5156 12.7969C11.1504 12.7969 11.6875 12.3086 11.6875 11.625V5.375C11.6875 4.74023 11.1504 4.20312 10.5156 4.20312C9.83203 4.20312 9.34375 4.74023 9.34375 5.375ZM13.6406 5.375V11.625C13.6406 12.3086 14.1289 12.7969 14.8125 12.7969C15.4473 12.7969 15.9844 12.3086 15.9844 11.625V5.375C15.9844 4.74023 15.4473 4.20312 14.8125 4.20312C14.1289 4.20312 13.6406 4.74023 13.6406 5.375ZM5.04688 5.375V11.625C5.04688 12.3086 5.53516 12.7969 6.21875 12.7969C6.85352 12.7969 7.39062 12.3086 7.39062 11.625V5.375C7.39062 4.74023 6.85352 4.20312 6.21875 4.20312C5.53516 4.20312 5.04688 4.74023 5.04688 5.375Z" fill="url(#paint0_linear_857_182)"/>
<defs>
<linearGradient id="paint0_linear_857_182" x1="16" y1="-1" x2="16" y2="24" gradientUnits="userSpaceOnUse">
<stop stop-color="#005191"/>
<stop offset="1" stop-color="var(--primary)"/>
</linearGradient>
</defs>
</svg>
